<svg width="127" height="64" viewBox="0 0 127 64" fill="none" xmlns="http://www.w3.org/2000/svg">
<g filter="url(#filter0_d_1_482)">
<path d="M26.1528 60L44.975 13.9556H20.3195V4H55.6306V13.9556L36.8861 60H26.1528Z" fill="white"/>
</g>
<path d="M121.776 43.5C122.976 43.5 123.934 43.8583 124.651 44.575C125.467 45.2917 125.876 46.2 125.876 47.3C125.876 48.1333 125.634 48.8583 125.151 49.475C124.984 49.7083 124.826 49.875 124.676 49.975C125.142 50.275 125.476 50.5833 125.676 50.9C125.959 51.2 126.176 51.5583 126.326 51.975C126.476 52.375 126.551 52.7833 126.551 53.2C126.551 53.75 126.434 54.2833 126.201 54.8C125.967 55.3 125.642 55.725 125.226 56.075C124.859 56.3917 124.451 56.625 124.001 56.775C123.551 56.925 123.084 57 122.601 57H115.226V43.525L121.776 43.5ZM117.276 49.4H121.776C122.426 49.4 122.942 49.1583 123.326 48.675C123.642 48.2917 123.801 47.8333 123.801 47.3C123.767 46.7833 123.609 46.3333 123.326 45.95C123.126 45.7 122.901 45.5167 122.651 45.4C122.417 45.2833 122.126 45.225 121.776 45.225H117.276V49.4ZM117.276 55.3H122.326C122.976 55.3 123.509 55.0917 123.926 54.675C124.292 54.2917 124.476 53.7667 124.476 53.1C124.476 52.6 124.292 52.15 123.926 51.75C123.676 51.4833 123.409 51.3083 123.126 51.225C122.859 51.1417 122.509 51.1 122.076 51.1H117.276V55.3Z" fill="white"/>
<path d="M111.477 39V41.175H109.452V39H111.477ZM111.477 43.5V57H109.452V43.5H111.477Z" fill="white"/>
<path d="M103.016 50.25L107.441 57L105.141 56.975L101.291 51.1H98.2912V57H96.2412V43.5H98.2912V49.4H101.266L104.916 43.5H107.216L103.016 50.25Z" fill="white"/>
<path d="M87.035 57.375C86.035 57.375 85.11 57.1917 84.26 56.825C83.41 56.4417 82.6933 55.8917 82.11 55.175C81.0933 53.8917 80.585 52.2417 80.585 50.225C80.585 48.225 81.0933 46.5917 82.11 45.325C82.6766 44.625 83.3933 44.0833 84.26 43.7C85.1266 43.3167 86.0516 43.125 87.035 43.125C88.0183 43.125 88.935 43.3167 89.785 43.7C90.6516 44.0667 91.3683 44.6083 91.935 45.325C92.9683 46.575 93.485 48.2083 93.485 50.225C93.485 52.225 92.9683 53.875 91.935 55.175C91.3683 55.9083 90.66 56.4583 89.81 56.825C88.9766 57.1917 88.0516 57.375 87.035 57.375ZM90.335 53.925C91.0016 53.0417 91.335 51.8083 91.335 50.225C91.335 48.6583 91.0016 47.4333 90.335 46.55C89.9683 46.0667 89.4933 45.7 88.91 45.45C88.3266 45.1833 87.7016 45.05 87.035 45.05C86.3683 45.05 85.7433 45.1833 85.16 45.45C84.5766 45.7 84.11 46.0667 83.76 46.55C83.0766 47.4333 82.735 48.6583 82.735 50.225C82.735 51.8083 83.0766 53.0417 83.76 53.925C84.11 54.4083 84.5766 54.7833 85.16 55.05C85.7433 55.3167 86.3683 55.45 87.035 55.45C87.7016 55.45 88.3266 55.3167 88.91 55.05C89.4933 54.7833 89.9683 54.4083 90.335 53.925Z" fill="white"/>
<path d="M77.1053 45.3C78.0886 46.55 78.5803 48.1917 78.5803 50.225C78.5803 52.2917 78.0886 53.95 77.1053 55.2C76.5553 55.9 75.8719 56.4417 75.0553 56.825C74.2386 57.1917 73.3636 57.375 72.4303 57.375C71.5469 57.375 70.7303 57.225 69.9803 56.925C69.2469 56.6083 68.6136 56.1583 68.0803 55.575V63H66.0303V43.5H67.8553V45.2C68.3886 44.55 69.0636 44.0417 69.8803 43.675C70.6969 43.3083 71.5553 43.125 72.4553 43.125C73.3886 43.125 74.2553 43.3167 75.0553 43.7C75.8719 44.0667 76.5553 44.6 77.1053 45.3ZM75.4553 53.925C76.1053 53.075 76.4303 51.8417 76.4303 50.225C76.4303 48.6583 76.1053 47.425 75.4553 46.525C75.0886 46.0083 74.6136 45.625 74.0303 45.375C73.4636 45.125 72.8303 45 72.1303 45C71.4636 45 70.8553 45.125 70.3053 45.375C69.7553 45.6083 69.2969 45.9583 68.9303 46.425C68.2136 47.325 67.8553 48.5917 67.8553 50.225C67.8553 51.875 68.2136 53.15 68.9303 54.05C69.2969 54.5167 69.7636 54.875 70.3303 55.125C70.9136 55.375 71.5303 55.5 72.1803 55.5C72.8303 55.5 73.4469 55.3667 74.0303 55.1C74.6136 54.8333 75.0886 54.4417 75.4553 53.925Z" fill="white"/>
<path d="M59.8443 50.25L64.2693 57L61.9693 56.975L58.1193 51.1H55.1193V57H53.0693V43.5H55.1193V49.4H58.0943L61.7443 43.5H64.0443L59.8443 50.25Z" fill="white"/>
<path d="M16.7558 46.3118C16.8317 46.0154 16.9087 45.7877 16.9869 45.6287C17.6891 43.8704 19.0866 42.7109 21.1794 42.1501C22.419 41.8179 23.5623 41.7704 24.6094 42.0075C25.6521 42.2285 26.5304 42.7696 27.2443 43.6308C27.7679 44.2325 28.144 44.9599 28.3726 45.8132L30.5596 53.9752L28.8209 54.4411L28.1286 51.8573C28.024 52.3684 27.8142 52.8733 27.4991 53.3718C27.1841 53.8703 26.8233 54.2948 26.4169 54.6453C25.4527 55.4903 24.3986 56.0316 23.2544 56.2691C22.5857 56.4138 21.9045 56.4152 21.2108 56.2732C20.5128 56.1151 19.9198 55.834 19.4319 55.4299C19.0665 55.0964 18.7698 54.7618 18.5418 54.4261C18.3138 54.0903 18.1394 53.697 18.0186 53.2463C17.8374 52.5701 17.8382 51.897 18.021 51.2268C18.2038 50.5567 18.5434 49.9567 19.0399 49.4268C19.5053 48.9743 20.0024 48.6081 20.5314 48.3283C21.0603 48.0486 21.8264 47.688 22.8297 47.2466L23.5943 46.9124L26.2018 45.8254C25.8358 44.9745 25.2843 44.3976 24.5475 44.0946C23.7612 43.7359 22.7965 43.7097 21.6535 44.016C21.0256 44.1842 20.4763 44.4522 20.0054 44.8199C19.5302 45.1716 19.192 45.6159 18.9908 46.1529C18.9362 46.2711 18.8704 46.444 18.7934 46.6717L16.7558 46.3118ZM23.6932 48.827C22.7983 49.2221 22.0746 49.5799 21.522 49.9005C20.9695 50.2211 20.5314 50.6146 20.2078 51.0809C19.8959 51.5268 19.8219 52.0556 19.9858 52.6674C20.1454 53.263 20.5212 53.7317 21.1132 54.0735C21.7008 54.3992 22.3413 54.5036 23.0347 54.3869C23.1195 54.3814 23.2505 54.3549 23.4276 54.3075C24.2808 54.0789 25.0554 53.6211 25.7513 52.9342C26.4473 52.2474 26.8688 51.4701 27.0159 50.6025C27.1119 50.0591 27.128 49.5717 27.0641 49.1402C27.0163 48.7044 26.9019 48.1484 26.7207 47.4722L23.6932 48.827Z" fill="white"/>
<path d="M1.52171 47.081C1.40924 46.4037 1.45676 45.744 1.66427 45.1017C1.88788 44.4551 2.23396 43.8793 2.70252 43.3741C3.49274 42.524 4.64449 41.8961 6.15778 41.4907C7.68716 41.0809 8.99852 41.0487 10.0919 41.3942C10.9006 41.6433 11.5704 42.0505 12.1015 42.6156C12.6282 43.1647 12.9972 43.8336 13.2086 44.6225C13.3682 45.2181 13.4065 45.8118 13.3235 46.4034C13.2404 46.9951 13.0333 47.5423 12.7022 48.0452C12.5372 48.3309 12.3159 48.6318 12.0382 48.9478C12.5945 49.0921 13.1182 49.34 13.6092 49.6915C14.156 49.9936 14.6117 50.4064 14.9763 50.9299C15.3527 51.4329 15.6271 52.0065 15.7997 52.6504C16.0326 53.5197 16.0691 54.3641 15.909 55.1834C15.7446 55.9867 15.3869 56.7123 14.8359 57.3604C13.9439 58.4103 12.6688 59.1575 11.0106 59.6018C9.33636 60.0504 7.8666 60.0387 6.60134 59.5668C5.91825 59.3357 5.31982 58.9698 4.80605 58.469C4.29227 57.9683 3.90023 57.3745 3.62994 56.6877L5.56132 55.782C5.73472 56.2359 5.96977 56.6302 6.26648 56.9648C6.57929 57.2951 6.93709 57.5357 7.33987 57.6866C7.79957 57.8567 8.30641 57.9452 8.8604 57.9521C9.41438 57.9589 9.96505 57.889 10.5124 57.7424C11.7273 57.3823 12.6338 56.8375 13.232 56.1078C13.5568 55.7102 13.7555 55.2601 13.8279 54.7576C13.9164 54.2507 13.8814 53.7338 13.7229 53.2069C13.5967 52.6713 13.3685 52.2062 13.0385 51.8115C12.7245 51.4125 12.3296 51.1301 11.8538 50.9642C10.9623 50.5992 9.90477 50.5806 8.68126 50.9084L7.40141 51.2514L6.89024 49.3437L8.1701 49.0007C9.23261 48.716 10.0416 48.2577 10.5969 47.6258C10.8864 47.2894 11.0781 46.9102 11.1721 46.4881C11.2661 46.0661 11.2526 45.6297 11.1319 45.1789C11.0154 44.7443 10.811 44.3677 10.5186 44.0492C10.2219 43.7146 9.86621 43.482 9.45165 43.3515C8.61821 43.0745 7.68633 43.074 6.656 43.3501C5.60958 43.6304 4.8028 44.0968 4.23565 44.7492C3.96975 45.0447 3.79139 45.3772 3.70058 45.7466C3.60545 46.1 3.59356 46.4741 3.66489 46.8691L1.52171 47.081Z" fill="white"/>
<defs>
<filter id="filter0_d_1_482" x="12.3195" y="0" width="43.3112" height="64" filterUnits="userSpaceOnUse" color-interpolation-filters="sRGB">
<feFlood flood-opacity="0" result="BackgroundImageFix"/>
<feColorMatrix in="SourceAlpha" type="matrix" values="0 0 0 0 0 0 0 0 0 0 0 0 0 0 0 0 0 0 127 0" result="hardAlpha"/>
<feOffset dx="-4"/>
<feGaussianBlur stdDeviation="2"/>
<feComposite in2="hardAlpha" operator="out"/>
<feColorMatrix type="matrix" values="0 0 0 0 0.758111 0 0 0 0 0.221652 0 0 0 0 0.444264 0 0 0 0.44 0"/>
<feBlend mode="normal" in2="BackgroundImageFix" result="effect1_dropShadow_1_482"/>
<feBlend mode="normal" in="SourceGraphic" in2="effect1_dropShadow_1_482" result="shape"/>
</filter>
</defs>
</svg>
