<svg width="472" height="473" viewBox="0 0 472 473" fill="none" xmlns="http://www.w3.org/2000/svg">
<g filter="url(#filter0_d_103_626)">
<rect x="24" y="16.7324" width="424" height="424" rx="16" fill="#6729FF"/>
<rect x="29" y="21.7324" width="414" height="414" rx="11" stroke="#6729FF" stroke-width="10"/>
</g>
<rect x="96" y="342.292" width="280" height="40" rx="20" fill="#FF6CA9"/>
<path d="M134.003 354.789C134.003 354.511 134.081 354.238 134.227 354.001C134.373 353.764 134.583 353.572 134.832 353.448C135.081 353.323 135.36 353.271 135.638 353.296C135.915 353.321 136.18 353.422 136.403 353.589L148.4 362.592C149.552 363.456 148.94 365.292 147.5 365.292H141.579C141.35 365.292 141.123 365.345 140.917 365.446C140.71 365.548 140.53 365.695 140.39 365.877L136.691 370.7C135.819 371.837 134.001 371.22 134.001 369.786L134.003 354.789Z" fill="white"/>
<path d="M180 357.292H196M180 367.292H196M183 354.292V370.292M193 354.292V370.292" stroke="white" stroke-width="1.33333" stroke-linecap="round" stroke-linejoin="round"/>
<path d="M228 356.292C228 355.188 228.895 354.292 230 354.292H242C243.105 354.292 244 355.188 244 356.292V368.292C244 369.397 243.105 370.292 242 370.292H230C228.895 370.292 228 369.397 228 368.292V356.292ZM231.6 355.892C230.495 355.892 229.6 356.788 229.6 357.892V366.692C229.6 367.797 230.495 368.692 231.6 368.692H240.4C241.505 368.692 242.4 367.797 242.4 366.692V357.892C242.4 356.788 241.505 355.892 240.4 355.892H231.6Z" fill="white"/>
<path d="M285.716 369.407L280.091 354.407C280.017 354.211 279.885 354.041 279.712 353.922C279.54 353.802 279.335 353.738 279.125 353.738C278.915 353.738 278.71 353.802 278.538 353.922C278.365 354.041 278.233 354.211 278.159 354.407L272.534 369.407C272.441 369.663 272.453 369.944 272.567 370.191C272.68 370.438 272.887 370.63 273.141 370.726C273.396 370.821 273.678 370.812 273.926 370.701C274.174 370.589 274.368 370.385 274.466 370.131L276.161 365.611C276.167 365.593 276.179 365.578 276.195 365.567C276.211 365.556 276.229 365.55 276.248 365.55H282.002C282.021 365.55 282.039 365.556 282.055 365.567C282.071 365.578 282.083 365.593 282.089 365.611L283.784 370.131C283.882 370.385 284.076 370.589 284.324 370.701C284.572 370.812 284.854 370.821 285.108 370.726C285.363 370.63 285.57 370.438 285.683 370.191C285.797 369.944 285.809 369.663 285.716 369.407ZM277.004 363.36L279.037 357.939C279.044 357.921 279.056 357.906 279.072 357.895C279.087 357.884 279.106 357.879 279.125 357.879C279.144 357.879 279.163 357.884 279.178 357.895C279.194 357.906 279.206 357.921 279.213 357.939L281.246 363.361C281.251 363.375 281.253 363.391 281.251 363.406C281.249 363.421 281.243 363.435 281.235 363.447C281.226 363.46 281.215 363.47 281.201 363.477C281.188 363.484 281.173 363.488 281.158 363.488H277.092C277.077 363.488 277.062 363.484 277.049 363.477C277.035 363.47 277.024 363.46 277.015 363.447C277.006 363.435 277.001 363.421 276.999 363.406C276.997 363.391 276.999 363.375 277.004 363.361V363.36ZM290.786 358.238C288.83 358.224 287.079 359.357 286.333 361.116C286.226 361.368 286.223 361.652 286.326 361.905C286.428 362.159 286.627 362.361 286.879 362.468C287.131 362.575 287.415 362.578 287.668 362.475C287.922 362.373 288.124 362.174 288.231 361.922C288.648 360.943 289.627 360.308 290.731 360.3C292.246 360.29 293.469 361.542 293.469 363.059C293.469 363.077 293.462 363.095 293.449 363.108C293.436 363.121 293.419 363.129 293.401 363.129C292.373 363.158 291.154 363.226 290.067 363.354C287.501 363.656 285.969 365.055 285.969 367.097C285.969 368.184 286.379 369.16 287.125 369.848C287.825 370.492 288.781 370.847 289.812 370.847C291.266 370.847 292.517 370.472 293.466 369.759H293.469C293.468 369.894 293.494 370.028 293.545 370.154C293.597 370.279 293.672 370.393 293.768 370.489C293.863 370.585 293.976 370.662 294.101 370.714C294.226 370.767 294.36 370.794 294.495 370.794C294.631 370.795 294.765 370.769 294.89 370.718C295.016 370.666 295.13 370.591 295.226 370.496C295.322 370.4 295.399 370.287 295.451 370.162C295.503 370.037 295.531 369.903 295.531 369.768V363.065C295.531 360.431 293.422 358.257 290.786 358.238ZM289.812 368.785C288.991 368.785 288.031 368.343 288.031 367.097C288.031 366.597 288.211 366.247 288.614 365.961C289.006 365.683 289.608 365.485 290.308 365.403C291.298 365.286 292.409 365.222 293.361 365.193C293.374 365.193 293.387 365.196 293.398 365.201C293.41 365.206 293.421 365.213 293.429 365.222C293.438 365.231 293.445 365.242 293.449 365.254C293.454 365.266 293.456 365.279 293.455 365.292C293.328 367.641 292.131 368.785 289.812 368.785Z" fill="white"/>
<path d="M323 353.292V352.042C322.31 352.042 321.75 352.602 321.75 353.292H323ZM338.293 364.585L337.154 364.07C337.049 364.302 337.018 364.56 337.063 364.81C337.109 365.06 337.229 365.29 337.409 365.469L338.293 364.585ZM341 367.292L341.884 368.176C342 368.06 342.092 367.923 342.155 367.771C342.218 367.619 342.25 367.457 342.25 367.292C342.25 367.128 342.218 366.966 342.155 366.814C342.092 366.662 342 366.525 341.884 366.408L341 367.292ZM337 371.292L336.116 372.176C336.232 372.293 336.37 372.385 336.522 372.448C336.673 372.51 336.836 372.543 337 372.543C337.164 372.543 337.327 372.51 337.478 372.448C337.63 372.385 337.768 372.293 337.884 372.176L337 371.292ZM334.293 368.585L335.177 367.701C334.997 367.522 334.767 367.401 334.517 367.355C334.267 367.31 334.009 367.342 333.777 367.446L334.293 368.585ZM331 352.042H323V354.542H331V352.042ZM340.25 361.292C340.25 360.078 340.011 358.875 339.546 357.753C339.081 356.63 338.4 355.611 337.541 354.752C336.682 353.893 335.662 353.211 334.54 352.747C333.418 352.282 332.215 352.042 331 352.042V354.542C332.79 354.542 334.507 355.254 335.773 356.52C337.039 357.785 337.75 359.502 337.75 361.292H340.25ZM339.432 365.1C339.973 363.904 340.252 362.606 340.25 361.292H337.75C337.752 362.25 337.548 363.198 337.154 364.07L339.432 365.1ZM337.409 365.469L340.116 368.176L341.884 366.408L339.177 363.701L337.409 365.469ZM340.116 366.409L336.116 370.409L337.884 372.176L341.884 368.176L340.116 366.409ZM337.884 370.409L335.177 367.701L333.409 369.469L336.116 372.176L337.884 370.409ZM331 370.542C332.313 370.544 333.611 370.265 334.808 369.724L333.777 367.446C332.904 367.841 331.958 368.044 331 368.042V370.542ZM321.75 361.292C321.75 363.746 322.725 366.099 324.459 367.833C326.194 369.568 328.547 370.542 331 370.542V368.042C329.21 368.042 327.493 367.331 326.227 366.065C324.961 364.8 324.25 363.083 324.25 361.292H321.75ZM321.75 353.292V361.292H324.25V353.292H321.75Z" fill="white"/>
<path d="M331 359.292C329.895 359.292 329 360.188 329 361.292C329 362.397 329.895 363.292 331 363.292C332.105 363.292 333 362.397 333 361.292C333 360.188 332.105 359.292 331 359.292Z" fill="white"/>
<path d="M323 353.292L331 361.292" stroke="white" stroke-linecap="round" stroke-linejoin="round"/>
<path d="M345.212 201.653C345.212 201.365 345.292 201.083 345.443 200.837C345.595 200.592 345.812 200.394 346.07 200.265C346.327 200.136 346.616 200.082 346.903 200.107C347.19 200.133 347.464 200.239 347.695 200.412L360.109 209.728C361.301 210.622 360.668 212.521 359.178 212.521H353.051C352.814 212.521 352.579 212.576 352.366 212.681C352.152 212.786 351.966 212.938 351.821 213.127L347.993 218.117C347.091 219.293 345.21 218.655 345.21 217.172L345.212 201.653Z" fill="#FF6CA9"/>
<path d="M217.265 165.823C217.265 172.981 213.546 178.783 208.957 178.783C204.369 178.783 200.649 172.981 200.649 165.823C200.649 158.665 204.369 152.862 208.957 152.862C213.546 152.862 217.265 158.665 217.265 165.823Z" fill="white"/>
<path fill-rule="evenodd" clip-rule="evenodd" d="M213.436 174.081C214.741 172.043 215.604 169.129 215.604 165.823C215.604 162.517 214.741 159.602 213.436 157.565C212.119 155.511 210.497 154.535 208.957 154.535C207.417 154.535 205.796 155.511 204.479 157.565C203.173 159.602 202.311 162.517 202.311 165.823C202.311 169.129 203.173 172.043 204.479 174.081C205.796 176.135 207.417 177.111 208.957 177.111C210.497 177.111 212.119 176.135 213.436 174.081ZM208.957 178.783C213.546 178.783 217.265 172.981 217.265 165.823C217.265 158.665 213.546 152.862 208.957 152.862C204.369 152.862 200.649 158.665 200.649 165.823C200.649 172.981 204.369 178.783 208.957 178.783Z" fill="#0C120F"/>
<path d="M207.96 165.823C207.96 167.842 206.324 169.478 204.305 169.478C202.286 169.478 200.649 167.842 200.649 165.823C200.649 163.804 202.286 162.167 204.305 162.167C206.324 162.167 207.96 163.804 207.96 165.823Z" fill="white"/>
<path fill-rule="evenodd" clip-rule="evenodd" d="M204.305 167.854C205.426 167.854 206.336 166.945 206.336 165.823C206.336 164.701 205.426 163.792 204.305 163.792C203.183 163.792 202.274 164.701 202.274 165.823C202.274 166.945 203.183 167.854 204.305 167.854ZM204.305 169.478C206.324 169.478 207.96 167.842 207.96 165.823C207.96 163.804 206.324 162.167 204.305 162.167C202.286 162.167 200.649 163.804 200.649 165.823C200.649 167.842 202.286 169.478 204.305 169.478Z" fill="#0C120F"/>
<path d="M230.916 165.823C230.916 173.715 226.899 180.113 221.943 180.113C216.988 180.113 212.971 173.715 212.971 165.823C212.971 157.931 216.988 151.533 221.943 151.533C226.899 151.533 230.916 157.931 230.916 165.823Z" fill="white"/>
<path d="M230.916 165.823C230.916 172.981 227.196 178.783 222.608 178.783C218.019 178.783 214.3 172.981 214.3 165.823C214.3 158.665 218.019 152.863 222.608 152.863C227.196 152.863 230.916 158.665 230.916 165.823Z" fill="white"/>
<path fill-rule="evenodd" clip-rule="evenodd" d="M227.086 174.081C228.392 172.044 229.254 169.129 229.254 165.823C229.254 162.517 228.392 159.602 227.086 157.565C225.769 155.511 224.148 154.535 222.608 154.535C221.068 154.535 219.446 155.511 218.129 157.565C216.823 159.602 215.961 162.517 215.961 165.823C215.961 169.129 216.823 172.044 218.129 174.081C219.446 176.135 221.068 177.111 222.608 177.111C224.148 177.111 225.769 176.135 227.086 174.081ZM222.608 178.783C227.196 178.783 230.916 172.981 230.916 165.823C230.916 158.665 227.196 152.863 222.608 152.863C218.019 152.863 214.3 158.665 214.3 165.823C214.3 172.981 218.019 178.783 222.608 178.783Z" fill="#0C120F"/>
<path d="M221.611 165.823C221.611 167.842 219.974 169.478 217.955 169.478C215.936 169.478 214.3 167.842 214.3 165.823C214.3 163.804 215.936 162.167 217.955 162.167C219.974 162.167 221.611 163.804 221.611 165.823Z" fill="white"/>
<path fill-rule="evenodd" clip-rule="evenodd" d="M217.955 167.854C219.077 167.854 219.986 166.945 219.986 165.823C219.986 164.701 219.077 163.792 217.955 163.792C216.834 163.792 215.924 164.701 215.924 165.823C215.924 166.945 216.834 167.854 217.955 167.854ZM217.955 169.478C219.974 169.478 221.611 167.842 221.611 165.823C221.611 163.804 219.974 162.167 217.955 162.167C215.936 162.167 214.3 163.804 214.3 165.823C214.3 167.842 215.936 169.478 217.955 169.478Z" fill="#0C120F"/>
<path d="M303.844 209.363C302.426 209.214 301.12 209.065 299.926 208.917C298.807 208.768 297.725 208.508 296.68 208.137C295.71 207.691 294.74 207.133 293.77 206.465C292.8 205.722 291.83 204.756 290.86 203.567L291.419 193.982C292.763 195.468 293.882 196.657 294.777 197.548C295.673 198.366 296.456 199.034 297.128 199.554C297.874 200 298.62 200.335 299.367 200.558C300.113 200.706 300.971 200.818 301.941 200.892C307.165 200.743 311.306 198.217 314.366 193.313C317.425 188.409 319.403 180.57 320.298 169.796C319.552 172.396 318.656 175.22 317.612 178.266C316.567 181.238 315.298 183.988 313.806 186.514C312.313 189.04 310.56 191.158 308.545 192.867C306.53 194.502 304.18 195.319 301.493 195.319C300.896 195.319 300.374 195.319 299.926 195.319C299.553 195.319 299.105 195.245 298.583 195.096C295.076 194.279 292.651 192.756 291.307 190.526C289.964 188.223 289.293 185.511 289.293 182.39C289.293 179.938 289.554 177.486 290.076 175.034C290.673 172.582 291.345 170.167 292.091 167.789C292.912 165.412 293.733 162.997 294.553 160.545C295.449 158.093 296.195 155.641 296.792 153.189C295.971 154.006 295.039 155.12 293.994 156.532C293.024 157.944 291.942 159.765 290.748 161.994C289.554 164.223 288.285 166.972 286.942 170.241C285.599 173.511 284.256 177.412 282.912 181.944V162.439C283.062 160.879 283.733 158.91 284.927 156.532C286.121 154.08 287.576 151.74 289.293 149.511C291.009 147.281 292.874 145.349 294.889 143.715C296.904 142.08 298.844 141.263 300.71 141.263C302.799 141.263 304.292 141.783 305.187 142.823C306.157 143.863 306.642 145.349 306.642 147.281C306.642 150.105 306.232 152.929 305.411 155.752C304.665 158.501 303.807 161.213 302.836 163.888C301.866 166.712 301.008 169.498 300.262 172.248C299.516 174.923 299.143 177.709 299.143 180.607C299.143 183.207 300.038 184.508 301.829 184.508C305.038 184.508 307.948 180.83 310.56 173.474C313.172 166.118 315.97 155.529 318.955 141.709H329.476V158.984C329.476 166.415 328.954 173.214 327.909 179.381C326.939 185.548 325.41 190.861 323.32 195.319C321.305 199.777 318.656 203.232 315.373 205.685C312.164 208.137 308.321 209.363 303.844 209.363Z" fill="white"/>
<path d="M252.555 157.816C252.555 160.334 253.672 163.148 255.904 166.259C258.21 169.295 261.707 172.591 266.395 176.146C276.067 183.404 280.904 190.514 280.904 197.476C280.904 199.698 280.494 201.549 279.676 203.03C278.932 204.512 277.927 205.734 276.663 206.696C275.398 207.659 273.91 208.363 272.198 208.807C270.561 209.177 268.813 209.363 266.953 209.363C260.926 209.363 255.383 207.844 250.323 204.808C245.264 201.771 240.8 197.809 236.931 192.921L236.931 172.924C237.898 175.664 239.46 178.479 241.618 181.367C243.85 184.182 246.305 186.811 248.984 189.255C251.663 191.625 254.341 193.587 257.02 195.143C259.773 196.698 262.191 197.513 264.274 197.587C267.325 197.513 268.85 196.402 268.85 194.254C268.85 193.291 268.478 192.217 267.734 191.032C266.99 189.847 266.023 188.588 264.832 187.255C263.716 185.922 262.451 184.552 261.038 183.145C259.624 181.738 258.21 180.404 256.797 179.145L254.899 177.368C253.114 175.739 251.402 174.035 249.765 172.258C248.128 170.48 246.64 168.666 245.301 166.814C244.036 164.888 242.995 162.926 242.176 160.926C241.432 158.852 241.06 156.779 241.06 154.705C241.06 152.853 241.395 151.113 242.064 149.484C242.808 147.854 243.813 146.447 245.078 145.262C246.417 144.003 247.942 143.04 249.654 142.374C251.439 141.633 253.374 141.263 255.457 141.263C257.169 141.263 258.88 141.559 260.591 142.151C262.377 142.744 264.051 143.559 265.613 144.596C267.176 145.558 268.59 146.706 269.855 148.039C271.194 149.373 272.273 150.817 273.091 152.372V141.707H282.912V168.814L273.426 173.924V172.258C272.979 170.406 272.235 168.406 271.194 166.259C270.227 164.037 268.999 161.963 267.511 160.037C266.097 158.112 264.497 156.519 262.712 155.26C260.926 153.927 258.991 153.261 256.908 153.261C255.494 153.261 254.416 153.742 253.672 154.705C252.927 155.668 252.555 156.705 252.555 157.816Z" fill="white"/>
<path d="M204.605 209.363C202.025 209.363 199.812 208.919 197.969 208.032C196.126 207.07 194.577 205.776 193.324 204.15C192.144 202.523 191.259 200.601 190.669 198.382C190.079 196.164 189.784 193.798 189.784 191.284C189.784 188.474 190.264 185.96 191.222 183.742C192.181 181.45 193.508 179.49 195.204 177.864C196.974 176.237 199.075 175.017 201.508 174.204C203.942 173.316 206.67 172.873 209.693 172.873C213.232 172.873 216.919 173.612 220.753 175.091C221.122 173.612 221.417 171.763 221.638 169.545C221.859 167.327 221.97 165.035 221.97 162.669C221.97 161.338 221.859 160.044 221.638 158.787C221.491 157.53 221.196 156.458 220.753 155.57C220.311 154.609 219.721 153.833 218.984 153.241C218.32 152.65 217.472 152.354 216.44 152.354C213.048 152.354 209.582 154.313 206.043 158.232C202.504 162.151 198.522 167.808 194.098 175.202V160.007C196.163 156.606 198.153 153.722 200.071 151.356C201.988 148.99 203.942 147.067 205.933 145.588C207.923 144.036 209.988 142.926 212.126 142.261C214.265 141.595 216.55 141.263 218.984 141.263C221.564 141.263 223.703 141.891 225.399 143.148C227.095 144.405 228.459 146.032 229.491 148.028C230.523 150.025 231.224 152.317 231.592 154.905C232.035 157.419 232.256 159.933 232.256 162.447C232.256 165.7 232.072 168.917 231.703 172.096C231.408 175.276 230.892 177.938 230.155 180.082C231.261 180.969 232.33 181.93 233.362 182.966C234.468 183.927 235.464 185.073 236.348 186.404L236.348 200.046C234.947 197.976 233.141 195.868 230.929 193.724C228.717 191.506 226.32 189.509 223.74 187.735C221.233 185.886 218.652 184.37 215.997 183.187C213.417 182.004 211.057 181.413 208.919 181.413C207.002 181.413 205.379 181.709 204.052 182.3C202.725 182.818 201.619 183.557 200.734 184.518C199.923 185.48 199.296 186.552 198.854 187.735C198.485 188.918 198.301 190.138 198.301 191.395C198.301 193.391 198.891 195.018 200.071 196.275C201.324 197.532 202.946 198.16 204.937 198.16C208.771 198.16 211.721 196.977 213.785 194.611C215.85 192.245 217.288 189.103 218.099 185.184C219.5 185.997 220.901 186.921 222.302 187.957C223.703 188.992 225.177 190.138 226.726 191.395C226.136 194.057 225.104 196.497 223.629 198.715C222.228 200.933 220.495 202.819 218.431 204.372C216.44 205.924 214.228 207.144 211.794 208.032C209.435 208.919 207.039 209.363 204.605 209.363Z" fill="white"/>
<path d="M166.113 176.607C166.336 176.681 166.966 176.719 168.003 176.719C169.484 176.719 171.04 176.458 172.67 175.938C174.3 175.418 175.449 174.674 176.115 173.708C175.3 172.89 174.263 172.296 173.004 171.924C171.818 171.553 170.67 171.367 169.559 171.367C168.299 171.367 167.003 171.664 165.669 172.259C164.335 172.853 163.076 173.671 161.891 174.712C160.779 174.266 159.557 173.597 158.223 172.705C156.964 171.813 155.889 170.846 155 169.806C157.075 167.65 159.372 166.015 161.891 164.9C164.484 163.785 167.151 163.227 169.892 163.227C173.004 163.227 175.893 164.008 178.56 165.569C181.227 167.13 183.302 169.546 184.784 172.816C184.635 174.674 184.08 176.384 183.117 177.945C182.153 179.432 180.894 180.732 179.338 181.847C177.856 182.962 176.152 183.854 174.226 184.523C172.3 185.118 170.299 185.415 168.225 185.415C166.076 185.415 163.965 185.192 161.891 184.746C159.816 184.3 157.927 183.557 156.223 182.516C155.186 184.003 154.556 185.415 154.334 186.753C154.111 188.017 154 189.318 154 190.656C154 194.001 155.26 196.714 157.779 198.795C160.298 200.802 163.483 201.805 167.336 201.805C168.966 201.805 170.559 201.582 172.115 201.136C173.67 200.69 175.041 199.984 176.226 199.018C177.486 197.977 178.486 196.676 179.227 195.115C179.968 193.48 180.338 191.51 180.338 189.206C180.338 188.835 180.338 188.426 180.338 187.98C180.338 187.459 180.264 186.976 180.116 186.53L189.562 187.199V208.941H180.561V204.258C178.857 206.265 176.56 207.715 173.67 208.607C170.781 209.499 167.706 209.945 164.447 209.945C161.557 209.945 158.816 209.573 156.223 208.83C153.63 208.012 151.37 206.86 149.444 205.373C147.592 203.812 146.11 201.917 144.999 199.687C143.887 197.457 143.332 194.855 143.332 191.882C143.332 188.537 143.739 185.675 144.554 183.297C145.443 180.844 146.814 178.577 148.666 176.496C146.443 174.117 144.962 171.813 144.221 169.583C143.554 167.279 143.22 164.565 143.22 161.444C143.22 158.693 143.702 156.129 144.665 153.75C145.628 151.297 146.962 149.142 148.666 147.283C150.37 145.425 152.407 143.976 154.778 142.935C157.223 141.82 159.89 141.263 162.78 141.263C165.224 141.263 167.299 141.523 169.003 142.043C170.707 142.563 172.152 143.27 173.337 144.162C174.522 145.054 175.449 146.131 176.115 147.395C176.856 148.584 177.523 149.885 178.116 151.297C178.412 150.48 178.708 149.513 179.005 148.398C179.375 147.283 179.709 146.243 180.005 145.277C180.301 144.236 180.524 143.381 180.672 142.712C180.894 141.969 181.005 141.56 181.005 141.486H189.784L185.45 161.555L173.115 159.771C172.3 156.946 170.929 154.94 169.003 153.75C167.151 152.561 165.15 151.966 163.002 151.966C161.298 151.966 159.742 152.264 158.334 152.858C157.001 153.453 155.815 154.271 154.778 155.311C153.815 156.278 153.037 157.43 152.444 158.768C151.926 160.031 151.666 161.406 151.666 162.893C151.666 164.826 152.074 166.572 152.889 168.133C153.704 169.694 154.778 171.069 156.112 172.259C157.445 173.374 158.964 174.34 160.668 175.158C162.446 175.901 164.261 176.384 166.113 176.607Z" fill="white"/>
<path d="M318.196 128.2C318.339 128.343 318.482 128.487 318.625 128.63C318.787 128.755 318.921 128.836 319.028 128.872C319.1 127.815 319.297 126.794 319.619 125.809C319.942 124.806 320.372 123.929 320.909 123.177C321.446 122.406 322.082 121.798 322.816 121.35C323.55 120.884 324.374 120.651 325.288 120.651C326.165 120.651 326.882 120.911 327.437 121.43C328.01 121.95 328.296 122.729 328.296 123.768C328.296 124.806 328.117 125.818 327.759 126.803C327.401 127.77 326.899 128.63 326.255 129.382C325.61 130.134 324.849 130.734 323.971 131.182C323.094 131.63 322.136 131.854 321.097 131.854C320.703 131.854 320.237 131.8 319.7 131.692C319.181 131.567 318.679 131.37 318.196 131.101V128.2ZM321.204 132.015C321.348 132.695 321.589 133.268 321.93 133.734C322.288 134.2 322.7 134.433 323.165 134.433C323.971 134.433 324.706 134.2 325.368 133.734C326.049 133.268 326.649 132.686 327.168 131.988C327.687 131.289 328.126 130.546 328.484 129.758C328.861 128.952 329.156 128.227 329.371 127.582V131.37C329.281 132.176 329.04 132.928 328.646 133.627C328.252 134.325 327.768 134.934 327.195 135.453C326.64 135.973 326.022 136.385 325.341 136.689C324.661 136.976 323.998 137.119 323.353 137.119C322.87 137.119 322.368 137.002 321.849 136.77C321.348 136.537 320.882 136.197 320.452 135.749C320.04 135.283 319.7 134.71 319.431 134.03C319.163 133.349 319.028 132.561 319.028 131.666C319.422 131.809 319.772 131.907 320.076 131.961C320.398 131.997 320.774 132.015 321.204 132.015ZM324.697 123.257C324.141 123.347 323.658 123.571 323.246 123.929C322.852 124.269 322.521 124.708 322.252 125.245C321.983 125.782 321.777 126.391 321.634 127.072C321.491 127.752 321.392 128.451 321.339 129.167C322.145 129.131 322.834 128.961 323.407 128.657C323.98 128.334 324.446 127.949 324.804 127.502C325.18 127.054 325.449 126.579 325.61 126.078C325.789 125.558 325.879 125.066 325.879 124.6C325.879 123.651 325.485 123.203 324.697 123.257Z" fill="white"/>
<path d="M301.647 128.2C301.79 128.343 301.934 128.487 302.077 128.63C302.238 128.755 302.372 128.836 302.48 128.872C302.551 127.815 302.748 126.794 303.071 125.809C303.393 124.806 303.823 123.929 304.36 123.177C304.897 122.406 305.533 121.798 306.268 121.35C307.002 120.884 307.826 120.651 308.739 120.651C309.617 120.651 310.333 120.911 310.888 121.43C311.461 121.95 311.748 122.729 311.748 123.768C311.748 124.806 311.569 125.818 311.211 126.803C310.852 127.77 310.351 128.63 309.706 129.382C309.061 130.134 308.3 130.734 307.423 131.182C306.545 131.63 305.587 131.854 304.548 131.854C304.154 131.854 303.689 131.8 303.151 131.692C302.632 131.567 302.131 131.37 301.647 131.101V128.2ZM304.656 132.015C304.799 132.695 305.041 133.268 305.381 133.734C305.739 134.2 306.151 134.433 306.617 134.433C307.423 134.433 308.157 134.2 308.82 133.734C309.5 133.268 310.1 132.686 310.62 131.988C311.139 131.289 311.578 130.546 311.936 129.758C312.312 128.952 312.607 128.227 312.822 127.582V131.37C312.733 132.176 312.491 132.928 312.097 133.627C311.703 134.325 311.219 134.934 310.646 135.453C310.091 135.973 309.473 136.385 308.793 136.689C308.112 136.976 307.45 137.119 306.805 137.119C306.321 137.119 305.82 137.002 305.3 136.77C304.799 136.537 304.333 136.197 303.904 135.749C303.492 135.283 303.151 134.71 302.883 134.03C302.614 133.349 302.48 132.561 302.48 131.666C302.874 131.809 303.223 131.907 303.527 131.961C303.85 131.997 304.226 132.015 304.656 132.015ZM308.148 123.257C307.593 123.347 307.109 123.571 306.697 123.929C306.303 124.269 305.972 124.708 305.703 125.245C305.435 125.782 305.229 126.391 305.086 127.072C304.942 127.752 304.844 128.451 304.79 129.167C305.596 129.131 306.285 128.961 306.859 128.657C307.432 128.334 307.897 127.949 308.255 127.502C308.632 127.054 308.9 126.579 309.061 126.078C309.24 125.558 309.33 125.066 309.33 124.6C309.33 123.651 308.936 123.203 308.148 123.257Z" fill="white"/>
<path d="M292.862 122.586C292.414 122.586 292.065 123.061 291.814 124.01C291.582 124.959 291.313 126.32 291.009 128.093C290.829 129.168 290.686 130.081 290.579 130.833C290.489 131.567 290.4 132.257 290.31 132.902C290.238 133.529 290.167 134.164 290.095 134.809C290.024 135.436 289.934 136.17 289.827 137.012H287.328C287.436 135.937 287.543 134.925 287.651 133.976C287.776 133.027 287.892 132.132 288 131.29C287.516 131.093 287.051 130.994 286.603 130.994C286.101 130.994 285.591 131.138 285.072 131.424V128.792C285.412 128.487 285.743 128.281 286.066 128.174C286.388 128.048 286.701 127.986 287.006 127.986C287.454 127.986 287.937 128.102 288.456 128.335C288.582 127.529 288.698 126.813 288.806 126.186C288.913 125.559 289.012 125.04 289.101 124.628C289.191 124.144 289.28 123.723 289.37 123.365C289.692 122.344 290.167 121.61 290.794 121.162C291.42 120.714 292.056 120.491 292.701 120.491C293.185 120.491 293.65 120.526 294.098 120.598C294.546 120.67 294.931 120.822 295.253 121.055C295.593 121.27 295.862 121.583 296.059 121.995C296.256 122.389 296.354 122.917 296.354 123.58C296.354 123.723 296.354 123.938 296.354 124.225C296.372 124.511 296.381 124.816 296.381 125.138C296.381 125.496 296.372 125.854 296.354 126.213C296.337 126.553 296.292 126.813 296.22 126.992H293.641C293.677 126.651 293.713 126.365 293.749 126.132C293.784 125.899 293.811 125.693 293.829 125.514C293.865 125.335 293.883 125.165 293.883 125.004C293.901 124.825 293.91 124.628 293.91 124.413C293.91 124.216 293.901 124.01 293.883 123.795C293.883 123.58 293.847 123.383 293.776 123.204C293.704 123.025 293.596 122.881 293.453 122.774C293.328 122.649 293.131 122.586 292.862 122.586ZM291.089 129.759C291.519 130.009 291.931 130.224 292.325 130.403C292.719 130.582 293.122 130.672 293.534 130.672C293.981 130.672 294.429 130.538 294.877 130.269C295.325 129.982 295.79 129.472 296.274 128.738V131.881C295.755 132.508 295.253 132.946 294.77 133.197C294.304 133.448 293.838 133.573 293.373 133.573C292.925 133.573 292.477 133.493 292.029 133.332C291.6 133.152 291.152 132.938 290.686 132.687L291.089 129.759Z" fill="white"/>
<path d="M276.314 122.586C275.866 122.586 275.517 123.061 275.266 124.01C275.033 124.959 274.764 126.32 274.46 128.093C274.281 129.168 274.138 130.081 274.03 130.833C273.941 131.567 273.851 132.257 273.762 132.902C273.69 133.529 273.618 134.164 273.547 134.809C273.475 135.436 273.385 136.17 273.278 137.012H270.78C270.887 135.937 270.995 134.925 271.102 133.976C271.227 133.027 271.344 132.132 271.451 131.29C270.968 131.093 270.502 130.994 270.054 130.994C269.553 130.994 269.042 131.138 268.523 131.424V128.792C268.863 128.487 269.195 128.281 269.517 128.174C269.839 128.048 270.153 127.986 270.457 127.986C270.905 127.986 271.389 128.102 271.908 128.335C272.033 127.529 272.15 126.813 272.257 126.186C272.365 125.559 272.463 125.04 272.553 124.628C272.642 124.144 272.732 123.723 272.821 123.365C273.144 122.344 273.618 121.61 274.245 121.162C274.872 120.714 275.508 120.491 276.152 120.491C276.636 120.491 277.102 120.526 277.549 120.598C277.997 120.67 278.382 120.822 278.704 121.055C279.045 121.27 279.313 121.583 279.51 121.995C279.707 122.389 279.806 122.917 279.806 123.58C279.806 123.723 279.806 123.938 279.806 124.225C279.824 124.511 279.833 124.816 279.833 125.138C279.833 125.496 279.824 125.854 279.806 126.213C279.788 126.553 279.743 126.813 279.672 126.992H277.093C277.128 126.651 277.164 126.365 277.2 126.132C277.236 125.899 277.263 125.693 277.281 125.514C277.317 125.335 277.334 125.165 277.334 125.004C277.352 124.825 277.361 124.628 277.361 124.413C277.361 124.216 277.352 124.01 277.334 123.795C277.334 123.58 277.299 123.383 277.227 123.204C277.155 123.025 277.048 122.881 276.905 122.774C276.779 122.649 276.582 122.586 276.314 122.586ZM274.541 129.759C274.97 130.009 275.382 130.224 275.776 130.403C276.17 130.582 276.573 130.672 276.985 130.672C277.433 130.672 277.881 130.538 278.328 130.269C278.776 129.982 279.242 129.472 279.725 128.738V131.881C279.206 132.508 278.704 132.946 278.221 133.197C277.755 133.448 277.29 133.573 276.824 133.573C276.376 133.573 275.929 133.493 275.481 133.332C275.051 133.152 274.603 132.938 274.138 132.687L274.541 129.759Z" fill="white"/>
<path d="M258.314 120.651C259.192 120.651 259.944 120.848 260.571 121.242C261.216 121.618 261.735 122.129 262.129 122.774C262.541 123.418 262.836 124.162 263.016 125.003C263.213 125.827 263.311 126.678 263.311 127.555C263.311 128.576 263.186 129.651 262.935 130.779C262.702 131.889 262.317 132.919 261.78 133.868C261.26 134.8 260.589 135.57 259.765 136.179C258.959 136.788 257.983 137.092 256.837 137.092C255.959 137.092 255.207 136.904 254.58 136.528C253.953 136.134 253.434 135.615 253.022 134.97C252.628 134.325 252.333 133.591 252.136 132.767C251.957 131.943 251.867 131.101 251.867 130.242C251.867 129.221 251.983 128.146 252.216 127.018C252.467 125.89 252.852 124.86 253.371 123.929C253.891 122.98 254.553 122.201 255.359 121.592C256.183 120.965 257.168 120.651 258.314 120.651ZM260.275 128.281C260.275 127.672 260.231 127.054 260.141 126.427C260.069 125.8 259.935 125.227 259.738 124.708C259.541 124.188 259.264 123.759 258.905 123.418C258.565 123.06 258.126 122.863 257.589 122.827C257.052 122.917 256.604 123.23 256.246 123.768C255.906 124.287 255.628 124.896 255.413 125.594C255.216 126.275 255.073 126.982 254.983 127.717C254.912 128.433 254.876 129.033 254.876 129.516C254.876 130.107 254.921 130.716 255.01 131.343C255.1 131.97 255.243 132.543 255.44 133.062C255.655 133.582 255.932 134.021 256.273 134.379C256.613 134.719 257.043 134.907 257.562 134.943C258.082 134.835 258.511 134.522 258.852 134.003C259.21 133.465 259.487 132.857 259.684 132.176C259.899 131.477 260.052 130.779 260.141 130.081C260.231 129.364 260.275 128.764 260.275 128.281Z" fill="white"/>
<path d="M246.628 129.785C246.467 130.716 246.225 131.621 245.903 132.498C245.58 133.376 245.16 134.155 244.64 134.835C244.121 135.516 243.503 136.062 242.787 136.474C242.07 136.886 241.237 137.092 240.288 137.092C239.411 137.092 238.659 136.904 238.032 136.528C237.405 136.134 236.886 135.615 236.474 134.97C236.08 134.325 235.784 133.591 235.587 132.767C235.408 131.943 235.318 131.101 235.318 130.242C235.318 129.221 235.435 128.146 235.668 127.018C235.918 125.89 236.303 124.86 236.823 123.929C237.342 122.98 238.005 122.201 238.811 121.592C239.635 120.965 240.62 120.651 241.766 120.651C242.572 120.651 243.27 120.813 243.861 121.135C244.47 121.439 244.981 121.86 245.392 122.398C245.804 122.935 246.118 123.571 246.333 124.305C246.565 125.021 246.709 125.791 246.762 126.615H244.022C243.879 125.917 243.691 125.308 243.458 124.788C243.225 124.269 242.975 123.839 242.706 123.499C242.455 123.159 242.196 122.908 241.927 122.747C241.658 122.568 241.408 122.478 241.175 122.478C240.745 122.478 240.333 122.702 239.939 123.15C239.545 123.58 239.205 124.144 238.918 124.842C238.632 125.523 238.399 126.284 238.22 127.126C238.059 127.949 237.978 128.755 237.978 129.543C237.978 130.403 238.059 131.191 238.22 131.907C238.399 132.606 238.632 133.206 238.918 133.707C239.205 134.209 239.527 134.603 239.885 134.889C240.244 135.158 240.611 135.292 240.987 135.292C241.345 135.292 241.694 135.167 242.034 134.916C242.375 134.665 242.679 134.307 242.948 133.842C243.234 133.376 243.467 132.803 243.646 132.122C243.843 131.442 243.969 130.681 244.022 129.839L246.628 129.785Z" fill="white"/>
<rect x="92.5" y="91.5001" width="12.9692" height="12.9692" stroke="white"/>
<rect x="365.676" y="91.5" width="12.9692" height="12.9692" stroke="white"/>
<rect x="365.675" y="226.536" width="12.9692" height="12.9692" stroke="white"/>
<rect x="92.5" y="226.536" width="12.9692" height="12.9692" stroke="white"/>
<line x1="105.969" y1="98.2607" x2="365.175" y2="98.2607" stroke="white"/>
<line x1="105.969" y1="233.296" x2="365.175" y2="233.296" stroke="white"/>
<line x1="99.2606" y1="226.036" x2="99.2606" y2="104.969" stroke="white"/>
<line x1="372.436" y1="226.036" x2="372.436" y2="104.969" stroke="white"/>
<defs>
<filter id="filter0_d_103_626" x="0" y="0.732422" width="472" height="472" filterUnits="userSpaceOnUse" color-interpolation-filters="sRGB">
<feFlood flood-opacity="0" result="BackgroundImageFix"/>
<feColorMatrix in="SourceAlpha" type="matrix" values="0 0 0 0 0 0 0 0 0 0 0 0 0 0 0 0 0 0 127 0" result="hardAlpha"/>
<feOffset dy="8"/>
<feGaussianBlur stdDeviation="12"/>
<feComposite in2="hardAlpha" operator="out"/>
<feColorMatrix type="matrix" values="0 0 0 0 0.0372841 0 0 0 0 0.0372841 0 0 0 0 0.0372841 0 0 0 0.1 0"/>
<feBlend mode="normal" in2="BackgroundImageFix" result="effect1_dropShadow_103_626"/>
<feBlend mode="normal" in="SourceGraphic" in2="effect1_dropShadow_103_626" result="shape"/>
</filter>
</defs>
</svg>
