<svg width="448" height="80" viewBox="0 0 448 80" fill="none" xmlns="http://www.w3.org/2000/svg">
<g clip-path="url(#clip0_117_744)">
<path d="M0 32C0 14.3269 14.3269 0 32 0H416C433.673 0 448 14.3269 448 32V80H0V32Z" fill="#FF6CA9"/>
<g filter="url(#filter0_d_117_744)">
<mask id="path-2-inside-1_117_744" fill="white">
<path fill-rule="evenodd" clip-rule="evenodd" d="M55 28.5C55 34.5751 50.0751 39.5 44 39.5C37.9249 39.5 33 34.5751 33 28.5C33 22.4249 37.9249 17.5 44 17.5C50.0751 17.5 55 22.4249 55 28.5ZM47.4388 40C52.3904 38.5215 56 33.9323 56 28.5C56 21.8726 50.6274 16.5 44 16.5C37.3726 16.5 32 21.8726 32 28.5C32 33.9323 35.6096 38.5215 40.5612 40C35.6096 41.4785 32 46.0677 32 51.5C32 58.1274 37.3726 63.5 44 63.5C50.6274 63.5 56 58.1274 56 51.5C56 46.0677 52.3904 41.4785 47.4388 40ZM44 40.5C37.9249 40.5 33 45.4249 33 51.5C33 57.5751 37.9249 62.5 44 62.5C50.0751 62.5 55 57.5751 55 51.5C55 45.4249 50.0751 40.5 44 40.5Z"/>
</mask>
<path d="M47.4388 40L47.1527 39.0418L43.9437 40L47.1527 40.9582L47.4388 40ZM40.5612 40L40.8473 40.9582L44.0563 40L40.8473 39.0418L40.5612 40ZM44 40.5C50.6274 40.5 56 35.1274 56 28.5H54C54 34.0228 49.5228 38.5 44 38.5V40.5ZM32 28.5C32 35.1274 37.3726 40.5 44 40.5V38.5C38.4772 38.5 34 34.0228 34 28.5H32ZM44 16.5C37.3726 16.5 32 21.8726 32 28.5H34C34 22.9772 38.4772 18.5 44 18.5V16.5ZM56 28.5C56 21.8726 50.6274 16.5 44 16.5V18.5C49.5228 18.5 54 22.9772 54 28.5H56ZM47.725 40.9582C53.0884 39.3567 57 34.3864 57 28.5H55C55 33.4781 51.6924 37.6863 47.1527 39.0418L47.725 40.9582ZM57 28.5C57 21.3203 51.1797 15.5 44 15.5V17.5C50.0751 17.5 55 22.4249 55 28.5H57ZM44 15.5C36.8203 15.5 31 21.3203 31 28.5H33C33 22.4249 37.9249 17.5 44 17.5V15.5ZM31 28.5C31 34.3864 34.9116 39.3567 40.275 40.9582L40.8473 39.0418C36.3076 37.6863 33 33.4781 33 28.5H31ZM40.275 39.0418C34.9116 40.6433 31 45.6136 31 51.5H33C33 46.5219 36.3076 42.3137 40.8473 40.9582L40.275 39.0418ZM31 51.5C31 58.6797 36.8203 64.5 44 64.5V62.5C37.9249 62.5 33 57.5751 33 51.5H31ZM44 64.5C51.1797 64.5 57 58.6797 57 51.5H55C55 57.5751 50.0751 62.5 44 62.5V64.5ZM57 51.5C57 45.6136 53.0884 40.6433 47.725 39.0418L47.1527 40.9582C51.6924 42.3137 55 46.5219 55 51.5H57ZM44 39.5C37.3726 39.5 32 44.8726 32 51.5H34C34 45.9772 38.4772 41.5 44 41.5V39.5ZM32 51.5C32 58.1274 37.3726 63.5 44 63.5V61.5C38.4772 61.5 34 57.0228 34 51.5H32ZM44 63.5C50.6274 63.5 56 58.1274 56 51.5H54C54 57.0228 49.5228 61.5 44 61.5V63.5ZM56 51.5C56 44.8726 50.6274 39.5 44 39.5V41.5C49.5228 41.5 54 45.9772 54 51.5H56Z" fill="url(#paint0_linear_117_744)" mask="url(#path-2-inside-1_117_744)"/>
</g>
<path d="M394.987 91.2172C393.096 91.0181 391.355 90.8191 389.762 90.62C388.269 90.421 386.826 90.0726 385.433 89.575C384.139 88.9778 382.845 88.2314 381.551 87.3356C380.257 86.3404 378.963 85.0465 377.67 83.454L378.416 70.615C380.208 72.6055 381.701 74.198 382.895 75.3923C384.089 76.4871 385.134 77.3829 386.03 78.0796C387.025 78.6767 388.021 79.1246 389.016 79.4232C390.011 79.6222 391.156 79.7715 392.449 79.8711C399.416 79.672 404.94 76.2881 409.021 69.7192C413.101 63.1504 415.739 52.6502 416.933 38.2187C415.938 41.7022 414.744 45.4843 413.35 49.5649C411.957 53.546 410.265 57.2285 408.274 60.6125C406.284 63.9964 403.945 66.8329 401.258 69.1221C398.57 71.3117 395.435 72.4065 391.852 72.4065C391.056 72.4065 390.359 72.4065 389.762 72.4065C389.265 72.4065 388.667 72.307 387.971 72.1079C383.293 71.0131 380.058 68.9728 378.267 65.987C376.475 62.9016 375.58 59.2688 375.58 55.0887C375.58 51.8043 375.928 48.5199 376.625 45.2354C377.421 41.951 378.317 38.7164 379.312 35.5315C380.407 32.3466 381.501 29.112 382.596 25.8275C383.791 22.5431 384.786 19.2587 385.582 15.9743C384.487 17.0691 383.243 18.562 381.85 20.4531C380.556 22.3441 379.113 24.7825 377.52 27.7683C375.928 30.7542 374.236 34.4367 372.444 38.8159C370.653 43.1951 368.861 48.4203 367.07 54.4915V28.3655C367.269 26.2754 368.165 23.6379 369.757 20.4531C371.35 17.1686 373.29 14.0335 375.58 11.0477C377.869 8.06186 380.357 5.47415 383.044 3.28454C385.731 1.09493 388.319 0.00012207 390.807 0.00012207C393.594 0.00012207 395.585 0.696816 396.779 2.0902C398.073 3.48359 398.72 5.47414 398.72 8.06186C398.72 11.8439 398.172 15.626 397.078 19.408C396.082 23.0905 394.938 26.7233 393.644 30.3063C392.35 34.0883 391.205 37.8206 390.21 41.5031C389.215 45.0861 388.717 48.8184 388.717 52.7C388.717 56.1835 389.912 57.9252 392.3 57.9252C396.58 57.9252 400.461 52.9986 403.945 43.1453C407.428 33.2921 411.161 19.1094 415.142 0.597289L429.175 0.597289V23.7375C429.175 33.6902 428.478 42.797 427.085 51.0578C425.791 59.3186 423.751 66.4348 420.964 72.4065C418.277 78.3781 414.744 83.0062 410.364 86.2906C406.085 89.575 400.959 91.2172 394.987 91.2172Z" fill="white" fill-opacity="0.1"/>
<path d="M326.46 22.2445C326.46 25.6285 327.953 29.4105 330.939 33.5907C334.024 37.6713 338.702 42.1003 344.972 46.8776C357.911 56.6314 364.38 66.186 364.38 75.5416C364.38 78.5274 363.833 81.0156 362.738 83.0062C361.743 84.9967 360.399 86.6389 358.707 87.9328C357.015 89.2267 355.024 90.1722 352.735 90.7693C350.546 91.267 348.207 91.5158 345.719 91.5158C337.657 91.5158 330.242 89.4755 323.474 85.3948C316.706 81.3142 310.735 75.9895 305.559 69.4207V42.5482C306.853 46.2307 308.943 50.0128 311.829 53.8943C314.815 57.6764 318.1 61.2096 321.683 64.494C325.266 67.6789 328.849 70.3164 332.432 72.4065C336.114 74.4966 339.349 75.5914 342.136 75.6909C346.216 75.5914 348.257 74.0985 348.257 71.2122C348.257 69.9183 347.759 68.4751 346.764 66.8827C345.768 65.2903 344.474 63.5983 342.882 61.8068C341.389 60.0153 339.697 58.174 337.806 56.283C335.915 54.392 334.024 52.6005 332.133 50.9085L329.595 48.5198C327.206 46.3302 324.917 44.0411 322.728 41.6524C320.538 39.2638 318.548 36.8254 316.756 34.3372C315.064 31.7494 313.671 29.112 312.576 26.4247C311.581 23.6379 311.083 20.8512 311.083 18.0644C311.083 15.5762 311.531 13.2373 312.427 11.0477C313.422 8.85808 314.766 6.96706 316.457 5.37462C318.249 3.68264 320.289 2.38878 322.578 1.49304C324.967 0.49776 327.555 0.00012207 330.342 0.00012207C332.631 0.00012207 334.92 0.398233 337.209 1.19446C339.598 1.99067 341.837 3.08547 343.927 4.47886C346.017 5.77272 347.908 7.3154 349.6 9.1069C351.392 10.8984 352.835 12.8392 353.93 14.9293V0.597289L367.067 0.597289V37.0244L354.378 43.8918V41.6524C353.78 39.1642 352.785 36.477 351.392 33.5907C350.098 30.6049 348.456 27.8181 346.465 25.2304C344.574 22.6427 342.434 20.5028 340.046 18.8108C337.657 17.0193 335.069 16.1236 332.282 16.1236C330.391 16.1236 328.948 16.7705 327.953 18.0644C326.958 19.3582 326.46 20.7516 326.46 22.2445Z" fill="white" fill-opacity="0.1"/>
<path d="M262.113 91.665C258.629 91.665 255.643 91.0678 253.155 89.8735C250.667 88.5796 248.577 86.8379 246.885 84.6483C245.292 82.4587 244.098 79.8709 243.302 76.8851C242.506 73.8993 242.108 70.7144 242.108 67.3305C242.108 63.5484 242.754 60.1645 244.048 57.1786C245.342 54.0933 247.134 51.4558 249.423 49.2662C251.811 47.0766 254.648 45.4344 257.932 44.3396C261.217 43.1452 264.899 42.5481 268.98 42.5481C273.757 42.5481 278.734 43.5433 283.909 45.5339C284.407 43.5433 284.805 41.0552 285.103 38.0693C285.402 35.0835 285.551 31.9981 285.551 28.8133C285.551 27.0218 285.402 25.28 285.103 23.588C284.904 21.8961 284.506 20.4529 283.909 19.2586C283.312 17.9647 282.516 16.9197 281.52 16.1235C280.625 15.3273 279.48 14.9291 278.087 14.9291C273.509 14.9291 268.831 17.5666 264.053 22.8416C259.276 28.1166 253.902 35.7304 247.93 45.6832V25.2303C250.717 20.652 253.404 16.7704 255.992 13.5855C258.579 10.4006 261.217 7.81292 263.904 5.82236C266.591 3.73229 269.378 2.23937 272.264 1.34362C275.151 0.447875 278.236 0 281.52 0C285.004 0 287.89 0.845986 290.179 2.53796C292.469 4.22992 294.31 6.41953 295.703 9.10678C297.097 11.794 298.042 14.8794 298.54 18.3628C299.137 21.7468 299.435 25.1307 299.435 28.5147C299.435 32.8939 299.187 37.2233 298.689 41.503C298.291 45.7827 297.594 49.3657 296.599 52.252C298.092 53.4463 299.535 54.7402 300.928 56.1336C302.421 57.4274 303.765 58.9701 304.959 60.7616V79.1245C303.068 76.3377 300.63 73.5012 297.644 70.6149C294.658 67.629 291.423 64.9418 287.94 62.5531C284.556 60.0649 281.073 58.0246 277.49 56.4322C274.006 54.8397 270.821 54.0435 267.935 54.0435C265.347 54.0435 263.158 54.4416 261.366 55.2378C259.575 55.9345 258.082 56.9298 256.887 58.2237C255.793 59.5175 254.947 60.9607 254.349 62.5531C253.852 64.1456 253.603 65.7878 253.603 67.4797C253.603 70.167 254.399 72.3566 255.992 74.0486C257.684 75.7405 259.873 76.5865 262.56 76.5865C267.736 76.5865 271.717 74.9941 274.504 71.8092C277.291 68.6243 279.231 64.3944 280.326 59.1194C282.217 60.2142 284.108 61.4583 285.999 62.8517C287.89 64.2451 289.881 65.7878 291.971 67.4797C291.175 71.0627 289.781 74.3471 287.791 77.333C285.9 80.3188 283.561 82.8568 280.774 84.9468C278.087 87.0369 275.101 88.6791 271.817 89.8735C268.632 91.0678 265.397 91.665 262.113 91.665Z" fill="white" fill-opacity="0.1"/>
<path d="M210.754 47.6265C211.053 47.7261 211.899 47.7758 213.292 47.7758C215.283 47.7758 217.373 47.4275 219.562 46.7308C221.752 46.0341 223.295 45.0388 224.19 43.745C223.095 42.6502 221.702 41.8539 220.01 41.3563C218.418 40.8587 216.875 40.6098 215.382 40.6098C213.69 40.6098 211.948 41.008 210.157 41.8042C208.365 42.6004 206.673 43.6952 205.081 45.0886C203.588 44.4914 201.946 43.5957 200.154 42.4013C198.462 41.207 197.019 39.9132 195.825 38.5198C198.612 35.6335 201.697 33.4439 205.081 31.9509C208.564 30.458 212.147 29.7116 215.83 29.7116C220.01 29.7116 223.892 30.7566 227.475 32.8467C231.058 34.9368 233.844 38.1714 235.835 42.5506C235.636 45.0388 234.889 47.328 233.596 49.418C232.302 51.4086 230.61 53.1503 228.52 54.6432C226.529 56.1362 224.24 57.3305 221.652 58.2262C219.065 59.0225 216.377 59.4206 213.591 59.4206C210.704 59.4206 207.868 59.122 205.081 58.5248C202.294 57.9277 199.756 56.9324 197.467 55.539C196.074 57.5296 195.228 59.4206 194.929 61.2121C194.631 62.904 194.481 64.6458 194.481 66.4373C194.481 70.916 196.173 74.5488 199.557 77.3355C202.941 80.0228 207.221 81.3664 212.396 81.3664C214.586 81.3664 216.726 81.0678 218.816 80.4707C220.906 79.8735 222.747 78.928 224.34 77.6341C226.032 76.2407 227.375 74.499 228.37 72.4089C229.366 70.2193 229.863 67.5818 229.863 64.4965C229.863 63.9988 229.863 63.4514 229.863 62.8543C229.863 62.1576 229.764 61.5107 229.565 60.9135L242.255 61.8092V90.9211H230.162V84.6508C227.873 87.3381 224.787 89.2789 220.906 90.4732C217.024 91.6675 212.894 92.2647 208.515 92.2647C204.633 92.2647 200.951 91.7671 197.467 90.7718C193.984 89.677 190.948 88.1343 188.36 86.1437C185.872 84.0537 183.882 81.5157 182.389 78.5299C180.896 75.544 180.149 72.0606 180.149 68.0795C180.149 63.6007 180.697 59.7689 181.791 56.584C182.986 53.2996 184.827 50.264 187.315 47.4773C184.329 44.2924 182.339 41.207 181.344 38.2212C180.448 35.1358 180 31.5031 180 27.3229C180 23.6404 180.647 20.2067 181.941 17.0218C183.235 13.7374 185.026 10.8511 187.315 8.36289C189.604 5.8747 192.341 3.93391 195.526 2.54053C198.811 1.04761 202.394 0.301147 206.275 0.301147C209.56 0.301147 212.346 0.649496 214.636 1.34619C216.925 2.04288 218.866 2.98839 220.458 4.18273C222.05 5.37706 223.295 6.82021 224.19 8.51218C225.186 10.1046 226.081 11.8464 226.878 13.7374C227.276 12.6426 227.674 11.3487 228.072 9.8558C228.569 8.36289 229.017 6.9695 229.415 5.67564C229.814 4.28226 230.112 3.13769 230.311 2.24194C230.61 1.24666 230.759 0.699262 230.759 0.599735L242.553 0.599735L236.731 27.4722L220.159 25.0835C219.065 21.3015 217.223 18.6142 214.636 17.0218C212.147 15.4294 209.46 14.6331 206.574 14.6331C204.285 14.6331 202.195 15.0312 200.304 15.8275C198.512 16.6237 196.92 17.7185 195.526 19.1119C194.232 20.4057 193.187 21.9484 192.391 23.7399C191.694 25.4319 191.346 27.2731 191.346 29.2637C191.346 31.8514 191.894 34.1903 192.988 36.2804C194.083 38.3705 195.526 40.2117 197.318 41.8042C199.109 43.2971 201.15 44.591 203.439 45.6858C205.827 46.681 208.266 47.328 210.754 47.6265Z" fill="white" fill-opacity="0.1"/>
</g>
<defs>
<filter id="filter0_d_117_744" x="31" y="16.5" width="25" height="47" filterUnits="userSpaceOnUse" color-interpolation-filters="sRGB">
<feFlood flood-opacity="0" result="BackgroundImageFix"/>
<feColorMatrix in="SourceAlpha" type="matrix" values="0 0 0 0 0 0 0 0 0 0 0 0 0 0 0 0 0 0 127 0" result="hardAlpha"/>
<feOffset dx="-1"/>
<feComposite in2="hardAlpha" operator="out"/>
<feColorMatrix type="matrix" values="0 0 0 0 0 0 0 0 0 0 0 0 0 0 0 0 0 0 0.25 0"/>
<feBlend mode="normal" in2="BackgroundImageFix" result="effect1_dropShadow_117_744"/>
<feBlend mode="normal" in="SourceGraphic" in2="effect1_dropShadow_117_744" result="shape"/>
</filter>
<linearGradient id="paint0_linear_117_744" x1="32" y1="39.5" x2="44.5" y2="39.5" gradientUnits="userSpaceOnUse">
<stop stop-color="white"/>
<stop offset="1" stop-color="white" stop-opacity="0"/>
</linearGradient>
<clipPath id="clip0_117_744">
<path d="M0 32C0 14.3269 14.3269 0 32 0H416C433.673 0 448 14.3269 448 32V80H0V32Z" fill="white"/>
</clipPath>
</defs>
</svg>
