<svg width="16" height="17" viewBox="0 0 16 17" fill="none" xmlns="http://www.w3.org/2000/svg">
<g clip-path="url(#clip0_1_933)">
<path d="M16 8.49994C16 7.36927 15.4267 6.3726 14.5547 5.7846C14.6577 5.25818 14.6297 4.71449 14.4731 4.20145C14.3165 3.6884 14.0361 3.22174 13.6567 2.8426C13.2775 2.46309 12.8109 2.18268 12.2978 2.02607C11.7848 1.86947 11.2411 1.84149 10.7147 1.9446C10.1267 1.0726 9.12999 0.499268 7.99932 0.499268C6.86866 0.499268 5.87199 1.0726 5.28399 1.9446C4.75757 1.84149 4.21387 1.86947 3.70081 2.02607C3.18775 2.18268 2.7211 2.46309 2.34199 2.8426C1.96248 3.22171 1.68207 3.68836 1.52546 4.20142C1.36886 4.71448 1.34088 5.25818 1.44399 5.7846C0.571991 6.3726 -0.00134277 7.36927 -0.00134277 8.49994C-0.00134277 9.6306 0.571991 10.6273 1.44399 11.2153C1.34088 11.7417 1.36886 12.2854 1.52546 12.7984C1.68207 13.3115 1.96248 13.7782 2.34199 14.1573C2.7211 14.5368 3.18775 14.8172 3.70081 14.9738C4.21387 15.1304 4.75757 15.1584 5.28399 15.0553C5.87199 15.9273 6.86866 16.5006 7.99932 16.5006C9.12999 16.5006 10.1267 15.9273 10.7147 15.0553C11.2411 15.1584 11.7848 15.1304 12.2978 14.9738C12.8109 14.8172 13.2775 14.5368 13.6567 14.1573C14.0362 13.7782 14.3166 13.3115 14.4732 12.7984C14.6298 12.2854 14.6578 11.7417 14.5547 11.2153C14.9999 10.916 15.3646 10.5117 15.6166 10.0382C15.8687 9.56466 16.0003 9.03638 16 8.49994ZM7.93932 10.7793C7.6889 11.0276 7.35032 11.1667 6.99764 11.166C6.64495 11.1654 6.30687 11.0252 6.05732 10.7759L4.20266 8.9786L5.13132 8.0206L6.99332 9.82527L10.866 6.0246L11.802 6.9746L7.93932 10.7793Z" fill="#6729FF"/>
</g>
<defs>
<clipPath id="clip0_1_933">
<rect width="16" height="16" fill="white" transform="translate(0 0.5)"/>
</clipPath>
</defs>
</svg>
