<svg width="360" height="320" viewBox="0 0 360 320" fill="none" xmlns="http://www.w3.org/2000/svg">
<g clip-path="url(#clip0_69_201)">
<path d="M0 43H104V344H0V43Z" fill="#FF89BA"/>
<path d="M112 165H216V344H112V165Z" fill="white"/>
<path d="M0 16C0 7.16344 7.16344 0 16 0H159.376C168.213 0 175.376 7.16344 175.376 16V16C175.376 24.8366 168.213 32 159.376 32H0V16Z" fill="white"/>
<path d="M27.8067 14.5866L24.94 11.7266C24.6902 11.4783 24.3523 11.3389 24 11.3389C23.6478 11.3389 23.3099 11.4783 23.06 11.7266L20.1934 14.5866C20.0692 14.7115 19.9995 14.8805 19.9995 15.0566C19.9995 15.2327 20.0692 15.4017 20.1934 15.5266C20.2553 15.5891 20.3291 15.6387 20.4103 15.6725C20.4916 15.7064 20.5787 15.7238 20.6667 15.7238C20.7547 15.7238 20.8419 15.7064 20.9231 15.6725C21.0043 15.6387 21.0781 15.5891 21.14 15.5266L23.3334 13.3333V20.6666C23.3334 20.8434 23.4036 21.013 23.5286 21.138C23.6537 21.263 23.8232 21.3333 24 21.3333C24.1769 21.3333 24.3464 21.263 24.4714 21.138C24.5965 21.013 24.6667 20.8434 24.6667 20.6666V13.3333L26.86 15.5266C26.9847 15.6521 27.1541 15.723 27.331 15.7236C27.5079 15.7243 27.6778 15.6546 27.8034 15.5299C27.9289 15.4053 27.9998 15.2359 28.0004 15.0589C28.001 14.882 27.9314 14.7121 27.8067 14.5866Z" fill="#FF6CA9"/>
<path d="M156.591 11.625C157.291 11.625 157.85 11.834 158.268 12.2521C158.744 12.6701 158.983 13.2 158.983 13.8417C158.983 14.3278 158.842 14.7507 158.56 15.1104C158.463 15.2465 158.37 15.3437 158.283 15.4021C158.555 15.5771 158.749 15.7569 158.866 15.9417C159.031 16.1167 159.158 16.3257 159.245 16.5687C159.333 16.8021 159.376 17.0403 159.376 17.2833C159.376 17.6042 159.308 17.9153 159.172 18.2167C159.036 18.5083 158.847 18.7563 158.603 18.9604C158.39 19.1451 158.151 19.2812 157.889 19.3687C157.626 19.4562 157.354 19.5 157.072 19.5H152.77V11.6396L156.591 11.625ZM153.966 15.0667H156.591C156.97 15.0667 157.272 14.9257 157.495 14.6438C157.68 14.4201 157.772 14.1528 157.772 13.8417C157.753 13.5403 157.66 13.2778 157.495 13.0542C157.378 12.9083 157.247 12.8014 157.101 12.7333C156.965 12.6653 156.795 12.6312 156.591 12.6312H153.966V15.0667ZM153.966 18.5083H156.912C157.291 18.5083 157.602 18.3868 157.845 18.1438C158.059 17.9201 158.166 17.6139 158.166 17.225C158.166 16.9333 158.059 16.6708 157.845 16.4375C157.699 16.2819 157.544 16.1799 157.378 16.1312C157.223 16.0826 157.019 16.0583 156.766 16.0583H153.966V18.5083Z" fill="#FF6CA9"/>
<path d="M150.584 9V10.2688H149.402V9H150.584ZM150.584 11.625V19.5H149.402V11.625H150.584Z" fill="#FF6CA9"/>
<path d="M147.872 12.7042H145.101V19.5H143.92V12.7042H141.149V11.625H147.872V12.7042Z" fill="#FF6CA9"/>
<path d="M139.761 11.625V19.5H138.58V15.8979H134.278V19.5H133.096V11.625H134.278V14.7167H138.58V11.625H139.761Z" fill="#FF6CA9"/>
<path d="M125.261 15.8833C125.29 16.6417 125.479 17.2493 125.829 17.7063C126.033 17.9882 126.306 18.2069 126.646 18.3625C126.986 18.5181 127.351 18.5958 127.74 18.5958C128.129 18.5958 128.488 18.5181 128.819 18.3625C129.159 18.2069 129.436 17.9882 129.65 17.7063C129.738 17.5896 129.82 17.4486 129.898 17.2833L131.065 17.7938C130.929 18.0465 130.783 18.2653 130.627 18.45C130.297 18.8583 129.883 19.1743 129.388 19.3979C128.901 19.6118 128.386 19.7188 127.842 19.7188C127.239 19.7188 126.675 19.6118 126.15 19.3979C125.635 19.184 125.207 18.8632 124.867 18.4354C124.274 17.6868 123.977 16.7292 123.977 15.5625C123.997 14.3764 124.293 13.4188 124.867 12.6896C125.207 12.2715 125.625 11.9556 126.121 11.7417C126.617 11.5181 127.156 11.4062 127.74 11.4062C128.323 11.4062 128.858 11.5181 129.344 11.7417C129.84 11.9556 130.258 12.2715 130.598 12.6896C131.191 13.4382 131.488 14.3958 131.488 15.5625C131.488 15.7083 131.483 15.8153 131.473 15.8833H125.261ZM127.74 12.5292C127.351 12.5292 126.986 12.6069 126.646 12.7625C126.306 12.9181 126.033 13.1368 125.829 13.4188C125.538 13.8174 125.358 14.3083 125.29 14.8917H130.19C130.122 14.3083 129.942 13.8174 129.65 13.4188C129.436 13.1368 129.159 12.9181 128.819 12.7625C128.488 12.6069 128.129 12.5292 127.74 12.5292Z" fill="#FF6CA9"/>
<path d="M121.947 12.675C122.521 13.4042 122.808 14.3618 122.808 15.5479C122.808 16.7535 122.521 17.7208 121.947 18.45C121.627 18.8583 121.228 19.1743 120.752 19.3979C120.275 19.6118 119.765 19.7188 119.22 19.7188C118.705 19.7188 118.229 19.6313 117.791 19.4563C117.363 19.2715 116.994 19.009 116.683 18.6688V23H115.487V11.625H116.552V12.6167C116.863 12.2375 117.256 11.941 117.733 11.7271C118.209 11.5132 118.71 11.4062 119.235 11.4062C119.779 11.4062 120.285 11.5181 120.752 11.7417C121.228 11.9556 121.627 12.2667 121.947 12.675ZM120.985 17.7063C121.364 17.2104 121.554 16.491 121.554 15.5479C121.554 14.634 121.364 13.9146 120.985 13.3896C120.771 13.0882 120.494 12.8646 120.154 12.7188C119.823 12.5729 119.454 12.5 119.045 12.5C118.656 12.5 118.302 12.5729 117.981 12.7188C117.66 12.8549 117.392 13.059 117.179 13.3313C116.761 13.8563 116.552 14.5951 116.552 15.5479C116.552 16.5104 116.761 17.2542 117.179 17.7792C117.392 18.0514 117.665 18.2604 117.995 18.4063C118.336 18.5521 118.695 18.625 119.074 18.625C119.454 18.625 119.813 18.5472 120.154 18.3917C120.494 18.2361 120.771 18.0076 120.985 17.7063Z" fill="#FF6CA9"/>
<path d="M114.318 11.6396L110.73 20.9875C110.429 21.7944 110.069 22.3437 109.651 22.6354C109.456 22.7812 109.243 22.8785 109.009 22.9271C108.786 22.9757 108.518 23 108.207 23L108.018 22.9854V21.8479L108.265 21.8771C108.625 21.8965 108.893 21.8382 109.068 21.7021C109.213 21.6049 109.35 21.425 109.476 21.1625C109.612 20.9 109.811 20.4188 110.074 19.7188L106.705 11.625H107.93L110.628 18.2021L113.122 11.6396H114.318Z" fill="#FF6CA9"/>
<path d="M103.826 15.5625L106.407 19.5L105.065 19.4854L102.819 16.0583H101.069V19.5H99.8737V11.625H101.069V15.0667H102.805L104.934 11.625H106.276L103.826 15.5625Z" fill="#FF6CA9"/>
<path d="M97.8293 11.625V19.5H96.648V15.8979H92.3459V19.5H91.1647V11.625H92.3459V14.7167H96.648V11.625H97.8293Z" fill="#FF6CA9"/>
<path d="M85.7944 19.7188C85.211 19.7188 84.6714 19.6118 84.1756 19.3979C83.6798 19.1743 83.2617 18.8535 82.9214 18.4354C82.3284 17.6868 82.0319 16.7243 82.0319 15.5479C82.0319 14.3813 82.3284 13.4285 82.9214 12.6896C83.252 12.2813 83.6701 11.9653 84.1756 11.7417C84.6812 11.5181 85.2208 11.4062 85.7944 11.4062C86.368 11.4062 86.9027 11.5181 87.3985 11.7417C87.9041 11.9556 88.3221 12.2715 88.6527 12.6896C89.2555 13.4188 89.5569 14.3715 89.5569 15.5479C89.5569 16.7146 89.2555 17.6771 88.6527 18.4354C88.3221 18.8632 87.9089 19.184 87.4131 19.3979C86.927 19.6118 86.3874 19.7188 85.7944 19.7188ZM87.7194 17.7063C88.1082 17.191 88.3027 16.4715 88.3027 15.5479C88.3027 14.634 88.1082 13.9194 87.7194 13.4042C87.5055 13.1222 87.2284 12.9083 86.8881 12.7625C86.5478 12.6069 86.1833 12.5292 85.7944 12.5292C85.4055 12.5292 85.0409 12.6069 84.7006 12.7625C84.3603 12.9083 84.0881 13.1222 83.8839 13.4042C83.4853 13.9194 83.286 14.634 83.286 15.5479C83.286 16.4715 83.4853 17.191 83.8839 17.7063C84.0881 17.9882 84.3603 18.2069 84.7006 18.3625C85.0409 18.5181 85.4055 18.5958 85.7944 18.5958C86.1833 18.5958 86.5478 18.5181 86.8881 18.3625C87.2284 18.2069 87.5055 17.9882 87.7194 17.7063Z" fill="#FF6CA9"/>
<path d="M79.148 15.5625L81.7293 19.5L80.3876 19.4854L78.1418 16.0583H76.3918V19.5H75.1959V11.625H76.3918V15.0667H78.1272L80.2563 11.625H81.598L79.148 15.5625Z" fill="#FF6CA9"/>
<path d="M63.4317 13.098C63.5192 12.9424 63.597 12.8258 63.6651 12.748C64.3262 11.8633 65.2887 11.4209 66.5526 11.4209C67.3012 11.4209 67.9526 11.5667 68.5067 11.8584C69.0609 12.1403 69.4741 12.5778 69.7463 13.1709C69.9505 13.589 70.0526 14.0556 70.0526 14.5709V19.5001H69.0026V17.9396C68.8665 18.2119 68.672 18.4646 68.4192 18.698C68.1665 18.9313 67.8991 19.116 67.6171 19.2521C66.9463 19.5827 66.2706 19.7285 65.5901 19.6896C65.1915 19.6702 64.8074 19.5681 64.438 19.3834C64.0685 19.189 63.7769 18.941 63.563 18.6396C63.4074 18.3966 63.2908 18.1633 63.213 17.9396C63.1352 17.716 63.0963 17.4681 63.0963 17.1959C63.0963 16.7876 63.1984 16.4084 63.4026 16.0584C63.6067 15.7084 63.8887 15.4216 64.2484 15.198C64.579 15.0133 64.9144 14.882 65.2546 14.8042C65.5949 14.7265 66.081 14.639 66.713 14.5417L67.1942 14.4688L68.8276 14.2501C68.7498 13.7153 68.5262 13.307 68.1567 13.0251C67.7678 12.7042 67.2283 12.5438 66.538 12.5438C66.1588 12.5438 65.8088 12.6119 65.488 12.748C65.1671 12.8744 64.9095 13.0737 64.7151 13.3459C64.6665 13.4042 64.6033 13.4917 64.5255 13.6084L63.4317 13.098ZM66.9609 15.5626C66.397 15.6501 65.9352 15.7424 65.5755 15.8396C65.2158 15.9369 64.9095 16.0924 64.6567 16.3063C64.4137 16.5105 64.2921 16.7973 64.2921 17.1667C64.2921 17.5265 64.4331 17.8473 64.7151 18.1292C64.997 18.4015 65.3421 18.557 65.7505 18.5959C65.7991 18.6056 65.8769 18.6105 65.9838 18.6105C66.4991 18.6105 67.0046 18.4695 67.5005 18.1876C67.9963 17.9056 68.3512 17.5313 68.5651 17.0646C68.7012 16.773 68.7838 16.5008 68.813 16.248C68.8519 15.9952 68.8713 15.6646 68.8713 15.2563L66.9609 15.5626Z" fill="#FF6CA9"/>
<path d="M61.4894 11.625V19.5H60.3082V15.8979H56.0061V19.5H54.8248V11.625H56.0061V14.7167H60.3082V11.625H61.4894Z" fill="#FF6CA9"/>
<path d="M52.6383 9V10.2688H51.457V9H52.6383ZM52.6383 11.625V19.5H51.457V11.625H52.6383Z" fill="#FF6CA9"/>
<path d="M49.7125 18.3188V20.725H48.5312V19.5H40V9H41.1812V18.3188H47.2625V9H48.4437V18.3188H49.7125Z" fill="#FF6CA9"/>
<path d="M112 138C112 129.163 119.163 122 128 122H270.806C279.642 122 286.806 129.163 286.806 138V138C286.806 146.837 279.642 154 270.806 154H112V138Z" fill="white"/>
<path d="M132.193 139.413L135.06 142.273C135.31 142.522 135.648 142.661 136 142.661C136.352 142.661 136.69 142.522 136.94 142.273L139.807 139.413C139.931 139.289 140 139.12 140 138.943C140 138.767 139.931 138.598 139.807 138.473C139.745 138.411 139.671 138.361 139.59 138.327C139.508 138.294 139.421 138.276 139.333 138.276C139.245 138.276 139.158 138.294 139.077 138.327C138.996 138.361 138.922 138.411 138.86 138.473L136.667 140.667V133.333C136.667 133.157 136.596 132.987 136.471 132.862C136.346 132.737 136.177 132.667 136 132.667C135.823 132.667 135.654 132.737 135.529 132.862C135.404 132.987 135.333 133.157 135.333 133.333V140.667L133.14 138.473C133.015 138.348 132.846 138.277 132.669 138.276C132.492 138.276 132.322 138.345 132.197 138.47C132.071 138.595 132 138.764 132 138.941C131.999 139.118 132.069 139.288 132.193 139.413Z" fill="#FF6CA9"/>
<path d="M270.806 133.64L267.218 142.987C266.917 143.794 266.557 144.344 266.139 144.635C265.945 144.781 265.731 144.878 265.498 144.927C265.274 144.976 265.007 145 264.695 145L264.506 144.985V143.848L264.754 143.877C265.113 143.897 265.381 143.838 265.556 143.702C265.702 143.605 265.838 143.425 265.964 143.163C266.1 142.9 266.3 142.419 266.562 141.719L263.193 133.625H264.418L267.116 140.202L269.61 133.64H270.806Z" fill="#FF6CA9"/>
<path d="M261.486 135.973C261.399 135.73 261.267 135.506 261.092 135.302C260.917 135.088 260.718 134.923 260.495 134.806C260.154 134.631 259.731 134.544 259.226 134.544C258.817 134.544 258.463 134.617 258.161 134.763C257.986 134.86 257.845 134.981 257.738 135.127C257.631 135.273 257.578 135.424 257.578 135.579C257.578 135.813 257.661 136.012 257.826 136.177C258.001 136.352 258.331 136.508 258.817 136.644C259.109 136.731 259.61 136.867 260.32 137.052C260.65 137.14 260.932 137.237 261.165 137.344C261.408 137.451 261.637 137.597 261.851 137.781C262.405 138.228 262.682 138.758 262.682 139.371C262.682 139.74 262.59 140.085 262.405 140.406C262.22 140.727 261.972 140.99 261.661 141.194C261.136 141.534 260.402 141.704 259.459 141.704C258.331 141.704 257.451 141.369 256.82 140.698C256.606 140.455 256.426 140.173 256.28 139.852C256.144 139.531 256.047 139.22 255.988 138.919L257.14 138.642C257.17 138.875 257.228 139.108 257.315 139.342C257.413 139.565 257.534 139.76 257.68 139.925C258.079 140.363 258.667 140.581 259.445 140.581C259.736 140.581 260.023 140.552 260.305 140.494C260.597 140.426 260.83 140.333 261.005 140.217C261.258 140.032 261.408 139.774 261.457 139.444C261.486 139.123 261.374 138.86 261.122 138.656C261.005 138.549 260.864 138.462 260.699 138.394C260.533 138.316 260.295 138.228 259.984 138.131C259.761 138.063 259.304 137.937 258.613 137.752C258.263 137.655 257.967 137.558 257.724 137.46C257.49 137.363 257.272 137.232 257.067 137.067C256.834 136.882 256.654 136.663 256.528 136.41C256.411 136.148 256.353 135.876 256.353 135.594C256.353 135.195 256.474 134.826 256.717 134.485C256.97 134.145 257.286 133.888 257.665 133.713C258.122 133.508 258.642 133.406 259.226 133.406C259.906 133.406 260.504 133.533 261.02 133.785C261.399 133.98 261.734 134.252 262.026 134.602C262.327 134.952 262.536 135.317 262.653 135.696L261.486 135.973Z" fill="#FF6CA9"/>
<path d="M247.988 135.098C248.076 134.942 248.154 134.826 248.222 134.748C248.883 133.863 249.845 133.421 251.109 133.421C251.858 133.421 252.509 133.567 253.063 133.858C253.618 134.14 254.031 134.578 254.303 135.171C254.507 135.589 254.609 136.056 254.609 136.571V141.5H253.559V139.94C253.423 140.212 253.229 140.465 252.976 140.698C252.723 140.931 252.456 141.116 252.174 141.252C251.503 141.583 250.827 141.729 250.147 141.69C249.748 141.67 249.364 141.568 248.995 141.383C248.625 141.189 248.334 140.941 248.12 140.64C247.964 140.397 247.847 140.163 247.77 139.94C247.692 139.716 247.653 139.468 247.653 139.196C247.653 138.788 247.755 138.408 247.959 138.058C248.163 137.708 248.445 137.422 248.805 137.198C249.136 137.013 249.471 136.882 249.811 136.804C250.152 136.726 250.638 136.639 251.27 136.542L251.751 136.469L253.384 136.25C253.306 135.715 253.083 135.307 252.713 135.025C252.324 134.704 251.785 134.544 251.095 134.544C250.715 134.544 250.365 134.612 250.045 134.748C249.724 134.874 249.466 135.074 249.272 135.346C249.223 135.404 249.16 135.492 249.082 135.608L247.988 135.098ZM251.518 137.563C250.954 137.65 250.492 137.742 250.132 137.84C249.772 137.937 249.466 138.092 249.213 138.306C248.97 138.51 248.849 138.797 248.849 139.167C248.849 139.526 248.99 139.847 249.272 140.129C249.554 140.401 249.899 140.557 250.307 140.596C250.356 140.606 250.434 140.61 250.54 140.61C251.056 140.61 251.561 140.47 252.057 140.188C252.553 139.906 252.908 139.531 253.122 139.065C253.258 138.773 253.34 138.501 253.37 138.248C253.409 137.995 253.428 137.665 253.428 137.256L251.518 137.563Z" fill="#FF6CA9"/>
<path d="M240.859 132.181V135.652H245.321V136.848H240.859V140.319H246.196V141.5H239.678V131H246.196V132.181H240.859Z" fill="#FF6CA9"/>
<path d="M227.768 135.098C227.855 134.942 227.933 134.826 228.001 134.748C228.662 133.863 229.625 133.421 230.888 133.421C231.637 133.421 232.288 133.567 232.843 133.858C233.397 134.14 233.81 134.578 234.082 135.171C234.286 135.589 234.388 136.056 234.388 136.571V141.5H233.339V139.94C233.202 140.212 233.008 140.465 232.755 140.698C232.502 140.931 232.235 141.116 231.953 141.252C231.282 141.583 230.607 141.729 229.926 141.69C229.527 141.67 229.143 141.568 228.774 141.383C228.404 141.189 228.113 140.941 227.899 140.64C227.743 140.397 227.627 140.163 227.549 139.94C227.471 139.716 227.432 139.468 227.432 139.196C227.432 138.788 227.534 138.408 227.738 138.058C227.943 137.708 228.225 137.422 228.584 137.198C228.915 137.013 229.25 136.882 229.591 136.804C229.931 136.726 230.417 136.639 231.049 136.542L231.53 136.469L233.163 136.25C233.086 135.715 232.862 135.307 232.493 135.025C232.104 134.704 231.564 134.544 230.874 134.544C230.495 134.544 230.145 134.612 229.824 134.748C229.503 134.874 229.245 135.074 229.051 135.346C229.002 135.404 228.939 135.492 228.861 135.608L227.768 135.098ZM231.297 137.563C230.733 137.65 230.271 137.742 229.911 137.84C229.552 137.937 229.245 138.092 228.993 138.306C228.75 138.51 228.628 138.797 228.628 139.167C228.628 139.526 228.769 139.847 229.051 140.129C229.333 140.401 229.678 140.557 230.086 140.596C230.135 140.606 230.213 140.61 230.32 140.61C230.835 140.61 231.341 140.47 231.836 140.188C232.332 139.906 232.687 139.531 232.901 139.065C233.037 138.773 233.12 138.501 233.149 138.248C233.188 137.995 233.207 137.665 233.207 137.256L231.297 137.563Z" fill="#FF6CA9"/>
<path d="M225.825 133.625V141.5H224.644V137.898H220.342V141.5H219.161V133.625H220.342V136.717H224.644V133.625H225.825Z" fill="#FF6CA9"/>
<path d="M216.974 131V132.269H215.793V131H216.974ZM216.974 133.625V141.5H215.793V133.625H216.974Z" fill="#FF6CA9"/>
<path d="M214.037 140.319V142.725H212.842V141.5H206.104V133.625H207.285V140.319H211.587V133.625H212.769V140.319H214.037Z" fill="#FF6CA9"/>
<path d="M194.34 135.098C194.427 134.942 194.505 134.826 194.573 134.748C195.234 133.863 196.197 133.421 197.461 133.421C198.209 133.421 198.861 133.567 199.415 133.858C199.969 134.14 200.382 134.578 200.655 135.171C200.859 135.589 200.961 136.056 200.961 136.571V141.5H199.911V139.94C199.775 140.212 199.58 140.465 199.327 140.698C199.075 140.931 198.807 141.116 198.525 141.252C197.855 141.583 197.179 141.729 196.498 141.69C196.1 141.67 195.716 141.568 195.346 141.383C194.977 141.189 194.685 140.941 194.471 140.64C194.316 140.397 194.199 140.163 194.121 139.94C194.043 139.716 194.005 139.468 194.005 139.196C194.005 138.788 194.107 138.408 194.311 138.058C194.515 137.708 194.797 137.422 195.157 137.198C195.487 137.013 195.823 136.882 196.163 136.804C196.503 136.726 196.989 136.639 197.621 136.542L198.102 136.469L199.736 136.25C199.658 135.715 199.434 135.307 199.065 135.025C198.676 134.704 198.136 134.544 197.446 134.544C197.067 134.544 196.717 134.612 196.396 134.748C196.075 134.874 195.818 135.074 195.623 135.346C195.575 135.404 195.511 135.492 195.434 135.608L194.34 135.098ZM197.869 137.563C197.305 137.65 196.843 137.742 196.484 137.84C196.124 137.937 195.818 138.092 195.565 138.306C195.322 138.51 195.2 138.797 195.2 139.167C195.2 139.526 195.341 139.847 195.623 140.129C195.905 140.401 196.25 140.557 196.659 140.596C196.707 140.606 196.785 140.61 196.892 140.61C197.407 140.61 197.913 140.47 198.409 140.188C198.905 139.906 199.259 139.531 199.473 139.065C199.609 138.773 199.692 138.501 199.721 138.248C199.76 137.995 199.78 137.665 199.78 137.256L197.869 137.563Z" fill="#FF6CA9"/>
<path d="M190.046 133.625C190.746 133.625 191.305 133.834 191.723 134.252C192.2 134.67 192.438 135.2 192.438 135.842C192.438 136.328 192.297 136.751 192.015 137.11C191.918 137.247 191.825 137.344 191.738 137.402C192.01 137.577 192.204 137.757 192.321 137.942C192.486 138.117 192.613 138.326 192.7 138.569C192.788 138.802 192.831 139.04 192.831 139.283C192.831 139.604 192.763 139.915 192.627 140.217C192.491 140.508 192.302 140.756 192.059 140.96C191.845 141.145 191.606 141.281 191.344 141.369C191.081 141.456 190.809 141.5 190.527 141.5H186.225V133.64L190.046 133.625ZM187.421 137.067H190.046C190.425 137.067 190.727 136.926 190.95 136.644C191.135 136.42 191.227 136.153 191.227 135.842C191.208 135.54 191.115 135.278 190.95 135.054C190.834 134.908 190.702 134.801 190.556 134.733C190.42 134.665 190.25 134.631 190.046 134.631H187.421V137.067ZM187.421 140.508H190.367C190.746 140.508 191.057 140.387 191.3 140.144C191.514 139.92 191.621 139.614 191.621 139.225C191.621 138.933 191.514 138.671 191.3 138.438C191.154 138.282 190.999 138.18 190.834 138.131C190.678 138.083 190.474 138.058 190.221 138.058H187.421V140.508Z" fill="#FF6CA9"/>
<path d="M180.855 141.719C180.272 141.719 179.732 141.612 179.236 141.398C178.74 141.174 178.322 140.853 177.982 140.435C177.389 139.687 177.092 138.724 177.092 137.548C177.092 136.381 177.389 135.428 177.982 134.69C178.313 134.281 178.731 133.965 179.236 133.742C179.742 133.518 180.281 133.406 180.855 133.406C181.429 133.406 181.963 133.518 182.459 133.742C182.965 133.956 183.383 134.272 183.713 134.69C184.316 135.419 184.617 136.372 184.617 137.548C184.617 138.715 184.316 139.677 183.713 140.435C183.383 140.863 182.969 141.184 182.474 141.398C181.988 141.612 181.448 141.719 180.855 141.719ZM182.78 139.706C183.169 139.191 183.363 138.472 183.363 137.548C183.363 136.634 183.169 135.919 182.78 135.404C182.566 135.122 182.289 134.908 181.949 134.763C181.608 134.607 181.244 134.529 180.855 134.529C180.466 134.529 180.101 134.607 179.761 134.763C179.421 134.908 179.149 135.122 178.944 135.404C178.546 135.919 178.347 136.634 178.347 137.548C178.347 138.472 178.546 139.191 178.944 139.706C179.149 139.988 179.421 140.207 179.761 140.363C180.101 140.518 180.466 140.596 180.855 140.596C181.244 140.596 181.608 140.518 181.949 140.363C182.289 140.207 182.566 139.988 182.78 139.706Z" fill="#FF6CA9"/>
<path d="M169.381 135.302C169.526 134.651 169.91 134.16 170.533 133.829C171.058 133.547 171.719 133.406 172.516 133.406C173.323 133.406 173.994 133.547 174.528 133.829C174.908 134.043 175.204 134.315 175.418 134.646C175.632 134.976 175.744 135.346 175.753 135.754C175.753 136.114 175.69 136.43 175.564 136.702C175.447 136.965 175.258 137.193 174.995 137.388C175.617 137.738 175.928 138.345 175.928 139.21C175.919 139.648 175.797 140.047 175.564 140.406C175.34 140.756 175.034 141.038 174.645 141.252C174.072 141.563 173.362 141.719 172.516 141.719C171.66 141.719 170.956 141.563 170.401 141.252C169.76 140.922 169.351 140.382 169.176 139.633L170.358 139.342C170.426 139.721 170.64 140.013 170.999 140.217C171.378 140.46 171.884 140.581 172.516 140.581C173.138 140.581 173.649 140.46 174.047 140.217C174.494 139.974 174.718 139.619 174.718 139.152C174.718 138.569 174.456 138.214 173.931 138.088C173.639 137.981 173.187 137.927 172.574 137.927H171.831V136.935H172.574C172.866 136.935 173.104 136.931 173.289 136.921C173.483 136.901 173.663 136.858 173.828 136.79C174.091 136.702 174.276 136.581 174.383 136.425C174.49 136.26 174.543 136.056 174.543 135.813C174.543 135.618 174.485 135.438 174.368 135.273C174.261 135.108 174.115 134.972 173.931 134.865C173.571 134.66 173.099 134.549 172.516 134.529C171.942 134.549 171.476 134.66 171.116 134.865C170.815 135.03 170.63 135.273 170.562 135.594L169.381 135.302Z" fill="#FF6CA9"/>
<path d="M161.104 135.098C161.191 134.942 161.269 134.826 161.337 134.748C161.998 133.863 162.961 133.421 164.224 133.421C164.973 133.421 165.624 133.567 166.179 133.858C166.733 134.14 167.146 134.578 167.418 135.171C167.622 135.589 167.724 136.056 167.724 136.571V141.5H166.674V139.94C166.538 140.212 166.344 140.465 166.091 140.698C165.838 140.931 165.571 141.116 165.289 141.252C164.618 141.583 163.942 141.729 163.262 141.69C162.863 141.67 162.479 141.568 162.11 141.383C161.74 141.189 161.449 140.941 161.235 140.64C161.079 140.397 160.963 140.163 160.885 139.94C160.807 139.716 160.768 139.468 160.768 139.196C160.768 138.788 160.87 138.408 161.074 138.058C161.279 137.708 161.561 137.422 161.92 137.198C162.251 137.013 162.586 136.882 162.927 136.804C163.267 136.726 163.753 136.639 164.385 136.542L164.866 136.469L166.499 136.25C166.422 135.715 166.198 135.307 165.829 135.025C165.44 134.704 164.9 134.544 164.21 134.544C163.831 134.544 163.481 134.612 163.16 134.748C162.839 134.874 162.581 135.074 162.387 135.346C162.338 135.404 162.275 135.492 162.197 135.608L161.104 135.098ZM164.633 137.563C164.069 137.65 163.607 137.742 163.247 137.84C162.888 137.937 162.581 138.092 162.329 138.306C162.086 138.51 161.964 138.797 161.964 139.167C161.964 139.526 162.105 139.847 162.387 140.129C162.669 140.401 163.014 140.557 163.422 140.596C163.471 140.606 163.549 140.61 163.656 140.61C164.171 140.61 164.677 140.47 165.172 140.188C165.668 139.906 166.023 139.531 166.237 139.065C166.373 138.773 166.456 138.501 166.485 138.248C166.524 137.995 166.543 137.665 166.543 137.256L164.633 137.563Z" fill="#FF6CA9"/>
<path d="M158.956 136.119C159.199 136.42 159.389 136.751 159.525 137.11C159.661 137.47 159.729 137.84 159.729 138.219C159.719 138.617 159.637 139.011 159.481 139.4C159.335 139.779 159.126 140.115 158.854 140.406C158.494 140.834 158.052 141.135 157.527 141.31C157.148 141.437 156.778 141.5 156.419 141.5H152V131H158.694V132.181H153.181V134.938H156.419C156.905 134.938 157.372 135.044 157.819 135.258C158.276 135.472 158.655 135.759 158.956 136.119ZM158.504 138.16C158.504 137.694 158.344 137.261 158.023 136.863C157.828 136.619 157.585 136.425 157.294 136.279C157.002 136.133 156.71 136.06 156.419 136.06H153.181V140.363H156.419C156.691 140.363 156.958 140.304 157.221 140.188C157.483 140.061 157.707 139.901 157.892 139.706C158.096 139.502 158.247 139.269 158.344 139.006C158.451 138.734 158.504 138.452 158.504 138.16Z" fill="#FF6CA9"/>
<path fill-rule="evenodd" clip-rule="evenodd" d="M111.5 43C111.5 42.7239 111.724 42.5 112 42.5H114.5C114.776 42.5 115 42.7239 115 43C115 43.2761 114.776 43.5 114.5 43.5H112C111.724 43.5 111.5 43.2761 111.5 43ZM119 43C119 42.7239 119.224 42.5 119.5 42.5H124.5C124.776 42.5 125 42.7239 125 43C125 43.2761 124.776 43.5 124.5 43.5H119.5C119.224 43.5 119 43.2761 119 43ZM129 43C129 42.7239 129.224 42.5 129.5 42.5H132C132.609 42.5 133.191 42.6213 133.723 42.8417C133.978 42.9474 134.099 43.24 133.993 43.495C133.887 43.7501 133.595 43.8712 133.34 43.7654C132.928 43.5945 132.475 43.5 132 43.5H129.5C129.224 43.5 129 43.2761 129 43ZM135.505 45.007C135.76 44.9012 136.053 45.0222 136.158 45.2773C136.379 45.8086 136.5 46.3908 136.5 47V49.6667C136.5 49.9428 136.276 50.1667 136 50.1667C135.724 50.1667 135.5 49.9428 135.5 49.6667V47C135.5 46.5245 135.405 46.0724 135.235 45.6604C135.129 45.4053 135.25 45.1128 135.505 45.007ZM136 54.5C136.276 54.5 136.5 54.7239 136.5 55V60.3333C136.5 60.6095 136.276 60.8333 136 60.8333C135.724 60.8333 135.5 60.6095 135.5 60.3333V55C135.5 54.7239 135.724 54.5 136 54.5ZM136 65.1667C136.276 65.1667 136.5 65.3905 136.5 65.6667V71C136.5 71.2761 136.276 71.5 136 71.5C135.724 71.5 135.5 71.2761 135.5 71V65.6667C135.5 65.3905 135.724 65.1667 136 65.1667ZM136 75.8333C136.276 75.8333 136.5 76.0572 136.5 76.3333V81.6667C136.5 81.9428 136.276 82.1667 136 82.1667C135.724 82.1667 135.5 81.9428 135.5 81.6667V76.3333C135.5 76.0572 135.724 75.8333 136 75.8333ZM136 86.5C136.276 86.5 136.5 86.7239 136.5 87V92.3333C136.5 92.6095 136.276 92.8333 136 92.8333C135.724 92.8333 135.5 92.6095 135.5 92.3333V87C135.5 86.7239 135.724 86.5 136 86.5ZM136 97.1667C136.276 97.1667 136.5 97.3905 136.5 97.6667V103C136.5 103.276 136.276 103.5 136 103.5C135.724 103.5 135.5 103.276 135.5 103V97.6667C135.5 97.3905 135.724 97.1667 136 97.1667ZM136 107.833C136.276 107.833 136.5 108.057 136.5 108.333V111C136.5 111.609 136.379 112.191 136.158 112.723C136.053 112.978 135.76 113.099 135.505 112.993C135.25 112.887 135.129 112.595 135.235 112.34C135.405 111.928 135.5 111.475 135.5 111V108.333C135.5 108.057 135.724 107.833 136 107.833ZM133.993 114.505C134.099 114.76 133.978 115.053 133.723 115.158C133.191 115.379 132.609 115.5 132 115.5H129.5C129.224 115.5 129 115.276 129 115C129 114.724 129.224 114.5 129.5 114.5H132C132.475 114.5 132.928 114.405 133.34 114.235C133.595 114.129 133.887 114.25 133.993 114.505ZM111.5 115C111.5 114.724 111.724 114.5 112 114.5H114.5C114.776 114.5 115 114.724 115 115C115 115.276 114.776 115.5 114.5 115.5H112C111.724 115.5 111.5 115.276 111.5 115ZM119 115C119 114.724 119.224 114.5 119.5 114.5H124.5C124.776 114.5 125 114.724 125 115C125 115.276 124.776 115.5 124.5 115.5H119.5C119.224 115.5 119 115.276 119 115Z" fill="white"/>
<path d="M286.789 78.5313C286.313 78.5313 285.875 78.4146 285.477 78.1813C285.078 77.9479 284.757 77.6319 284.514 77.2333C284.281 76.825 284.164 76.3826 284.164 75.9062C284.164 75.4396 284.286 75.0069 284.529 74.6083C284.772 74.2 285.093 73.8792 285.491 73.6458C285.899 73.4028 286.332 73.2812 286.789 73.2812C287.265 73.2812 287.703 73.3979 288.102 73.6313C288.5 73.8646 288.816 74.1854 289.049 74.5938C289.293 74.9924 289.414 75.4299 289.414 75.9062C289.414 76.3826 289.293 76.825 289.049 77.2333C288.816 77.6319 288.5 77.9479 288.102 78.1813C287.703 78.4146 287.265 78.5313 286.789 78.5313ZM284.602 82.95L293.804 73.7625L294.606 74.5646L285.404 83.7521L284.602 82.95ZM286.789 77.5688C287.246 77.5688 287.635 77.4035 287.956 77.0729C288.286 76.7424 288.452 76.3535 288.452 75.9062C288.452 75.4493 288.286 75.0604 287.956 74.7396C287.635 74.409 287.246 74.2438 286.789 74.2438C286.342 74.2438 285.953 74.409 285.622 74.7396C285.292 75.0604 285.127 75.4493 285.127 75.9062C285.127 76.3535 285.292 76.7424 285.622 77.0729C285.953 77.4035 286.342 77.5688 286.789 77.5688ZM292.418 84.2188C291.942 84.2188 291.504 84.1021 291.106 83.8688C290.707 83.6354 290.386 83.3194 290.143 82.9208C289.91 82.5125 289.793 82.0701 289.793 81.5938C289.793 81.1271 289.915 80.6944 290.158 80.2958C290.401 79.8875 290.722 79.5667 291.12 79.3333C291.529 79.0903 291.961 78.9688 292.418 78.9688C292.895 78.9688 293.332 79.0854 293.731 79.3188C294.129 79.5521 294.445 79.8729 294.679 80.2813C294.922 80.6799 295.043 81.1174 295.043 81.5938C295.043 82.0701 294.922 82.5125 294.679 82.9208C294.445 83.3194 294.129 83.6354 293.731 83.8688C293.332 84.1021 292.895 84.2188 292.418 84.2188ZM292.418 83.2563C292.875 83.2563 293.264 83.091 293.585 82.7604C293.915 82.4299 294.081 82.041 294.081 81.5938C294.081 81.1368 293.915 80.7479 293.585 80.4271C293.264 80.0965 292.875 79.9313 292.418 79.9313C291.971 79.9313 291.582 80.0965 291.252 80.4271C290.921 80.7479 290.756 81.1368 290.756 81.5938C290.756 82.041 290.921 82.4299 291.252 82.7604C291.582 83.091 291.971 83.2563 292.418 83.2563Z" fill="white"/>
<path d="M276.025 76.4604C276.015 76.0132 276.103 75.5854 276.287 75.1771C276.472 74.759 276.73 74.3993 277.06 74.0979C277.352 73.8257 277.692 73.6215 278.081 73.4854C278.48 73.3493 278.888 73.2812 279.306 73.2812C279.753 73.2812 280.176 73.3639 280.575 73.5292C280.973 73.6847 281.319 73.9181 281.61 74.2292C281.892 74.5208 282.111 74.866 282.266 75.2646C282.432 75.6535 282.514 76.0569 282.514 76.475C282.514 77.0097 282.398 77.491 282.164 77.9188C281.941 78.3465 281.576 78.8181 281.071 79.3333L277.746 82.8625H282.485V84H275.952V82.8625L280.371 78.3563C281.003 77.7146 281.319 77.0875 281.319 76.475C281.319 76.2028 281.265 75.9451 281.158 75.7021C281.061 75.4493 280.915 75.2257 280.721 75.0312C280.332 74.6229 279.846 74.4188 279.262 74.4188C279 74.4188 278.747 74.4674 278.504 74.5646C278.271 74.6618 278.062 74.7931 277.877 74.9583C277.673 75.1625 277.512 75.3958 277.396 75.6583C277.279 75.9111 277.226 76.1785 277.235 76.4604H276.025Z" fill="white"/>
<path d="M273.602 78.3708C273.894 78.6625 274.112 79.0174 274.258 79.4354C274.414 79.8438 274.492 80.2715 274.492 80.7188C274.492 81.2729 274.39 81.7931 274.185 82.2792C273.981 82.7556 273.68 83.1493 273.281 83.4604C272.98 83.7132 272.63 83.8979 272.231 84.0146C271.842 84.141 271.439 84.2042 271.021 84.2042C270.642 84.2042 270.267 84.141 269.898 84.0146C269.538 83.8979 269.208 83.7229 268.906 83.4896C268.381 83.0813 268.017 82.5417 267.812 81.8708L268.95 81.55C269.086 81.9972 269.329 82.3521 269.679 82.6146C270.068 82.916 270.54 83.0667 271.094 83.0667C271.356 83.0667 271.609 83.0278 271.852 82.95C272.095 82.8625 272.309 82.741 272.494 82.5854C273.009 82.1771 273.267 81.5743 273.267 80.7771C273.267 80.4271 273.208 80.1014 273.092 79.8C272.975 79.4986 272.8 79.241 272.567 79.0271C272.178 78.6771 271.682 78.5021 271.079 78.5021C270.69 78.5021 270.311 78.5944 269.942 78.7792L269.358 77.8458L272.742 74.6375H268.235V73.5H274.36V74.6667L271.4 77.4813C272.275 77.5104 273.009 77.8069 273.602 78.3708Z" fill="white"/>
<path d="M265.126 79.0562C265.164 79.1826 265.184 79.3431 265.184 79.5375C265.184 79.8681 265.116 80.15 264.98 80.3833C264.863 80.5875 264.707 80.7528 264.513 80.8792C264.319 81.0056 264.114 81.0833 263.901 81.1125C263.803 81.1319 263.667 81.1417 263.492 81.1417C263.064 81.1417 262.583 81.0201 262.048 80.7771C262 80.7576 261.946 80.7333 261.888 80.7042C261.83 80.675 261.771 80.6458 261.713 80.6167C261.441 80.4903 261.222 80.3979 261.057 80.3396C260.891 80.2812 260.731 80.2521 260.576 80.2521C260.381 80.2521 260.235 80.3007 260.138 80.3979C260.051 80.4951 260.007 80.6167 260.007 80.7625C260.007 80.8403 260.026 80.9375 260.065 81.0542H258.957C258.918 80.9278 258.898 80.7674 258.898 80.5729C258.898 80.2424 258.966 79.9604 259.103 79.7271C259.21 79.5229 259.36 79.3625 259.555 79.2458C259.749 79.1194 259.958 79.0368 260.182 78.9979C260.357 78.9785 260.488 78.9688 260.576 78.9688C261.023 78.9688 261.509 79.0951 262.034 79.3479L262.384 79.5083C262.666 79.6347 262.88 79.7271 263.026 79.7854C263.181 79.834 263.332 79.8583 263.478 79.8583C263.682 79.8583 263.832 79.8097 263.93 79.7125C264.027 79.6153 264.076 79.4889 264.076 79.3333C264.076 79.2264 264.056 79.134 264.017 79.0562H265.126Z" fill="white"/>
<path d="M252.729 73.5V74.7688H251.547V73.5H252.729ZM252.729 76.125V84H251.547V76.125H252.729Z" fill="white"/>
<path d="M249.357 76.125V84H248.176V80.3979H243.874V84H242.693V76.125H243.874V79.2167H248.176V76.125H249.357Z" fill="white"/>
<path d="M240.506 73.5V74.7688H239.325V73.5H240.506ZM240.506 76.125V84H239.325V76.125H240.506Z" fill="white"/>
<path d="M237.569 82.8188V85.225H236.374V84H229.636V76.125H230.817V82.8188H235.119V76.125H236.301V82.8188H237.569Z" fill="white"/>
<path d="M221.986 76.125C222.686 76.125 223.245 76.334 223.663 76.7521C224.14 77.1701 224.378 77.7 224.378 78.3417C224.378 78.8278 224.237 79.2507 223.955 79.6104C223.858 79.7465 223.765 79.8437 223.678 79.9021C223.95 80.0771 224.145 80.2569 224.261 80.4417C224.427 80.6167 224.553 80.8257 224.64 81.0687C224.728 81.3021 224.772 81.5403 224.772 81.7833C224.772 82.1042 224.704 82.4153 224.567 82.7167C224.431 83.0083 224.242 83.2563 223.999 83.4604C223.785 83.6451 223.547 83.7812 223.284 83.8687C223.022 83.9562 222.749 84 222.467 84H218.165V76.1396L221.986 76.125ZM219.361 79.5667H221.986C222.365 79.5667 222.667 79.4257 222.89 79.1438C223.075 78.9201 223.167 78.6528 223.167 78.3417C223.148 78.0403 223.056 77.7778 222.89 77.5542C222.774 77.4083 222.642 77.3014 222.497 77.2333C222.361 77.1653 222.19 77.1312 221.986 77.1312H219.361V79.5667ZM219.361 83.0083H222.307C222.686 83.0083 222.997 82.8868 223.24 82.6438C223.454 82.4201 223.561 82.1139 223.561 81.725C223.561 81.4333 223.454 81.1708 223.24 80.9375C223.095 80.7819 222.939 80.6799 222.774 80.6312C222.618 80.5826 222.414 80.5583 222.161 80.5583H219.361V83.0083Z" fill="white"/>
<path d="M212.873 76.125V84H211.678V81.0979H209.082L207.682 84H206.326L207.842 80.9083C207.541 80.7917 207.273 80.6167 207.04 80.3833C206.807 80.15 206.627 79.8778 206.501 79.5667C206.384 79.2556 206.326 78.9347 206.326 78.6042C206.326 78.2736 206.384 77.9576 206.501 77.6562C206.627 77.3451 206.807 77.0778 207.04 76.8542C207.264 76.6208 207.526 76.441 207.828 76.3146C208.139 76.1882 208.455 76.125 208.776 76.125H212.873ZM211.678 77.2479H208.819C208.479 77.2576 208.178 77.4035 207.915 77.6854C207.672 77.9479 207.551 78.2542 207.551 78.6042C207.551 78.9542 207.672 79.2604 207.915 79.5229C208.168 79.8049 208.469 79.9458 208.819 79.9458H211.678V77.2479Z" fill="white"/>
<path d="M205.153 82.8188V85.225H203.958V84H197.22V76.125H198.401V82.8188H202.703V76.125H203.885V82.8188H205.153Z" fill="white"/>
<path d="M195.177 84H193.981V78.0646L189.781 84H188.716V76.125H189.912V82.0021L194.112 76.125H195.177V84Z" fill="white"/>
<path d="M186.672 76.125V84H185.491V80.3979H181.188V84H180.007V76.125H181.188V79.2167H185.491V76.125H186.672Z" fill="white"/>
<path d="M171.858 77.8021C172.004 77.1507 172.388 76.6597 173.01 76.3292C173.535 76.0472 174.196 75.9062 174.993 75.9062C175.8 75.9062 176.471 76.0472 177.006 76.3292C177.385 76.5431 177.681 76.8153 177.895 77.1458C178.109 77.4764 178.221 77.8458 178.231 78.2542C178.231 78.6139 178.168 78.9299 178.041 79.2021C177.925 79.4646 177.735 79.6931 177.472 79.8875C178.095 80.2375 178.406 80.8451 178.406 81.7104C178.396 82.1479 178.275 82.5465 178.041 82.9063C177.818 83.2563 177.511 83.5382 177.122 83.7521C176.549 84.0632 175.839 84.2188 174.993 84.2188C174.138 84.2188 173.433 84.0632 172.879 83.7521C172.237 83.4215 171.829 82.8819 171.654 82.1333L172.835 81.8417C172.903 82.2208 173.117 82.5125 173.477 82.7167C173.856 82.9597 174.361 83.0813 174.993 83.0813C175.615 83.0813 176.126 82.9597 176.525 82.7167C176.972 82.4736 177.195 82.1188 177.195 81.6521C177.195 81.0688 176.933 80.7139 176.408 80.5875C176.116 80.4806 175.664 80.4271 175.052 80.4271H174.308V79.4354H175.052C175.343 79.4354 175.581 79.4306 175.766 79.4208C175.961 79.4014 176.14 79.3576 176.306 79.2896C176.568 79.2021 176.753 79.0806 176.86 78.925C176.967 78.7597 177.02 78.5556 177.02 78.3125C177.02 78.1181 176.962 77.9382 176.845 77.7729C176.738 77.6076 176.593 77.4715 176.408 77.3646C176.048 77.1604 175.577 77.0486 174.993 77.0292C174.42 77.0486 173.953 77.1604 173.593 77.3646C173.292 77.5299 173.107 77.7729 173.039 78.0938L171.858 77.8021Z" fill="white"/>
<path d="M169.905 73.5V74.7688H168.723V73.5H169.905ZM169.905 76.125V84H168.723V76.125H169.905Z" fill="white"/>
<path d="M166.11 77.175C166.684 77.9042 166.971 78.8618 166.971 80.0479C166.971 81.2535 166.684 82.2208 166.11 82.95C165.789 83.3583 165.391 83.6743 164.914 83.8979C164.438 84.1118 163.928 84.2188 163.383 84.2188C162.868 84.2188 162.391 84.1313 161.954 83.9563C161.526 83.7715 161.157 83.509 160.846 83.1688V87.5H159.65V76.125H160.714V77.1167C161.025 76.7375 161.419 76.441 161.896 76.2271C162.372 76.0132 162.873 75.9062 163.398 75.9062C163.942 75.9062 164.448 76.0181 164.914 76.2417C165.391 76.4556 165.789 76.7667 166.11 77.175ZM165.148 82.2063C165.527 81.7104 165.716 80.991 165.716 80.0479C165.716 79.134 165.527 78.4146 165.148 77.8896C164.934 77.5882 164.657 77.3646 164.316 77.2188C163.986 77.0729 163.616 77 163.208 77C162.819 77 162.464 77.0729 162.144 77.2188C161.823 77.3549 161.555 77.559 161.341 77.8313C160.923 78.3563 160.714 79.0951 160.714 80.0479C160.714 81.0104 160.923 81.7542 161.341 82.2792C161.555 82.5514 161.828 82.7604 162.158 82.9063C162.498 83.0521 162.858 83.125 163.237 83.125C163.616 83.125 163.976 83.0472 164.316 82.8917C164.657 82.7361 164.934 82.5076 165.148 82.2063Z" fill="white"/>
<path d="M154.5 79.3916V80.3833H144.875V79.3916H154.5Z" fill="white"/>
</g>
<defs>
<clipPath id="clip0_69_201">
<rect width="360" height="320" fill="white"/>
</clipPath>
</defs>
</svg>
