<svg width="424" height="176" viewBox="0 0 424 176" fill="none" xmlns="http://www.w3.org/2000/svg">
<g opacity="0.1">
<path d="M330.041 81.2861C331.551 82.7967 333.062 84.3072 334.572 85.8178C336.272 87.1395 337.688 87.9892 338.821 88.3668C339.576 77.2265 341.653 66.4639 345.052 56.0788C348.45 45.505 352.982 36.2529 358.647 28.3225C364.311 20.2033 371.014 13.7835 378.756 9.06302C386.497 4.15373 395.183 1.6991 404.813 1.6991C414.065 1.6991 421.618 4.43696 427.471 9.9127C433.513 15.3884 436.534 23.6021 436.534 34.5535C436.534 45.505 434.646 56.1732 430.87 66.5583C427.093 76.7545 421.806 85.8178 415.009 93.7482C408.211 101.679 400.187 108.004 390.935 112.724C381.682 117.445 371.581 119.805 360.629 119.805C356.475 119.805 351.566 119.239 345.901 118.106C340.426 116.784 335.139 114.707 330.041 111.875V81.2861ZM361.762 121.504C363.273 128.68 365.822 134.722 369.409 139.631C373.186 144.54 377.528 146.995 382.438 146.995C390.934 146.995 398.676 144.54 405.662 139.631C412.837 134.722 419.163 128.585 424.639 121.221C430.114 113.857 434.74 106.021 438.517 97.7133C442.482 89.2165 445.597 81.5694 447.863 74.7719V114.707C446.919 123.204 444.37 131.134 440.216 138.498C436.062 145.862 430.964 152.282 424.922 157.758C419.068 163.233 412.554 167.576 405.379 170.786C398.204 173.807 391.218 175.318 384.42 175.318C379.322 175.318 374.035 174.09 368.56 171.636C363.273 169.181 358.363 165.594 353.832 160.873C349.489 155.964 345.901 149.922 343.069 142.747C340.237 135.571 338.821 127.263 338.821 117.823C342.975 119.333 346.657 120.372 349.866 120.938C353.265 121.316 357.23 121.504 361.762 121.504ZM398.582 29.1722C392.728 30.1163 387.63 32.4765 383.287 36.2529C379.133 39.8404 375.64 44.4665 372.808 50.1311C369.976 55.7956 367.804 62.2154 366.294 69.3906C364.783 76.5657 363.745 83.9296 363.178 91.4823C371.675 91.1047 378.945 89.3109 384.987 86.101C391.029 82.7023 395.938 78.6427 399.715 73.9222C403.68 69.2017 406.512 64.1981 408.211 58.9111C410.1 53.4354 411.044 48.2429 411.044 43.3336C411.044 33.3262 406.89 28.6057 398.582 29.1722Z" fill="white"/>
<path d="M212.213 81.2861C213.724 82.7967 215.234 84.3072 216.745 85.8178C218.444 87.1395 219.861 87.9892 220.993 88.3668C221.749 77.2265 223.826 66.4639 227.224 56.0788C230.623 45.505 235.155 36.2529 240.819 28.3225C246.484 20.2033 253.187 13.7835 260.929 9.06302C268.67 4.15373 277.356 1.6991 286.986 1.6991C296.238 1.6991 303.79 4.43696 309.644 9.9127C315.686 15.3884 318.707 23.6021 318.707 34.5535C318.707 45.505 316.819 56.1732 313.042 66.5583C309.266 76.7545 303.979 85.8178 297.182 93.7482C290.384 101.679 282.359 108.004 273.107 112.724C263.855 117.445 253.753 119.805 242.802 119.805C238.648 119.805 233.739 119.239 228.074 118.106C222.598 116.784 217.311 114.707 212.213 111.875V81.2861ZM243.935 121.504C245.445 128.68 247.994 134.722 251.582 139.631C255.358 144.54 259.701 146.995 264.611 146.995C273.107 146.995 280.849 144.54 287.835 139.631C295.01 134.722 301.336 128.585 306.811 121.221C312.287 113.857 316.913 106.021 320.69 97.7133C324.655 89.2165 327.77 81.5694 330.036 74.7719V114.707C329.092 123.204 326.543 131.134 322.389 138.498C318.235 145.862 313.137 152.282 307.095 157.758C301.241 163.233 294.727 167.576 287.552 170.786C280.377 173.807 273.391 175.318 266.593 175.318C261.495 175.318 256.208 174.09 250.732 171.636C245.445 169.181 240.536 165.594 236.005 160.873C231.662 155.964 228.074 149.922 225.242 142.747C222.41 135.571 220.993 127.263 220.993 117.823C225.147 119.333 228.829 120.372 232.039 120.938C235.438 121.316 239.403 121.504 243.935 121.504ZM280.755 29.1722C274.901 30.1163 269.803 32.4765 265.46 36.2529C261.306 39.8404 257.813 44.4665 254.981 50.1311C252.149 55.7956 249.977 62.2154 248.467 69.3906C246.956 76.5657 245.917 83.9296 245.351 91.4823C253.848 91.1047 261.117 89.3109 267.16 86.101C273.202 82.7023 278.111 78.6427 281.887 73.9222C285.853 69.2017 288.685 64.1981 290.384 58.9111C292.272 53.4354 293.217 48.2429 293.217 43.3336C293.217 33.3262 289.063 28.6057 280.755 29.1722Z" fill="white"/>
<path d="M136.878 26.3402C135.934 25.2073 134.424 24.1688 132.347 23.2247C130.27 22.2806 128.476 21.8085 126.966 21.8085C124.7 21.8085 122.434 22.4694 120.168 23.7911C117.902 24.924 115.825 26.4346 113.937 28.3228C112.238 30.211 110.727 32.3824 109.405 34.837C108.272 37.1028 107.706 39.3687 107.706 41.6345H109.689C116.108 41.6345 122.339 39.5575 128.382 35.4035C134.424 31.2495 140.183 26.6234 145.659 21.5253C151.134 16.4272 156.421 11.8012 161.519 7.64715C166.617 3.49314 171.527 1.41614 176.247 1.41614C183.045 1.41614 188.426 2.83228 192.391 5.66455C196.545 8.49683 198.622 12.3676 198.622 17.2769V19.5427C197.867 25.0185 195.979 31.4383 192.958 38.8022C189.936 46.1661 186.349 53.9077 182.195 62.0269C178.041 70.1461 173.509 78.3597 168.6 86.6677C163.88 94.9757 159.348 102.812 155.005 110.176C150.662 117.351 146.886 123.771 143.676 129.435C140.466 135.1 138.389 139.443 137.445 142.464C139.9 140.198 143.959 136.516 149.624 131.418C155.288 126.131 161.614 120.749 168.6 115.274C175.586 109.798 182.761 104.983 190.125 100.829C197.678 96.6751 204.57 94.5981 210.801 94.5981H211.934V122.638C208.158 122.638 203.154 124.62 196.923 128.585C190.881 132.551 184.461 137.271 177.663 142.747C170.866 148.034 164.352 153.415 158.121 158.891C151.89 164.178 146.791 168.143 142.826 170.786C138.483 173.807 133.952 175.318 129.231 175.318C123.944 175.318 119.507 173.335 115.92 169.37C112.332 165.405 110.538 160.118 110.538 153.509C110.538 147.278 112.143 139.915 115.353 131.418C118.563 122.732 122.623 113.763 127.532 104.511C132.441 95.259 137.634 86.0068 143.11 76.7547C148.774 67.5026 154.061 58.9114 158.97 50.981C163.88 43.0506 167.939 36.2532 171.149 30.5886C174.359 24.924 175.964 21.0533 175.964 18.9763C175.964 21.2421 173.698 24.8296 169.166 29.7389C164.635 34.4594 159.065 39.2743 152.456 44.1835C145.847 48.904 138.672 53.058 130.931 56.6456C123.378 60.2331 116.486 62.0269 110.255 62.0269C104.968 62.0269 100.72 60.0443 97.5098 56.0791C94.2999 52.1139 92.6949 46.7326 92.6949 39.9351C92.6949 34.2706 93.639 29.3613 95.5272 25.2073C97.6042 21.0533 100.153 17.6545 103.174 15.0111C106.384 12.3676 109.972 10.385 113.937 9.06329C118.091 7.74155 122.245 7.08069 126.399 7.08069C130.553 7.08069 134.707 7.64714 138.861 8.78005C143.015 9.91297 146.319 12.1788 148.774 15.5775C146.697 18.0322 144.62 20.2036 142.543 22.0918C140.466 23.7911 138.578 25.2073 136.878 26.3402Z" fill="white"/>
<path d="M58.1361 22.0918C53.4156 22.0918 49.7336 27.0955 47.0902 37.1028C44.6355 47.1102 41.8033 61.4604 38.5934 80.1535C36.7052 91.4826 35.1946 101.112 34.0617 109.043C33.1176 116.784 32.1735 124.054 31.2294 130.851C30.4742 137.46 29.7189 144.163 28.9636 150.96C28.2083 157.569 27.2642 165.311 26.1313 174.185H-0.20886C0.92405 162.856 2.05696 152.188 3.18987 142.18C4.5116 132.173 5.73892 122.732 6.87183 113.858C1.77373 111.781 -3.13555 110.742 -7.85601 110.742C-13.1429 110.742 -18.5243 112.253 -24 115.274V87.5174C-20.4124 84.3075 -16.9193 82.1361 -13.5206 81.0032C-10.1218 79.6814 -6.81751 79.0206 -3.6076 79.0206C1.11287 79.0206 6.21097 80.2479 11.6867 82.7025C13.0084 74.2057 14.2358 66.6529 15.3687 60.0443C16.5016 53.4356 17.5401 47.9599 18.4842 43.6171C19.4283 38.519 20.3724 34.0817 21.3165 30.3054C24.7152 19.5427 29.7189 11.8012 36.3275 7.08069C42.9362 2.36023 49.6392 0 56.4367 0C61.5348 0 66.4441 0.377638 71.1646 1.13291C75.885 1.88818 79.9446 3.49313 83.3434 5.94778C86.9309 8.2136 89.7632 11.5179 91.8402 15.8608C93.9172 20.0148 94.9557 25.5849 94.9557 32.5712C94.9557 34.0818 94.9557 36.3476 94.9557 39.3687C95.1445 42.3898 95.2389 45.5997 95.2389 48.9984C95.2389 52.7748 95.1445 56.5511 94.9557 60.3275C94.7669 63.9151 94.2948 66.6529 93.5396 68.5411H66.3497C66.7273 64.9536 67.105 61.9325 67.4826 59.4778C67.8602 57.0232 68.1435 54.8518 68.3323 52.9636C68.7099 51.0754 68.8987 49.2816 68.8987 47.5823C69.0876 45.6941 69.182 43.6171 69.182 41.3513C69.182 39.2743 69.0876 37.1028 68.8987 34.837C68.8987 32.5712 68.5211 30.4942 67.7658 28.606C67.0105 26.7178 65.8776 25.2073 64.3671 24.0744C63.0454 22.7526 60.9684 22.0918 58.1361 22.0918ZM39.443 97.7136C43.9747 100.357 48.3175 102.623 52.4715 104.511C56.6255 106.399 60.8739 107.343 65.2168 107.343C69.9372 107.343 74.6577 105.927 79.3782 103.095C84.0986 100.074 89.0079 94.6925 94.106 86.9509V120.089C88.6303 126.697 83.3434 131.323 78.2453 133.967C73.336 136.61 68.4267 137.932 63.5174 137.932C58.7969 137.932 54.0765 137.082 49.356 135.383C44.8244 133.495 40.1039 131.229 35.1946 128.585L39.443 97.7136Z" fill="white"/>
</g>
</svg>
