<svg width="360" height="344" viewBox="0 0 360 344" fill="none" xmlns="http://www.w3.org/2000/svg">
<rect y="43" width="104" height="301" fill="#FF89BA"/>
<rect x="112" y="278" width="104" height="66" fill="white"/>
<path d="M0 16C0 7.16344 7.16344 0 16 0H151.5C161.165 0 169 7.83502 169 17.5C169 27.165 161.165 35 151.5 35H0V16Z" fill="white"/>
<path d="M24.0208 13.5937C24.2931 13.8854 24.5021 14.2208 24.6479 14.6C24.8035 14.9792 24.8861 15.3729 24.8958 15.7812C24.8958 16.1507 24.8278 16.5201 24.6917 16.8896C24.5556 17.2493 24.366 17.575 24.1229 17.8667C23.8215 18.2361 23.4424 18.5278 22.9854 18.7417C22.5382 18.9556 22.0715 19.0625 21.5854 19.0625H18.3479V23H17.1667V12.5H21.5854C21.9451 12.5 22.3146 12.5632 22.6938 12.6896C23.2188 12.8646 23.6611 13.166 24.0208 13.5937ZM23.1896 17.1375C23.5104 16.7389 23.6708 16.3062 23.6708 15.8396C23.6708 15.5382 23.6174 15.2562 23.5104 14.9937C23.4132 14.7312 23.2625 14.4979 23.0583 14.2937C22.8736 14.0993 22.65 13.9437 22.3875 13.8271C22.125 13.7007 21.8576 13.6375 21.5854 13.6375H18.3479V17.925H21.5854C21.8771 17.925 22.1688 17.8569 22.4604 17.7208C22.7521 17.575 22.9951 17.3806 23.1896 17.1375ZM29.6974 23.2188C29.1141 23.2188 28.5745 23.1118 28.0786 22.8979C27.5828 22.6743 27.1648 22.3535 26.8245 21.9354C26.2314 21.1868 25.9349 20.2243 25.9349 19.0479C25.9349 17.8812 26.2314 16.9285 26.8245 16.1896C27.155 15.7812 27.5731 15.4653 28.0786 15.2417C28.5842 15.0181 29.1238 14.9062 29.6974 14.9062C30.271 14.9062 30.8057 15.0181 31.3016 15.2417C31.8071 15.4556 32.2252 15.7715 32.5557 16.1896C33.1585 16.9187 33.4599 17.8715 33.4599 19.0479C33.4599 20.2146 33.1585 21.1771 32.5557 21.9354C32.2252 22.3632 31.812 22.684 31.3161 22.8979C30.83 23.1118 30.2905 23.2188 29.6974 23.2188ZM31.6224 21.2062C32.0113 20.691 32.2057 19.9715 32.2057 19.0479C32.2057 18.134 32.0113 17.4194 31.6224 16.9042C31.4085 16.6222 31.1314 16.4083 30.7911 16.2625C30.4509 16.1069 30.0863 16.0292 29.6974 16.0292C29.3085 16.0292 28.9439 16.1069 28.6036 16.2625C28.2634 16.4083 27.9911 16.6222 27.787 16.9042C27.3884 17.4194 27.1891 18.134 27.1891 19.0479C27.1891 19.9715 27.3884 20.691 27.787 21.2062C27.9911 21.4882 28.2634 21.7069 28.6036 21.8625C28.9439 22.0181 29.3085 22.0958 29.6974 22.0958C30.0863 22.0958 30.4509 22.0181 30.7911 21.8625C31.1314 21.7069 31.4085 21.4882 31.6224 21.2062ZM34.8344 16.8021C34.9802 16.1507 35.3642 15.6597 35.9865 15.3292C36.5115 15.0472 37.1726 14.9062 37.9698 14.9062C38.7767 14.9062 39.4476 15.0472 39.9823 15.3292C40.3615 15.5431 40.658 15.8153 40.8719 16.1458C41.0858 16.4764 41.1976 16.8458 41.2073 17.2542C41.2073 17.6139 41.1441 17.9299 41.0177 18.2021C40.901 18.4646 40.7115 18.6931 40.449 18.8875C41.0712 19.2375 41.3823 19.8451 41.3823 20.7104C41.3726 21.1479 41.251 21.5465 41.0177 21.9062C40.7941 22.2562 40.4878 22.5382 40.099 22.7521C39.5253 23.0632 38.8156 23.2188 37.9698 23.2188C37.1142 23.2188 36.4094 23.0632 35.8552 22.7521C35.2135 22.4215 34.8052 21.8819 34.6302 21.1333L35.8115 20.8417C35.8795 21.2208 36.0934 21.5125 36.4531 21.7167C36.8323 21.9597 37.3378 22.0812 37.9698 22.0812C38.592 22.0812 39.1024 21.9597 39.501 21.7167C39.9483 21.4736 40.1719 21.1187 40.1719 20.6521C40.1719 20.0687 39.9094 19.7139 39.3844 19.5875C39.0927 19.4806 38.6406 19.4271 38.0281 19.4271H37.2844V18.4354H38.0281C38.3198 18.4354 38.558 18.4306 38.7427 18.4208C38.9372 18.4014 39.117 18.3576 39.2823 18.2896C39.5448 18.2021 39.7295 18.0806 39.8365 17.925C39.9434 17.7597 39.9969 17.5556 39.9969 17.3125C39.9969 17.1181 39.9385 16.9382 39.8219 16.7729C39.7149 16.6076 39.5691 16.4715 39.3844 16.3646C39.0247 16.1604 38.5531 16.0486 37.9698 16.0292C37.3962 16.0486 36.9295 16.1604 36.5698 16.3646C36.2684 16.5299 36.0837 16.7729 36.0156 17.0937L34.8344 16.8021ZM49.6191 21.8625H50.3191V24.0646H49.1962V23H43.3921V24.0646H42.2546V21.8625C42.6143 21.8625 42.9448 21.6778 43.2462 21.3083C43.5476 20.9389 43.7566 20.2583 43.8733 19.2667L44.3546 15.125H49.6191V21.8625ZM48.4962 16.2042H45.3462L44.9671 19.3979C44.8309 20.5743 44.5539 21.3958 44.1358 21.8625H48.4962V16.2042ZM58.618 16.175C59.1916 16.9042 59.4784 17.8618 59.4784 19.0479C59.4784 20.2535 59.1916 21.2208 58.618 21.95C58.2971 22.3583 57.8985 22.6743 57.4221 22.8979C56.9457 23.1118 56.4353 23.2188 55.8909 23.2188C55.3756 23.2188 54.8992 23.1312 54.4617 22.9562C54.0339 22.7715 53.6645 22.509 53.3534 22.1687V26.5H52.1576V15.125H53.2221V16.1167C53.5332 15.7375 53.927 15.441 54.4034 15.2271C54.8798 15.0132 55.3805 14.9062 55.9055 14.9062C56.4499 14.9062 56.9555 15.0181 57.4221 15.2417C57.8985 15.4556 58.2971 15.7667 58.618 16.175ZM57.6555 21.2062C58.0346 20.7104 58.2242 19.991 58.2242 19.0479C58.2242 18.134 58.0346 17.4146 57.6555 16.8896C57.4416 16.5882 57.1645 16.3646 56.8242 16.2187C56.4937 16.0729 56.1242 16 55.7159 16C55.327 16 54.9721 16.0729 54.6513 16.2187C54.3305 16.3549 54.0631 16.559 53.8492 16.8312C53.4312 17.3562 53.2221 18.0951 53.2221 19.0479C53.2221 20.0104 53.4312 20.7542 53.8492 21.2792C54.0631 21.5514 54.3353 21.7604 54.6659 21.9062C55.0062 22.0521 55.3659 22.125 55.7451 22.125C56.1242 22.125 56.4839 22.0472 56.8242 21.8917C57.1645 21.7361 57.4416 21.5076 57.6555 21.2062ZM62.4124 12.5V13.7687H61.2311V12.5H62.4124ZM62.4124 15.125V23H61.2311V15.125H62.4124ZM67.9385 15.5333C68.4635 15.5139 68.9642 15.6062 69.4406 15.8104C69.917 16.0049 70.3156 16.2965 70.6365 16.6854C70.9378 17.0354 71.1615 17.4486 71.3073 17.925C71.4531 18.3917 71.5309 18.8826 71.5406 19.3979C71.5406 19.9132 71.458 20.409 71.2927 20.8854C71.1372 21.3521 70.8941 21.7653 70.5635 22.125C70.2233 22.5042 69.8101 22.7812 69.324 22.9562C68.8378 23.1312 68.3177 23.2188 67.7635 23.2188C67.2483 23.2188 66.7524 23.1215 66.276 22.9271C65.8094 22.7229 65.4156 22.4312 65.0948 22.0521C64.5115 21.3812 64.2052 20.4722 64.176 19.325L64.1615 18.4354C64.1615 17.609 64.2101 16.875 64.3073 16.2333C64.5017 14.9208 65.0365 13.9535 65.9115 13.3312C66.349 13.0104 66.8399 12.7917 67.3844 12.675C67.9385 12.5583 68.5559 12.5 69.2365 12.5C69.7809 12.5 70.3448 12.5486 70.9281 12.6458V13.7542C70.3351 13.6569 69.7177 13.6083 69.076 13.6083C67.9677 13.6083 67.1316 13.8076 66.5677 14.2062C66.2177 14.4396 65.9601 14.7604 65.7948 15.1687C65.6295 15.5771 65.5128 16.0681 65.4448 16.6417C66.1059 15.8931 66.9372 15.5236 67.9385 15.5333ZM67.851 16.6125C67.4913 16.6125 67.1462 16.6806 66.8156 16.8167C66.4948 16.9431 66.2274 17.1278 66.0135 17.3708C65.6247 17.8375 65.4302 18.484 65.4302 19.3104C65.4302 20.1757 65.6247 20.8319 66.0135 21.2792C66.2274 21.5319 66.4948 21.7264 66.8156 21.8625C67.1462 21.9889 67.4913 22.0521 67.851 22.0521C68.2205 22.0521 68.5656 21.9889 68.8865 21.8625C69.2073 21.7264 69.4698 21.5319 69.674 21.2792C70.0823 20.8222 70.2865 20.1708 70.2865 19.325C70.2865 18.4792 70.0823 17.8278 69.674 17.3708C69.4698 17.1181 69.2073 16.9285 68.8865 16.8021C68.5656 16.6757 68.2205 16.6125 67.851 16.6125ZM79.8085 15.125V23H78.6272V19.3979H74.3251V23H73.1439V15.125H74.3251V18.2167H78.6272V15.125H79.8085ZM81.7508 16.5979C81.8383 16.4424 81.9161 16.3257 81.9841 16.2479C82.6452 15.3632 83.6077 14.9208 84.8716 14.9208C85.6202 14.9208 86.2716 15.0667 86.8258 15.3583C87.3799 15.6403 87.7931 16.0778 88.0654 16.6708C88.2695 17.0889 88.3716 17.5556 88.3716 18.0708V23H87.3216V21.4396C87.1855 21.7118 86.9911 21.9646 86.7383 22.1979C86.4855 22.4312 86.2181 22.616 85.9362 22.7521C85.2654 23.0826 84.5897 23.2285 83.9091 23.1896C83.5105 23.1701 83.1265 23.0681 82.757 22.8833C82.3876 22.6889 82.0959 22.441 81.882 22.1396C81.7265 21.8965 81.6098 21.6632 81.532 21.4396C81.4543 21.216 81.4154 20.9681 81.4154 20.6958C81.4154 20.2875 81.5174 19.9083 81.7216 19.5583C81.9258 19.2083 82.2077 18.9215 82.5674 18.6979C82.898 18.5132 83.2334 18.3819 83.5737 18.3042C83.914 18.2264 84.4001 18.1389 85.032 18.0417L85.5133 17.9687L87.1466 17.75C87.0688 17.2153 86.8452 16.8069 86.4758 16.525C86.0869 16.2042 85.5473 16.0437 84.857 16.0437C84.4779 16.0437 84.1279 16.1118 83.807 16.2479C83.4862 16.3743 83.2286 16.5736 83.0341 16.8458C82.9855 16.9042 82.9223 16.9917 82.8445 17.1083L81.7508 16.5979ZM85.2799 19.0625C84.7161 19.15 84.2543 19.2424 83.8945 19.3396C83.5348 19.4368 83.2286 19.5924 82.9758 19.8062C82.7327 20.0104 82.6112 20.2972 82.6112 20.6667C82.6112 21.0264 82.7522 21.3472 83.0341 21.6292C83.3161 21.9014 83.6612 22.0569 84.0695 22.0958C84.1181 22.1056 84.1959 22.1104 84.3029 22.1104C84.8181 22.1104 85.3237 21.9694 85.8195 21.6875C86.3154 21.4056 86.6702 21.0312 86.8841 20.5646C87.0202 20.2729 87.1029 20.0007 87.132 19.7479C87.1709 19.4951 87.1904 19.1646 87.1904 18.7562L85.2799 19.0625ZM97.3358 15.125C98.0358 15.125 98.5948 15.334 99.0129 15.7521C99.4893 16.1701 99.7275 16.7 99.7275 17.3417C99.7275 17.8278 99.5865 18.2507 99.3046 18.6104C99.2073 18.7465 99.115 18.8437 99.0275 18.9021C99.2997 19.0771 99.4941 19.2569 99.6108 19.4417C99.7761 19.6167 99.9025 19.8257 99.99 20.0687C100.077 20.3021 100.121 20.5403 100.121 20.7833C100.121 21.1042 100.053 21.4153 99.9171 21.7167C99.7809 22.0083 99.5914 22.2562 99.3483 22.4604C99.1344 22.6451 98.8962 22.7812 98.6337 22.8687C98.3712 22.9562 98.099 23 97.8171 23H93.515V15.1396L97.3358 15.125ZM94.7108 18.5667H97.3358C97.715 18.5667 98.0164 18.4257 98.24 18.1437C98.4247 17.9201 98.5171 17.6528 98.5171 17.3417C98.4976 17.0403 98.4053 16.7778 98.24 16.5542C98.1233 16.4083 97.9921 16.3014 97.8462 16.2333C97.7101 16.1653 97.54 16.1312 97.3358 16.1312H94.7108V18.5667ZM94.7108 22.0083H97.6566C98.0358 22.0083 98.3469 21.8868 98.59 21.6437C98.8039 21.4201 98.9108 21.1139 98.9108 20.725C98.9108 20.4333 98.8039 20.1708 98.59 19.9375C98.4441 19.7819 98.2886 19.6799 98.1233 19.6312C97.9678 19.5826 97.7636 19.5583 97.5108 19.5583H94.7108V22.0083ZM101.63 16.5979C101.717 16.4424 101.795 16.3257 101.863 16.2479C102.524 15.3632 103.487 14.9208 104.751 14.9208C105.499 14.9208 106.151 15.0667 106.705 15.3583C107.259 15.6403 107.672 16.0778 107.944 16.6708C108.148 17.0889 108.251 17.5556 108.251 18.0708V23H107.201V21.4396C107.064 21.7118 106.87 21.9646 106.617 22.1979C106.364 22.4312 106.097 22.616 105.815 22.7521C105.144 23.0826 104.469 23.2285 103.788 23.1896C103.389 23.1701 103.005 23.0681 102.636 22.8833C102.266 22.6889 101.975 22.441 101.761 22.1396C101.605 21.8965 101.489 21.6632 101.411 21.4396C101.333 21.216 101.294 20.9681 101.294 20.6958C101.294 20.2875 101.396 19.9083 101.601 19.5583C101.805 19.2083 102.087 18.9215 102.446 18.6979C102.777 18.5132 103.112 18.3819 103.453 18.3042C103.793 18.2264 104.279 18.1389 104.911 18.0417L105.392 17.9687L107.026 17.75C106.948 17.2153 106.724 16.8069 106.355 16.525C105.966 16.2042 105.426 16.0437 104.736 16.0437C104.357 16.0437 104.007 16.1118 103.686 16.2479C103.365 16.3743 103.107 16.5736 102.913 16.8458C102.864 16.9042 102.801 16.9917 102.723 17.1083L101.63 16.5979ZM105.159 19.0625C104.595 19.15 104.133 19.2424 103.773 19.3396C103.414 19.4368 103.107 19.5924 102.855 19.8062C102.612 20.0104 102.49 20.2972 102.49 20.6667C102.49 21.0264 102.631 21.3472 102.913 21.6292C103.195 21.9014 103.54 22.0569 103.948 22.0958C103.997 22.1056 104.075 22.1104 104.182 22.1104C104.697 22.1104 105.203 21.9694 105.698 21.6875C106.194 21.4056 106.549 21.0312 106.763 20.5646C106.899 20.2729 106.982 20.0007 107.011 19.7479C107.05 19.4951 107.069 19.1646 107.069 18.7562L105.159 19.0625ZM116.6 16.175C117.174 16.9042 117.461 17.8618 117.461 19.0479C117.461 20.2535 117.174 21.2208 116.6 21.95C116.28 22.3583 115.881 22.6743 115.405 22.8979C114.928 23.1118 114.418 23.2188 113.873 23.2188C113.358 23.2188 112.882 23.1312 112.444 22.9562C112.016 22.7715 111.647 22.509 111.336 22.1687V26.5H110.14V15.125H111.205V16.1167C111.516 15.7375 111.909 15.441 112.386 15.2271C112.862 15.0132 113.363 14.9062 113.888 14.9062C114.432 14.9062 114.938 15.0181 115.405 15.2417C115.881 15.4556 116.28 15.7667 116.6 16.175ZM115.638 21.2062C116.017 20.7104 116.207 19.991 116.207 19.0479C116.207 18.134 116.017 17.4146 115.638 16.8896C115.424 16.5882 115.147 16.3646 114.807 16.2187C114.476 16.0729 114.107 16 113.698 16C113.309 16 112.955 16.0729 112.634 16.2187C112.313 16.3549 112.046 16.559 111.832 16.8312C111.414 17.3562 111.205 18.0951 111.205 19.0479C111.205 20.0104 111.414 20.7542 111.832 21.2792C112.046 21.5514 112.318 21.7604 112.648 21.9062C112.989 22.0521 113.348 22.125 113.727 22.125C114.107 22.125 114.466 22.0472 114.807 21.8917C115.147 21.7361 115.424 21.5076 115.638 21.2062ZM125.134 16.2042H122.364V23H121.182V16.2042H118.411V15.125H125.134V16.2042ZM127.846 12.5V13.7687H126.665V12.5H127.846ZM127.846 15.125V23H126.665V15.125H127.846ZM135.53 17.3562C135.492 17.2687 135.404 17.1229 135.268 16.9187C135.054 16.6271 134.777 16.4083 134.437 16.2625C134.106 16.1069 133.742 16.0292 133.343 16.0292C132.954 16.0292 132.589 16.1069 132.249 16.2625C131.919 16.4083 131.651 16.6271 131.447 16.9187C131.068 17.4146 130.869 18.1292 130.849 19.0625C130.869 19.9958 131.068 20.7104 131.447 21.2062C131.651 21.4882 131.924 21.7069 132.264 21.8625C132.604 22.0083 132.964 22.0812 133.343 22.0812C133.742 22.0812 134.106 22.0083 134.437 21.8625C134.777 21.7069 135.054 21.4882 135.268 21.2062C135.365 21.0604 135.448 20.9194 135.516 20.7833L136.639 21.2792C136.464 21.5708 136.323 21.7847 136.216 21.9208C135.876 22.3486 135.458 22.6743 134.962 22.8979C134.466 23.1118 133.926 23.2188 133.343 23.2188C132.769 23.2188 132.23 23.1118 131.724 22.8979C131.228 22.6743 130.815 22.3486 130.485 21.9208C129.911 21.2014 129.614 20.2486 129.595 19.0625C129.614 17.8764 129.911 16.9187 130.485 16.1896C130.835 15.7521 131.253 15.4312 131.739 15.2271C132.225 15.0132 132.76 14.9062 133.343 14.9062C133.926 14.9062 134.466 15.0181 134.962 15.2417C135.458 15.4556 135.876 15.7715 136.216 16.1896C136.401 16.4424 136.542 16.6708 136.639 16.875L135.53 17.3562ZM144.234 16.2042H141.463V23H140.282V16.2042H137.511V15.125H144.234V16.2042ZM146.829 15.125V18.0271H149.293C149.605 18.0271 149.911 18.0903 150.212 18.2167C150.523 18.3431 150.791 18.5181 151.014 18.7417C151.248 18.975 151.423 19.2472 151.539 19.5583C151.666 19.8694 151.729 20.1903 151.729 20.5208C151.729 20.8514 151.666 21.1722 151.539 21.4833C151.423 21.7847 151.248 22.0472 151.014 22.2708C150.791 22.5042 150.523 22.684 150.212 22.8104C149.911 22.9368 149.605 23 149.293 23H145.633L145.618 15.125H146.829ZM146.829 21.8771H149.235C149.575 21.8674 149.877 21.7215 150.139 21.4396C150.382 21.1771 150.504 20.8708 150.504 20.5208C150.504 20.1708 150.382 19.8646 150.139 19.6021C150.032 19.466 149.896 19.3639 149.731 19.2958C149.575 19.2181 149.41 19.1792 149.235 19.1792H146.829V21.8771Z" fill="#FF6CA9"/>
<path d="M112 251C112 242.163 119.163 235 128 235H245.5C255.165 235 263 242.835 263 252.5C263 262.165 255.165 270 245.5 270H112V251Z" fill="white"/>
<path d="M139.807 251.087L136.94 248.227C136.69 247.978 136.352 247.839 136 247.839C135.648 247.839 135.31 247.978 135.06 248.227L132.193 251.087C132.069 251.211 131.999 251.38 131.999 251.557C131.999 251.733 132.069 251.902 132.193 252.027C132.255 252.089 132.329 252.139 132.41 252.173C132.492 252.206 132.579 252.224 132.667 252.224C132.755 252.224 132.842 252.206 132.923 252.173C133.004 252.139 133.078 252.089 133.14 252.027L135.333 249.833V257.167C135.333 257.343 135.404 257.513 135.529 257.638C135.654 257.763 135.823 257.833 136 257.833C136.177 257.833 136.346 257.763 136.471 257.638C136.596 257.513 136.667 257.343 136.667 257.167V249.833L138.86 252.027C138.985 252.152 139.154 252.223 139.331 252.224C139.508 252.224 139.678 252.155 139.803 252.03C139.929 251.905 140 251.736 140 251.559C140.001 251.382 139.931 251.212 139.807 251.087Z" fill="#FF6CA9"/>
<path d="M160.035 253.202C160.23 253.445 160.376 253.717 160.473 254.019C160.58 254.32 160.633 254.622 160.633 254.923C160.633 255.283 160.575 255.628 160.458 255.958C160.351 256.289 160.191 256.585 159.977 256.848C159.559 257.334 159.034 257.669 158.402 257.854C158.052 257.951 157.581 258 156.988 258H153.167V247.5H156.798C157.099 247.5 157.347 247.51 157.542 247.529C157.746 247.539 157.921 247.568 158.067 247.617C158.65 247.772 159.126 248.078 159.496 248.535C159.7 248.778 159.856 249.056 159.963 249.367C160.079 249.668 160.138 249.979 160.138 250.3C160.138 250.582 160.084 250.859 159.977 251.131C159.88 251.403 159.744 251.651 159.569 251.875C159.413 252.089 159.267 252.249 159.131 252.356C159.501 252.58 159.802 252.862 160.035 253.202ZM154.363 248.623V251.933H157.221C157.464 251.933 157.712 251.87 157.965 251.744C158.227 251.608 158.431 251.433 158.577 251.219C158.801 250.917 158.913 250.577 158.913 250.198C158.913 249.994 158.874 249.804 158.796 249.629C158.718 249.444 158.611 249.284 158.475 249.148C158.3 248.953 158.11 248.817 157.906 248.74C157.712 248.662 157.483 248.623 157.221 248.623H154.363ZM158.898 256.279C159.228 255.949 159.403 255.535 159.423 255.04C159.423 254.573 159.282 254.16 159 253.8C158.835 253.567 158.611 253.387 158.329 253.26C158.047 253.124 157.765 253.056 157.483 253.056H154.363V256.862H156.973C157.488 256.862 157.877 256.833 158.14 256.775C158.412 256.707 158.665 256.542 158.898 256.279ZM162.052 251.598C162.139 251.442 162.217 251.326 162.285 251.248C162.946 250.363 163.909 249.921 165.172 249.921C165.921 249.921 166.572 250.067 167.127 250.358C167.681 250.64 168.094 251.078 168.366 251.671C168.57 252.089 168.672 252.556 168.672 253.071V258H167.622V256.44C167.486 256.712 167.292 256.965 167.039 257.198C166.786 257.431 166.519 257.616 166.237 257.752C165.566 258.083 164.89 258.228 164.21 258.19C163.811 258.17 163.427 258.068 163.058 257.883C162.688 257.689 162.397 257.441 162.183 257.14C162.027 256.897 161.911 256.663 161.833 256.44C161.755 256.216 161.716 255.968 161.716 255.696C161.716 255.287 161.818 254.908 162.022 254.558C162.227 254.208 162.509 253.922 162.868 253.698C163.199 253.513 163.534 253.382 163.874 253.304C164.215 253.226 164.701 253.139 165.333 253.042L165.814 252.969L167.447 252.75C167.37 252.215 167.146 251.807 166.777 251.525C166.388 251.204 165.848 251.044 165.158 251.044C164.779 251.044 164.429 251.112 164.108 251.248C163.787 251.374 163.529 251.574 163.335 251.846C163.286 251.904 163.223 251.992 163.145 252.108L162.052 251.598ZM165.581 254.062C165.017 254.15 164.555 254.242 164.195 254.34C163.836 254.437 163.529 254.592 163.277 254.806C163.034 255.01 162.912 255.297 162.912 255.667C162.912 256.026 163.053 256.347 163.335 256.629C163.617 256.901 163.962 257.057 164.37 257.096C164.419 257.106 164.497 257.11 164.604 257.11C165.119 257.11 165.624 256.969 166.12 256.687C166.616 256.406 166.971 256.031 167.185 255.565C167.321 255.273 167.404 255.001 167.433 254.748C167.472 254.495 167.491 254.165 167.491 253.756L165.581 254.062ZM170.562 250.125H171.656V256.819H174.441V250.125H175.52V256.819H178.306V250.125H179.385V258H170.562V250.125ZM181.329 251.598C181.416 251.442 181.494 251.326 181.562 251.248C182.223 250.363 183.186 249.921 184.45 249.921C185.198 249.921 185.85 250.067 186.404 250.358C186.958 250.64 187.371 251.078 187.643 251.671C187.848 252.089 187.95 252.556 187.95 253.071V258H186.9V256.44C186.764 256.712 186.569 256.965 186.316 257.198C186.064 257.431 185.796 257.616 185.514 257.752C184.843 258.083 184.168 258.228 183.487 258.19C183.089 258.17 182.705 258.068 182.335 257.883C181.966 257.689 181.674 257.441 181.46 257.14C181.305 256.897 181.188 256.663 181.11 256.44C181.032 256.216 180.993 255.968 180.993 255.696C180.993 255.287 181.096 254.908 181.3 254.558C181.504 254.208 181.786 253.922 182.146 253.698C182.476 253.513 182.812 253.382 183.152 253.304C183.492 253.226 183.978 253.139 184.61 253.042L185.091 252.969L186.725 252.75C186.647 252.215 186.423 251.807 186.054 251.525C185.665 251.204 185.125 251.044 184.435 251.044C184.056 251.044 183.706 251.112 183.385 251.248C183.064 251.374 182.807 251.574 182.612 251.846C182.564 251.904 182.5 251.992 182.423 252.108L181.329 251.598ZM184.858 254.062C184.294 254.15 183.832 254.242 183.473 254.34C183.113 254.437 182.807 254.592 182.554 254.806C182.311 255.01 182.189 255.297 182.189 255.667C182.189 256.026 182.33 256.347 182.612 256.629C182.894 256.901 183.239 257.057 183.648 257.096C183.696 257.106 183.774 257.11 183.881 257.11C184.396 257.11 184.902 256.969 185.398 256.687C185.893 256.406 186.248 256.031 186.462 255.565C186.598 255.273 186.681 255.001 186.71 254.748C186.749 254.495 186.768 254.165 186.768 253.756L184.858 254.062ZM199.758 250.125V258H198.576V254.398H194.274V258H193.093V250.125H194.274V253.217H198.576V250.125H199.758ZM201.7 251.598C201.788 251.442 201.865 251.326 201.933 251.248C202.594 250.363 203.557 249.921 204.821 249.921C205.569 249.921 206.221 250.067 206.775 250.358C207.329 250.64 207.742 251.078 208.015 251.671C208.219 252.089 208.321 252.556 208.321 253.071V258H207.271V256.44C207.135 256.712 206.94 256.965 206.688 257.198C206.435 257.431 206.167 257.616 205.885 257.752C205.215 258.083 204.539 258.228 203.858 258.19C203.46 258.17 203.076 258.068 202.706 257.883C202.337 257.689 202.045 257.441 201.831 257.14C201.676 256.897 201.559 256.663 201.481 256.44C201.403 256.216 201.365 255.968 201.365 255.696C201.365 255.287 201.467 254.908 201.671 254.558C201.875 254.208 202.157 253.922 202.517 253.698C202.847 253.513 203.183 253.382 203.523 253.304C203.863 253.226 204.349 253.139 204.981 253.042L205.463 252.969L207.096 252.75C207.018 252.215 206.794 251.807 206.425 251.525C206.036 251.204 205.497 251.044 204.806 251.044C204.427 251.044 204.077 251.112 203.756 251.248C203.435 251.374 203.178 251.574 202.983 251.846C202.935 251.904 202.872 251.992 202.794 252.108L201.7 251.598ZM205.229 254.062C204.665 254.15 204.203 254.242 203.844 254.34C203.484 254.437 203.178 254.592 202.925 254.806C202.682 255.01 202.56 255.297 202.56 255.667C202.56 256.026 202.701 256.347 202.983 256.629C203.265 256.901 203.61 257.057 204.019 257.096C204.067 257.106 204.145 257.11 204.252 257.11C204.767 257.11 205.273 256.969 205.769 256.687C206.265 256.406 206.619 256.031 206.833 255.565C206.969 255.273 207.052 255.001 207.081 254.748C207.12 254.495 207.14 254.165 207.14 253.756L205.229 254.062ZM218.144 256.819V259.225H216.948V258H210.21V250.125H211.392V256.819H215.694V250.125H216.875V256.819H218.144ZM221.08 247.5V248.769H219.899V247.5H221.08ZM221.08 250.125V258H219.899V250.125H221.08ZM229.932 250.125V258H228.75V254.398H224.448V258H223.267V250.125H224.448V253.217H228.75V250.125H229.932ZM235.928 254.062L238.509 258L237.168 257.985L234.922 254.558H233.172V258H231.976V250.125H233.172V253.567H234.907L237.036 250.125H238.378L235.928 254.062ZM239.434 251.598C239.522 251.442 239.6 251.326 239.668 251.248C240.329 250.363 241.291 249.921 242.555 249.921C243.304 249.921 243.955 250.067 244.509 250.358C245.064 250.64 245.477 251.078 245.749 251.671C245.953 252.089 246.055 252.556 246.055 253.071V258H245.005V256.44C244.869 256.712 244.675 256.965 244.422 257.198C244.169 257.431 243.902 257.616 243.62 257.752C242.949 258.083 242.273 258.228 241.593 258.19C241.194 258.17 240.81 258.068 240.441 257.883C240.071 257.689 239.78 257.441 239.566 257.14C239.41 256.897 239.293 256.663 239.216 256.44C239.138 256.216 239.099 255.968 239.099 255.696C239.099 255.287 239.201 254.908 239.405 254.558C239.609 254.208 239.891 253.922 240.251 253.698C240.582 253.513 240.917 253.382 241.257 253.304C241.598 253.226 242.084 253.139 242.716 253.042L243.197 252.969L244.83 252.75C244.752 252.215 244.529 251.807 244.159 251.525C243.77 251.204 243.231 251.044 242.541 251.044C242.161 251.044 241.811 251.112 241.491 251.248C241.17 251.374 240.912 251.574 240.718 251.846C240.669 251.904 240.606 251.992 240.528 252.108L239.434 251.598ZM242.964 254.062C242.4 254.15 241.938 254.242 241.578 254.34C241.218 254.437 240.912 254.592 240.659 254.806C240.416 255.01 240.295 255.297 240.295 255.667C240.295 256.026 240.436 256.347 240.718 256.629C241 256.901 241.345 257.057 241.753 257.096C241.802 257.106 241.88 257.11 241.986 257.11C242.502 257.11 243.007 256.969 243.503 256.687C243.999 256.406 244.354 256.031 244.568 255.565C244.704 255.273 244.786 255.001 244.816 254.748C244.855 254.495 244.874 254.165 244.874 253.756L242.964 254.062Z" fill="#FF6CA9"/>
</svg>
