<svg width="872" height="552" viewBox="0 0 872 552" fill="none" xmlns="http://www.w3.org/2000/svg">
<rect x="0.5" y="0.5" width="871" height="551" rx="15.5" stroke="#D4DBE2"/>
<path d="M32 94H136V552H32V94Z" fill="#F3F2FF"/>
<path d="M173 184H277V552H173V184Z" fill="#EAE7FF"/>
<path d="M314 256H418V552H314V256Z" fill="#D6D2FF"/>
<path d="M455 312H559V552H455V312Z" fill="#BAAEFF"/>
<path d="M596 360H700V552H596V360Z" fill="#9780FF"/>
<path d="M737 400H841V552H737V400Z" fill="#4A12C5"/>
<path d="M32 48C32 39.1634 39.1634 32 48 32H269.352C282.492 32 293.144 42.6524 293.144 55.7927V55.7927C293.144 68.9331 282.492 79.5854 269.352 79.5854H32V48Z" fill="#F3F2FF"/>
<path d="M152.295 65.548C152.295 67.9494 151.839 69.9619 150.925 71.5855L149.933 71.0167C150.759 69.5681 151.173 67.7452 151.173 65.548C151.173 63.3508 150.759 61.5279 149.933 60.0792L150.925 59.5105C151.839 61.1341 152.295 63.1466 152.295 65.548Z" fill="#3F4349"/>
<path d="M148.259 62.8062H144V69.5H142.819V61.625H148.259V62.8062Z" fill="#3F4349"/>
<path d="M139.211 65.5625L141.792 69.5L140.45 69.4854L138.204 66.0583H136.454V69.5H135.258V61.625H136.454V65.0667H138.19L140.319 61.625H141.661L139.211 65.5625Z" fill="#3F4349"/>
<path d="M128.8 60.9833C128.576 60.6528 128.285 60.3951 127.925 60.2104C127.575 60.016 127.196 59.9187 126.787 59.9187C126.398 59.9187 126.034 60.0062 125.694 60.1812C125.353 60.3562 125.081 60.5944 124.877 60.8958C124.508 61.3528 124.323 61.9069 124.323 62.5583V63.9146C124.634 63.5451 125.008 63.2583 125.446 63.0542C125.883 62.8403 126.34 62.7333 126.817 62.7333C127.264 62.7333 127.696 62.816 128.114 62.9812C128.533 63.1465 128.902 63.3799 129.223 63.6812C129.913 64.3521 130.258 65.1736 130.258 66.1458C130.258 66.6222 130.166 67.0792 129.981 67.5167C129.806 67.9542 129.558 68.3333 129.237 68.6542C128.917 68.9847 128.537 69.2424 128.1 69.4271C127.672 69.6118 127.225 69.7042 126.758 69.7042C126.243 69.7042 125.757 69.6118 125.3 69.4271C124.843 69.2424 124.449 68.975 124.119 68.625C123.769 68.2653 123.516 67.8667 123.36 67.4292C123.205 66.9819 123.127 66.4813 123.127 65.9271V62.5583C123.127 61.4597 123.462 60.5701 124.133 59.8896C124.473 59.5201 124.872 59.2431 125.329 59.0583C125.786 58.8736 126.272 58.7812 126.787 58.7812C127.38 58.7812 127.925 58.9076 128.421 59.1604C128.926 59.4132 129.349 59.7681 129.689 60.225L128.8 60.9833ZM127.181 68.3771C127.492 68.309 127.769 68.1875 128.012 68.0125C128.265 67.8278 128.469 67.6042 128.625 67.3417C128.819 67.0014 128.917 66.6319 128.917 66.2333C128.917 66.0486 128.897 65.8785 128.858 65.7229C128.8 65.4215 128.683 65.1493 128.508 64.9062C128.343 64.6632 128.134 64.4639 127.881 64.3083C127.521 64.0944 127.123 63.9875 126.685 63.9875C126.53 63.9875 126.374 64.0021 126.219 64.0312C125.917 64.0993 125.64 64.2208 125.387 64.3958C125.144 64.5708 124.945 64.7896 124.789 65.0521C124.576 65.4021 124.469 65.7812 124.469 66.1896C124.469 66.3743 124.488 66.5396 124.527 66.6854C124.595 66.9576 124.707 67.2104 124.862 67.4438C125.028 67.6771 125.222 67.8715 125.446 68.0271C125.844 68.2896 126.272 68.4208 126.729 68.4208C126.885 68.4208 127.035 68.4062 127.181 68.3771Z" fill="#3F4349"/>
<path d="M120.777 63.8708C121.069 64.1625 121.288 64.5174 121.434 64.9354C121.589 65.3438 121.667 65.7715 121.667 66.2188C121.667 66.7729 121.565 67.2931 121.361 67.7792C121.156 68.2556 120.855 68.6493 120.456 68.9604C120.155 69.2132 119.805 69.3979 119.406 69.5146C119.018 69.641 118.614 69.7042 118.196 69.7042C117.817 69.7042 117.443 69.641 117.073 69.5146C116.713 69.3979 116.383 69.2229 116.081 68.9896C115.556 68.5812 115.192 68.0417 114.988 67.3708L116.125 67.05C116.261 67.4972 116.504 67.8521 116.854 68.1146C117.243 68.416 117.715 68.5667 118.269 68.5667C118.531 68.5667 118.784 68.5278 119.027 68.45C119.27 68.3625 119.484 68.241 119.669 68.0854C120.184 67.6771 120.442 67.0743 120.442 66.2771C120.442 65.9271 120.384 65.6014 120.267 65.3C120.15 64.9986 119.975 64.741 119.742 64.5271C119.353 64.1771 118.857 64.0021 118.254 64.0021C117.865 64.0021 117.486 64.0944 117.117 64.2792L116.534 63.3458L119.917 60.1375H115.411V59H121.536V60.1667L118.575 62.9812C119.45 63.0104 120.184 63.3069 120.777 63.8708Z" fill="#3F4349"/>
<path d="M106.509 69.7188C105.926 69.7188 105.386 69.6118 104.89 69.3979C104.395 69.1743 103.977 68.8535 103.636 68.4354C103.043 67.6868 102.747 66.7243 102.747 65.5479C102.747 64.3812 103.043 63.4285 103.636 62.6896C103.967 62.2812 104.385 61.9653 104.89 61.7417C105.396 61.5181 105.936 61.4062 106.509 61.4062C107.083 61.4062 107.618 61.5181 108.113 61.7417C108.619 61.9556 109.037 62.2715 109.368 62.6896C109.97 63.4187 110.272 64.3715 110.272 65.5479C110.272 66.7146 109.97 67.6771 109.368 68.4354C109.037 68.8632 108.624 69.184 108.128 69.3979C107.642 69.6118 107.102 69.7188 106.509 69.7188ZM108.434 67.7062C108.823 67.191 109.018 66.4715 109.018 65.5479C109.018 64.634 108.823 63.9194 108.434 63.4042C108.22 63.1222 107.943 62.9083 107.603 62.7625C107.263 62.6069 106.898 62.5292 106.509 62.5292C106.12 62.5292 105.756 62.6069 105.415 62.7625C105.075 62.9083 104.803 63.1222 104.599 63.4042C104.2 63.9194 104.001 64.634 104.001 65.5479C104.001 66.4715 104.2 67.191 104.599 67.7062C104.803 67.9882 105.075 68.2069 105.415 68.3625C105.756 68.5181 106.12 68.5958 106.509 68.5958C106.898 68.5958 107.263 68.5181 107.603 68.3625C107.943 68.2069 108.22 67.9882 108.434 67.7062Z" fill="#3F4349"/>
<path d="M100.646 68.3625H101.346V70.5646H100.223V69.5H94.4187V70.5646H93.2812V68.3625C93.641 68.3625 93.9715 68.1778 94.2729 67.8083C94.5743 67.4389 94.7833 66.7583 94.9 65.7667L95.3812 61.625H100.646V68.3625ZM99.5229 62.7042H96.3729L95.9937 65.8979C95.8576 67.0743 95.5806 67.8958 95.1625 68.3625H99.5229V62.7042Z" fill="#3F4349"/>
<path d="M87.1134 69.4271C86.6662 69.6215 86.1849 69.7188 85.6696 69.7188C85.1641 69.7188 84.678 69.6215 84.2113 69.4271C83.7543 69.2326 83.3703 68.9507 83.0592 68.5812C82.7481 68.2312 82.5245 67.8618 82.3884 67.4729C82.2523 67.0743 82.1842 66.6222 82.1842 66.1167V62.3687C82.1842 61.8632 82.2523 61.4111 82.3884 61.0125C82.5342 60.6139 82.7675 60.2347 83.0884 59.875C83.4092 59.525 83.7981 59.2576 84.255 59.0729C84.712 58.8785 85.203 58.7812 85.728 58.7812C86.2043 58.7812 86.6613 58.8785 87.0988 59.0729C87.546 59.2576 87.93 59.525 88.2509 59.875C88.562 60.2153 88.7905 60.5896 88.9363 60.9979C89.0821 61.4063 89.155 61.8632 89.155 62.3687V66.1167C89.155 67.0889 88.8682 67.9104 88.2946 68.5812C87.9641 68.9507 87.5703 69.2326 87.1134 69.4271ZM86.7634 60.1958C86.4231 60.0014 86.0585 59.909 85.6696 59.9187C85.2807 59.909 84.9161 60.0014 84.5759 60.1958C84.2356 60.3806 83.9634 60.6333 83.7592 60.9542C83.5064 61.3431 83.38 61.8146 83.38 62.3687V66.1167C83.38 66.7 83.5064 67.1764 83.7592 67.5458C83.9731 67.8667 84.2502 68.1194 84.5905 68.3042C84.9307 68.4889 85.2905 68.5812 85.6696 68.5812C86.0585 68.5812 86.4231 68.4889 86.7634 68.3042C87.1036 68.1194 87.3759 67.8667 87.58 67.5458C87.7162 67.3417 87.8134 67.1278 87.8717 66.9042C87.93 66.6806 87.9592 66.4181 87.9592 66.1167V62.3687C87.9592 62.0965 87.93 61.8486 87.8717 61.625C87.8134 61.4014 87.721 61.1778 87.5946 60.9542C87.3807 60.6333 87.1036 60.3806 86.7634 60.1958Z" fill="#3F4349"/>
<path d="M80.0068 59V69.5H78.811V60.3125L76.8276 61.5083V60.1812L78.811 59H80.0068Z" fill="#3F4349"/>
<path d="M71.6478 68.3625H72.3478V70.5646H71.2249V69.5H65.4207V70.5646H64.2832V68.3625C64.6429 68.3625 64.9735 68.1778 65.2749 67.8083C65.5763 67.4389 65.7853 66.7583 65.902 65.7667L66.3832 61.625H71.6478V68.3625ZM70.5249 62.7042H67.3749L66.9957 65.8979C66.8596 67.0743 66.5825 67.8958 66.1645 68.3625H70.5249V62.7042Z" fill="#3F4349"/>
<path d="M62.8258 59V60.2687H61.6445V59H62.8258ZM62.8258 61.625V69.5H61.6445V61.625H62.8258Z" fill="#3F4349"/>
<path d="M57.1027 61.625C57.8027 61.625 58.3617 61.834 58.7798 62.2521C59.2562 62.6701 59.4944 63.2 59.4944 63.8417C59.4944 64.3278 59.3534 64.7507 59.0714 65.1104C58.9742 65.2465 58.8819 65.3437 58.7944 65.4021C59.0666 65.5771 59.261 65.7569 59.3777 65.9417C59.543 66.1167 59.6694 66.3257 59.7569 66.5688C59.8444 66.8021 59.8881 67.0403 59.8881 67.2833C59.8881 67.6042 59.8201 67.9153 59.6839 68.2167C59.5478 68.5083 59.3582 68.7562 59.1152 68.9604C58.9013 69.1451 58.6631 69.2813 58.4006 69.3688C58.1381 69.4563 57.8659 69.5 57.5839 69.5H53.2819V61.6396L57.1027 61.625ZM54.4777 65.0667H57.1027C57.4819 65.0667 57.7832 64.9257 58.0069 64.6437C58.1916 64.4201 58.2839 64.1528 58.2839 63.8417C58.2645 63.5403 58.1721 63.2778 58.0069 63.0542C57.8902 62.9083 57.7589 62.8014 57.6131 62.7333C57.477 62.6653 57.3069 62.6313 57.1027 62.6313H54.4777V65.0667ZM54.4777 68.5083H57.4235C57.8027 68.5083 58.1138 68.3868 58.3569 68.1437C58.5707 67.9201 58.6777 67.6139 58.6777 67.225C58.6777 66.9333 58.5707 66.6708 58.3569 66.4375C58.211 66.2819 58.0555 66.1799 57.8902 66.1313C57.7346 66.0826 57.5305 66.0583 57.2777 66.0583H54.4777V68.5083Z" fill="#3F4349"/>
<path d="M50.9459 71.0167L49.9688 71.5855C49.0452 69.9716 48.5834 67.9591 48.5834 65.548C48.5834 63.1369 49.0452 61.1244 49.9688 59.5105L50.9459 60.0792C50.1292 61.5084 49.7209 63.3313 49.7209 65.548C49.7209 67.7647 50.1292 69.5876 50.9459 71.0167Z" fill="#3F4349"/>
<path d="M277.144 42.625V50.5H275.948V47.5979H273.353L271.953 50.5H270.596L272.113 47.4083C271.812 47.2917 271.544 47.1167 271.311 46.8833C271.078 46.65 270.898 46.3778 270.771 46.0667C270.655 45.7556 270.596 45.4347 270.596 45.1042C270.596 44.7736 270.655 44.4576 270.771 44.1562C270.898 43.8451 271.078 43.5778 271.311 43.3542C271.535 43.1208 271.797 42.941 272.098 42.8146C272.41 42.6882 272.725 42.625 273.046 42.625H277.144ZM275.948 43.7479H273.09C272.75 43.7576 272.448 43.9035 272.186 44.1854C271.943 44.4479 271.821 44.7542 271.821 45.1042C271.821 45.4542 271.943 45.7604 272.186 46.0229C272.439 46.3049 272.74 46.4458 273.09 46.4458H275.948V43.7479Z" fill="#3F4349"/>
<path d="M268.989 42.625V50.5H267.808V46.8979H263.506V50.5H262.325V42.625H263.506V45.7167H267.808V42.625H268.989Z" fill="#3F4349"/>
<path d="M260.28 42.625V50.5H259.099V46.8979H254.797V50.5H253.616V42.625H254.797V45.7167H259.099V42.625H260.28Z" fill="#3F4349"/>
<path d="M245.78 46.8833C245.809 47.6417 245.999 48.2493 246.349 48.7063C246.553 48.9882 246.825 49.2069 247.165 49.3625C247.506 49.5181 247.87 49.5958 248.259 49.5958C248.648 49.5958 249.008 49.5181 249.338 49.3625C249.679 49.2069 249.956 48.9882 250.17 48.7063C250.257 48.5896 250.34 48.4486 250.418 48.2833L251.584 48.7938C251.448 49.0465 251.302 49.2653 251.147 49.45C250.816 49.8583 250.403 50.1743 249.907 50.3979C249.421 50.6118 248.906 50.7188 248.361 50.7188C247.759 50.7188 247.195 50.6118 246.67 50.3979C246.154 50.184 245.727 49.8632 245.386 49.4354C244.793 48.6868 244.497 47.7292 244.497 46.5625C244.516 45.3764 244.813 44.4188 245.386 43.6896C245.727 43.2715 246.145 42.9556 246.64 42.7417C247.136 42.5181 247.676 42.4062 248.259 42.4062C248.843 42.4062 249.377 42.5181 249.863 42.7417C250.359 42.9556 250.777 43.2715 251.118 43.6896C251.711 44.4382 252.007 45.3958 252.007 46.5625C252.007 46.7083 252.002 46.8153 251.993 46.8833H245.78ZM248.259 43.5292C247.87 43.5292 247.506 43.6069 247.165 43.7625C246.825 43.9181 246.553 44.1368 246.349 44.4188C246.057 44.8174 245.877 45.3083 245.809 45.8917H250.709C250.641 45.3083 250.461 44.8174 250.17 44.4188C249.956 44.1368 249.679 43.9181 249.338 43.7625C249.008 43.6069 248.648 43.5292 248.259 43.5292Z" fill="#3F4349"/>
<path d="M241.468 46.5625L244.049 50.5L242.708 50.4854L240.535 47.0583H239.426V50.5H238.333V47.0583H237.224L235.066 50.4854L233.71 50.5L236.291 46.5625L233.841 42.625H235.183L237.239 46.0667H238.333V42.625H239.426V46.0667H240.52L242.576 42.625H243.918L241.468 46.5625Z" fill="#3F4349"/>
<path d="M226.074 44.098C226.162 43.9424 226.24 43.8258 226.308 43.748C226.969 42.8633 227.931 42.4209 229.195 42.4209C229.944 42.4209 230.595 42.5667 231.149 42.8584C231.703 43.1403 232.117 43.5778 232.389 44.1709C232.593 44.589 232.695 45.0556 232.695 45.5709V50.5001H231.645V48.9396C231.509 49.2119 231.315 49.4646 231.062 49.698C230.809 49.9313 230.542 50.116 230.26 50.2521C229.589 50.5827 228.913 50.7285 228.233 50.6896C227.834 50.6702 227.45 50.5681 227.081 50.3834C226.711 50.189 226.419 49.941 226.206 49.6396C226.05 49.3966 225.933 49.1633 225.856 48.9396C225.778 48.716 225.739 48.4681 225.739 48.1959C225.739 47.7876 225.841 47.4084 226.045 47.0584C226.249 46.7084 226.531 46.4216 226.891 46.198C227.222 46.0133 227.557 45.882 227.897 45.8042C228.238 45.7265 228.724 45.639 229.356 45.5417L229.837 45.4688L231.47 45.2501C231.392 44.7153 231.169 44.307 230.799 44.0251C230.41 43.7042 229.871 43.5438 229.181 43.5438C228.801 43.5438 228.451 43.6119 228.131 43.748C227.81 43.8744 227.552 44.0737 227.358 44.3459C227.309 44.4042 227.246 44.4917 227.168 44.6084L226.074 44.098ZM229.603 46.5626C229.04 46.6501 228.578 46.7424 228.218 46.8396C227.858 46.9369 227.552 47.0924 227.299 47.3063C227.056 47.5105 226.935 47.7973 226.935 48.1667C226.935 48.5265 227.076 48.8473 227.358 49.1292C227.64 49.4015 227.985 49.557 228.393 49.5959C228.442 49.6056 228.519 49.6105 228.626 49.6105C229.142 49.6105 229.647 49.4695 230.143 49.1876C230.639 48.9056 230.994 48.5313 231.208 48.0646C231.344 47.773 231.426 47.5008 231.456 47.248C231.494 46.9952 231.514 46.6646 231.514 46.2563L229.603 46.5626Z" fill="#3F4349"/>
<path d="M224.126 42.625L224.14 50.5H222.944V45.25L220.494 49.5083H219.678L217.242 45.25V50.5H216.032V42.625H217.126L220.086 47.7583L223.046 42.625H224.126Z" fill="#3F4349"/>
<path d="M213.395 44.8563C213.356 44.7688 213.269 44.6229 213.133 44.4188C212.919 44.1271 212.642 43.9083 212.301 43.7625C211.971 43.6069 211.606 43.5292 211.208 43.5292C210.819 43.5292 210.454 43.6069 210.114 43.7625C209.783 43.9083 209.516 44.1271 209.312 44.4188C208.933 44.9146 208.733 45.6292 208.714 46.5625C208.733 47.4958 208.933 48.2104 209.312 48.7063C209.516 48.9882 209.788 49.2069 210.128 49.3625C210.469 49.5083 210.828 49.5813 211.208 49.5813C211.606 49.5813 211.971 49.5083 212.301 49.3625C212.642 49.2069 212.919 48.9882 213.133 48.7063C213.23 48.5604 213.312 48.4194 213.38 48.2833L214.503 48.7792C214.328 49.0708 214.187 49.2847 214.08 49.4208C213.74 49.8486 213.322 50.1743 212.826 50.3979C212.33 50.6118 211.791 50.7188 211.208 50.7188C210.634 50.7188 210.094 50.6118 209.589 50.3979C209.093 50.1743 208.68 49.8486 208.349 49.4208C207.776 48.7014 207.479 47.7486 207.46 46.5625C207.479 45.3764 207.776 44.4188 208.349 43.6896C208.699 43.2521 209.117 42.9313 209.603 42.7271C210.089 42.5132 210.624 42.4062 211.208 42.4062C211.791 42.4062 212.33 42.5181 212.826 42.7417C213.322 42.9556 213.74 43.2715 214.08 43.6896C214.265 43.9424 214.406 44.1708 214.503 44.375L213.395 44.8563Z" fill="#3F4349"/>
<path d="M202.692 43.0333C203.217 43.0139 203.717 43.1063 204.194 43.3104C204.67 43.5049 205.069 43.7965 205.39 44.1854C205.691 44.5354 205.915 44.9486 206.061 45.425C206.206 45.8917 206.284 46.3826 206.294 46.8979C206.294 47.4132 206.211 47.909 206.046 48.3854C205.89 48.8521 205.647 49.2653 205.317 49.625C204.976 50.0042 204.563 50.2813 204.077 50.4563C203.591 50.6313 203.071 50.7188 202.517 50.7188C202.001 50.7188 201.506 50.6215 201.029 50.4271C200.563 50.2229 200.169 49.9313 199.848 49.5521C199.265 48.8813 198.958 47.9722 198.929 46.825L198.915 45.9354C198.915 45.109 198.963 44.375 199.061 43.7333C199.255 42.4208 199.79 41.4535 200.665 40.8313C201.102 40.5104 201.593 40.2917 202.138 40.175C202.692 40.0583 203.309 40 203.99 40C204.534 40 205.098 40.0486 205.681 40.1458V41.2542C205.088 41.1569 204.471 41.1083 203.829 41.1083C202.721 41.1083 201.885 41.3076 201.321 41.7063C200.971 41.9396 200.713 42.2604 200.548 42.6688C200.383 43.0771 200.266 43.5681 200.198 44.1417C200.859 43.3931 201.69 43.0236 202.692 43.0333ZM202.604 44.1125C202.245 44.1125 201.899 44.1806 201.569 44.3167C201.248 44.4431 200.981 44.6278 200.767 44.8708C200.378 45.3375 200.183 45.984 200.183 46.8104C200.183 47.6757 200.378 48.3319 200.767 48.7792C200.981 49.0319 201.248 49.2264 201.569 49.3625C201.899 49.4889 202.245 49.5521 202.604 49.5521C202.974 49.5521 203.319 49.4889 203.64 49.3625C203.961 49.2264 204.223 49.0319 204.427 48.7792C204.836 48.3222 205.04 47.6708 205.04 46.825C205.04 45.9792 204.836 45.3278 204.427 44.8708C204.223 44.6181 203.961 44.4285 203.64 44.3021C203.319 44.1757 202.974 44.1125 202.604 44.1125Z" fill="#3F4349"/>
<path d="M193.982 50.7188C193.399 50.7188 192.859 50.6118 192.363 50.3979C191.867 50.1743 191.449 49.8535 191.109 49.4354C190.516 48.6868 190.219 47.7243 190.219 46.5479C190.219 45.3813 190.516 44.4285 191.109 43.6896C191.44 43.2813 191.858 42.9653 192.363 42.7417C192.869 42.5181 193.408 42.4062 193.982 42.4062C194.555 42.4062 195.09 42.5181 195.586 42.7417C196.092 42.9556 196.51 43.2715 196.84 43.6896C197.443 44.4188 197.744 45.3715 197.744 46.5479C197.744 47.7146 197.443 48.6771 196.84 49.4354C196.51 49.8632 196.096 50.184 195.601 50.3979C195.115 50.6118 194.575 50.7188 193.982 50.7188ZM195.907 48.7063C196.296 48.191 196.49 47.4715 196.49 46.5479C196.49 45.634 196.296 44.9194 195.907 44.4042C195.693 44.1222 195.416 43.9083 195.076 43.7625C194.735 43.6069 194.371 43.5292 193.982 43.5292C193.593 43.5292 193.228 43.6069 192.888 43.7625C192.548 43.9083 192.276 44.1222 192.071 44.4042C191.673 44.9194 191.474 45.634 191.474 46.5479C191.474 47.4715 191.673 48.191 192.071 48.7063C192.276 48.9882 192.548 49.2069 192.888 49.3625C193.228 49.5181 193.593 49.5958 193.982 49.5958C194.371 49.5958 194.735 49.5181 195.076 49.3625C195.416 49.2069 195.693 48.9882 195.907 48.7063Z" fill="#3F4349"/>
<path d="M178.893 44.098C178.98 43.9424 179.058 43.8258 179.126 43.748C179.787 42.8633 180.75 42.4209 182.014 42.4209C182.762 42.4209 183.413 42.5667 183.968 42.8584C184.522 43.1403 184.935 43.5778 185.207 44.1709C185.411 44.589 185.514 45.0556 185.514 45.5709V50.5001H184.464V48.9396C184.327 49.2119 184.133 49.4646 183.88 49.698C183.627 49.9313 183.36 50.116 183.078 50.2521C182.407 50.5827 181.732 50.7285 181.051 50.6896C180.652 50.6702 180.268 50.5681 179.899 50.3834C179.529 50.189 179.238 49.941 179.024 49.6396C178.868 49.3966 178.752 49.1633 178.674 48.9396C178.596 48.716 178.557 48.4681 178.557 48.1959C178.557 47.7876 178.659 47.4084 178.864 47.0584C179.068 46.7084 179.35 46.4216 179.709 46.198C180.04 46.0133 180.375 45.882 180.716 45.8042C181.056 45.7265 181.542 45.639 182.174 45.5417L182.655 45.4688L184.289 45.2501C184.211 44.7153 183.987 44.307 183.618 44.0251C183.229 43.7042 182.689 43.5438 181.999 43.5438C181.62 43.5438 181.27 43.6119 180.949 43.748C180.628 43.8744 180.37 44.0737 180.176 44.3459C180.127 44.4042 180.064 44.4917 179.986 44.6084L178.893 44.098ZM182.422 46.5626C181.858 46.6501 181.396 46.7424 181.036 46.8396C180.677 46.9369 180.37 47.0924 180.118 47.3063C179.875 47.5105 179.753 47.7973 179.753 48.1667C179.753 48.5265 179.894 48.8473 180.176 49.1292C180.458 49.4015 180.803 49.557 181.211 49.5959C181.26 49.6056 181.338 49.6105 181.445 49.6105C181.96 49.6105 182.466 49.4695 182.961 49.1876C183.457 48.9056 183.812 48.5313 184.026 48.0646C184.162 47.773 184.245 47.5008 184.274 47.248C184.313 46.9952 184.332 46.6646 184.332 46.2563L182.422 46.5626Z" fill="#3F4349"/>
<path d="M170.996 44.3021C171.142 43.6507 171.526 43.1597 172.148 42.8292C172.673 42.5472 173.334 42.4062 174.131 42.4062C174.938 42.4062 175.609 42.5472 176.144 42.8292C176.523 43.0431 176.819 43.3153 177.033 43.6458C177.247 43.9764 177.359 44.3458 177.369 44.7542C177.369 45.1139 177.306 45.4299 177.179 45.7021C177.062 45.9646 176.873 46.1931 176.61 46.3875C177.233 46.7375 177.544 47.3451 177.544 48.2104C177.534 48.6479 177.412 49.0465 177.179 49.4063C176.956 49.7563 176.649 50.0382 176.26 50.2521C175.687 50.5632 174.977 50.7188 174.131 50.7188C173.276 50.7188 172.571 50.5632 172.017 50.2521C171.375 49.9215 170.967 49.3819 170.792 48.6333L171.973 48.3417C172.041 48.7208 172.255 49.0125 172.615 49.2167C172.994 49.4597 173.499 49.5813 174.131 49.5813C174.753 49.5813 175.264 49.4597 175.662 49.2167C176.11 48.9736 176.333 48.6188 176.333 48.1521C176.333 47.5688 176.071 47.2139 175.546 47.0875C175.254 46.9806 174.802 46.9271 174.19 46.9271H173.446V45.9354H174.19C174.481 45.9354 174.719 45.9306 174.904 45.9208C175.099 45.9014 175.278 45.8576 175.444 45.7896C175.706 45.7021 175.891 45.5806 175.998 45.425C176.105 45.2597 176.158 45.0556 176.158 44.8125C176.158 44.6181 176.1 44.4382 175.983 44.2729C175.876 44.1076 175.731 43.9715 175.546 43.8646C175.186 43.6604 174.715 43.5486 174.131 43.5292C173.558 43.5486 173.091 43.6604 172.731 43.8646C172.43 44.0299 172.245 44.2729 172.177 44.5938L170.996 44.3021Z" fill="#3F4349"/>
<path d="M166.806 42.6396L163.218 51.9875C162.917 52.7944 162.557 53.3437 162.139 53.6354C161.945 53.7812 161.731 53.8785 161.498 53.9271C161.274 53.9757 161.007 54 160.695 54L160.506 53.9854V52.8479L160.754 52.8771C161.113 52.8965 161.381 52.8382 161.556 52.7021C161.702 52.6049 161.838 52.425 161.964 52.1625C162.1 51.9 162.3 51.4188 162.562 50.7188L159.193 42.625H160.418L163.116 49.2021L165.61 42.6396H166.806Z" fill="#3F4349"/>
<path d="M157.486 44.9729C157.399 44.7299 157.267 44.5063 157.092 44.3021C156.917 44.0882 156.718 43.9229 156.495 43.8063C156.154 43.6313 155.731 43.5438 155.226 43.5438C154.817 43.5438 154.463 43.6167 154.161 43.7625C153.986 43.8597 153.845 43.9813 153.738 44.1271C153.631 44.2729 153.578 44.4236 153.578 44.5792C153.578 44.8125 153.661 45.0118 153.826 45.1771C154.001 45.3521 154.331 45.5076 154.817 45.6438C155.109 45.7313 155.61 45.8674 156.32 46.0521C156.65 46.1396 156.932 46.2368 157.165 46.3438C157.408 46.4507 157.637 46.5965 157.851 46.7813C158.405 47.2285 158.682 47.7583 158.682 48.3708C158.682 48.7403 158.59 49.0854 158.405 49.4063C158.22 49.7271 157.972 49.9896 157.661 50.1938C157.136 50.534 156.402 50.7042 155.459 50.7042C154.331 50.7042 153.451 50.3688 152.82 49.6979C152.606 49.4549 152.426 49.1729 152.28 48.8521C152.144 48.5313 152.047 48.2201 151.988 47.9188L153.14 47.6417C153.17 47.875 153.228 48.1083 153.315 48.3417C153.413 48.5653 153.534 48.7597 153.68 48.925C154.079 49.3625 154.667 49.5813 155.445 49.5813C155.736 49.5813 156.023 49.5521 156.305 49.4938C156.597 49.4257 156.83 49.3333 157.005 49.2167C157.258 49.0319 157.408 48.7743 157.457 48.4438C157.486 48.1229 157.374 47.8604 157.122 47.6563C157.005 47.5493 156.864 47.4618 156.699 47.3938C156.533 47.316 156.295 47.2285 155.984 47.1313C155.761 47.0632 155.304 46.9368 154.613 46.7521C154.263 46.6549 153.967 46.5576 153.724 46.4604C153.49 46.3632 153.272 46.2319 153.067 46.0667C152.834 45.8819 152.654 45.6632 152.528 45.4104C152.411 45.1479 152.353 44.8757 152.353 44.5938C152.353 44.1951 152.474 43.8257 152.717 43.4854C152.97 43.1451 153.286 42.8875 153.665 42.7125C154.122 42.5083 154.642 42.4062 155.226 42.4062C155.906 42.4062 156.504 42.5326 157.02 42.7854C157.399 42.9799 157.734 43.2521 158.026 43.6021C158.327 43.9521 158.536 44.3167 158.653 44.6958L157.486 44.9729Z" fill="#3F4349"/>
<path d="M143.988 44.098C144.076 43.9424 144.154 43.8258 144.222 43.748C144.883 42.8633 145.845 42.4209 147.109 42.4209C147.858 42.4209 148.509 42.5667 149.063 42.8584C149.618 43.1403 150.031 43.5778 150.303 44.1709C150.507 44.589 150.609 45.0556 150.609 45.5709V50.5001H149.559V48.9396C149.423 49.2119 149.229 49.4646 148.976 49.698C148.723 49.9313 148.456 50.116 148.174 50.2521C147.503 50.5827 146.827 50.7285 146.147 50.6896C145.748 50.6702 145.364 50.5681 144.995 50.3834C144.625 50.189 144.334 49.941 144.12 49.6396C143.964 49.3966 143.847 49.1633 143.77 48.9396C143.692 48.716 143.653 48.4681 143.653 48.1959C143.653 47.7876 143.755 47.4084 143.959 47.0584C144.163 46.7084 144.445 46.4216 144.805 46.198C145.136 46.0133 145.471 45.882 145.811 45.8042C146.152 45.7265 146.638 45.639 147.27 45.5417L147.751 45.4688L149.384 45.2501C149.306 44.7153 149.083 44.307 148.713 44.0251C148.324 43.7042 147.785 43.5438 147.095 43.5438C146.715 43.5438 146.365 43.6119 146.045 43.748C145.724 43.8744 145.466 44.0737 145.272 44.3459C145.223 44.4042 145.16 44.4917 145.082 44.6084L143.988 44.098ZM147.518 46.5626C146.954 46.6501 146.492 46.7424 146.132 46.8396C145.772 46.9369 145.466 47.0924 145.213 47.3063C144.97 47.5105 144.849 47.7973 144.849 48.1667C144.849 48.5265 144.99 48.8473 145.272 49.1292C145.554 49.4015 145.899 49.557 146.307 49.5959C146.356 49.6056 146.434 49.6105 146.54 49.6105C147.056 49.6105 147.561 49.4695 148.057 49.1876C148.553 48.9056 148.908 48.5313 149.122 48.0646C149.258 47.773 149.34 47.5008 149.37 47.248C149.409 46.9952 149.428 46.6646 149.428 46.2563L147.518 46.5626Z" fill="#3F4349"/>
<path d="M136.859 41.1813V44.6521H141.321V45.8479H136.859V49.3188H142.196V50.5H135.678V40H142.196V41.1813H136.859Z" fill="#3F4349"/>
<path d="M123.768 44.098C123.855 43.9424 123.933 43.8258 124.001 43.748C124.662 42.8633 125.625 42.4209 126.888 42.4209C127.637 42.4209 128.288 42.5667 128.843 42.8584C129.397 43.1403 129.81 43.5778 130.082 44.1709C130.286 44.589 130.388 45.0556 130.388 45.5709V50.5001H129.339V48.9396C129.202 49.2119 129.008 49.4646 128.755 49.698C128.502 49.9313 128.235 50.116 127.953 50.2521C127.282 50.5827 126.607 50.7285 125.926 50.6896C125.527 50.6702 125.143 50.5681 124.774 50.3834C124.404 50.189 124.113 49.941 123.899 49.6396C123.743 49.3966 123.627 49.1633 123.549 48.9396C123.471 48.716 123.432 48.4681 123.432 48.1959C123.432 47.7876 123.534 47.4084 123.738 47.0584C123.943 46.7084 124.225 46.4216 124.584 46.198C124.915 46.0133 125.25 45.882 125.591 45.8042C125.931 45.7265 126.417 45.639 127.049 45.5417L127.53 45.4688L129.163 45.2501C129.086 44.7153 128.862 44.307 128.493 44.0251C128.104 43.7042 127.564 43.5438 126.874 43.5438C126.495 43.5438 126.145 43.6119 125.824 43.748C125.503 43.8744 125.245 44.0737 125.051 44.3459C125.002 44.4042 124.939 44.4917 124.861 44.6084L123.768 44.098ZM127.297 46.5626C126.733 46.6501 126.271 46.7424 125.911 46.8396C125.552 46.9369 125.245 47.0924 124.993 47.3063C124.75 47.5105 124.628 47.7973 124.628 48.1667C124.628 48.5265 124.769 48.8473 125.051 49.1292C125.333 49.4015 125.678 49.557 126.086 49.5959C126.135 49.6056 126.213 49.6105 126.32 49.6105C126.835 49.6105 127.341 49.4695 127.836 49.1876C128.332 48.9056 128.687 48.5313 128.901 48.0646C129.037 47.773 129.12 47.5008 129.149 47.248C129.188 46.9952 129.207 46.6646 129.207 46.2563L127.297 46.5626Z" fill="#3F4349"/>
<path d="M121.825 42.625V50.5H120.644V46.8979H116.342V50.5H115.161V42.625H116.342V45.7167H120.644V42.625H121.825Z" fill="#3F4349"/>
<path d="M112.974 40V41.2688H111.793V40H112.974ZM112.974 42.625V50.5H111.793V42.625H112.974Z" fill="#3F4349"/>
<path d="M110.037 49.3188V51.725H108.842V50.5H102.104V42.625H103.285V49.3188H107.587V42.625H108.769V49.3188H110.037Z" fill="#3F4349"/>
<path d="M90.3399 44.098C90.4274 43.9424 90.5052 43.8258 90.5733 43.748C91.2344 42.8633 92.1969 42.4209 93.4608 42.4209C94.2094 42.4209 94.8608 42.5667 95.4149 42.8584C95.9691 43.1403 96.3823 43.5778 96.6545 44.1709C96.8587 44.589 96.9608 45.0556 96.9608 45.5709V50.5001H95.9108V48.9396C95.7747 49.2119 95.5802 49.4646 95.3274 49.698C95.0747 49.9313 94.8073 50.116 94.5254 50.2521C93.8545 50.5827 93.1788 50.7285 92.4983 50.6896C92.0997 50.6702 91.7156 50.5681 91.3462 50.3834C90.9767 50.189 90.6851 49.941 90.4712 49.6396C90.3156 49.3966 90.199 49.1633 90.1212 48.9396C90.0434 48.716 90.0045 48.4681 90.0045 48.1959C90.0045 47.7876 90.1066 47.4084 90.3108 47.0584C90.5149 46.7084 90.7969 46.4216 91.1566 46.198C91.4872 46.0133 91.8226 45.882 92.1628 45.8042C92.5031 45.7265 92.9892 45.639 93.6212 45.5417L94.1024 45.4688L95.7358 45.2501C95.658 44.7153 95.4344 44.307 95.0649 44.0251C94.676 43.7042 94.1365 43.5438 93.4462 43.5438C93.067 43.5438 92.717 43.6119 92.3962 43.748C92.0753 43.8744 91.8177 44.0737 91.6233 44.3459C91.5747 44.4042 91.5115 44.4917 91.4337 44.6084L90.3399 44.098ZM93.8691 46.5626C93.3052 46.6501 92.8434 46.7424 92.4837 46.8396C92.124 46.9369 91.8177 47.0924 91.5649 47.3063C91.3219 47.5105 91.2004 47.7973 91.2004 48.1667C91.2004 48.5265 91.3413 48.8473 91.6233 49.1292C91.9052 49.4015 92.2504 49.557 92.6587 49.5959C92.7073 49.6056 92.7851 49.6105 92.892 49.6105C93.4073 49.6105 93.9129 49.4695 94.4087 49.1876C94.9045 48.9056 95.2594 48.5313 95.4733 48.0646C95.6094 47.773 95.692 47.5008 95.7212 47.248C95.7601 46.9952 95.7795 46.6646 95.7795 46.2563L93.8691 46.5626Z" fill="#3F4349"/>
<path d="M86.0461 42.625C86.7461 42.625 87.3051 42.834 87.7231 43.2521C88.1995 43.6701 88.4377 44.2 88.4377 44.8417C88.4377 45.3278 88.2967 45.7507 88.0148 46.1104C87.9176 46.2465 87.8252 46.3437 87.7377 46.4021C88.0099 46.5771 88.2044 46.7569 88.3211 46.9417C88.4863 47.1167 88.6127 47.3257 88.7002 47.5687C88.7877 47.8021 88.8315 48.0403 88.8315 48.2833C88.8315 48.6042 88.7634 48.9153 88.6273 49.2167C88.4912 49.5083 88.3016 49.7563 88.0586 49.9604C87.8447 50.1451 87.6065 50.2812 87.344 50.3687C87.0815 50.4562 86.8093 50.5 86.5273 50.5H82.2252V42.6396L86.0461 42.625ZM83.4211 46.0667H86.0461C86.4252 46.0667 86.7266 45.9257 86.9502 45.6438C87.1349 45.4201 87.2273 45.1528 87.2273 44.8417C87.2079 44.5403 87.1155 44.2778 86.9502 44.0542C86.8336 43.9083 86.7023 43.8014 86.5565 43.7333C86.4204 43.6653 86.2502 43.6312 86.0461 43.6312H83.4211V46.0667ZM83.4211 49.5083H86.3669C86.7461 49.5083 87.0572 49.3868 87.3002 49.1438C87.5141 48.9201 87.6211 48.6139 87.6211 48.225C87.6211 47.9333 87.5141 47.6708 87.3002 47.4375C87.1544 47.2819 86.9988 47.1799 86.8336 47.1312C86.678 47.0826 86.4738 47.0583 86.2211 47.0583H83.4211V49.5083Z" fill="#3F4349"/>
<path d="M76.8549 50.7188C76.2716 50.7188 75.732 50.6118 75.2362 50.3979C74.7403 50.1743 74.3223 49.8535 73.982 49.4354C73.3889 48.6868 73.0924 47.7243 73.0924 46.5479C73.0924 45.3813 73.3889 44.4285 73.982 43.6896C74.3125 43.2813 74.7306 42.9653 75.2362 42.7417C75.7417 42.5181 76.2813 42.4062 76.8549 42.4062C77.4285 42.4062 77.9632 42.5181 78.4591 42.7417C78.9646 42.9556 79.3827 43.2715 79.7132 43.6896C80.316 44.4188 80.6174 45.3715 80.6174 46.5479C80.6174 47.7146 80.316 48.6771 79.7132 49.4354C79.3827 49.8632 78.9695 50.184 78.4737 50.3979C77.9875 50.6118 77.448 50.7188 76.8549 50.7188ZM78.7799 48.7063C79.1688 48.191 79.3632 47.4715 79.3632 46.5479C79.3632 45.634 79.1688 44.9194 78.7799 44.4042C78.566 44.1222 78.2889 43.9083 77.9487 43.7625C77.6084 43.6069 77.2438 43.5292 76.8549 43.5292C76.466 43.5292 76.1014 43.6069 75.7612 43.7625C75.4209 43.9083 75.1487 44.1222 74.9445 44.4042C74.5459 44.9194 74.3466 45.634 74.3466 46.5479C74.3466 47.4715 74.5459 48.191 74.9445 48.7063C75.1487 48.9882 75.4209 49.2069 75.7612 49.3625C76.1014 49.5181 76.466 49.5958 76.8549 49.5958C77.2438 49.5958 77.6084 49.5181 77.9487 49.3625C78.2889 49.2069 78.566 48.9882 78.7799 48.7063Z" fill="#3F4349"/>
<path d="M65.3806 44.3021C65.5264 43.6507 65.9104 43.1597 66.5326 42.8292C67.0576 42.5472 67.7188 42.4062 68.516 42.4062C69.3229 42.4062 69.9938 42.5472 70.5285 42.8292C70.9076 43.0431 71.2042 43.3153 71.4181 43.6458C71.6319 43.9764 71.7438 44.3458 71.7535 44.7542C71.7535 45.1139 71.6903 45.4299 71.5639 45.7021C71.4472 45.9646 71.2576 46.1931 70.9951 46.3875C71.6174 46.7375 71.9285 47.3451 71.9285 48.2104C71.9188 48.6479 71.7972 49.0465 71.5639 49.4063C71.3403 49.7563 71.034 50.0382 70.6451 50.2521C70.0715 50.5632 69.3618 50.7188 68.516 50.7188C67.6604 50.7188 66.9556 50.5632 66.4014 50.2521C65.7597 49.9215 65.3514 49.3819 65.1764 48.6333L66.3576 48.3417C66.4257 48.7208 66.6396 49.0125 66.9993 49.2167C67.3785 49.4597 67.884 49.5813 68.516 49.5813C69.1382 49.5813 69.6486 49.4597 70.0472 49.2167C70.4944 48.9736 70.7181 48.6188 70.7181 48.1521C70.7181 47.5688 70.4556 47.2139 69.9306 47.0875C69.6389 46.9806 69.1868 46.9271 68.5743 46.9271H67.8306V45.9354H68.5743C68.866 45.9354 69.1042 45.9306 69.2889 45.9208C69.4833 45.9014 69.6632 45.8576 69.8285 45.7896C70.091 45.7021 70.2757 45.5806 70.3826 45.425C70.4896 45.2597 70.5431 45.0556 70.5431 44.8125C70.5431 44.6181 70.4847 44.4382 70.3681 44.2729C70.2611 44.1076 70.1153 43.9715 69.9306 43.8646C69.5708 43.6604 69.0993 43.5486 68.516 43.5292C67.9424 43.5486 67.4757 43.6604 67.116 43.8646C66.8146 44.0299 66.6299 44.2729 66.5618 44.5938L65.3806 44.3021Z" fill="#3F4349"/>
<path d="M57.1036 44.098C57.1911 43.9424 57.2689 43.8258 57.3369 43.748C57.998 42.8633 58.9605 42.4209 60.2244 42.4209C60.973 42.4209 61.6244 42.5667 62.1786 42.8584C62.7328 43.1403 63.146 43.5778 63.4182 44.1709C63.6224 44.589 63.7244 45.0556 63.7244 45.5709V50.5001H62.6744V48.9396C62.5383 49.2119 62.3439 49.4646 62.0911 49.698C61.8383 49.9313 61.571 50.116 61.289 50.2521C60.6182 50.5827 59.9425 50.7285 59.2619 50.6896C58.8633 50.6702 58.4793 50.5681 58.1099 50.3834C57.7404 50.189 57.4487 49.941 57.2349 49.6396C57.0793 49.3966 56.9626 49.1633 56.8849 48.9396C56.8071 48.716 56.7682 48.4681 56.7682 48.1959C56.7682 47.7876 56.8703 47.4084 57.0744 47.0584C57.2786 46.7084 57.5605 46.4216 57.9203 46.198C58.2508 46.0133 58.5862 45.882 58.9265 45.8042C59.2668 45.7265 59.7529 45.639 60.3849 45.5417L60.8661 45.4688L62.4994 45.2501C62.4217 44.7153 62.1981 44.307 61.8286 44.0251C61.4397 43.7042 60.9001 43.5438 60.2099 43.5438C59.8307 43.5438 59.4807 43.6119 59.1599 43.748C58.839 43.8744 58.5814 44.0737 58.3869 44.3459C58.3383 44.4042 58.2751 44.4917 58.1974 44.6084L57.1036 44.098ZM60.6328 46.5626C60.0689 46.6501 59.6071 46.7424 59.2474 46.8396C58.8876 46.9369 58.5814 47.0924 58.3286 47.3063C58.0856 47.5105 57.964 47.7973 57.964 48.1667C57.964 48.5265 58.105 48.8473 58.3869 49.1292C58.6689 49.4015 59.014 49.557 59.4224 49.5959C59.471 49.6056 59.5487 49.6105 59.6557 49.6105C60.171 49.6105 60.6765 49.4695 61.1724 49.1876C61.6682 48.9056 62.0231 48.5313 62.2369 48.0646C62.3731 47.773 62.4557 47.5008 62.4849 47.248C62.5237 46.9952 62.5432 46.6646 62.5432 46.2563L60.6328 46.5626Z" fill="#3F4349"/>
<path d="M54.9563 45.1188C55.1993 45.4201 55.3889 45.7507 55.525 46.1104C55.6611 46.4701 55.7292 46.8396 55.7292 47.2188C55.7194 47.6174 55.6368 48.0111 55.4813 48.4C55.3354 48.7792 55.1264 49.1146 54.8542 49.4063C54.4944 49.834 54.0521 50.1354 53.5271 50.3104C53.1479 50.4368 52.7785 50.5 52.4187 50.5H48V40H54.6938V41.1813H49.1812V43.9375H52.4187C52.9049 43.9375 53.3715 44.0444 53.8188 44.2583C54.2757 44.4722 54.6549 44.759 54.9563 45.1188ZM54.5042 47.1604C54.5042 46.6938 54.3438 46.2611 54.0229 45.8625C53.8285 45.6194 53.5854 45.425 53.2937 45.2792C53.0021 45.1333 52.7104 45.0604 52.4187 45.0604H49.1812V49.3625H52.4187C52.691 49.3625 52.9583 49.3042 53.2208 49.1875C53.4833 49.0611 53.7069 48.9007 53.8917 48.7063C54.0958 48.5021 54.2465 48.2688 54.3438 48.0063C54.4507 47.734 54.5042 47.4521 54.5042 47.1604Z" fill="#3F4349"/>
<path d="M173 136.345C173 128.422 179.422 122 187.345 122H254.141C266.766 122 277 132.234 277 144.859V144.859C277 157.484 266.766 167.719 254.141 167.719H173V136.345Z" fill="#EAE7FF"/>
<path d="M253.066 152.806H248.808V159.5H247.627V151.625H253.066V152.806Z" fill="#3F4349"/>
<path d="M244.018 155.562L246.599 159.5L245.258 159.485L243.012 156.058H241.262V159.5H240.066V151.625H241.262V155.067H242.997L245.126 151.625H246.468L244.018 155.562Z" fill="#3F4349"/>
<path d="M233.607 150.983C233.384 150.653 233.092 150.395 232.732 150.21C232.382 150.016 232.003 149.919 231.595 149.919C231.206 149.919 230.841 150.006 230.501 150.181C230.161 150.356 229.889 150.594 229.684 150.896C229.315 151.353 229.13 151.907 229.13 152.558V153.915C229.441 153.545 229.816 153.258 230.253 153.054C230.691 152.84 231.148 152.733 231.624 152.733C232.071 152.733 232.504 152.816 232.922 152.981C233.34 153.147 233.709 153.38 234.03 153.681C234.721 154.352 235.066 155.174 235.066 156.146C235.066 156.622 234.973 157.079 234.789 157.517C234.614 157.954 234.366 158.333 234.045 158.654C233.724 158.985 233.345 159.242 232.907 159.427C232.48 159.612 232.032 159.704 231.566 159.704C231.05 159.704 230.564 159.612 230.107 159.427C229.65 159.242 229.257 158.975 228.926 158.625C228.576 158.265 228.323 157.867 228.168 157.429C228.012 156.982 227.934 156.481 227.934 155.927V152.558C227.934 151.46 228.27 150.57 228.941 149.89C229.281 149.52 229.68 149.243 230.137 149.058C230.593 148.874 231.08 148.781 231.595 148.781C232.188 148.781 232.732 148.908 233.228 149.16C233.734 149.413 234.157 149.768 234.497 150.225L233.607 150.983ZM231.989 158.377C232.3 158.309 232.577 158.188 232.82 158.013C233.073 157.828 233.277 157.604 233.432 157.342C233.627 157.001 233.724 156.632 233.724 156.233C233.724 156.049 233.705 155.878 233.666 155.723C233.607 155.422 233.491 155.149 233.316 154.906C233.15 154.663 232.941 154.464 232.689 154.308C232.329 154.094 231.93 153.987 231.493 153.987C231.337 153.987 231.182 154.002 231.026 154.031C230.725 154.099 230.448 154.221 230.195 154.396C229.952 154.571 229.753 154.79 229.597 155.052C229.383 155.402 229.276 155.781 229.276 156.19C229.276 156.374 229.296 156.54 229.334 156.685C229.403 156.958 229.514 157.21 229.67 157.444C229.835 157.677 230.03 157.872 230.253 158.027C230.652 158.29 231.08 158.421 231.537 158.421C231.692 158.421 231.843 158.406 231.989 158.377Z" fill="#3F4349"/>
<path d="M220.816 157.517C221.04 157.847 221.326 158.11 221.676 158.304C222.036 158.499 222.415 158.596 222.814 158.596C223.193 158.596 223.553 158.508 223.893 158.333C224.243 158.149 224.52 157.91 224.724 157.619C225.094 157.142 225.278 156.583 225.278 155.942V154.585C224.967 154.955 224.593 155.247 224.156 155.46C223.728 155.665 223.271 155.767 222.785 155.767C222.337 155.767 221.905 155.684 221.487 155.519C221.069 155.354 220.699 155.12 220.378 154.819C220.048 154.498 219.79 154.129 219.606 153.71C219.431 153.283 219.343 152.831 219.343 152.354C219.343 151.878 219.431 151.426 219.606 150.998C219.79 150.56 220.048 150.176 220.378 149.846C220.69 149.515 221.064 149.258 221.501 149.073C221.939 148.888 222.391 148.796 222.858 148.796C223.363 148.796 223.844 148.893 224.301 149.088C224.758 149.272 225.152 149.54 225.483 149.89C225.833 150.249 226.085 150.648 226.241 151.085C226.396 151.523 226.474 152.019 226.474 152.573V155.942C226.474 157.031 226.144 157.925 225.483 158.625C225.142 158.985 224.749 159.257 224.301 159.442C223.854 159.626 223.378 159.719 222.872 159.719C222.279 159.719 221.72 159.597 221.195 159.354C220.68 159.101 220.252 158.747 219.912 158.29L220.816 157.517ZM222.42 150.138C222.119 150.196 221.842 150.317 221.589 150.502C221.336 150.687 221.132 150.91 220.976 151.173C220.782 151.513 220.685 151.888 220.685 152.296C220.685 152.481 220.704 152.646 220.743 152.792C220.811 153.083 220.928 153.351 221.093 153.594C221.268 153.837 221.482 154.036 221.735 154.192C222.094 154.415 222.478 154.527 222.887 154.527C223.071 154.527 223.242 154.508 223.397 154.469C223.699 154.401 223.971 154.279 224.214 154.104C224.457 153.929 224.656 153.715 224.812 153.463C225.026 153.113 225.133 152.733 225.133 152.325C225.133 152.14 225.113 151.97 225.074 151.815C225.006 151.542 224.89 151.29 224.724 151.056C224.569 150.823 224.379 150.629 224.156 150.473C223.786 150.22 223.368 150.094 222.901 150.094C222.746 150.094 222.585 150.108 222.42 150.138Z" fill="#3F4349"/>
<path d="M217.608 154.892V155.883H213.233V154.892H217.608Z" fill="#3F4349"/>
<path d="M210.557 150.137H205.686V149H211.767V150.137L207.961 159.5H206.736L210.557 150.137Z" fill="#3F4349"/>
<path d="M203.19 153.871C203.482 154.162 203.701 154.517 203.846 154.935C204.002 155.344 204.08 155.772 204.08 156.219C204.08 156.773 203.978 157.293 203.774 157.779C203.569 158.256 203.268 158.649 202.869 158.96C202.568 159.213 202.218 159.398 201.819 159.515C201.43 159.641 201.027 159.704 200.609 159.704C200.23 159.704 199.855 159.641 199.486 159.515C199.126 159.398 198.796 159.223 198.494 158.99C197.969 158.581 197.605 158.042 197.401 157.371L198.538 157.05C198.674 157.497 198.917 157.852 199.267 158.115C199.656 158.416 200.128 158.567 200.682 158.567C200.944 158.567 201.197 158.528 201.44 158.45C201.683 158.363 201.897 158.241 202.082 158.085C202.597 157.677 202.855 157.074 202.855 156.277C202.855 155.927 202.796 155.601 202.68 155.3C202.563 154.999 202.388 154.741 202.155 154.527C201.766 154.177 201.27 154.002 200.667 154.002C200.278 154.002 199.899 154.094 199.53 154.279L198.946 153.346L202.33 150.137H197.824V149H203.949V150.167L200.988 152.981C201.863 153.01 202.597 153.307 203.19 153.871Z" fill="#3F4349"/>
<path d="M245.241 132.625V135.527H247.706C248.017 135.527 248.323 135.59 248.625 135.717C248.936 135.843 249.203 136.018 249.427 136.242C249.66 136.475 249.835 136.747 249.952 137.058C250.078 137.369 250.141 137.69 250.141 138.021C250.141 138.351 250.078 138.672 249.952 138.983C249.835 139.285 249.66 139.547 249.427 139.771C249.203 140.004 248.936 140.184 248.625 140.31C248.323 140.437 248.017 140.5 247.706 140.5H244.045L244.031 132.625H245.241ZM245.241 139.377H247.648C247.988 139.367 248.289 139.222 248.552 138.94C248.795 138.677 248.916 138.371 248.916 138.021C248.916 137.671 248.795 137.365 248.552 137.102C248.445 136.966 248.309 136.864 248.143 136.796C247.988 136.718 247.823 136.679 247.648 136.679H245.241V139.377Z" fill="#3F4349"/>
<path d="M241.986 132.625V140.5H240.805V136.898H236.503V140.5H235.322V132.625H236.503V135.717H240.805V132.625H241.986Z" fill="#3F4349"/>
<path d="M227.486 136.883C227.515 137.642 227.705 138.249 228.055 138.706C228.259 138.988 228.531 139.207 228.872 139.363C229.212 139.518 229.576 139.596 229.965 139.596C230.354 139.596 230.714 139.518 231.044 139.363C231.385 139.207 231.662 138.988 231.876 138.706C231.963 138.59 232.046 138.449 232.124 138.283L233.29 138.794C233.154 139.047 233.008 139.265 232.853 139.45C232.522 139.858 232.109 140.174 231.613 140.398C231.127 140.612 230.612 140.719 230.067 140.719C229.465 140.719 228.901 140.612 228.376 140.398C227.86 140.184 227.433 139.863 227.092 139.435C226.499 138.687 226.203 137.729 226.203 136.563C226.222 135.376 226.519 134.419 227.092 133.69C227.433 133.272 227.851 132.956 228.347 132.742C228.842 132.518 229.382 132.406 229.965 132.406C230.549 132.406 231.083 132.518 231.569 132.742C232.065 132.956 232.483 133.272 232.824 133.69C233.417 134.438 233.713 135.396 233.713 136.563C233.713 136.708 233.708 136.815 233.699 136.883H227.486ZM229.965 133.529C229.576 133.529 229.212 133.607 228.872 133.763C228.531 133.918 228.259 134.137 228.055 134.419C227.763 134.817 227.583 135.308 227.515 135.892H232.415C232.347 135.308 232.167 134.817 231.876 134.419C231.662 134.137 231.385 133.918 231.044 133.763C230.714 133.607 230.354 133.529 229.965 133.529Z" fill="#3F4349"/>
<path d="M222.244 132.625C222.944 132.625 223.503 132.834 223.921 133.252C224.398 133.67 224.636 134.2 224.636 134.842C224.636 135.328 224.495 135.751 224.213 136.11C224.116 136.247 224.023 136.344 223.936 136.402C224.208 136.577 224.403 136.757 224.519 136.942C224.685 137.117 224.811 137.326 224.898 137.569C224.986 137.802 225.03 138.04 225.03 138.283C225.03 138.604 224.962 138.915 224.826 139.217C224.689 139.508 224.5 139.756 224.257 139.96C224.043 140.145 223.805 140.281 223.542 140.369C223.28 140.456 223.007 140.5 222.726 140.5H218.423V132.64L222.244 132.625ZM219.619 136.067H222.244C222.623 136.067 222.925 135.926 223.148 135.644C223.333 135.42 223.426 135.153 223.426 134.842C223.406 134.54 223.314 134.278 223.148 134.054C223.032 133.908 222.901 133.801 222.755 133.733C222.619 133.665 222.448 133.631 222.244 133.631H219.619V136.067ZM219.619 139.508H222.565C222.944 139.508 223.255 139.387 223.498 139.144C223.712 138.92 223.819 138.614 223.819 138.225C223.819 137.933 223.712 137.671 223.498 137.438C223.353 137.282 223.197 137.18 223.032 137.131C222.876 137.083 222.672 137.058 222.419 137.058H219.619V139.508Z" fill="#3F4349"/>
<path d="M216.237 130V131.269H215.056V130H216.237ZM216.237 132.625V140.5H215.056V132.625H216.237Z" fill="#3F4349"/>
<path d="M212.442 133.675C213.016 134.404 213.303 135.362 213.303 136.548C213.303 137.753 213.016 138.721 212.442 139.45C212.122 139.858 211.723 140.174 211.247 140.398C210.77 140.612 210.26 140.719 209.715 140.719C209.2 140.719 208.724 140.631 208.286 140.456C207.858 140.272 207.489 140.009 207.178 139.669V144H205.982V132.625H207.047V133.617C207.358 133.238 207.752 132.941 208.228 132.727C208.704 132.513 209.205 132.406 209.73 132.406C210.274 132.406 210.78 132.518 211.247 132.742C211.723 132.956 212.122 133.267 212.442 133.675ZM211.48 138.706C211.859 138.21 212.049 137.491 212.049 136.548C212.049 135.634 211.859 134.915 211.48 134.39C211.266 134.088 210.989 133.865 210.649 133.719C210.318 133.573 209.949 133.5 209.54 133.5C209.152 133.5 208.797 133.573 208.476 133.719C208.155 133.855 207.888 134.059 207.674 134.331C207.256 134.856 207.047 135.595 207.047 136.548C207.047 137.51 207.256 138.254 207.674 138.779C207.888 139.051 208.16 139.26 208.49 139.406C208.831 139.552 209.19 139.625 209.57 139.625C209.949 139.625 210.308 139.547 210.649 139.392C210.989 139.236 211.266 139.008 211.48 138.706Z" fill="#3F4349"/>
<path d="M200.113 130V140.5H198.917V131.312L196.934 132.508V131.181L198.917 130H200.113Z" fill="#3F4349"/>
<path d="M314 206.776C314 199.72 319.72 194 326.776 194H383.655C396.34 194 406.624 204.283 406.624 216.969V216.969C406.624 229.654 396.34 239.938 383.655 239.938H314V206.776Z" fill="#D6D2FF"/>
<path d="M390.624 225.025H386.365V231.719H385.184V223.844H390.624V225.025Z" fill="#3F4349"/>
<path d="M381.576 227.781L384.157 231.719L382.815 231.704L380.569 228.277H378.819V231.719H377.624V223.844H378.819V227.285H380.555L382.684 223.844H384.026L381.576 227.781Z" fill="#3F4349"/>
<path d="M366.085 224.179C366.075 223.732 366.162 223.304 366.347 222.896C366.532 222.478 366.789 222.118 367.12 221.817C367.412 221.544 367.752 221.34 368.141 221.204C368.539 221.068 368.948 221 369.366 221C369.813 221 370.236 221.083 370.635 221.248C371.033 221.403 371.378 221.637 371.67 221.948C371.952 222.24 372.171 222.585 372.326 222.983C372.492 223.372 372.574 223.776 372.574 224.194C372.574 224.728 372.458 225.21 372.224 225.637C372.001 226.065 371.636 226.537 371.13 227.052L367.805 230.581H372.545V231.719H366.012V230.581L370.43 226.075C371.062 225.433 371.378 224.806 371.378 224.194C371.378 223.922 371.325 223.664 371.218 223.421C371.121 223.168 370.975 222.944 370.78 222.75C370.392 222.342 369.905 222.137 369.322 222.137C369.06 222.137 368.807 222.186 368.564 222.283C368.33 222.381 368.121 222.512 367.937 222.677C367.733 222.881 367.572 223.115 367.455 223.377C367.339 223.63 367.285 223.897 367.295 224.179H366.085Z" fill="#3F4349"/>
<path d="M358.893 229.735C359.117 230.066 359.404 230.329 359.754 230.523C360.113 230.717 360.493 230.815 360.891 230.815C361.27 230.815 361.63 230.727 361.97 230.552C362.32 230.367 362.597 230.129 362.802 229.838C363.171 229.361 363.356 228.802 363.356 228.16V226.804C363.045 227.174 362.67 227.465 362.233 227.679C361.805 227.883 361.348 227.985 360.862 227.985C360.415 227.985 359.982 227.903 359.564 227.738C359.146 227.572 358.777 227.339 358.456 227.038C358.125 226.717 357.868 226.347 357.683 225.929C357.508 225.501 357.42 225.049 357.42 224.573C357.42 224.097 357.508 223.645 357.683 223.217C357.868 222.779 358.125 222.395 358.456 222.065C358.767 221.734 359.141 221.476 359.579 221.292C360.016 221.107 360.468 221.015 360.935 221.015C361.44 221.015 361.922 221.112 362.379 221.306C362.836 221.491 363.229 221.758 363.56 222.108C363.91 222.468 364.163 222.867 364.318 223.304C364.474 223.742 364.552 224.238 364.552 224.792V228.16C364.552 229.249 364.221 230.144 363.56 230.844C363.22 231.204 362.826 231.476 362.379 231.66C361.931 231.845 361.455 231.938 360.949 231.938C360.356 231.938 359.797 231.816 359.272 231.573C358.757 231.32 358.329 230.965 357.989 230.508L358.893 229.735ZM360.497 222.356C360.196 222.415 359.919 222.536 359.666 222.721C359.413 222.906 359.209 223.129 359.054 223.392C358.859 223.732 358.762 224.106 358.762 224.515C358.762 224.699 358.781 224.865 358.82 225.01C358.888 225.302 359.005 225.57 359.17 225.813C359.345 226.056 359.559 226.255 359.812 226.41C360.172 226.634 360.556 226.746 360.964 226.746C361.149 226.746 361.319 226.726 361.474 226.688C361.776 226.62 362.048 226.498 362.291 226.323C362.534 226.148 362.733 225.934 362.889 225.681C363.103 225.331 363.21 224.952 363.21 224.544C363.21 224.359 363.19 224.189 363.152 224.033C363.083 223.761 362.967 223.508 362.802 223.275C362.646 223.042 362.456 222.847 362.233 222.692C361.863 222.439 361.445 222.313 360.979 222.313C360.823 222.313 360.663 222.327 360.497 222.356Z" fill="#3F4349"/>
<path d="M354.966 221.219V231.719H353.77V222.531L351.787 223.727V222.4L353.77 221.219H354.966Z" fill="#3F4349"/>
<path d="M350.503 227.11V228.102H346.128V227.11H350.503Z" fill="#3F4349"/>
<path d="M343.452 222.356H338.581V221.219H344.663V222.356L340.856 231.719H339.631L343.452 222.356Z" fill="#3F4349"/>
<path d="M331.604 229.735C331.828 230.066 332.115 230.329 332.465 230.523C332.824 230.717 333.203 230.815 333.602 230.815C333.981 230.815 334.341 230.727 334.681 230.552C335.031 230.367 335.308 230.129 335.512 229.838C335.882 229.361 336.067 228.802 336.067 228.16V226.804C335.756 227.174 335.381 227.465 334.944 227.679C334.516 227.883 334.059 227.985 333.573 227.985C333.126 227.985 332.693 227.903 332.275 227.738C331.857 227.572 331.487 227.339 331.167 227.038C330.836 226.717 330.578 226.347 330.394 225.929C330.219 225.501 330.131 225.049 330.131 224.573C330.131 224.097 330.219 223.645 330.394 223.217C330.578 222.779 330.836 222.395 331.167 222.065C331.478 221.734 331.852 221.476 332.29 221.292C332.727 221.107 333.179 221.015 333.646 221.015C334.151 221.015 334.633 221.112 335.09 221.306C335.547 221.491 335.94 221.758 336.271 222.108C336.621 222.468 336.874 222.867 337.029 223.304C337.185 223.742 337.262 224.238 337.262 224.792V228.16C337.262 229.249 336.932 230.144 336.271 230.844C335.931 231.204 335.537 231.476 335.09 231.66C334.642 231.845 334.166 231.938 333.66 231.938C333.067 231.938 332.508 231.816 331.983 231.573C331.468 231.32 331.04 230.965 330.7 230.508L331.604 229.735ZM333.208 222.356C332.907 222.415 332.63 222.536 332.377 222.721C332.124 222.906 331.92 223.129 331.765 223.392C331.57 223.732 331.473 224.106 331.473 224.515C331.473 224.699 331.492 224.865 331.531 225.01C331.599 225.302 331.716 225.57 331.881 225.813C332.056 226.056 332.27 226.255 332.523 226.41C332.883 226.634 333.267 226.746 333.675 226.746C333.86 226.746 334.03 226.726 334.185 226.688C334.487 226.62 334.759 226.498 335.002 226.323C335.245 226.148 335.444 225.934 335.6 225.681C335.814 225.331 335.921 224.952 335.921 224.544C335.921 224.359 335.901 224.189 335.862 224.033C335.794 223.761 335.678 223.508 335.512 223.275C335.357 223.042 335.167 222.847 334.944 222.692C334.574 222.439 334.156 222.313 333.69 222.313C333.534 222.313 333.374 222.327 333.208 222.356Z" fill="#3F4349"/>
<path d="M380.871 204.844V207.746H383.336C383.647 207.746 383.953 207.809 384.255 207.935C384.566 208.062 384.833 208.237 385.057 208.46C385.29 208.694 385.465 208.966 385.582 209.277C385.708 209.588 385.771 209.909 385.771 210.24C385.771 210.57 385.708 210.891 385.582 211.202C385.465 211.503 385.29 211.766 385.057 211.99C384.833 212.223 384.566 212.403 384.255 212.529C383.953 212.656 383.647 212.719 383.336 212.719H379.675L379.661 204.844H380.871ZM380.871 211.596H383.277C383.618 211.586 383.919 211.44 384.182 211.158C384.425 210.896 384.546 210.59 384.546 210.24C384.546 209.89 384.425 209.583 384.182 209.321C384.075 209.185 383.939 209.083 383.773 209.015C383.618 208.937 383.452 208.898 383.277 208.898H380.871V211.596Z" fill="#3F4349"/>
<path d="M377.616 204.844V212.719H376.435V209.117H372.133V212.719H370.952V204.844H372.133V207.935H376.435V204.844H377.616Z" fill="#3F4349"/>
<path d="M363.116 209.102C363.145 209.86 363.335 210.468 363.685 210.925C363.889 211.207 364.161 211.426 364.501 211.581C364.842 211.737 365.206 211.815 365.595 211.815C365.984 211.815 366.344 211.737 366.674 211.581C367.015 211.426 367.292 211.207 367.506 210.925C367.593 210.808 367.676 210.667 367.753 210.502L368.92 211.013C368.784 211.265 368.638 211.484 368.483 211.669C368.152 212.077 367.739 212.393 367.243 212.617C366.757 212.831 366.242 212.938 365.697 212.938C365.094 212.938 364.531 212.831 364.006 212.617C363.49 212.403 363.063 212.082 362.722 211.654C362.129 210.906 361.833 209.948 361.833 208.781C361.852 207.595 362.149 206.638 362.722 205.908C363.063 205.49 363.481 205.174 363.976 204.96C364.472 204.737 365.012 204.625 365.595 204.625C366.178 204.625 366.713 204.737 367.199 204.96C367.695 205.174 368.113 205.49 368.453 205.908C369.047 206.657 369.343 207.615 369.343 208.781C369.343 208.927 369.338 209.034 369.328 209.102H363.116ZM365.595 205.748C365.206 205.748 364.842 205.826 364.501 205.981C364.161 206.137 363.889 206.356 363.685 206.638C363.393 207.036 363.213 207.527 363.145 208.11H368.045C367.977 207.527 367.797 207.036 367.506 206.638C367.292 206.356 367.015 206.137 366.674 205.981C366.344 205.826 365.984 205.748 365.595 205.748Z" fill="#3F4349"/>
<path d="M357.874 204.844C358.574 204.844 359.133 205.053 359.551 205.471C360.028 205.889 360.266 206.419 360.266 207.06C360.266 207.547 360.125 207.969 359.843 208.329C359.746 208.465 359.653 208.562 359.566 208.621C359.838 208.796 360.033 208.976 360.149 209.16C360.314 209.335 360.441 209.544 360.528 209.787C360.616 210.021 360.66 210.259 360.66 210.502C360.66 210.823 360.592 211.134 360.455 211.435C360.319 211.727 360.13 211.975 359.887 212.179C359.673 212.364 359.435 212.5 359.172 212.587C358.91 212.675 358.637 212.719 358.355 212.719H354.053V204.858L357.874 204.844ZM355.249 208.285H357.874C358.253 208.285 358.555 208.144 358.778 207.863C358.963 207.639 359.055 207.372 359.055 207.06C359.036 206.759 358.944 206.497 358.778 206.273C358.662 206.127 358.53 206.02 358.385 205.952C358.248 205.884 358.078 205.85 357.874 205.85H355.249V208.285ZM355.249 211.727H358.195C358.574 211.727 358.885 211.606 359.128 211.363C359.342 211.139 359.449 210.833 359.449 210.444C359.449 210.152 359.342 209.89 359.128 209.656C358.983 209.501 358.827 209.399 358.662 209.35C358.506 209.301 358.302 209.277 358.049 209.277H355.249V211.727Z" fill="#3F4349"/>
<path d="M351.867 202.219V203.488H350.686V202.219H351.867ZM351.867 204.844V212.719H350.686V204.844H351.867Z" fill="#3F4349"/>
<path d="M348.072 205.894C348.646 206.623 348.933 207.581 348.933 208.767C348.933 209.972 348.646 210.94 348.072 211.669C347.752 212.077 347.353 212.393 346.877 212.617C346.4 212.831 345.89 212.938 345.345 212.938C344.83 212.938 344.354 212.85 343.916 212.675C343.488 212.49 343.119 212.228 342.808 211.888V216.219H341.612V204.844H342.677V205.835C342.988 205.456 343.381 205.16 343.858 204.946C344.334 204.732 344.835 204.625 345.36 204.625C345.904 204.625 346.41 204.737 346.877 204.96C347.353 205.174 347.752 205.485 348.072 205.894ZM347.11 210.925C347.489 210.429 347.679 209.71 347.679 208.767C347.679 207.853 347.489 207.133 347.11 206.608C346.896 206.307 346.619 206.083 346.279 205.938C345.948 205.792 345.579 205.719 345.17 205.719C344.781 205.719 344.427 205.792 344.106 205.938C343.785 206.074 343.517 206.278 343.304 206.55C342.886 207.075 342.677 207.814 342.677 208.767C342.677 209.729 342.886 210.473 343.304 210.998C343.517 211.27 343.79 211.479 344.12 211.625C344.461 211.771 344.82 211.844 345.199 211.844C345.579 211.844 345.938 211.766 346.279 211.61C346.619 211.455 346.896 211.226 347.11 210.925Z" fill="#3F4349"/>
<path d="M330.073 205.179C330.063 204.732 330.151 204.304 330.335 203.896C330.52 203.478 330.778 203.118 331.108 202.817C331.4 202.544 331.74 202.34 332.129 202.204C332.528 202.068 332.936 202 333.354 202C333.801 202 334.224 202.083 334.623 202.248C335.022 202.403 335.367 202.637 335.658 202.948C335.94 203.24 336.159 203.585 336.315 203.983C336.48 204.372 336.563 204.776 336.563 205.194C336.563 205.728 336.446 206.21 336.213 206.638C335.989 207.065 335.624 207.537 335.119 208.052L331.794 211.581H336.533V212.719H330V211.581L334.419 207.075C335.051 206.433 335.367 205.806 335.367 205.194C335.367 204.922 335.313 204.664 335.206 204.421C335.109 204.168 334.963 203.944 334.769 203.75C334.38 203.342 333.894 203.138 333.31 203.138C333.048 203.138 332.795 203.186 332.552 203.283C332.319 203.381 332.11 203.512 331.925 203.677C331.721 203.881 331.56 204.115 331.444 204.377C331.327 204.63 331.274 204.897 331.283 205.179H330.073Z" fill="#3F4349"/>
<path d="M455 264.049C455 256.29 461.29 250 469.049 250H533.999C546.624 250 556.859 260.234 556.859 272.859V272.859C556.859 285.484 546.624 295.719 533.999 295.719H455V264.049Z" fill="#BAAEFF"/>
<path d="M540.859 280.806H536.6V287.5H535.419V279.625H540.859V280.806Z" fill="#3F4349"/>
<path d="M531.811 283.562L534.392 287.5L533.05 287.485L530.804 284.058H529.054V287.5H527.859V279.625H529.054V283.067H530.79L532.919 279.625H534.261L531.811 283.562Z" fill="#3F4349"/>
<path d="M516.303 279.625C516.332 278.672 516.668 277.948 517.309 277.452C517.844 277.005 518.554 276.781 519.439 276.781C520.343 276.781 521.062 277.005 521.597 277.452C521.918 277.695 522.161 278.011 522.326 278.4C522.491 278.779 522.574 279.187 522.574 279.625C522.574 280.315 522.37 280.884 521.961 281.331C521.786 281.545 521.602 281.725 521.407 281.871C521.738 282.104 522 282.362 522.195 282.644C522.613 283.13 522.832 283.757 522.851 284.525C522.832 285.001 522.739 285.449 522.574 285.867C522.409 286.275 522.161 286.625 521.83 286.917C521.519 287.189 521.154 287.388 520.736 287.515C520.318 287.651 519.886 287.719 519.439 287.719C519.001 287.719 518.573 287.651 518.155 287.515C517.747 287.378 517.387 287.179 517.076 286.917C516.745 286.625 516.488 286.265 516.303 285.838C516.128 285.41 516.045 284.972 516.055 284.525C516.045 284.194 516.094 283.864 516.201 283.533C516.308 283.203 516.473 282.906 516.697 282.644C516.891 282.362 517.154 282.104 517.484 281.871C517.29 281.725 517.105 281.545 516.93 281.331C516.532 280.884 516.323 280.315 516.303 279.625ZM517.572 279.683C517.572 280.208 517.742 280.612 518.082 280.894C518.413 281.185 518.865 281.331 519.439 281.331C520.012 281.331 520.474 281.185 520.824 280.894C520.999 280.748 521.125 280.563 521.203 280.34C521.291 280.116 521.329 279.878 521.32 279.625C521.329 279.372 521.291 279.139 521.203 278.925C521.116 278.701 520.984 278.517 520.809 278.371C520.498 278.099 520.041 277.953 519.439 277.933C518.845 277.953 518.393 278.099 518.082 278.371C517.742 278.653 517.572 279.09 517.572 279.683ZM521.014 286.042C521.393 285.692 521.582 285.186 521.582 284.525C521.582 283.864 521.393 283.358 521.014 283.008C520.644 282.649 520.119 282.469 519.439 282.469C519.127 282.469 518.836 282.513 518.564 282.6C518.291 282.688 518.063 282.824 517.878 283.008C517.499 283.358 517.309 283.864 517.309 284.525C517.309 285.186 517.499 285.692 517.878 286.042C518.073 286.217 518.306 286.353 518.578 286.45C518.85 286.538 519.137 286.581 519.439 286.581C519.75 286.581 520.041 286.538 520.314 286.45C520.586 286.353 520.819 286.217 521.014 286.042Z" fill="#3F4349"/>
<path d="M513.142 278.983C512.919 278.653 512.627 278.395 512.267 278.21C511.917 278.016 511.538 277.919 511.13 277.919C510.741 277.919 510.376 278.006 510.036 278.181C509.696 278.356 509.423 278.594 509.219 278.896C508.85 279.353 508.665 279.907 508.665 280.558V281.915C508.976 281.545 509.35 281.258 509.788 281.054C510.225 280.84 510.682 280.733 511.159 280.733C511.606 280.733 512.039 280.816 512.457 280.981C512.875 281.147 513.244 281.38 513.565 281.681C514.255 282.352 514.6 283.174 514.6 284.146C514.6 284.622 514.508 285.079 514.323 285.517C514.148 285.954 513.9 286.333 513.58 286.654C513.259 286.985 512.88 287.242 512.442 287.427C512.014 287.612 511.567 287.704 511.1 287.704C510.585 287.704 510.099 287.612 509.642 287.427C509.185 287.242 508.791 286.975 508.461 286.625C508.111 286.265 507.858 285.867 507.703 285.429C507.547 284.982 507.469 284.481 507.469 283.927V280.558C507.469 279.46 507.805 278.57 508.475 277.89C508.816 277.52 509.214 277.243 509.671 277.058C510.128 276.874 510.614 276.781 511.13 276.781C511.723 276.781 512.267 276.908 512.763 277.16C513.269 277.413 513.691 277.768 514.032 278.225L513.142 278.983ZM511.523 286.377C511.835 286.309 512.112 286.188 512.355 286.013C512.607 285.828 512.812 285.604 512.967 285.342C513.162 285.001 513.259 284.632 513.259 284.233C513.259 284.049 513.239 283.878 513.2 283.723C513.142 283.422 513.025 283.149 512.85 282.906C512.685 282.663 512.476 282.464 512.223 282.308C511.864 282.094 511.465 281.987 511.028 281.987C510.872 281.987 510.716 282.002 510.561 282.031C510.26 282.099 509.982 282.221 509.73 282.396C509.487 282.571 509.287 282.79 509.132 283.052C508.918 283.402 508.811 283.781 508.811 284.19C508.811 284.374 508.83 284.54 508.869 284.685C508.937 284.958 509.049 285.21 509.205 285.444C509.37 285.677 509.564 285.872 509.788 286.027C510.187 286.29 510.614 286.421 511.071 286.421C511.227 286.421 511.378 286.406 511.523 286.377Z" fill="#3F4349"/>
<path d="M504.652 278.137H499.781V277H505.862V278.137L502.056 287.5H500.831L504.652 278.137Z" fill="#3F4349"/>
<path d="M498.031 282.892V283.883H493.656V282.892H498.031Z" fill="#3F4349"/>
<path d="M491.161 281.871C491.452 282.162 491.671 282.517 491.817 282.935C491.972 283.344 492.05 283.772 492.05 284.219C492.05 284.773 491.948 285.293 491.744 285.779C491.54 286.256 491.238 286.649 490.84 286.96C490.538 287.213 490.188 287.398 489.79 287.515C489.401 287.641 488.997 287.704 488.579 287.704C488.2 287.704 487.826 287.641 487.456 287.515C487.097 287.398 486.766 287.223 486.465 286.99C485.94 286.581 485.575 286.042 485.371 285.371L486.508 285.05C486.645 285.497 486.888 285.852 487.238 286.115C487.627 286.416 488.098 286.567 488.652 286.567C488.915 286.567 489.167 286.528 489.411 286.45C489.654 286.363 489.867 286.241 490.052 286.085C490.567 285.677 490.825 285.074 490.825 284.277C490.825 283.927 490.767 283.601 490.65 283.3C490.533 282.999 490.358 282.741 490.125 282.527C489.736 282.177 489.24 282.002 488.638 282.002C488.249 282.002 487.87 282.094 487.5 282.279L486.917 281.346L490.3 278.137H485.794V277H491.919V278.167L488.958 280.981C489.833 281.01 490.567 281.307 491.161 281.871Z" fill="#3F4349"/>
<path d="M478.107 285.517C478.33 285.847 478.617 286.11 478.967 286.304C479.327 286.499 479.706 286.596 480.105 286.596C480.484 286.596 480.843 286.508 481.184 286.333C481.534 286.149 481.811 285.91 482.015 285.619C482.384 285.142 482.569 284.583 482.569 283.942V282.585C482.258 282.955 481.884 283.247 481.446 283.46C481.018 283.665 480.561 283.767 480.075 283.767C479.628 283.767 479.195 283.684 478.777 283.519C478.359 283.354 477.99 283.12 477.669 282.819C477.339 282.498 477.081 282.129 476.896 281.71C476.721 281.283 476.634 280.831 476.634 280.354C476.634 279.878 476.721 279.426 476.896 278.998C477.081 278.56 477.339 278.176 477.669 277.846C477.98 277.515 478.355 277.258 478.792 277.073C479.23 276.888 479.682 276.796 480.148 276.796C480.654 276.796 481.135 276.893 481.592 277.088C482.049 277.272 482.443 277.54 482.773 277.89C483.123 278.249 483.376 278.648 483.532 279.085C483.687 279.523 483.765 280.019 483.765 280.573V283.942C483.765 285.031 483.434 285.925 482.773 286.625C482.433 286.985 482.039 287.257 481.592 287.442C481.145 287.626 480.668 287.719 480.163 287.719C479.57 287.719 479.011 287.597 478.486 287.354C477.97 287.101 477.543 286.747 477.202 286.29L478.107 285.517ZM479.711 278.138C479.409 278.196 479.132 278.317 478.879 278.502C478.627 278.687 478.423 278.91 478.267 279.173C478.073 279.513 477.975 279.888 477.975 280.296C477.975 280.481 477.995 280.646 478.034 280.792C478.102 281.083 478.218 281.351 478.384 281.594C478.559 281.837 478.773 282.036 479.025 282.192C479.385 282.415 479.769 282.527 480.177 282.527C480.362 282.527 480.532 282.508 480.688 282.469C480.989 282.401 481.261 282.279 481.504 282.104C481.748 281.929 481.947 281.715 482.102 281.463C482.316 281.113 482.423 280.733 482.423 280.325C482.423 280.14 482.404 279.97 482.365 279.815C482.297 279.542 482.18 279.29 482.015 279.056C481.859 278.823 481.67 278.629 481.446 278.473C481.077 278.22 480.659 278.094 480.192 278.094C480.036 278.094 479.876 278.108 479.711 278.138Z" fill="#3F4349"/>
<path d="M474.179 277V287.5H472.983V278.312L471 279.508V278.181L472.983 277H474.179Z" fill="#3F4349"/>
<path d="M522.411 260.625V263.527H524.875C525.187 263.527 525.493 263.59 525.794 263.717C526.105 263.843 526.373 264.018 526.596 264.242C526.83 264.475 527.005 264.747 527.121 265.058C527.248 265.369 527.311 265.69 527.311 266.021C527.311 266.351 527.248 266.672 527.121 266.983C527.005 267.285 526.83 267.547 526.596 267.771C526.373 268.004 526.105 268.184 525.794 268.31C525.493 268.437 525.187 268.5 524.875 268.5H521.215L521.2 260.625H522.411ZM522.411 267.377H524.817C525.157 267.367 525.459 267.222 525.721 266.94C525.964 266.677 526.086 266.371 526.086 266.021C526.086 265.671 525.964 265.365 525.721 265.102C525.614 264.966 525.478 264.864 525.313 264.796C525.157 264.718 524.992 264.679 524.817 264.679H522.411V267.377Z" fill="#3F4349"/>
<path d="M519.156 260.625V268.5H517.975V264.898H513.673V268.5H512.491V260.625H513.673V263.717H517.975V260.625H519.156Z" fill="#3F4349"/>
<path d="M504.656 264.883C504.685 265.642 504.874 266.249 505.224 266.706C505.429 266.988 505.701 267.207 506.041 267.363C506.381 267.518 506.746 267.596 507.135 267.596C507.524 267.596 507.883 267.518 508.214 267.363C508.554 267.207 508.831 266.988 509.045 266.706C509.133 266.59 509.215 266.449 509.293 266.283L510.46 266.794C510.324 267.047 510.178 267.265 510.022 267.45C509.692 267.858 509.279 268.174 508.783 268.398C508.297 268.612 507.781 268.719 507.237 268.719C506.634 268.719 506.07 268.612 505.545 268.398C505.03 268.184 504.602 267.863 504.262 267.435C503.669 266.687 503.372 265.729 503.372 264.563C503.392 263.376 503.688 262.419 504.262 261.69C504.602 261.272 505.02 260.956 505.516 260.742C506.012 260.518 506.551 260.406 507.135 260.406C507.718 260.406 508.253 260.518 508.739 260.742C509.235 260.956 509.653 261.272 509.993 261.69C510.586 262.438 510.883 263.396 510.883 264.563C510.883 264.708 510.878 264.815 510.868 264.883H504.656ZM507.135 261.529C506.746 261.529 506.381 261.607 506.041 261.763C505.701 261.918 505.429 262.137 505.224 262.419C504.933 262.817 504.753 263.308 504.685 263.892H509.585C509.517 263.308 509.337 262.817 509.045 262.419C508.831 262.137 508.554 261.918 508.214 261.763C507.883 261.607 507.524 261.529 507.135 261.529Z" fill="#3F4349"/>
<path d="M499.414 260.625C500.114 260.625 500.673 260.834 501.091 261.252C501.567 261.67 501.806 262.2 501.806 262.842C501.806 263.328 501.665 263.751 501.383 264.11C501.285 264.247 501.193 264.344 501.106 264.402C501.378 264.577 501.572 264.757 501.689 264.942C501.854 265.117 501.981 265.326 502.068 265.569C502.156 265.802 502.199 266.04 502.199 266.283C502.199 266.604 502.131 266.915 501.995 267.217C501.859 267.508 501.669 267.756 501.426 267.96C501.212 268.145 500.974 268.281 500.712 268.369C500.449 268.456 500.177 268.5 499.895 268.5H495.593V260.64L499.414 260.625ZM496.789 264.067H499.414C499.793 264.067 500.094 263.926 500.318 263.644C500.503 263.42 500.595 263.153 500.595 262.842C500.576 262.54 500.483 262.278 500.318 262.054C500.201 261.908 500.07 261.801 499.924 261.733C499.788 261.665 499.618 261.631 499.414 261.631H496.789V264.067ZM496.789 267.508H499.735C500.114 267.508 500.425 267.387 500.668 267.144C500.882 266.92 500.989 266.614 500.989 266.225C500.989 265.933 500.882 265.671 500.668 265.438C500.522 265.282 500.367 265.18 500.201 265.131C500.046 265.083 499.842 265.058 499.589 265.058H496.789V267.508Z" fill="#3F4349"/>
<path d="M493.406 258V259.269H492.225V258H493.406ZM493.406 260.625V268.5H492.225V260.625H493.406Z" fill="#3F4349"/>
<path d="M489.612 261.675C490.186 262.404 490.472 263.362 490.472 264.548C490.472 265.753 490.186 266.721 489.612 267.45C489.291 267.858 488.893 268.174 488.416 268.398C487.94 268.612 487.429 268.719 486.885 268.719C486.37 268.719 485.893 268.631 485.456 268.456C485.028 268.272 484.659 268.009 484.347 267.669V272H483.152V260.625H484.216V261.617C484.527 261.238 484.921 260.941 485.397 260.727C485.874 260.513 486.375 260.406 486.9 260.406C487.444 260.406 487.95 260.518 488.416 260.742C488.893 260.956 489.291 261.267 489.612 261.675ZM488.65 266.706C489.029 266.21 489.218 265.491 489.218 264.548C489.218 263.634 489.029 262.915 488.65 262.39C488.436 262.088 488.159 261.865 487.818 261.719C487.488 261.573 487.118 261.5 486.71 261.5C486.321 261.5 485.966 261.573 485.645 261.719C485.325 261.855 485.057 262.059 484.843 262.331C484.425 262.856 484.216 263.595 484.216 264.548C484.216 265.51 484.425 266.254 484.843 266.779C485.057 267.051 485.329 267.26 485.66 267.406C486 267.552 486.36 267.625 486.739 267.625C487.118 267.625 487.478 267.547 487.818 267.392C488.159 267.236 488.436 267.008 488.65 266.706Z" fill="#3F4349"/>
<path d="M477.256 262.871C477.548 263.163 477.767 263.517 477.913 263.935C478.068 264.344 478.146 264.772 478.146 265.219C478.146 265.773 478.044 266.293 477.84 266.779C477.635 267.256 477.334 267.649 476.935 267.96C476.634 268.213 476.284 268.398 475.885 268.515C475.497 268.641 475.093 268.704 474.675 268.704C474.296 268.704 473.922 268.641 473.552 268.515C473.192 268.398 472.862 268.223 472.56 267.99C472.035 267.581 471.671 267.042 471.467 266.371L472.604 266.05C472.74 266.497 472.983 266.852 473.333 267.115C473.722 267.416 474.194 267.567 474.748 267.567C475.01 267.567 475.263 267.528 475.506 267.45C475.749 267.363 475.963 267.241 476.148 267.085C476.663 266.677 476.921 266.074 476.921 265.277C476.921 264.927 476.863 264.601 476.746 264.3C476.629 263.999 476.454 263.741 476.221 263.527C475.832 263.177 475.336 263.002 474.733 263.002C474.344 263.002 473.965 263.094 473.596 263.279L473.013 262.346L476.396 259.138H471.89V258H478.015V259.167L475.054 261.981C475.929 262.01 476.663 262.307 477.256 262.871Z" fill="#3F4349"/>
<path d="M596 313.069C596 304.747 602.747 298 611.069 298H682.389C695.014 298 705.249 308.234 705.249 320.859V320.859C705.249 333.484 695.014 343.719 682.389 343.719H596V313.069Z" fill="#9780FF"/>
<path d="M689.249 328.806H684.991V335.5H683.809V327.625H689.249V328.806Z" fill="white"/>
<path d="M680.201 331.562L682.782 335.5L681.44 335.485L679.195 332.058H677.445V335.5H676.249V327.625H677.445V331.067H679.18L681.309 327.625H682.651L680.201 331.562Z" fill="white"/>
<path d="M669.352 335.427C668.904 335.622 668.423 335.719 667.908 335.719C667.402 335.719 666.916 335.622 666.45 335.427C665.993 335.233 665.609 334.951 665.298 334.581C664.986 334.231 664.763 333.862 664.627 333.473C664.491 333.074 664.423 332.622 664.423 332.117V328.369C664.423 327.863 664.491 327.411 664.627 327.012C664.773 326.614 665.006 326.235 665.327 325.875C665.648 325.525 666.036 325.258 666.493 325.073C666.95 324.878 667.441 324.781 667.966 324.781C668.443 324.781 668.9 324.878 669.337 325.073C669.784 325.258 670.168 325.525 670.489 325.875C670.8 326.215 671.029 326.59 671.175 326.998C671.32 327.406 671.393 327.863 671.393 328.369V332.117C671.393 333.089 671.107 333.91 670.533 334.581C670.202 334.951 669.809 335.233 669.352 335.427ZM669.002 326.196C668.661 326.001 668.297 325.909 667.908 325.919C667.519 325.909 667.154 326.001 666.814 326.196C666.474 326.381 666.202 326.633 665.998 326.954C665.745 327.343 665.618 327.815 665.618 328.369V332.117C665.618 332.7 665.745 333.176 665.998 333.546C666.211 333.867 666.489 334.119 666.829 334.304C667.169 334.489 667.529 334.581 667.908 334.581C668.297 334.581 668.661 334.489 669.002 334.304C669.342 334.119 669.614 333.867 669.818 333.546C669.954 333.342 670.052 333.128 670.11 332.904C670.168 332.681 670.198 332.418 670.198 332.117V328.369C670.198 328.097 670.168 327.849 670.11 327.625C670.052 327.401 669.959 327.178 669.833 326.954C669.619 326.633 669.342 326.381 669.002 326.196Z" fill="white"/>
<path d="M661.217 335.427C660.77 335.622 660.288 335.719 659.773 335.719C659.268 335.719 658.782 335.622 658.315 335.427C657.858 335.233 657.474 334.951 657.163 334.581C656.852 334.231 656.628 333.862 656.492 333.473C656.356 333.074 656.288 332.622 656.288 332.117V328.369C656.288 327.863 656.356 327.411 656.492 327.012C656.638 326.614 656.871 326.235 657.192 325.875C657.513 325.525 657.902 325.258 658.359 325.073C658.816 324.878 659.307 324.781 659.832 324.781C660.308 324.781 660.765 324.878 661.202 325.073C661.65 325.258 662.034 325.525 662.354 325.875C662.666 326.215 662.894 326.59 663.04 326.998C663.186 327.406 663.259 327.863 663.259 328.369V332.117C663.259 333.089 662.972 333.91 662.398 334.581C662.068 334.951 661.674 335.233 661.217 335.427ZM660.867 326.196C660.527 326.001 660.162 325.909 659.773 325.919C659.384 325.909 659.02 326.001 658.679 326.196C658.339 326.381 658.067 326.633 657.863 326.954C657.61 327.343 657.484 327.815 657.484 328.369V332.117C657.484 332.7 657.61 333.176 657.863 333.546C658.077 333.867 658.354 334.119 658.694 334.304C659.034 334.489 659.394 334.581 659.773 334.581C660.162 334.581 660.527 334.489 660.867 334.304C661.207 334.119 661.479 333.867 661.684 333.546C661.82 333.342 661.917 333.128 661.975 332.904C662.034 332.681 662.063 332.418 662.063 332.117V328.369C662.063 328.097 662.034 327.849 661.975 327.625C661.917 327.401 661.825 327.178 661.698 326.954C661.484 326.633 661.207 326.381 660.867 326.196Z" fill="white"/>
<path d="M654.153 325V326.123H649.691L649.486 329.477C649.768 329.244 650.084 329.064 650.434 328.938C650.794 328.801 651.159 328.733 651.528 328.733C651.956 328.733 652.369 328.811 652.768 328.967C653.176 329.113 653.536 329.326 653.847 329.608C654.207 329.939 654.484 330.323 654.678 330.76C654.873 331.198 654.97 331.66 654.97 332.146C654.97 332.632 654.877 333.099 654.693 333.546C654.508 333.983 654.25 334.363 653.92 334.683C653.609 335.004 653.234 335.257 652.797 335.442C652.369 335.617 651.927 335.704 651.47 335.704C650.993 335.704 650.541 335.626 650.114 335.471C649.686 335.306 649.307 335.067 648.976 334.756C648.49 334.299 648.159 333.75 647.984 333.108L649.122 332.802C649.248 333.259 649.482 333.638 649.822 333.94C650.036 334.134 650.279 334.29 650.551 334.406C650.833 334.513 651.12 334.567 651.411 334.567C651.732 334.567 652.034 334.508 652.316 334.392C652.607 334.265 652.86 334.095 653.074 333.881C653.298 333.658 653.473 333.405 653.599 333.123C653.725 332.831 653.789 332.525 653.789 332.204C653.789 331.864 653.716 331.543 653.57 331.242C653.434 330.931 653.244 330.668 653.001 330.454C652.554 330.036 652.024 329.827 651.411 329.827C651.13 329.827 650.857 329.881 650.595 329.987C650.332 330.085 650.099 330.221 649.895 330.396C649.661 330.59 649.486 330.794 649.37 331.008L648.291 330.396L648.611 325H654.153Z" fill="white"/>
<path d="M645.661 325V335.5H644.465V326.312L642.482 327.508V326.181L644.465 325H645.661Z" fill="white"/>
<path d="M641.199 330.892V331.883H636.824V330.892H641.199Z" fill="white"/>
<path d="M628.668 327.625C628.697 326.672 629.032 325.948 629.674 325.452C630.209 325.005 630.919 324.781 631.803 324.781C632.707 324.781 633.427 325.005 633.962 325.452C634.282 325.695 634.525 326.011 634.691 326.4C634.856 326.779 634.939 327.187 634.939 327.625C634.939 328.315 634.735 328.884 634.326 329.331C634.151 329.545 633.966 329.725 633.772 329.871C634.103 330.104 634.365 330.362 634.56 330.644C634.978 331.13 635.196 331.757 635.216 332.525C635.196 333.001 635.104 333.449 634.939 333.867C634.773 334.275 634.525 334.625 634.195 334.917C633.884 335.189 633.519 335.388 633.101 335.515C632.683 335.651 632.25 335.719 631.803 335.719C631.366 335.719 630.938 335.651 630.52 335.515C630.112 335.378 629.752 335.179 629.441 334.917C629.11 334.625 628.853 334.265 628.668 333.838C628.493 333.41 628.41 332.972 628.42 332.525C628.41 332.194 628.459 331.864 628.566 331.533C628.673 331.203 628.838 330.906 629.062 330.644C629.256 330.362 629.519 330.104 629.849 329.871C629.655 329.725 629.47 329.545 629.295 329.331C628.896 328.884 628.687 328.315 628.668 327.625ZM629.937 327.683C629.937 328.208 630.107 328.612 630.447 328.894C630.778 329.185 631.23 329.331 631.803 329.331C632.377 329.331 632.839 329.185 633.189 328.894C633.364 328.748 633.49 328.563 633.568 328.34C633.655 328.116 633.694 327.878 633.685 327.625C633.694 327.372 633.655 327.139 633.568 326.925C633.48 326.701 633.349 326.517 633.174 326.371C632.863 326.099 632.406 325.953 631.803 325.933C631.21 325.953 630.758 326.099 630.447 326.371C630.107 326.653 629.937 327.09 629.937 327.683ZM633.378 334.042C633.757 333.692 633.947 333.186 633.947 332.525C633.947 331.864 633.757 331.358 633.378 331.008C633.009 330.649 632.484 330.469 631.803 330.469C631.492 330.469 631.2 330.513 630.928 330.6C630.656 330.688 630.428 330.824 630.243 331.008C629.864 331.358 629.674 331.864 629.674 332.525C629.674 333.186 629.864 333.692 630.243 334.042C630.437 334.217 630.671 334.353 630.943 334.45C631.215 334.538 631.502 334.581 631.803 334.581C632.114 334.581 632.406 334.538 632.678 334.45C632.95 334.353 633.184 334.217 633.378 334.042Z" fill="white"/>
<path d="M625.507 326.983C625.283 326.653 624.992 326.395 624.632 326.21C624.282 326.016 623.903 325.919 623.494 325.919C623.106 325.919 622.741 326.006 622.401 326.181C622.06 326.356 621.788 326.594 621.584 326.896C621.215 327.353 621.03 327.907 621.03 328.558V329.915C621.341 329.545 621.715 329.258 622.153 329.054C622.59 328.84 623.047 328.733 623.524 328.733C623.971 328.733 624.403 328.816 624.821 328.981C625.24 329.147 625.609 329.38 625.93 329.681C626.62 330.352 626.965 331.174 626.965 332.146C626.965 332.622 626.873 333.079 626.688 333.517C626.513 333.954 626.265 334.333 625.944 334.654C625.624 334.985 625.244 335.242 624.807 335.427C624.379 335.612 623.932 335.704 623.465 335.704C622.95 335.704 622.464 335.612 622.007 335.427C621.55 335.242 621.156 334.975 620.826 334.625C620.476 334.265 620.223 333.867 620.067 333.429C619.912 332.982 619.834 332.481 619.834 331.927V328.558C619.834 327.46 620.169 326.57 620.84 325.89C621.181 325.52 621.579 325.243 622.036 325.058C622.493 324.874 622.979 324.781 623.494 324.781C624.087 324.781 624.632 324.908 625.128 325.16C625.633 325.413 626.056 325.768 626.396 326.225L625.507 326.983ZM623.888 334.377C624.199 334.309 624.476 334.188 624.719 334.013C624.972 333.828 625.176 333.604 625.332 333.342C625.526 333.001 625.624 332.632 625.624 332.233C625.624 332.049 625.604 331.878 625.565 331.723C625.507 331.422 625.39 331.149 625.215 330.906C625.05 330.663 624.841 330.464 624.588 330.308C624.228 330.094 623.83 329.987 623.392 329.987C623.237 329.987 623.081 330.002 622.926 330.031C622.624 330.099 622.347 330.221 622.094 330.396C621.851 330.571 621.652 330.79 621.496 331.052C621.283 331.402 621.176 331.781 621.176 332.19C621.176 332.374 621.195 332.54 621.234 332.685C621.302 332.958 621.414 333.21 621.569 333.444C621.735 333.677 621.929 333.872 622.153 334.027C622.551 334.29 622.979 334.421 623.436 334.421C623.592 334.421 623.742 334.406 623.888 334.377Z" fill="white"/>
<path d="M617.017 326.137H612.146V325H618.227V326.137L614.421 335.5H613.196L617.017 326.137Z" fill="white"/>
<path d="M663.104 308.625V311.527H665.568C665.879 311.527 666.186 311.59 666.487 311.717C666.798 311.843 667.065 312.018 667.289 312.242C667.522 312.475 667.697 312.747 667.814 313.058C667.94 313.369 668.004 313.69 668.004 314.021C668.004 314.351 667.94 314.672 667.814 314.983C667.697 315.285 667.522 315.547 667.289 315.771C667.065 316.004 666.798 316.184 666.487 316.31C666.186 316.437 665.879 316.5 665.568 316.5H661.908L661.893 308.625H663.104ZM663.104 315.377H665.51C665.85 315.367 666.152 315.222 666.414 314.94C666.657 314.677 666.779 314.371 666.779 314.021C666.779 313.671 666.657 313.365 666.414 313.102C666.307 312.966 666.171 312.864 666.006 312.796C665.85 312.718 665.685 312.679 665.51 312.679H663.104V315.377Z" fill="white"/>
<path d="M659.849 308.625V316.5H658.668V312.898H654.366V316.5H653.184V308.625H654.366V311.717H658.668V308.625H659.849Z" fill="white"/>
<path d="M645.348 312.883C645.378 313.642 645.567 314.249 645.917 314.706C646.121 314.988 646.394 315.207 646.734 315.363C647.074 315.518 647.439 315.596 647.828 315.596C648.217 315.596 648.576 315.518 648.907 315.363C649.247 315.207 649.524 314.988 649.738 314.706C649.826 314.59 649.908 314.449 649.986 314.283L651.153 314.794C651.017 315.047 650.871 315.265 650.715 315.45C650.385 315.858 649.971 316.174 649.476 316.398C648.989 316.612 648.474 316.719 647.93 316.719C647.327 316.719 646.763 316.612 646.238 316.398C645.723 316.184 645.295 315.863 644.955 315.435C644.362 314.687 644.065 313.729 644.065 312.563C644.085 311.376 644.381 310.419 644.955 309.69C645.295 309.272 645.713 308.956 646.209 308.742C646.705 308.518 647.244 308.406 647.828 308.406C648.411 308.406 648.946 308.518 649.432 308.742C649.928 308.956 650.346 309.272 650.686 309.69C651.279 310.438 651.576 311.396 651.576 312.563C651.576 312.708 651.571 312.815 651.561 312.883H645.348ZM647.828 309.529C647.439 309.529 647.074 309.607 646.734 309.763C646.394 309.918 646.121 310.137 645.917 310.419C645.626 310.817 645.446 311.308 645.378 311.892H650.278C650.21 311.308 650.03 310.817 649.738 310.419C649.524 310.137 649.247 309.918 648.907 309.763C648.576 309.607 648.217 309.529 647.828 309.529Z" fill="white"/>
<path d="M640.107 308.625C640.807 308.625 641.366 308.834 641.784 309.252C642.26 309.67 642.498 310.2 642.498 310.842C642.498 311.328 642.357 311.751 642.075 312.11C641.978 312.247 641.886 312.344 641.798 312.402C642.071 312.577 642.265 312.757 642.382 312.942C642.547 313.117 642.673 313.326 642.761 313.569C642.848 313.802 642.892 314.04 642.892 314.283C642.892 314.604 642.824 314.915 642.688 315.217C642.552 315.508 642.362 315.756 642.119 315.96C641.905 316.145 641.667 316.281 641.405 316.369C641.142 316.456 640.87 316.5 640.588 316.5H636.286V308.64L640.107 308.625ZM637.482 312.067H640.107C640.486 312.067 640.787 311.926 641.011 311.644C641.196 311.42 641.288 311.153 641.288 310.842C641.268 310.54 641.176 310.278 641.011 310.054C640.894 309.908 640.763 309.801 640.617 309.733C640.481 309.665 640.311 309.631 640.107 309.631H637.482V312.067ZM637.482 315.508H640.427C640.807 315.508 641.118 315.387 641.361 315.144C641.575 314.92 641.682 314.614 641.682 314.225C641.682 313.933 641.575 313.671 641.361 313.438C641.215 313.282 641.059 313.18 640.894 313.131C640.739 313.083 640.534 313.058 640.282 313.058H637.482V315.508Z" fill="white"/>
<path d="M634.099 306V307.269H632.918V306H634.099ZM634.099 308.625V316.5H632.918V308.625H634.099Z" fill="white"/>
<path d="M630.305 309.675C630.878 310.404 631.165 311.362 631.165 312.548C631.165 313.753 630.878 314.721 630.305 315.45C629.984 315.858 629.585 316.174 629.109 316.398C628.633 316.612 628.122 316.719 627.578 316.719C627.062 316.719 626.586 316.631 626.149 316.456C625.721 316.272 625.351 316.009 625.04 315.669V320H623.844V308.625H624.909V309.617C625.22 309.238 625.614 308.941 626.09 308.727C626.567 308.513 627.067 308.406 627.592 308.406C628.137 308.406 628.642 308.518 629.109 308.742C629.585 308.956 629.984 309.267 630.305 309.675ZM629.342 314.706C629.722 314.21 629.911 313.491 629.911 312.548C629.911 311.634 629.722 310.915 629.342 310.39C629.128 310.088 628.851 309.865 628.511 309.719C628.181 309.573 627.811 309.5 627.403 309.5C627.014 309.5 626.659 309.573 626.338 309.719C626.017 309.855 625.75 310.059 625.536 310.331C625.118 310.856 624.909 311.595 624.909 312.548C624.909 313.51 625.118 314.254 625.536 314.779C625.75 315.051 626.022 315.26 626.353 315.406C626.693 315.552 627.053 315.625 627.432 315.625C627.811 315.625 628.171 315.547 628.511 315.392C628.851 315.236 629.128 315.008 629.342 314.706Z" fill="white"/>
<path d="M618.985 313.394V314.517H617.863V316.5H616.667V314.517H612V313.394L615.485 306H616.74L613.254 313.394H616.667V310.375H617.863V313.394H618.985Z" fill="white"/>
<path d="M737 350.159C737 343.444 742.444 338 749.159 338H802.295C814.92 338 825.154 348.234 825.154 360.859V360.859C825.154 373.484 814.92 383.719 802.295 383.719H737V350.159Z" fill="#6729FF"/>
<path d="M808.456 368.806H804.198V375.5H803.016V367.625H808.456V368.806Z" fill="white"/>
<path d="M799.408 371.562L801.989 375.5L800.647 375.485L798.402 372.058H796.652V375.5H795.456V367.625H796.652V371.067H798.387L800.516 367.625H801.858L799.408 371.562Z" fill="white"/>
<path d="M788.559 375.427C788.112 375.622 787.63 375.719 787.115 375.719C786.609 375.719 786.123 375.622 785.657 375.427C785.2 375.233 784.816 374.951 784.505 374.581C784.193 374.231 783.97 373.862 783.834 373.473C783.698 373.074 783.63 372.622 783.63 372.117V368.369C783.63 367.863 783.698 367.411 783.834 367.012C783.98 366.614 784.213 366.235 784.534 365.875C784.855 365.525 785.243 365.258 785.7 365.073C786.157 364.878 786.648 364.781 787.173 364.781C787.65 364.781 788.107 364.878 788.544 365.073C788.991 365.258 789.375 365.525 789.696 365.875C790.007 366.215 790.236 366.59 790.382 366.998C790.527 367.406 790.6 367.863 790.6 368.369V372.117C790.6 373.089 790.314 373.91 789.74 374.581C789.409 374.951 789.016 375.233 788.559 375.427ZM788.209 366.196C787.868 366.001 787.504 365.909 787.115 365.919C786.726 365.909 786.362 366.001 786.021 366.196C785.681 366.381 785.409 366.633 785.205 366.954C784.952 367.343 784.825 367.815 784.825 368.369V372.117C784.825 372.7 784.952 373.176 785.205 373.546C785.418 373.867 785.696 374.119 786.036 374.304C786.376 374.489 786.736 374.581 787.115 374.581C787.504 374.581 787.868 374.489 788.209 374.304C788.549 374.119 788.821 373.867 789.025 373.546C789.162 373.342 789.259 373.128 789.317 372.904C789.375 372.681 789.405 372.418 789.405 372.117V368.369C789.405 368.097 789.375 367.849 789.317 367.625C789.259 367.401 789.166 367.178 789.04 366.954C788.826 366.633 788.549 366.381 788.209 366.196Z" fill="white"/>
<path d="M780.424 375.427C779.977 375.622 779.496 375.719 778.98 375.719C778.475 375.719 777.989 375.622 777.522 375.427C777.065 375.233 776.681 374.951 776.37 374.581C776.059 374.231 775.835 373.862 775.699 373.473C775.563 373.074 775.495 372.622 775.495 372.117V368.369C775.495 367.863 775.563 367.411 775.699 367.012C775.845 366.614 776.078 366.235 776.399 365.875C776.72 365.525 777.109 365.258 777.566 365.073C778.023 364.878 778.514 364.781 779.039 364.781C779.515 364.781 779.972 364.878 780.409 365.073C780.857 365.258 781.241 365.525 781.561 365.875C781.873 366.215 782.101 366.59 782.247 366.998C782.393 367.406 782.466 367.863 782.466 368.369V372.117C782.466 373.089 782.179 373.91 781.605 374.581C781.275 374.951 780.881 375.233 780.424 375.427ZM780.074 366.196C779.734 366.001 779.369 365.909 778.98 365.919C778.591 365.909 778.227 366.001 777.886 366.196C777.546 366.381 777.274 366.633 777.07 366.954C776.817 367.343 776.691 367.815 776.691 368.369V372.117C776.691 372.7 776.817 373.176 777.07 373.546C777.284 373.867 777.561 374.119 777.901 374.304C778.241 374.489 778.601 374.581 778.98 374.581C779.369 374.581 779.734 374.489 780.074 374.304C780.414 374.119 780.686 373.867 780.891 373.546C781.027 373.342 781.124 373.128 781.182 372.904C781.241 372.681 781.27 372.418 781.27 372.117V368.369C781.27 368.097 781.241 367.849 781.182 367.625C781.124 367.401 781.032 367.178 780.905 366.954C780.691 366.633 780.414 366.381 780.074 366.196Z" fill="white"/>
<path d="M773.36 365V366.123H768.898L768.693 369.477C768.975 369.244 769.291 369.064 769.641 368.938C770.001 368.801 770.366 368.733 770.735 368.733C771.163 368.733 771.576 368.811 771.975 368.967C772.383 369.113 772.743 369.326 773.054 369.608C773.414 369.939 773.691 370.323 773.885 370.76C774.08 371.198 774.177 371.66 774.177 372.146C774.177 372.632 774.084 373.099 773.9 373.546C773.715 373.983 773.457 374.363 773.127 374.683C772.816 375.004 772.441 375.257 772.004 375.442C771.576 375.617 771.134 375.704 770.677 375.704C770.2 375.704 769.748 375.626 769.321 375.471C768.893 375.306 768.514 375.067 768.183 374.756C767.697 374.299 767.366 373.75 767.191 373.108L768.329 372.802C768.455 373.259 768.689 373.638 769.029 373.94C769.243 374.134 769.486 374.29 769.758 374.406C770.04 374.513 770.327 374.567 770.618 374.567C770.939 374.567 771.241 374.508 771.523 374.392C771.814 374.265 772.067 374.095 772.281 373.881C772.505 373.658 772.68 373.405 772.806 373.123C772.932 372.831 772.996 372.525 772.996 372.204C772.996 371.864 772.923 371.543 772.777 371.242C772.641 370.931 772.451 370.668 772.208 370.454C771.761 370.036 771.231 369.827 770.618 369.827C770.337 369.827 770.064 369.881 769.802 369.987C769.539 370.085 769.306 370.221 769.102 370.396C768.868 370.59 768.693 370.794 768.577 371.008L767.498 370.396L767.818 365H773.36Z" fill="white"/>
<path d="M764.868 365V375.5H763.672V366.312L761.689 367.508V366.181L763.672 365H764.868Z" fill="white"/>
<path d="M755.188 374.377L758.002 371.563L755.188 368.748L755.815 368.121L759.242 371.563L755.815 375.004L755.188 374.377Z" fill="white"/>
<path d="M804.254 348.625V351.527H806.719C807.03 351.527 807.336 351.59 807.637 351.717C807.949 351.843 808.216 352.018 808.439 352.242C808.673 352.475 808.848 352.747 808.964 353.058C809.091 353.369 809.154 353.69 809.154 354.021C809.154 354.351 809.091 354.672 808.964 354.983C808.848 355.285 808.673 355.547 808.439 355.771C808.216 356.004 807.949 356.184 807.637 356.31C807.336 356.437 807.03 356.5 806.719 356.5H803.058L803.044 348.625H804.254ZM804.254 355.377H806.66C807.001 355.367 807.302 355.222 807.564 354.94C807.808 354.677 807.929 354.371 807.929 354.021C807.929 353.671 807.808 353.365 807.564 353.102C807.458 352.966 807.321 352.864 807.156 352.796C807.001 352.718 806.835 352.679 806.66 352.679H804.254V355.377Z" fill="white"/>
<path d="M800.999 348.625V356.5H799.818V352.898H795.516V356.5H794.335V348.625H795.516V351.717H799.818V348.625H800.999Z" fill="white"/>
<path d="M786.499 352.883C786.528 353.642 786.718 354.249 787.068 354.706C787.272 354.988 787.544 355.207 787.884 355.363C788.225 355.518 788.589 355.596 788.978 355.596C789.367 355.596 789.727 355.518 790.057 355.363C790.397 355.207 790.675 354.988 790.888 354.706C790.976 354.59 791.059 354.449 791.136 354.283L792.303 354.794C792.167 355.047 792.021 355.265 791.866 355.45C791.535 355.858 791.122 356.174 790.626 356.398C790.14 356.612 789.625 356.719 789.08 356.719C788.477 356.719 787.913 356.612 787.388 356.398C786.873 356.184 786.445 355.863 786.105 355.435C785.512 354.687 785.216 353.729 785.216 352.563C785.235 351.376 785.531 350.419 786.105 349.69C786.445 349.272 786.863 348.956 787.359 348.742C787.855 348.518 788.395 348.406 788.978 348.406C789.561 348.406 790.096 348.518 790.582 348.742C791.078 348.956 791.496 349.272 791.836 349.69C792.429 350.438 792.726 351.396 792.726 352.563C792.726 352.708 792.721 352.815 792.711 352.883H786.499ZM788.978 349.529C788.589 349.529 788.225 349.607 787.884 349.763C787.544 349.918 787.272 350.137 787.068 350.419C786.776 350.817 786.596 351.308 786.528 351.892H791.428C791.36 351.308 791.18 350.817 790.888 350.419C790.675 350.137 790.397 349.918 790.057 349.763C789.727 349.607 789.367 349.529 788.978 349.529Z" fill="white"/>
<path d="M781.257 348.625C781.957 348.625 782.516 348.834 782.934 349.252C783.411 349.67 783.649 350.2 783.649 350.842C783.649 351.328 783.508 351.751 783.226 352.11C783.129 352.247 783.036 352.344 782.949 352.402C783.221 352.577 783.415 352.757 783.532 352.942C783.697 353.117 783.824 353.326 783.911 353.569C783.999 353.802 784.042 354.04 784.042 354.283C784.042 354.604 783.974 354.915 783.838 355.217C783.702 355.508 783.513 355.756 783.27 355.96C783.056 356.145 782.817 356.281 782.555 356.369C782.292 356.456 782.02 356.5 781.738 356.5H777.436V348.64L781.257 348.625ZM778.632 352.067H781.257C781.636 352.067 781.938 351.926 782.161 351.644C782.346 351.42 782.438 351.153 782.438 350.842C782.419 350.54 782.326 350.278 782.161 350.054C782.045 349.908 781.913 349.801 781.767 349.733C781.631 349.665 781.461 349.631 781.257 349.631H778.632V352.067ZM778.632 355.508H781.578C781.957 355.508 782.268 355.387 782.511 355.144C782.725 354.92 782.832 354.614 782.832 354.225C782.832 353.933 782.725 353.671 782.511 353.438C782.365 353.282 782.21 353.18 782.045 353.131C781.889 353.083 781.685 353.058 781.432 353.058H778.632V355.508Z" fill="white"/>
<path d="M775.25 346V347.269H774.068V346H775.25ZM775.25 348.625V356.5H774.068V348.625H775.25Z" fill="white"/>
<path d="M771.455 349.675C772.029 350.404 772.316 351.362 772.316 352.548C772.316 353.753 772.029 354.721 771.455 355.45C771.134 355.858 770.736 356.174 770.259 356.398C769.783 356.612 769.273 356.719 768.728 356.719C768.213 356.719 767.736 356.631 767.299 356.456C766.871 356.272 766.502 356.009 766.191 355.669V360H764.995V348.625H766.059V349.617C766.371 349.238 766.764 348.941 767.241 348.727C767.717 348.513 768.218 348.406 768.743 348.406C769.287 348.406 769.793 348.518 770.259 348.742C770.736 348.956 771.134 349.267 771.455 349.675ZM770.493 354.706C770.872 354.21 771.061 353.491 771.061 352.548C771.061 351.634 770.872 350.915 770.493 350.39C770.279 350.088 770.002 349.865 769.661 349.719C769.331 349.573 768.961 349.5 768.553 349.5C768.164 349.5 767.809 349.573 767.489 349.719C767.168 349.855 766.9 350.059 766.686 350.331C766.268 350.856 766.059 351.595 766.059 352.548C766.059 353.51 766.268 354.254 766.686 354.779C766.9 355.051 767.173 355.26 767.503 355.406C767.843 355.552 768.203 355.625 768.582 355.625C768.961 355.625 769.321 355.547 769.661 355.392C770.002 355.236 770.279 355.008 770.493 354.706Z" fill="white"/>
<path d="M759.169 346V347.123H754.706L754.502 350.477C754.784 350.244 755.1 350.064 755.45 349.938C755.81 349.801 756.174 349.733 756.544 349.733C756.972 349.733 757.385 349.811 757.783 349.967C758.192 350.113 758.551 350.326 758.863 350.608C759.222 350.939 759.499 351.323 759.694 351.76C759.888 352.198 759.985 352.66 759.985 353.146C759.985 353.632 759.893 354.099 759.708 354.546C759.524 354.983 759.266 355.363 758.935 355.683C758.624 356.004 758.25 356.257 757.813 356.442C757.385 356.617 756.942 356.704 756.485 356.704C756.009 356.704 755.557 356.626 755.129 356.471C754.701 356.306 754.322 356.067 753.992 355.756C753.506 355.299 753.175 354.75 753 354.108L754.138 353.802C754.264 354.259 754.497 354.638 754.837 354.94C755.051 355.134 755.294 355.29 755.567 355.406C755.849 355.513 756.135 355.567 756.427 355.567C756.748 355.567 757.049 355.508 757.331 355.392C757.623 355.265 757.876 355.095 758.09 354.881C758.313 354.658 758.488 354.405 758.615 354.123C758.741 353.831 758.804 353.525 758.804 353.204C758.804 352.864 758.731 352.543 758.585 352.242C758.449 351.931 758.26 351.668 758.017 351.454C757.569 351.036 757.04 350.827 756.427 350.827C756.145 350.827 755.873 350.881 755.61 350.988C755.348 351.085 755.115 351.221 754.91 351.396C754.677 351.59 754.502 351.794 754.385 352.008L753.306 351.396L753.627 346H759.169Z" fill="white"/>
</svg>
