<svg viewBox="0 0 280 192" fill="none" xmlns="http://www.w3.org/2000/svg">
<path d="M0 16C0 7.16344 7.16344 0 16 0H264C272.837 0 280 7.16344 280 16V176C280 184.837 272.837 192 264 192H16C7.16344 192 0 184.837 0 176V16Z" fill="#6729FF"/>
<path d="M229.666 104.889H256V113.778H239.322V130.222H252.577V139.111H239.322V158.222H256V167.111H229.666V104.889Z" fill="#23076E"/>
<path d="M188.998 104.889H215.333V113.778H198.654V130.222H211.909V139.111H198.654V158.222H215.333V167.111H188.998V104.889Z" fill="#23076E"/>
<path d="M150.045 104.889H175.59V113.778H159.701V131.111H172.166V140H159.701V167.111H150.045V104.889Z" fill="#23076E"/>
<path d="M111.093 104.889H136.637V113.778H120.749V131.111H133.213V140H120.749L120.749 167.111H111.093L111.093 104.889Z" fill="#23076E"/>
<path d="M81.1249 168C76.3847 168 72.7564 166.637 70.24 163.911C67.7236 161.185 66.4655 157.333 66.4655 152.356L66.4655 119.644C66.4655 114.667 67.7236 110.815 70.24 108.089C72.7564 105.363 76.3847 104 81.1249 104C85.8651 104 89.4934 105.363 92.0098 108.089C94.5261 110.815 95.7844 114.667 95.7844 119.644V152.356C95.7844 157.333 94.5261 161.185 92.0098 163.911C89.4934 166.637 85.8651 168 81.1249 168ZM81.1249 159.111C84.4606 159.111 86.1284 157.067 86.1284 152.978V119.022C86.1284 114.933 84.4606 112.889 81.1249 112.889C77.7892 112.889 76.1214 114.933 76.1214 119.022L76.1214 152.978C76.1214 157.067 77.7892 159.111 81.1249 159.111Z" fill="#23076E"/>
<path d="M38.2205 168C33.5974 168 30.0569 166.667 27.599 164C25.1997 161.333 24 157.57 24 152.711L24 119.289C24 114.43 25.1997 110.667 27.599 108C30.0569 105.333 33.5974 104 38.2205 104C42.8437 104 46.3549 105.333 48.7543 108C51.2121 110.667 52.4411 114.43 52.4411 119.289V125.867H43.3118V118.667C43.3118 114.815 41.7025 112.889 38.4839 112.889C35.2652 112.889 33.6559 114.815 33.6559 118.667L33.6559 153.422C33.6559 157.215 35.2652 159.111 38.4839 159.111C41.7025 159.111 43.3118 157.215 43.3118 153.422V143.911H52.4411V152.711C52.4411 157.57 51.2121 161.333 48.7543 164C46.3549 166.667 42.8437 168 38.2205 168Z" fill="#23076E"/>
<path d="M256 27.9218C255.297 31.5654 254.045 35.3342 252.245 39.2281C250.445 43.0943 247.788 46.9465 244.272 50.7849C241.825 53.2881 238.9 56.0278 235.497 59.0039V87.7497H224.107V60.7145L221.871 57.2099L203.098 27.9218L216.598 27.9218L229.971 48.7822C231.968 47.0022 233.951 45.0969 235.919 43.0665C238.282 40.5354 240.11 38.0043 241.404 35.4733C242.725 32.9422 243.71 30.425 244.357 27.9218H256Z" fill="white"/>
<path d="M172.437 88C168.275 87.8331 164.337 86.804 160.625 84.9127C158.656 83.9114 156.898 82.7014 155.352 81.2829C153.805 79.8644 152.23 78.2512 150.627 76.4433L159.191 68.8918C161.666 71.7845 163.901 73.7593 165.898 74.8162C168.092 75.9566 170.384 76.5546 172.775 76.6102H173.323C175.348 76.6102 177.162 76.346 178.765 75.8175C180.368 75.289 181.592 74.5519 182.435 73.6063C183.392 72.4381 183.87 71.2977 183.87 70.1852C183.87 70.0461 183.856 69.9209 183.827 69.8097C183.574 68.4746 182.899 67.3481 181.803 66.4303C180.734 65.4846 179.567 64.7753 178.301 64.3025C177.485 63.9687 176.67 63.6628 175.854 63.3846C172.339 62.0774 168.781 60.5754 165.181 58.8788C163.437 58.1278 161.497 57.0152 159.359 55.5411C157.25 54.0669 155.506 52.0365 154.128 49.4498C153.228 47.5028 152.778 45.5559 152.778 43.6089C152.778 41.5228 153.284 39.4507 154.297 37.3925C155.619 34.9726 157.503 32.9144 159.95 31.2177C162.397 29.4933 165.083 28.3668 168.008 27.8383C169.358 27.6158 170.707 27.5046 172.057 27.5046C175.657 27.5046 179.314 28.2556 183.026 29.7575C186.766 31.2595 190.169 33.4429 193.235 36.3077L185.22 44.4433C183.223 42.6076 181.071 41.2169 178.765 40.2712C176.459 39.3255 174.223 38.8527 172.057 38.8527C171.326 38.8527 170.637 38.9083 169.99 39.0196C167.431 39.5759 165.603 40.7579 164.506 42.5659C164.337 42.8718 164.253 43.1917 164.253 43.5254C164.253 43.887 164.351 44.2347 164.548 44.5685C164.914 45.3473 165.589 46.0565 166.573 46.6962C167.558 47.3081 168.795 47.9896 170.286 48.7406C173.323 50.1591 176.557 51.4941 179.988 52.7458C180.804 53.0517 181.634 53.3716 182.477 53.7054C185.909 55.0682 188.749 57.0291 190.999 59.588C193.277 62.1469 194.669 64.9978 195.176 68.1408C195.288 68.8362 195.344 69.5315 195.344 70.2269C195.344 72.0904 194.979 73.9679 194.247 75.8592C193.516 77.7506 192.49 79.4611 191.168 80.9909C189.199 83.216 186.64 84.9405 183.49 86.1643C180.368 87.3881 177.007 88 173.407 88H172.437Z" fill="white"/>
<path d="M116.97 27.9218L142.071 87.8331H129.711L123.13 72.1043C121.245 72.6049 119.094 73.0917 116.675 73.5645C114.285 74.0095 111.416 74.3155 108.069 74.4824C105.65 74.5658 103.204 74.6075 100.729 74.6075H97.8178L92.2914 87.8331H79.9308L86.09 73.1056L81.6604 83.5776L89.9712 63.8435L104.99 27.9218L116.97 27.9218ZM107.521 63.176C112.246 62.9535 115.986 62.425 118.742 61.5906L110.98 43.1499L102.543 63.3429C103.752 63.3429 105.411 63.2872 107.521 63.176Z" fill="white"/>
<path d="M35.4747 52.4537L68.802 52.4537V63.8018L35.4747 63.8018V76.5684H68.6754V87.9166H24L24 27.8383H33.5341C33.7029 27.8661 33.8435 27.8801 33.956 27.8801H34.4622C36.2341 27.9357 37.9918 27.9635 39.7355 27.9635C42.3511 27.9635 44.9385 27.9079 47.4978 27.7966C50.4228 27.6854 52.9399 27.4211 55.0492 27.0039C57.1585 26.5589 59.4788 25.9887 62.01 25.2934C63.2193 24.9596 64.9068 24.5285 67.0723 24L69.941 34.9309C68.0004 35.4316 66.5098 35.8209 65.4692 36.0991L64.963 36.266C62.2912 36.9891 59.6897 37.601 57.1585 38.1017C54.6555 38.6023 51.604 38.9361 48.0041 39.103C45.5854 39.2143 43.1386 39.2699 40.6636 39.2699C38.5824 39.2699 36.8528 39.256 35.4747 39.2282L35.4747 52.4537Z" fill="white"/>
</svg>
