<svg width="1056" height="184" viewBox="0 0 1056 184" fill="none" xmlns="http://www.w3.org/2000/svg">
<g opacity="0.1">
<path d="M1046.74 128.4H1016.74V1.5H1046.74V128.4ZM1010.14 160.8C1010.14 154.6 1012.34 149.3 1016.74 144.9C1021.14 140.5 1026.44 138.3 1032.64 138.3C1038.84 138.3 1044.14 140.5 1048.54 144.9C1052.94 149.3 1055.14 154.6 1055.14 160.8C1055.14 167 1052.94 172.3 1048.54 176.7C1044.14 181.1 1038.84 183.3 1032.64 183.3C1026.44 183.3 1021.14 181.1 1016.74 176.7C1012.34 172.3 1010.14 167 1010.14 160.8Z" fill="white"/>
<path d="M945.633 0C955.433 0 963.833 2.2 970.833 6.60001C978.033 10.8 983.833 16.5 988.233 23.7C992.833 30.9 996.133 39.2 998.133 48.6C1000.33 57.8 1001.43 67.3 1001.43 77.1C1001.43 88.5 1000.03 100.5 997.233 113.1C994.633 125.5 990.333 137 984.333 147.6C978.533 158 971.033 166.6 961.833 173.4C952.833 180.2 941.933 183.6 929.133 183.6C919.333 183.6 910.933 181.5 903.933 177.3C896.933 172.9 891.133 167.1 886.533 159.9C882.133 152.7 878.833 144.5 876.633 135.3C874.633 126.1 873.633 116.7 873.633 107.1C873.633 95.7 874.933 83.7 877.533 71.1C880.333 58.5 884.633 47 890.433 36.6C896.233 26 903.633 17.3 912.633 10.5C921.833 3.5 932.833 0 945.633 0ZM967.533 85.2C967.533 78.4 967.033 71.5 966.033 64.5C965.233 57.5 963.733 51.1 961.533 45.3C959.333 39.5 956.233 34.7 952.233 30.9C948.433 26.9 943.533 24.7 937.533 24.3C931.533 25.3 926.533 28.8 922.533 34.8C918.733 40.6 915.633 47.4 913.233 55.2C911.033 62.8 909.433 70.7 908.433 78.9C907.633 86.9 907.233 93.6 907.233 99C907.233 105.6 907.733 112.4 908.733 119.4C909.733 126.4 911.333 132.8 913.533 138.6C915.933 144.4 919.033 149.3 922.833 153.3C926.633 157.1 931.433 159.2 937.233 159.6C943.033 158.4 947.833 154.9 951.633 149.1C955.633 143.1 958.733 136.3 960.933 128.7C963.333 120.9 965.033 113.1 966.033 105.3C967.033 97.3 967.533 90.6 967.533 85.2Z" fill="white"/>
<path d="M820.828 0C830.628 0 839.028 2.2 846.028 6.60001C853.228 10.8 859.028 16.5 863.428 23.7C868.028 30.9 871.328 39.2 873.328 48.6C875.528 57.8 876.628 67.3 876.628 77.1C876.628 88.5 875.228 100.5 872.428 113.1C869.828 125.5 865.528 137 859.528 147.6C853.728 158 846.228 166.6 837.028 173.4C828.028 180.2 817.128 183.6 804.328 183.6C794.528 183.6 786.128 181.5 779.128 177.3C772.128 172.9 766.328 167.1 761.728 159.9C757.328 152.7 754.028 144.5 751.828 135.3C749.828 126.1 748.828 116.7 748.828 107.1C748.828 95.7 750.128 83.7 752.728 71.1C755.528 58.5 759.828 47 765.628 36.6C771.428 26 778.828 17.3 787.828 10.5C797.028 3.5 808.028 0 820.828 0ZM842.728 85.2C842.728 78.4 842.228 71.5 841.228 64.5C840.428 57.5 838.928 51.1 836.728 45.3C834.528 39.5 831.428 34.7 827.428 30.9C823.628 26.9 818.728 24.7 812.728 24.3C806.728 25.3 801.728 28.8 797.728 34.8C793.928 40.6 790.828 47.4 788.428 55.2C786.228 62.8 784.628 70.7 783.628 78.9C782.828 86.9 782.428 93.6 782.428 99C782.428 105.6 782.928 112.4 783.928 119.4C784.928 126.4 786.528 132.8 788.728 138.6C791.128 144.4 794.228 149.3 798.028 153.3C801.828 157.1 806.628 159.2 812.428 159.6C818.228 158.4 823.028 154.9 826.828 149.1C830.828 143.1 833.928 136.3 836.128 128.7C838.528 120.9 840.228 113.1 841.228 105.3C842.228 97.3 842.728 90.6 842.728 85.2Z" fill="white"/>
<path d="M696.023 0C705.823 0 714.223 2.2 721.223 6.60001C728.423 10.8 734.223 16.5 738.623 23.7C743.223 30.9 746.523 39.2 748.523 48.6C750.723 57.8 751.823 67.3 751.823 77.1C751.823 88.5 750.423 100.5 747.623 113.1C745.023 125.5 740.723 137 734.723 147.6C728.923 158 721.423 166.6 712.223 173.4C703.223 180.2 692.323 183.6 679.523 183.6C669.723 183.6 661.323 181.5 654.323 177.3C647.323 172.9 641.523 167.1 636.923 159.9C632.523 152.7 629.223 144.5 627.023 135.3C625.023 126.1 624.023 116.7 624.023 107.1C624.023 95.7 625.323 83.7 627.923 71.1C630.723 58.5 635.023 47 640.823 36.6C646.623 26 654.023 17.3 663.023 10.5C672.223 3.5 683.223 0 696.023 0ZM717.923 85.2C717.923 78.4 717.423 71.5 716.423 64.5C715.623 57.5 714.123 51.1 711.923 45.3C709.723 39.5 706.623 34.7 702.623 30.9C698.823 26.9 693.923 24.7 687.923 24.3C681.923 25.3 676.923 28.8 672.923 34.8C669.123 40.6 666.023 47.4 663.623 55.2C661.423 62.8 659.823 70.7 658.823 78.9C658.023 86.9 657.623 93.6 657.623 99C657.623 105.6 658.123 112.4 659.123 119.4C660.123 126.4 661.723 132.8 663.923 138.6C666.323 144.4 669.423 149.3 673.223 153.3C677.023 157.1 681.823 159.2 687.623 159.6C693.423 158.4 698.223 154.9 702.023 149.1C706.023 143.1 709.123 136.3 711.323 128.7C713.723 120.9 715.423 113.1 716.423 105.3C717.423 97.3 717.923 90.6 717.923 85.2Z" fill="white"/>
<path d="M571.219 0C581.019 0 589.419 2.2 596.419 6.60001C603.619 10.8 609.419 16.5 613.819 23.7C618.419 30.9 621.719 39.2 623.719 48.6C625.919 57.8 627.019 67.3 627.019 77.1C627.019 88.5 625.619 100.5 622.819 113.1C620.219 125.5 615.919 137 609.919 147.6C604.119 158 596.619 166.6 587.419 173.4C578.419 180.2 567.519 183.6 554.719 183.6C544.919 183.6 536.519 181.5 529.519 177.3C522.519 172.9 516.719 167.1 512.119 159.9C507.719 152.7 504.419 144.5 502.219 135.3C500.219 126.1 499.219 116.7 499.219 107.1C499.219 95.7 500.519 83.7 503.119 71.1C505.919 58.5 510.219 47 516.019 36.6C521.819 26 529.219 17.3 538.219 10.5C547.419 3.5 558.419 0 571.219 0ZM593.119 85.2C593.119 78.4 592.619 71.5 591.619 64.5C590.819 57.5 589.319 51.1 587.119 45.3C584.919 39.5 581.819 34.7 577.819 30.9C574.019 26.9 569.119 24.7 563.119 24.3C557.119 25.3 552.119 28.8 548.119 34.8C544.319 40.6 541.219 47.4 538.819 55.2C536.619 62.8 535.019 70.7 534.019 78.9C533.219 86.9 532.819 93.6 532.819 99C532.819 105.6 533.319 112.4 534.319 119.4C535.319 126.4 536.919 132.8 539.119 138.6C541.519 144.4 544.619 149.3 548.419 153.3C552.219 157.1 557.019 159.2 562.819 159.6C568.619 158.4 573.419 154.9 577.219 149.1C581.219 143.1 584.319 136.3 586.519 128.7C588.919 120.9 590.619 113.1 591.619 105.3C592.619 97.3 593.119 90.6 593.119 85.2Z" fill="white"/>
<path d="M446.414 0C456.214 0 464.614 2.2 471.614 6.60001C478.814 10.8 484.614 16.5 489.014 23.7C493.614 30.9 496.914 39.2 498.914 48.6C501.114 57.8 502.214 67.3 502.214 77.1C502.214 88.5 500.814 100.5 498.014 113.1C495.414 125.5 491.114 137 485.114 147.6C479.314 158 471.814 166.6 462.614 173.4C453.614 180.2 442.714 183.6 429.914 183.6C420.114 183.6 411.714 181.5 404.714 177.3C397.714 172.9 391.914 167.1 387.314 159.9C382.914 152.7 379.614 144.5 377.414 135.3C375.414 126.1 374.414 116.7 374.414 107.1C374.414 95.7 375.714 83.7 378.314 71.1C381.114 58.5 385.414 47 391.214 36.6C397.014 26 404.414 17.3 413.414 10.5C422.614 3.5 433.614 0 446.414 0ZM468.314 85.2C468.314 78.4 467.814 71.5 466.814 64.5C466.014 57.5 464.514 51.1 462.314 45.3C460.114 39.5 457.014 34.7 453.014 30.9C449.214 26.9 444.314 24.7 438.314 24.3C432.314 25.3 427.314 28.8 423.314 34.8C419.514 40.6 416.414 47.4 414.014 55.2C411.814 62.8 410.214 70.7 409.214 78.9C408.414 86.9 408.014 93.6 408.014 99C408.014 105.6 408.514 112.4 409.514 119.4C410.514 126.4 412.114 132.8 414.314 138.6C416.714 144.4 419.814 149.3 423.614 153.3C427.414 157.1 432.214 159.2 438.014 159.6C443.814 158.4 448.614 154.9 452.414 149.1C456.414 143.1 459.514 136.3 461.714 128.7C464.114 120.9 465.814 113.1 466.814 105.3C467.814 97.3 468.314 90.6 468.314 85.2Z" fill="white"/>
<path d="M321.609 0C331.409 0 339.809 2.2 346.809 6.60001C354.009 10.8 359.809 16.5 364.209 23.7C368.809 30.9 372.109 39.2 374.109 48.6C376.309 57.8 377.409 67.3 377.409 77.1C377.409 88.5 376.009 100.5 373.209 113.1C370.609 125.5 366.309 137 360.309 147.6C354.509 158 347.009 166.6 337.809 173.4C328.809 180.2 317.909 183.6 305.109 183.6C295.309 183.6 286.909 181.5 279.909 177.3C272.909 172.9 267.109 167.1 262.509 159.9C258.109 152.7 254.809 144.5 252.609 135.3C250.609 126.1 249.609 116.7 249.609 107.1C249.609 95.7 250.909 83.7 253.509 71.1C256.309 58.5 260.609 47 266.409 36.6C272.209 26 279.609 17.3 288.609 10.5C297.809 3.5 308.809 0 321.609 0ZM343.509 85.2C343.509 78.4 343.009 71.5 342.009 64.5C341.209 57.5 339.709 51.1 337.509 45.3C335.309 39.5 332.209 34.7 328.209 30.9C324.409 26.9 319.509 24.7 313.509 24.3C307.509 25.3 302.509 28.8 298.509 34.8C294.709 40.6 291.609 47.4 289.209 55.2C287.009 62.8 285.409 70.7 284.409 78.9C283.609 86.9 283.209 93.6 283.209 99C283.209 105.6 283.709 112.4 284.709 119.4C285.709 126.4 287.309 132.8 289.509 138.6C291.909 144.4 295.009 149.3 298.809 153.3C302.609 157.1 307.409 159.2 313.209 159.6C319.009 158.4 323.809 154.9 327.609 149.1C331.609 143.1 334.709 136.3 336.909 128.7C339.309 120.9 341.009 113.1 342.009 105.3C343.009 97.3 343.509 90.6 343.509 85.2Z" fill="white"/>
<path d="M209.105 44.7C209.105 41.7 208.105 38.9 206.105 36.3C204.105 33.7 201.205 32.4 197.405 32.4C191.805 32.4 186.605 34.2 181.805 37.8C177.005 41.2 172.605 45.5 168.605 50.7C164.805 55.9 161.505 61.5 158.705 67.5C156.105 73.3 154.205 78.7 153.005 83.7V88.2L127.505 74.4V1.2H153.905V30C156.105 25.8 158.905 21.9 162.305 18.3C165.905 14.7 169.805 11.6 174.005 8.99999C178.205 6.19999 182.605 4 187.205 2.40001C192.005 0.800002 196.705 0 201.305 0C206.905 0 212.005 0.999998 216.605 3C221.405 4.8 225.505 7.4 228.905 10.8C232.305 14 235.005 17.8 237.005 22.2C239.005 26.6 240.005 31.3 240.005 36.3C240.005 41.9 238.905 47.5 236.705 53.1C234.705 58.5 231.905 63.8 228.305 69C224.905 74 221.005 78.9 216.605 83.7C212.205 88.5 207.605 93.1 202.805 97.5L197.705 102.3C193.905 105.7 190.105 109.3 186.305 113.1C182.505 116.9 179.005 120.6 175.805 124.2C172.805 127.8 170.305 131.2 168.305 134.4C166.305 137.6 165.305 140.5 165.305 143.1C165.305 148.9 169.405 151.9 177.605 152.1C183.205 151.9 189.605 149.7 196.805 145.5C204.205 141.3 211.505 136 218.705 129.6C225.905 123 232.405 115.9 238.205 108.3C244.205 100.5 248.505 92.9 251.105 85.5V139.5C240.705 152.7 228.705 163.4 215.105 171.6C201.505 179.8 186.605 183.9 170.405 183.9C165.405 183.9 160.605 183.4 156.005 182.4C151.605 181.2 147.605 179.3 144.005 176.7C140.605 174.1 137.905 170.8 135.905 166.8C133.905 162.8 132.905 157.8 132.905 151.8C132.905 133 145.905 113.8 171.905 94.2C184.505 84.6 193.805 75.7 199.805 67.5C206.005 59.1 209.105 51.5 209.105 44.7Z" fill="white"/>
<path d="M72 0C81.8 0 90.2 2.2 97.2 6.60001C104.4 10.8 110.2 16.5 114.6 23.7C119.2 30.9 122.5 39.2 124.5 48.6C126.7 57.8 127.8 67.3 127.8 77.1C127.8 88.5 126.4 100.5 123.6 113.1C121 125.5 116.7 137 110.7 147.6C104.9 158 97.4 166.6 88.2 173.4C79.2 180.2 68.3 183.6 55.5 183.6C45.7 183.6 37.3 181.5 30.3 177.3C23.3 172.9 17.5 167.1 12.9 159.9C8.5 152.7 5.2 144.5 3 135.3C1 126.1 0 116.7 0 107.1C0 95.7 1.3 83.7 3.9 71.1C6.7 58.5 11 47 16.8 36.6C22.6 26 30 17.3 39 10.5C48.2 3.5 59.2 0 72 0ZM93.9 85.2C93.9 78.4 93.4 71.5 92.4 64.5C91.6 57.5 90.1 51.1 87.9 45.3C85.7 39.5 82.6 34.7 78.6 30.9C74.8 26.9 69.9 24.7 63.9 24.3C57.9 25.3 52.9 28.8 48.9 34.8C45.1 40.6 42 47.4 39.6 55.2C37.4 62.8 35.8 70.7 34.8 78.9C34 86.9 33.6 93.6 33.6 99C33.6 105.6 34.1 112.4 35.1 119.4C36.1 126.4 37.7 132.8 39.9 138.6C42.3 144.4 45.4 149.3 49.2 153.3C53 157.1 57.8 159.2 63.6 159.6C69.4 158.4 74.2 154.9 78 149.1C82 143.1 85.1 136.3 87.3 128.7C89.7 120.9 91.4 113.1 92.4 105.3C93.4 97.3 93.9 90.6 93.9 85.2Z" fill="white"/>
</g>
</svg>
