<svg width="340" height="472" viewBox="0 0 340 472" fill="none" xmlns="http://www.w3.org/2000/svg">
<g opacity="0.1">
<path d="M140.125 36.875H324.5C328.412 36.875 332.164 38.429 334.93 41.1952C337.696 43.9613 339.25 47.7131 339.25 51.625V66.375H125.375V51.625C125.375 47.7131 126.929 43.9613 129.695 41.1952C132.461 38.429 136.213 36.875 140.125 36.875ZM125.375 66.375L95.875 199.125V405.625C95.875 413.449 98.983 420.952 104.515 426.485C110.048 432.017 117.551 435.125 125.375 435.125H309.75V199.125L339.25 66.375H125.375Z" fill="#FF6CA9"/>
<path d="M339.25 66.375V51.625C339.25 47.7131 337.696 43.9613 334.93 41.1952C332.164 38.429 328.412 36.875 324.5 36.875H140.125C136.213 36.875 132.461 38.429 129.695 41.1952C126.929 43.9613 125.375 47.7131 125.375 51.625V66.375M339.25 66.375H125.375M339.25 66.375L309.75 199.125V435.125H125.375C117.551 435.125 110.048 432.017 104.515 426.485C98.983 420.952 95.875 413.449 95.875 405.625V199.125L125.375 66.375" stroke="white" stroke-width="16" stroke-linejoin="round"/>
<path d="M339.25 66.375L309.75 199.125V435.125H346.625C354.449 435.125 361.952 432.017 367.485 426.485C373.017 420.952 376.125 413.449 376.125 405.625V199.125L339.25 66.375Z" fill="#FF6CA9" stroke="white" stroke-width="16" stroke-linejoin="round"/>
</g>
</svg>
