<svg width="406" height="104" viewBox="0 0 406 104" fill="none" xmlns="http://www.w3.org/2000/svg">
<g filter="url(#filter0_d_1_416)">
<path d="M32 64C32 33.0721 57.0721 8 88 8H336C366.928 8 392 33.0721 392 64V104H32V64Z" fill="#FF6CA9"/>
</g>
<g filter="url(#filter1_d_1_416)">
<path fill-rule="evenodd" clip-rule="evenodd" d="M86.9617 44.9239C86.4925 50.5667 81.764 55 76 55C69.9249 55 65 50.0751 65 44C65 37.9249 69.9249 33 76 33C82.0751 33 87 37.9249 87 44C87 44.3111 86.9871 44.6193 86.9617 44.9239ZM71.0979 54.9563C71.5295 55.1497 71.9747 55.3184 72.4316 55.4605C72.4747 55.4739 72.5179 55.4871 72.5612 55.5C72.0588 55.65 71.5702 55.832 71.0979 56.0437C66.9143 57.9184 64 62.1189 64 67C64 73.6274 69.3726 79 76 79C82.6274 79 88 73.6274 88 67C88 62.1189 85.0857 57.9184 80.9021 56.0437C80.4705 55.8503 80.0253 55.6816 79.5684 55.5395C79.5253 55.5261 79.4821 55.5129 79.4388 55.5C79.9412 55.35 80.4298 55.168 80.9021 54.9563C85.0857 53.0816 88 48.8811 88 44C88 37.3726 82.6274 32 76 32C69.3726 32 64 37.3726 64 44C64 48.8811 66.9143 53.0816 71.0979 54.9563ZM66.5441 61.3766C65.8604 62.5239 65.3795 63.806 65.151 65.1734C65.0517 65.7675 65 66.3777 65 67C65 73.0751 69.9249 78 76 78C82.0751 78 87 73.0751 87 67C87 66.2212 86.919 65.4613 86.7651 64.7281C86.5119 63.5222 86.0611 62.3889 85.4482 61.3636C83.5276 58.1511 80.015 56 76 56C71.9796 56 68.463 58.1569 66.5441 61.3766Z" fill="url(#paint0_linear_1_416)" shape-rendering="crispEdges"/>
</g>
<path fill-rule="evenodd" clip-rule="evenodd" d="M93 44H92V43H93V44ZM97 44H95V43H97V44ZM101 44H99V43H101V44ZM105 44H103V43H105V44ZM109 44H107V43H109V44ZM113 44H111V43H113V44ZM117 44H115V43H117V44ZM121 44H119V43H121V44ZM125 44H123V43H125V44ZM129 44H127V43H129V44ZM133 44H131V43H133V44ZM137 44H135V43H137V44ZM141 44H139V43H141V44ZM145 44H143V43H145V44ZM149 44H147V43H149V44ZM153 44H151V43H153V44ZM157 44H155V43H157V44ZM161 44H159V43H161V44ZM165 44H163V43H165V44ZM169 44H167V43H169V44ZM173 44H171V43H173V44ZM177 44H175V43H177V44ZM181 44H179V43H181V44ZM185 44H183V43H185V44ZM189 44H187V43H189V44ZM193 44H191V43H193V44ZM197 44H195V43H197V44ZM201 44H199V43H201V44ZM205 44H203V43H205V44ZM209 44H207V43H209V44ZM213 44H211V43H213V44ZM217 44H215V43H217V44ZM221 44H219V43H221V44ZM225 44H223V43H225V44ZM229 44H227V43H229V44ZM233 44H231V43H233V44ZM237 44H235V43H237V44ZM241 44H239V43H241V44ZM245 44H243V43H245V44ZM249 44H247V43H249V44ZM253 44H251V43H253V44ZM257 44H255V43H257V44ZM261 44H259V43H261V44ZM265 44H263V43H265V44ZM269 44H267V43H269V44ZM273 44H271V43H273V44ZM277 44H275V43H277V44ZM281 44H279V43H281V44ZM285 44H283V43H285V44ZM289 44H287V43H289V44ZM293 44H291V43H293V44ZM297 44H295V43H297V44ZM301 44H299V43H301V44ZM305 44H303V43H305V44ZM309 44H307V43H309V44ZM313 44H311V43H313V44ZM317 44H315V43H317V44ZM321 44H319V43H321V44ZM325 44H323V43H325V44ZM329 44H327V43H329V44ZM333 44H331V43H333V44ZM337 44H335V43H337V44ZM341 44H339V43H341V44ZM345 44H343V43H345V44ZM349 44H347V43H349V44ZM353 44H351V43H353V44ZM357 44H355V43H357V44ZM360 44H359V43H360V44Z" fill="white" fill-opacity="0.2"/>
<path fill-rule="evenodd" clip-rule="evenodd" d="M93 67H92V66H93V67ZM97 67H95V66H97V67ZM101 67H99V66H101V67ZM105 67H103V66H105V67ZM109 67H107V66H109V67ZM113 67H111V66H113V67ZM117 67H115V66H117V67ZM121 67H119V66H121V67ZM125 67H123V66H125V67ZM129 67H127V66H129V67ZM133 67H131V66H133V67ZM137 67H135V66H137V67ZM141 67H139V66H141V67ZM145 67H143V66H145V67ZM149 67H147V66H149V67ZM153 67H151V66H153V67ZM157 67H155V66H157V67ZM161 67H159V66H161V67ZM165 67H163V66H165V67ZM169 67H167V66H169V67ZM173 67H171V66H173V67ZM177 67H175V66H177V67ZM181 67H179V66H181V67ZM185 67H183V66H185V67ZM189 67H187V66H189V67ZM193 67H191V66H193V67ZM197 67H195V66H197V67ZM201 67H199V66H201V67ZM205 67H203V66H205V67ZM209 67H207V66H209V67ZM213 67H211V66H213V67ZM217 67H215V66H217V67ZM221 67H219V66H221V67ZM225 67H223V66H225V67ZM229 67H227V66H229V67ZM233 67H231V66H233V67ZM237 67H235V66H237V67ZM241 67H239V66H241V67ZM245 67H243V66H245V67ZM249 67H247V66H249V67ZM253 67H251V66H253V67ZM257 67H255V66H257V67ZM261 67H259V66H261V67ZM265 67H263V66H265V67ZM269 67H267V66H269V67ZM273 67H271V66H273V67ZM277 67H275V66H277V67ZM281 67H279V66H281V67ZM285 67H283V66H285V67ZM289 67H287V66H289V67ZM293 67H291V66H293V67ZM297 67H295V66H297V67ZM301 67H299V66H301V67ZM305 67H303V66H305V67ZM309 67H307V66H309V67ZM313 67H311V66H313V67ZM317 67H315V66H317V67ZM321 67H319V66H321V67ZM325 67H323V66H325V67ZM329 67H327V66H329V67ZM333 67H331V66H333V67ZM337 67H335V66H337V67ZM341 67H339V66H341V67ZM345 67H343V66H345V67ZM349 67H347V66H349V67ZM353 67H351V66H353V67ZM357 67H355V66H357V67ZM360 67H359V66H360V67Z" fill="white" fill-opacity="0.2"/>
<path d="M370.987 106.217C369.096 106.018 367.355 105.819 365.762 105.62C364.269 105.421 362.826 105.073 361.433 104.575C360.139 103.978 358.845 103.231 357.551 102.336C356.257 101.34 354.963 100.047 353.67 98.4542L354.416 85.6151C356.208 87.6057 357.701 89.1981 358.895 90.3924C360.089 91.4872 361.134 92.383 362.03 93.0797C363.025 93.6768 364.021 94.1247 365.016 94.4233C366.011 94.6224 367.156 94.7717 368.449 94.8712C375.416 94.6721 380.94 91.2882 385.021 84.7194C389.101 78.1505 391.739 67.6504 392.933 53.2189C391.938 56.7023 390.744 60.4844 389.35 64.565C387.957 68.5461 386.265 72.2286 384.274 75.6126C382.284 78.9965 379.945 81.8331 377.258 84.1222C374.57 86.3118 371.435 87.4066 367.852 87.4066C367.056 87.4066 366.359 87.4066 365.762 87.4066C365.265 87.4066 364.667 87.3071 363.971 87.108C359.293 86.0132 356.058 83.9729 354.267 80.9871C352.475 77.9017 351.58 74.269 351.58 70.0888C351.58 66.8044 351.928 63.52 352.625 60.2356C353.421 56.9511 354.317 53.7165 355.312 50.5316C356.407 47.3467 357.501 44.1121 358.596 40.8277C359.791 37.5433 360.786 34.2588 361.582 30.9744C360.487 32.0692 359.243 33.5622 357.85 35.4532C356.556 37.3442 355.113 39.7826 353.52 42.7685C351.928 45.7543 350.236 49.4368 348.444 53.816C346.653 58.1952 344.861 63.4204 343.07 69.4916V43.3656C343.269 41.2755 344.165 38.6381 345.757 35.4532C347.35 32.1688 349.29 29.0336 351.58 26.0478C353.869 23.062 356.357 20.4743 359.044 18.2847C361.731 16.095 364.319 15.0002 366.807 15.0002C369.594 15.0002 371.585 15.6969 372.779 17.0903C374.073 18.4837 374.72 20.4743 374.72 23.062C374.72 26.844 374.172 30.6261 373.078 34.4081C372.082 38.0907 370.938 41.7234 369.644 45.3064C368.35 49.0885 367.205 52.8207 366.21 56.5033C365.215 60.0863 364.717 63.8186 364.717 67.7001C364.717 71.1836 365.912 72.9253 368.3 72.9253C372.58 72.9253 376.461 67.9987 379.945 58.1455C383.428 48.2922 387.161 34.1095 391.142 15.5974L405.175 15.5974V38.7376C405.175 48.6903 404.478 57.7971 403.085 66.0579C401.791 74.3187 399.751 81.4349 396.964 87.4066C394.277 93.3783 390.744 98.0063 386.364 101.291C382.085 104.575 376.959 106.217 370.987 106.217Z" fill="white" fill-opacity="0.1"/>
<path d="M302.46 37.2447C302.46 40.6286 303.953 44.4107 306.939 48.5908C310.024 52.6715 314.702 57.1004 320.972 61.8778C333.911 71.6315 340.38 81.1861 340.38 90.5417C340.38 93.5276 339.833 96.0157 338.738 98.0063C337.743 99.9969 336.399 101.639 334.707 102.933C333.015 104.227 331.024 105.172 328.735 105.769C326.546 106.267 324.207 106.516 321.719 106.516C313.657 106.516 306.242 104.476 299.474 100.395C292.706 96.3143 286.735 90.9896 281.559 84.4208V57.5483C282.853 61.2308 284.943 65.0129 287.829 68.8945C290.815 72.6765 294.1 76.2097 297.683 79.4942C301.266 82.679 304.849 85.3165 308.432 87.4066C312.114 89.4967 315.349 90.5915 318.136 90.691C322.216 90.5915 324.257 89.0986 324.257 86.2123C324.257 84.9184 323.759 83.4753 322.764 81.8828C321.768 80.2904 320.474 78.5984 318.882 76.8069C317.389 75.0154 315.697 73.1742 313.806 71.2831C311.915 69.3921 310.024 67.6006 308.133 65.9086L305.595 63.52C303.206 61.3304 300.917 59.0412 298.728 56.6526C296.538 54.2639 294.548 51.8255 292.756 49.3373C291.064 46.7496 289.671 44.1121 288.576 41.4248C287.581 38.6381 287.083 35.8513 287.083 33.0645C287.083 30.5763 287.531 28.2374 288.427 26.0478C289.422 23.8582 290.766 21.9672 292.457 20.3747C294.249 18.6828 296.289 17.3889 298.578 16.4932C300.967 15.4979 303.555 15.0002 306.342 15.0002C308.631 15.0002 310.92 15.3984 313.209 16.1946C315.598 16.9908 317.837 18.0856 319.927 19.479C322.017 20.7728 323.908 22.3155 325.6 24.107C327.392 25.8985 328.835 27.8393 329.93 29.9294V15.5974L343.067 15.5974V52.0245L330.378 58.8919V56.6526C329.78 54.1644 328.785 51.4771 327.392 48.5908C326.098 45.605 324.456 42.8182 322.465 40.2305C320.574 37.6428 318.434 35.5029 316.046 33.811C313.657 32.0195 311.069 31.1237 308.282 31.1237C306.391 31.1237 304.948 31.7706 303.953 33.0645C302.958 34.3584 302.46 35.7518 302.46 37.2447Z" fill="white" fill-opacity="0.1"/>
<path d="M238.113 106.665C234.629 106.665 231.643 106.068 229.155 104.873C226.667 103.58 224.577 101.838 222.885 99.6483C221.292 97.4587 220.098 94.8709 219.302 91.8851C218.506 88.8993 218.108 85.7144 218.108 82.3305C218.108 78.5484 218.754 75.1645 220.048 72.1786C221.342 69.0933 223.134 66.4558 225.423 64.2662C227.811 62.0766 230.648 60.4344 233.932 59.3396C237.217 58.1452 240.899 57.5481 244.98 57.5481C249.757 57.5481 254.734 58.5433 259.909 60.5339C260.407 58.5433 260.805 56.0552 261.103 53.0693C261.402 50.0835 261.551 46.9981 261.551 43.8133C261.551 42.0218 261.402 40.28 261.103 38.588C260.904 36.8961 260.506 35.4529 259.909 34.2586C259.312 32.9647 258.516 31.9197 257.52 31.1235C256.625 30.3273 255.48 29.9291 254.087 29.9291C249.509 29.9291 244.831 32.5666 240.053 37.8416C235.276 43.1166 229.902 50.7304 223.93 60.6832V40.2303C226.717 35.652 229.404 31.7704 231.992 28.5855C234.579 25.4006 237.217 22.8129 239.904 20.8224C242.591 18.7323 245.378 17.2394 248.264 16.3436C251.151 15.4479 254.236 15 257.52 15C261.004 15 263.89 15.846 266.179 17.538C268.469 19.2299 270.31 21.4195 271.703 24.1068C273.097 26.794 274.042 29.8794 274.54 33.3628C275.137 36.7468 275.435 40.1307 275.435 43.5147C275.435 47.8939 275.187 52.2233 274.689 56.503C274.291 60.7827 273.594 64.3657 272.599 67.252C274.092 68.4463 275.535 69.7402 276.928 71.1336C278.421 72.4274 279.765 73.9701 280.959 75.7616V94.1245C279.068 91.3377 276.63 88.5012 273.644 85.6149C270.658 82.629 267.423 79.9418 263.94 77.5531C260.556 75.0649 257.073 73.0246 253.49 71.4322C250.006 69.8397 246.821 69.0435 243.935 69.0435C241.347 69.0435 239.158 69.4416 237.366 70.2378C235.575 70.9345 234.082 71.9298 232.887 73.2237C231.793 74.5175 230.947 75.9607 230.349 77.5531C229.852 79.1456 229.603 80.7878 229.603 82.4797C229.603 85.167 230.399 87.3566 231.992 89.0486C233.684 90.7405 235.873 91.5865 238.56 91.5865C243.736 91.5865 247.717 89.9941 250.504 86.8092C253.291 83.6243 255.231 79.3944 256.326 74.1194C258.217 75.2142 260.108 76.4583 261.999 77.8517C263.89 79.2451 265.881 80.7878 267.971 82.4797C267.175 86.0627 265.781 89.3471 263.791 92.333C261.9 95.3188 259.561 97.8568 256.774 99.9468C254.087 102.037 251.101 103.679 247.817 104.873C244.632 106.068 241.397 106.665 238.113 106.665Z" fill="white" fill-opacity="0.1"/>
<path d="M186.754 62.6267C187.053 62.7262 187.899 62.776 189.292 62.776C191.283 62.776 193.373 62.4276 195.562 61.7309C197.752 61.0342 199.295 60.039 200.19 58.7451C199.095 57.6503 197.702 56.8541 196.01 56.3564C194.418 55.8588 192.875 55.61 191.382 55.61C189.69 55.61 187.948 56.0081 186.157 56.8043C184.365 57.6005 182.673 58.6953 181.081 60.0887C179.588 59.4915 177.946 58.5958 176.154 57.4015C174.462 56.2071 173.019 54.9133 171.825 53.5199C174.612 50.6336 177.697 48.444 181.081 46.9511C184.564 45.4582 188.147 44.7117 191.83 44.7117C196.01 44.7117 199.892 45.7567 203.475 47.8468C207.058 49.9369 209.844 53.1715 211.835 57.5508C211.636 60.0389 210.889 62.3281 209.596 64.4182C208.302 66.4087 206.61 68.1504 204.52 69.6434C202.529 71.1363 200.24 72.3306 197.652 73.2264C195.065 74.0226 192.377 74.4207 189.591 74.4207C186.704 74.4207 183.868 74.1221 181.081 73.5249C178.294 72.9278 175.756 71.9325 173.467 70.5391C172.074 72.5297 171.228 74.4207 170.929 76.2122C170.631 77.9042 170.481 79.6459 170.481 81.4374C170.481 85.9161 172.173 89.5489 175.557 92.3357C178.941 95.0229 183.221 96.3665 188.396 96.3665C190.586 96.3665 192.726 96.068 194.816 95.4708C196.906 94.8736 198.747 93.9281 200.34 92.6343C202.032 91.2409 203.375 89.4991 204.37 87.409C205.366 85.2194 205.863 82.582 205.863 79.4966C205.863 78.999 205.863 78.4516 205.863 77.8544C205.863 77.1577 205.764 76.5108 205.565 75.9136L218.255 76.8094V105.921H206.162V99.651C203.873 102.338 200.787 104.279 196.906 105.473C193.024 106.668 188.894 107.265 184.515 107.265C180.633 107.265 176.951 106.767 173.467 105.772C169.984 104.677 166.948 103.134 164.36 101.144C161.872 99.0538 159.882 96.5158 158.389 93.53C156.896 90.5442 156.149 87.0607 156.149 83.0796C156.149 78.6009 156.697 74.769 157.791 71.5842C158.986 68.2997 160.827 65.2641 163.315 62.4774C160.329 59.2925 158.339 56.2071 157.344 53.2213C156.448 50.1359 156 46.5032 156 42.323C156 38.6405 156.647 35.2068 157.941 32.0219C159.235 28.7375 161.026 25.8512 163.315 23.363C165.604 20.8748 168.341 18.934 171.526 17.5406C174.811 16.0477 178.394 15.3013 182.275 15.3013C185.56 15.3013 188.346 15.6496 190.636 16.3463C192.925 17.043 194.866 17.9885 196.458 19.1829C198.05 20.3772 199.295 21.8203 200.19 23.5123C201.186 25.1047 202.081 26.8465 202.878 28.7375C203.276 27.6427 203.674 26.3488 204.072 24.8559C204.569 23.363 205.017 21.9696 205.415 20.6758C205.814 19.2824 206.112 18.1378 206.311 17.2421C206.61 16.2468 206.759 15.6994 206.759 15.5999L218.553 15.5999L212.731 42.4723L196.159 40.0837C195.065 36.3016 193.223 33.6144 190.636 32.0219C188.147 30.4295 185.46 29.6333 182.574 29.6333C180.285 29.6333 178.195 30.0314 176.304 30.8276C174.512 31.6238 172.92 32.7186 171.526 34.112C170.232 35.4059 169.187 36.9485 168.391 38.74C167.694 40.432 167.346 42.2733 167.346 44.2638C167.346 46.8515 167.894 49.1904 168.988 51.2805C170.083 53.3706 171.526 55.2119 173.318 56.8043C175.109 58.2972 177.15 59.5911 179.439 60.6859C181.827 61.6812 184.266 62.3281 186.754 62.6267Z" fill="white" fill-opacity="0.1"/>
<defs>
<filter id="filter0_d_1_416" x="-8" y="0" width="408" height="144" filterUnits="userSpaceOnUse" color-interpolation-filters="sRGB">
<feFlood flood-opacity="0" result="BackgroundImageFix"/>
<feColorMatrix in="SourceAlpha" type="matrix" values="0 0 0 0 0 0 0 0 0 0 0 0 0 0 0 0 0 0 127 0" result="hardAlpha"/>
<feOffset dx="-16" dy="16"/>
<feGaussianBlur stdDeviation="12"/>
<feComposite in2="hardAlpha" operator="out"/>
<feColorMatrix type="matrix" values="0 0 0 0 0.765057 0 0 0 0 0.788941 0 0 0 0 0.812825 0 0 0 1 0"/>
<feBlend mode="normal" in2="BackgroundImageFix" result="effect1_dropShadow_1_416"/>
<feBlend mode="normal" in="SourceGraphic" in2="effect1_dropShadow_1_416" result="shape"/>
</filter>
<filter id="filter1_d_1_416" x="63" y="32" width="25" height="47" filterUnits="userSpaceOnUse" color-interpolation-filters="sRGB">
<feFlood flood-opacity="0" result="BackgroundImageFix"/>
<feColorMatrix in="SourceAlpha" type="matrix" values="0 0 0 0 0 0 0 0 0 0 0 0 0 0 0 0 0 0 127 0" result="hardAlpha"/>
<feOffset dx="-1"/>
<feComposite in2="hardAlpha" operator="out"/>
<feColorMatrix type="matrix" values="0 0 0 0 0 0 0 0 0 0 0 0 0 0 0 0 0 0 0.25 0"/>
<feBlend mode="normal" in2="BackgroundImageFix" result="effect1_dropShadow_1_416"/>
<feBlend mode="normal" in="SourceGraphic" in2="effect1_dropShadow_1_416" result="shape"/>
</filter>
<linearGradient id="paint0_linear_1_416" x1="64" y1="55" x2="76.5" y2="55" gradientUnits="userSpaceOnUse">
<stop stop-color="white"/>
<stop offset="1" stop-color="white" stop-opacity="0"/>
</linearGradient>
</defs>
</svg>
