<svg width="360" height="112" viewBox="0 0 360 112" fill="none" xmlns="http://www.w3.org/2000/svg">
<g clip-path="url(#clip0_1_402)">
<path d="M256 10.5H254.807V4.56458L250.619 10.5H249.557V2.625H250.75V8.50208L254.938 2.625H256V10.5Z" fill="#FF6CA9"/>
<path d="M245.173 2.625C245.871 2.625 246.429 2.83403 246.846 3.25208C247.321 3.67014 247.558 4.2 247.558 4.84167C247.558 5.32778 247.418 5.75069 247.137 6.11042C247.04 6.24653 246.948 6.34375 246.86 6.40208C247.132 6.57708 247.326 6.75694 247.442 6.94167C247.607 7.11667 247.733 7.32569 247.82 7.56875C247.907 7.80208 247.951 8.04028 247.951 8.28333C247.951 8.60417 247.883 8.91528 247.747 9.21667C247.612 9.50833 247.423 9.75625 247.18 9.96042C246.967 10.1451 246.729 10.2812 246.468 10.3687C246.206 10.4562 245.934 10.5 245.653 10.5H241.363V2.63958L245.173 2.625ZM242.555 6.06667H245.173C245.551 6.06667 245.852 5.92569 246.075 5.64375C246.259 5.42014 246.351 5.15278 246.351 4.84167C246.332 4.54028 246.24 4.27778 246.075 4.05417C245.959 3.90833 245.828 3.80139 245.682 3.73333C245.546 3.66528 245.377 3.63125 245.173 3.63125H242.555V6.06667ZM242.555 9.50833H245.493C245.871 9.50833 246.182 9.38681 246.424 9.14375C246.637 8.92014 246.744 8.61389 246.744 8.225C246.744 7.93333 246.637 7.67083 246.424 7.4375C246.279 7.28194 246.123 7.17986 245.959 7.13125C245.803 7.08264 245.6 7.05833 245.348 7.05833H242.555V9.50833Z" fill="#FF6CA9"/>
<path d="M232.876 4.09798C232.963 3.94243 233.041 3.82576 233.108 3.74798C233.768 2.86326 234.728 2.4209 235.988 2.4209C236.735 2.4209 237.384 2.56673 237.937 2.8584C238.49 3.14034 238.902 3.57784 239.173 4.1709C239.377 4.58895 239.479 5.05562 239.479 5.5709V10.5001H238.431V8.93965C238.296 9.21187 238.102 9.46465 237.85 9.69798C237.598 9.93131 237.331 10.116 237.05 10.2521C236.381 10.5827 235.707 10.7285 235.028 10.6896C234.631 10.6702 234.248 10.5681 233.879 10.3834C233.511 10.189 233.22 9.94104 233.007 9.63965C232.852 9.39659 232.735 9.16326 232.658 8.93965C232.58 8.71604 232.541 8.46812 232.541 8.1959C232.541 7.78756 232.643 7.4084 232.847 7.0584C233.05 6.7084 233.331 6.42159 233.69 6.19798C234.02 6.01326 234.354 5.88201 234.694 5.80423C235.033 5.72645 235.518 5.63895 236.148 5.54173L236.628 5.46881L238.257 5.25006C238.179 4.71534 237.956 4.30701 237.588 4.02506C237.2 3.70423 236.662 3.54381 235.974 3.54381C235.595 3.54381 235.246 3.61187 234.926 3.74798C234.606 3.87437 234.35 4.07368 234.156 4.3459C234.107 4.40423 234.044 4.49173 233.967 4.6084L232.876 4.09798ZM236.395 6.56256C235.833 6.65006 235.372 6.74243 235.014 6.83965C234.655 6.93687 234.35 7.09243 234.097 7.30631C233.855 7.51048 233.734 7.79729 233.734 8.16673C233.734 8.52645 233.874 8.84729 234.156 9.12923C234.437 9.40145 234.781 9.55701 235.188 9.5959C235.237 9.60562 235.314 9.61048 235.421 9.61048C235.935 9.61048 236.439 9.46951 236.933 9.18756C237.428 8.90562 237.782 8.53131 237.995 8.06465C238.131 7.77298 238.213 7.50076 238.242 7.24798C238.281 6.9952 238.3 6.66465 238.3 6.25631L236.395 6.56256Z" fill="#FF6CA9"/>
<path d="M229.379 6.5625L231.953 10.5L230.615 10.4854L228.376 7.05833H226.63V10.5H225.438V2.625H226.63V6.06667H228.361L230.484 2.625H231.822L229.379 6.5625Z" fill="#FF6CA9"/>
<path d="M220.814 3.80625H216.567V10.5H215.389V2.625H220.814V3.80625Z" fill="#FF6CA9"/>
<path d="M211.79 6.5625L214.365 10.5L213.027 10.4854L210.787 7.05833H209.042V10.5H207.849V2.625H209.042V6.06667H210.772L212.896 2.625H214.234L211.79 6.5625Z" fill="#FF6CA9"/>
<path d="M201.996 0V10.5H200.804V1.3125L198.826 2.50833V1.18125L200.804 0H201.996Z" fill="#FF6CA9"/>
<path d="M187.705 4.09798C187.792 3.94243 187.869 3.82576 187.937 3.74798C188.597 2.86326 189.556 2.4209 190.817 2.4209C191.563 2.4209 192.213 2.56673 192.766 2.8584C193.318 3.14034 193.73 3.57784 194.002 4.1709C194.206 4.58895 194.307 5.05562 194.307 5.5709V10.5001H193.26V8.93965C193.124 9.21187 192.931 9.46465 192.678 9.69798C192.426 9.93131 192.16 10.116 191.879 10.2521C191.21 10.5827 190.536 10.7285 189.857 10.6896C189.46 10.6702 189.077 10.5681 188.708 10.3834C188.34 10.189 188.049 9.94104 187.836 9.63965C187.68 9.39659 187.564 9.16326 187.486 8.93965C187.409 8.71604 187.37 8.46812 187.37 8.1959C187.37 7.78756 187.472 7.4084 187.676 7.0584C187.879 6.7084 188.16 6.42159 188.519 6.19798C188.849 6.01326 189.183 5.88201 189.523 5.80423C189.862 5.72645 190.347 5.63895 190.977 5.54173L191.457 5.46881L193.086 5.25006C193.008 4.71534 192.785 4.30701 192.417 4.02506C192.029 3.70423 191.491 3.54381 190.802 3.54381C190.424 3.54381 190.075 3.61187 189.755 3.74798C189.435 3.87437 189.178 4.07368 188.984 4.3459C188.936 4.40423 188.873 4.49173 188.795 4.6084L187.705 4.09798ZM191.224 6.56256C190.662 6.65006 190.201 6.74243 189.843 6.83965C189.484 6.93687 189.178 7.09243 188.926 7.30631C188.684 7.51048 188.563 7.79729 188.563 8.16673C188.563 8.52645 188.703 8.84729 188.984 9.12923C189.266 9.40145 189.61 9.55701 190.017 9.5959C190.066 9.60562 190.143 9.61048 190.25 9.61048C190.764 9.61048 191.268 9.46951 191.762 9.18756C192.257 8.90562 192.611 8.53131 192.824 8.06465C192.96 7.77298 193.042 7.50076 193.071 7.24798C193.11 6.9952 193.129 6.66465 193.129 6.25631L191.224 6.56256Z" fill="#FF6CA9"/>
<path d="M185.768 2.625V10.5H184.59V6.89792H180.299V10.5H179.121V2.625H180.299V5.71667H184.59V2.625H185.768Z" fill="#FF6CA9"/>
<path d="M173.696 0V1.26875H172.518V0H173.696ZM173.696 2.625V10.5H172.518V2.625H173.696Z" fill="#FF6CA9"/>
<path d="M170.991 3.70417H168.228V10.5H167.05V3.70417H164.287V2.625H170.991V3.70417Z" fill="#FF6CA9"/>
<path d="M162.312 4.85625C162.273 4.76875 162.186 4.62292 162.05 4.41875C161.837 4.12708 161.56 3.90833 161.221 3.7625C160.891 3.60695 160.528 3.52917 160.13 3.52917C159.742 3.52917 159.379 3.60695 159.039 3.7625C158.71 3.90833 158.443 4.12708 158.239 4.41875C157.861 4.91458 157.663 5.62917 157.643 6.5625C157.663 7.49583 157.861 8.21042 158.239 8.70625C158.443 8.9882 158.715 9.20695 159.054 9.3625C159.393 9.50833 159.752 9.58125 160.13 9.58125C160.528 9.58125 160.891 9.50833 161.221 9.3625C161.56 9.20695 161.837 8.9882 162.05 8.70625C162.147 8.56042 162.229 8.41944 162.297 8.28333L163.417 8.77917C163.242 9.07083 163.102 9.28472 162.995 9.42083C162.656 9.84861 162.239 10.1743 161.744 10.3979C161.25 10.6118 160.712 10.7188 160.13 10.7188C159.558 10.7188 159.02 10.6118 158.516 10.3979C158.021 10.1743 157.609 9.84861 157.28 9.42083C156.708 8.70139 156.412 7.74861 156.392 6.5625C156.412 5.37639 156.708 4.41875 157.28 3.68958C157.629 3.25208 158.046 2.93125 158.53 2.72708C159.015 2.51319 159.548 2.40625 160.13 2.40625C160.712 2.40625 161.25 2.51806 161.744 2.74167C162.239 2.95556 162.656 3.27153 162.995 3.68958C163.179 3.94236 163.32 4.17083 163.417 4.375L162.312 4.85625Z" fill="#FF6CA9"/>
<path d="M151.473 10.7188C150.891 10.7188 150.353 10.6118 149.859 10.3979C149.364 10.1743 148.947 9.85347 148.608 9.43542C148.017 8.68681 147.721 7.72431 147.721 6.54792C147.721 5.38125 148.017 4.42847 148.608 3.68958C148.938 3.28125 149.355 2.96528 149.859 2.74167C150.363 2.51806 150.901 2.40625 151.473 2.40625C152.045 2.40625 152.578 2.51806 153.073 2.74167C153.577 2.95556 153.994 3.27153 154.324 3.68958C154.925 4.41875 155.225 5.37153 155.225 6.54792C155.225 7.71458 154.925 8.67708 154.324 9.43542C153.994 9.86319 153.582 10.184 153.088 10.3979C152.603 10.6118 152.065 10.7188 151.473 10.7188ZM153.393 8.70625C153.781 8.19097 153.975 7.47153 153.975 6.54792C153.975 5.63403 153.781 4.91945 153.393 4.40417C153.18 4.12222 152.903 3.90833 152.564 3.7625C152.225 3.60695 151.861 3.52917 151.473 3.52917C151.085 3.52917 150.722 3.60695 150.382 3.7625C150.043 3.90833 149.772 4.12222 149.568 4.40417C149.17 4.91945 148.972 5.63403 148.972 6.54792C148.972 7.47153 149.17 8.19097 149.568 8.70625C149.772 8.9882 150.043 9.20695 150.382 9.3625C150.722 9.51806 151.085 9.59583 151.473 9.59583C151.861 9.59583 152.225 9.51806 152.564 9.3625C152.903 9.20695 153.18 8.9882 153.393 8.70625Z" fill="#FF6CA9"/>
<path d="M146.995 3.70417H144.231V10.5H143.053V3.70417H140.29V2.625H146.995V3.70417Z" fill="#FF6CA9"/>
<path d="M138.484 3.675C139.056 4.40417 139.342 5.36181 139.342 6.54792C139.342 7.75347 139.056 8.72083 138.484 9.45C138.164 9.85833 137.767 10.1743 137.291 10.3979C136.816 10.6118 136.307 10.7188 135.764 10.7188C135.251 10.7188 134.775 10.6313 134.339 10.4563C133.913 10.2715 133.544 10.009 133.234 9.66875V14H132.041V2.625H133.103V3.61667C133.413 3.2375 133.806 2.94097 134.281 2.72708C134.756 2.51319 135.255 2.40625 135.779 2.40625C136.322 2.40625 136.826 2.51806 137.291 2.74167C137.767 2.95556 138.164 3.26667 138.484 3.675ZM137.524 8.70625C137.902 8.21042 138.091 7.49097 138.091 6.54792C138.091 5.63403 137.902 4.91458 137.524 4.38958C137.311 4.0882 137.035 3.86458 136.695 3.71875C136.366 3.57292 135.997 3.5 135.59 3.5C135.202 3.5 134.848 3.57292 134.528 3.71875C134.208 3.85486 133.942 4.05903 133.728 4.33125C133.311 4.85625 133.103 5.59514 133.103 6.54792C133.103 7.51042 133.311 8.25417 133.728 8.77917C133.942 9.05139 134.213 9.26042 134.543 9.40625C134.882 9.55208 135.241 9.625 135.619 9.625C135.997 9.625 136.356 9.54722 136.695 9.39167C137.035 9.23611 137.311 9.00764 137.524 8.70625Z" fill="#FF6CA9"/>
<path d="M123.554 4.09798C123.641 3.94243 123.719 3.82576 123.787 3.74798C124.446 2.86326 125.406 2.4209 126.667 2.4209C127.413 2.4209 128.063 2.56673 128.615 2.8584C129.168 3.14034 129.58 3.57784 129.852 4.1709C130.055 4.58895 130.157 5.05562 130.157 5.5709V10.5001H129.11V8.93965C128.974 9.21187 128.78 9.46465 128.528 9.69798C128.276 9.93131 128.009 10.116 127.728 10.2521C127.059 10.5827 126.385 10.7285 125.707 10.6896C125.309 10.6702 124.926 10.5681 124.558 10.3834C124.189 10.189 123.898 9.94104 123.685 9.63965C123.53 9.39659 123.414 9.16326 123.336 8.93965C123.259 8.71604 123.22 8.46812 123.22 8.1959C123.22 7.78756 123.322 7.4084 123.525 7.0584C123.729 6.7084 124.01 6.42159 124.369 6.19798C124.698 6.01326 125.033 5.88201 125.372 5.80423C125.712 5.72645 126.196 5.63895 126.827 5.54173L127.306 5.46881L128.935 5.25006C128.858 4.71534 128.635 4.30701 128.266 4.02506C127.878 3.70423 127.34 3.54381 126.652 3.54381C126.274 3.54381 125.925 3.61187 125.605 3.74798C125.285 3.87437 125.028 4.07368 124.834 4.3459C124.786 4.40423 124.723 4.49173 124.645 4.6084L123.554 4.09798ZM127.074 6.56256C126.511 6.65006 126.051 6.74243 125.692 6.83965C125.333 6.93687 125.028 7.09243 124.776 7.30631C124.533 7.51048 124.412 7.79729 124.412 8.16673C124.412 8.52645 124.553 8.84729 124.834 9.12923C125.115 9.40145 125.459 9.55701 125.867 9.5959C125.915 9.60562 125.993 9.61048 126.099 9.61048C126.613 9.61048 127.117 9.46951 127.612 9.18756C128.106 8.90562 128.46 8.53131 128.674 8.06465C128.809 7.77298 128.892 7.50076 128.921 7.24798C128.96 6.9952 128.979 6.66465 128.979 6.25631L127.074 6.56256Z" fill="#FF6CA9"/>
<path d="M119.272 2.625C119.97 2.625 120.528 2.83403 120.945 3.25208C121.42 3.67014 121.657 4.2 121.657 4.84167C121.657 5.32778 121.517 5.75069 121.235 6.11042C121.138 6.24653 121.046 6.34375 120.959 6.40208C121.231 6.57708 121.425 6.75694 121.541 6.94167C121.706 7.11667 121.832 7.32569 121.919 7.56875C122.006 7.80208 122.05 8.04028 122.05 8.28333C122.05 8.60417 121.982 8.91528 121.846 9.21667C121.711 9.50833 121.521 9.75625 121.279 9.96042C121.066 10.1451 120.828 10.2812 120.566 10.3687C120.305 10.4562 120.033 10.5 119.752 10.5H115.462V2.63958L119.272 2.625ZM116.654 6.06667H119.272C119.65 6.06667 119.951 5.92569 120.174 5.64375C120.358 5.42014 120.45 5.15278 120.45 4.84167C120.431 4.54028 120.339 4.27778 120.174 4.05417C120.057 3.90833 119.927 3.80139 119.781 3.73333C119.645 3.66528 119.476 3.63125 119.272 3.63125H116.654V6.06667ZM116.654 9.50833H119.592C119.97 9.50833 120.28 9.38681 120.523 9.14375C120.736 8.92014 120.843 8.61389 120.843 8.225C120.843 7.93333 120.736 7.67083 120.523 7.4375C120.377 7.28194 120.222 7.17986 120.057 7.13125C119.902 7.08264 119.699 7.05833 119.447 7.05833H116.654V9.50833Z" fill="#FF6CA9"/>
<path d="M113.281 0V1.26875H112.103V0H113.281ZM113.281 2.625V10.5H112.103V2.625H113.281Z" fill="#FF6CA9"/>
<path d="M106.766 3.03333C107.29 3.01389 107.789 3.10625 108.264 3.31042C108.739 3.50486 109.137 3.79653 109.457 4.18542C109.758 4.53542 109.981 4.94861 110.126 5.425C110.271 5.89167 110.349 6.38264 110.359 6.89792C110.359 7.4132 110.276 7.90903 110.111 8.38542C109.956 8.85208 109.714 9.26528 109.384 9.625C109.045 10.0042 108.633 10.2813 108.148 10.4563C107.663 10.6313 107.145 10.7188 106.592 10.7188C106.078 10.7188 105.584 10.6215 105.108 10.4271C104.643 10.2229 104.25 9.93125 103.93 9.55208C103.349 8.88125 103.043 7.97222 103.014 6.825L103 5.93542C103 5.10903 103.048 4.375 103.145 3.73333C103.339 2.42083 103.872 1.45347 104.745 0.831251C105.181 0.510417 105.671 0.291667 106.214 0.175001C106.766 0.0583336 107.382 0 108.061 0C108.604 0 109.166 0.0486116 109.748 0.145834V1.25417C109.156 1.15694 108.541 1.10833 107.901 1.10833C106.795 1.10833 105.962 1.30764 105.399 1.70625C105.05 1.93958 104.793 2.26042 104.629 2.66875C104.464 3.07708 104.347 3.56806 104.279 4.14167C104.939 3.39306 105.768 3.02361 106.766 3.03333ZM106.679 4.1125C106.32 4.1125 105.976 4.18056 105.647 4.31667C105.327 4.44306 105.06 4.62778 104.847 4.87083C104.459 5.3375 104.265 5.98403 104.265 6.81042C104.265 7.67569 104.459 8.33194 104.847 8.77917C105.06 9.03194 105.327 9.22639 105.647 9.3625C105.976 9.48889 106.32 9.55208 106.679 9.55208C107.048 9.55208 107.392 9.48889 107.712 9.3625C108.032 9.22639 108.293 9.03194 108.497 8.77917C108.904 8.32222 109.108 7.67083 109.108 6.825C109.108 5.97917 108.904 5.32778 108.497 4.87083C108.293 4.61806 108.032 4.42847 107.712 4.30208C107.392 4.1757 107.048 4.1125 106.679 4.1125Z" fill="#FF6CA9"/>
<path d="M98.0803 10.7188C97.4986 10.7188 96.9605 10.6118 96.466 10.3979C95.9715 10.1743 95.5546 9.85347 95.2153 9.43542C94.6238 8.68681 94.3281 7.72431 94.3281 6.54792C94.3281 5.38125 94.6238 4.42847 95.2153 3.68958C95.5449 3.28125 95.9618 2.96528 96.466 2.74167C96.9702 2.51806 97.5083 2.40625 98.0803 2.40625C98.6524 2.40625 99.1856 2.51806 99.6801 2.74167C100.184 2.95556 100.601 3.27153 100.931 3.68958C101.532 4.41875 101.833 5.37153 101.833 6.54792C101.833 7.71458 101.532 8.67708 100.931 9.43542C100.601 9.86319 100.189 10.184 99.6947 10.3979C99.2099 10.6118 98.6718 10.7188 98.0803 10.7188ZM100 8.70625C100.388 8.19097 100.582 7.47153 100.582 6.54792C100.582 5.63403 100.388 4.91945 100 4.40417C99.7868 4.12222 99.5105 3.90833 99.1711 3.7625C98.8318 3.60695 98.4682 3.52917 98.0803 3.52917C97.6925 3.52917 97.3289 3.60695 96.9896 3.7625C96.6502 3.90833 96.3788 4.12222 96.1751 4.40417C95.7776 4.91945 95.5789 5.63403 95.5789 6.54792C95.5789 7.47153 95.7776 8.19097 96.1751 8.70625C96.3788 8.9882 96.6502 9.20695 96.9896 9.3625C97.3289 9.51806 97.6925 9.59583 98.0803 9.59583C98.4682 9.59583 98.8318 9.51806 99.1711 9.3625C99.5105 9.20695 99.7868 8.9882 100 8.70625Z" fill="#FF6CA9"/>
<path d="M92.3529 4.85625C92.3141 4.76875 92.2269 4.62292 92.0911 4.41875C91.8778 4.12708 91.6015 3.90833 91.2622 3.7625C90.9325 3.60695 90.5689 3.52917 90.1714 3.52917C89.7836 3.52917 89.42 3.60695 89.0806 3.7625C88.751 3.90833 88.4843 4.12708 88.2807 4.41875C87.9026 4.91458 87.7038 5.62917 87.6845 6.5625C87.7038 7.49583 87.9026 8.21042 88.2807 8.70625C88.4843 8.9882 88.7558 9.20695 89.0952 9.3625C89.4345 9.50833 89.7933 9.58125 90.1714 9.58125C90.5689 9.58125 90.9325 9.50833 91.2622 9.3625C91.6015 9.20695 91.8778 8.9882 92.0911 8.70625C92.1881 8.56042 92.2705 8.41944 92.3384 8.28333L93.4582 8.77917C93.2837 9.07083 93.1431 9.28472 93.0365 9.42083C92.6971 9.84861 92.2802 10.1743 91.7857 10.3979C91.2912 10.6118 90.7531 10.7188 90.1714 10.7188C89.5993 10.7188 89.0612 10.6118 88.5571 10.3979C88.0626 10.1743 87.6505 9.84861 87.3209 9.42083C86.7488 8.70139 86.4531 7.74861 86.4337 6.5625C86.4531 5.37639 86.7488 4.41875 87.3209 3.68958C87.6699 3.25208 88.0868 2.93125 88.5716 2.72708C89.0564 2.51319 89.5897 2.40625 90.1714 2.40625C90.7531 2.40625 91.2912 2.51806 91.7857 2.74167C92.2802 2.95556 92.6971 3.27153 93.0365 3.68958C93.2207 3.94236 93.3613 4.17083 93.4582 4.375L92.3529 4.85625Z" fill="#FF6CA9"/>
<path d="M80.0264 6.5625L82.6006 10.5L81.2626 10.4854L79.0229 7.05833H77.2776V10.5H76.0851V2.625H77.2776V6.06667H79.0083L81.1317 2.625H82.4697L80.0264 6.5625Z" fill="#FF6CA9"/>
<path d="M70.7295 10.7188C70.1478 10.7188 69.6097 10.6118 69.1152 10.3979C68.6207 10.1743 68.2038 9.85347 67.8644 9.43542C67.273 8.68681 66.9773 7.72431 66.9773 6.54792C66.9773 5.38125 67.273 4.42847 67.8644 3.68958C68.1941 3.28125 68.611 2.96528 69.1152 2.74167C69.6194 2.51806 70.1575 2.40625 70.7295 2.40625C71.3016 2.40625 71.8348 2.51806 72.3293 2.74167C72.8335 2.95556 73.2504 3.27153 73.58 3.68958C74.1812 4.41875 74.4817 5.37153 74.4817 6.54792C74.4817 7.71458 74.1812 8.67708 73.58 9.43542C73.2504 9.86319 72.8383 10.184 72.3438 10.3979C71.8591 10.6118 71.3209 10.7188 70.7295 10.7188ZM72.6493 8.70625C73.0371 8.19097 73.231 7.47153 73.231 6.54792C73.231 5.63403 73.0371 4.91945 72.6493 4.40417C72.436 4.12222 72.1596 3.90833 71.8203 3.7625C71.4809 3.60695 71.1173 3.52917 70.7295 3.52917C70.3417 3.52917 69.9781 3.60695 69.6388 3.7625C69.2994 3.90833 69.0279 4.12222 68.8243 4.40417C68.4268 4.91945 68.228 5.63403 68.228 6.54792C68.228 7.47153 68.4268 8.19097 68.8243 8.70625C69.0279 8.9882 69.2994 9.20695 69.6388 9.3625C69.9781 9.51806 70.3417 9.59583 70.7295 9.59583C71.1173 9.59583 71.4809 9.51806 71.8203 9.3625C72.1596 9.20695 72.436 8.9882 72.6493 8.70625Z" fill="#FF6CA9"/>
<path d="M65.3748 2.625V10.5H64.1967V6.89792H59.9064V10.5H58.7284V2.625H59.9064V5.71667H64.1967V2.625H65.3748Z" fill="#FF6CA9"/>
<path d="M57.5623 2.63958L53.9846 11.9875C53.684 12.7944 53.3253 13.3437 52.9084 13.6354C52.7145 13.7812 52.5011 13.8785 52.2685 13.9271C52.0455 13.9757 51.7788 14 51.4686 14L51.2795 13.9854V12.8479L51.5267 12.8771C51.8855 12.8965 52.1521 12.8382 52.3266 12.7021C52.4721 12.6049 52.6078 12.425 52.7338 12.1625C52.8696 11.9 53.0683 11.4188 53.3301 10.7188L49.9706 2.625H51.1922L53.8828 9.20208L56.3697 2.63958H57.5623Z" fill="#FF6CA9"/>
<path d="M46.4964 6.51875L49.536 10.5H48.1399L45.8565 7.42292L43.5587 10.5H42.1625L45.2021 6.51875L42.2352 2.625H43.6023L45.8565 5.61458L48.0962 2.625H49.4633L46.4964 6.51875Z" fill="#FF6CA9"/>
<path d="M34.548 4.09798C34.6353 3.94243 34.7128 3.82576 34.7807 3.74798C35.44 2.86326 36.3999 2.4209 37.6603 2.4209C38.4069 2.4209 39.0565 2.56673 39.6091 2.8584C40.1618 3.14034 40.5739 3.57784 40.8453 4.1709C41.0489 4.58895 41.1507 5.05562 41.1507 5.5709V10.5001H40.1036V8.93965C39.9679 9.21187 39.774 9.46465 39.5219 9.69798C39.2698 9.93131 39.0032 10.116 38.722 10.2521C38.053 10.5827 37.3791 10.7285 36.7004 10.6896C36.3029 10.6702 35.9199 10.5681 35.5515 10.3834C35.1831 10.189 34.8922 9.94104 34.6789 9.63965C34.5238 9.39659 34.4074 9.16326 34.3299 8.93965C34.2523 8.71604 34.2135 8.46812 34.2135 8.1959C34.2135 7.78756 34.3153 7.4084 34.5189 7.0584C34.7225 6.7084 35.0037 6.42159 35.3624 6.19798C35.6921 6.01326 36.0266 5.88201 36.3659 5.80423C36.7053 5.72645 37.1901 5.63895 37.8203 5.54173L38.3002 5.46881L39.9291 5.25006C39.8515 4.71534 39.6285 4.30701 39.2601 4.02506C38.8723 3.70423 38.3342 3.54381 37.6458 3.54381C37.2676 3.54381 36.9186 3.61187 36.5986 3.74798C36.2787 3.87437 36.0217 4.07368 35.8278 4.3459C35.7794 4.40423 35.7163 4.49173 35.6388 4.6084L34.548 4.09798ZM38.0675 6.56256C37.5052 6.65006 37.0446 6.74243 36.6859 6.83965C36.3272 6.93687 36.0217 7.09243 35.7697 7.30631C35.5273 7.51048 35.4061 7.79729 35.4061 8.16673C35.4061 8.52645 35.5467 8.84729 35.8278 9.12923C36.109 9.40145 36.4532 9.55701 36.8604 9.5959C36.9089 9.60562 36.9865 9.61048 37.0931 9.61048C37.607 9.61048 38.1112 9.46951 38.6056 9.18756C39.1001 8.90562 39.454 8.53131 39.6673 8.06465C39.803 7.77298 39.8855 7.50076 39.9145 7.24798C39.9533 6.9952 39.9727 6.66465 39.9727 6.25631L38.0675 6.56256Z" fill="#FF6CA9"/>
<path d="M32.1892 3.675C32.7613 4.40417 33.0473 5.36181 33.0473 6.54792C33.0473 7.75347 32.7613 8.72083 32.1892 9.45C31.8693 9.85833 31.4717 10.1743 30.9967 10.3979C30.5216 10.6118 30.0126 10.7188 29.4696 10.7188C28.9557 10.7188 28.4806 10.6313 28.0443 10.4563C27.6177 10.2715 27.2493 10.009 26.939 9.66875V14H25.7465V2.625H26.8081V3.61667C27.1184 3.2375 27.5111 2.94097 27.9862 2.72708C28.4612 2.51319 28.9606 2.40625 29.4841 2.40625C30.0271 2.40625 30.5313 2.51806 30.9967 2.74167C31.4717 2.95556 31.8693 3.26667 32.1892 3.675ZM31.2294 8.70625C31.6075 8.21042 31.7966 7.49097 31.7966 6.54792C31.7966 5.63403 31.6075 4.91458 31.2294 4.38958C31.0161 4.0882 30.7397 3.86458 30.4004 3.71875C30.0707 3.57292 29.7023 3.5 29.2951 3.5C28.9072 3.5 28.5534 3.57292 28.2334 3.71875C27.9134 3.85486 27.6468 4.05903 27.4335 4.33125C27.0166 4.85625 26.8081 5.59514 26.8081 6.54792C26.8081 7.51042 27.0166 8.25417 27.4335 8.77917C27.6468 9.05139 27.9183 9.26042 28.2479 9.40625C28.5873 9.55208 28.946 9.625 29.3242 9.625C29.7023 9.625 30.061 9.54722 30.4004 9.39167C30.7397 9.23611 31.0161 9.00764 31.2294 8.70625Z" fill="#FF6CA9"/>
<path d="M17.6194 4.30208C17.7648 3.65069 18.1478 3.15972 18.7683 2.82917C19.2919 2.54722 19.9512 2.40625 20.7462 2.40625C21.551 2.40625 22.22 2.54722 22.7532 2.82917C23.1314 3.04306 23.4271 3.31528 23.6404 3.64583C23.8537 3.97639 23.9652 4.34583 23.9749 4.75417C23.9749 5.11389 23.9119 5.42986 23.7858 5.70208C23.6695 5.96458 23.4804 6.19306 23.2186 6.3875C23.8391 6.7375 24.1494 7.34514 24.1494 8.21042C24.1397 8.64792 24.0185 9.04653 23.7858 9.40625C23.5628 9.75625 23.2574 10.0382 22.8696 10.2521C22.2975 10.5632 21.5898 10.7188 20.7462 10.7188C19.893 10.7188 19.1901 10.5632 18.6374 10.2521C17.9975 9.92153 17.5903 9.38195 17.4158 8.63333L18.5938 8.34167C18.6617 8.72083 18.875 9.0125 19.2337 9.21667C19.6118 9.45972 20.116 9.58125 20.7462 9.58125C21.3668 9.58125 21.8758 9.45972 22.2733 9.21667C22.7193 8.97361 22.9423 8.61875 22.9423 8.15208C22.9423 7.56875 22.6805 7.21389 22.1569 7.0875C21.8661 6.98056 21.4152 6.92708 20.8044 6.92708H20.0627V5.93542H20.8044C21.0953 5.93542 21.3328 5.93056 21.517 5.92083C21.7109 5.90139 21.8903 5.85764 22.0551 5.78958C22.3169 5.70208 22.5011 5.58056 22.6078 5.425C22.7144 5.25972 22.7678 5.05556 22.7678 4.8125C22.7678 4.61806 22.7096 4.43819 22.5933 4.27292C22.4866 4.10764 22.3412 3.97153 22.1569 3.86458C21.7982 3.66042 21.328 3.54861 20.7462 3.52917C20.1742 3.54861 19.7088 3.66042 19.3501 3.86458C19.0495 4.02986 18.8653 4.27292 18.7974 4.59375L17.6194 4.30208Z" fill="#FF6CA9"/>
<path d="M12.4965 10.7188C11.9147 10.7188 11.3766 10.6118 10.8822 10.3979C10.3877 10.1743 9.97076 9.85347 9.63142 9.43542C9.03998 8.68681 8.74426 7.72431 8.74426 6.54792C8.74426 5.38125 9.03998 4.42847 9.63142 3.68958C9.96107 3.28125 10.378 2.96528 10.8822 2.74167C11.3863 2.51806 11.9244 2.40625 12.4965 2.40625C13.0685 2.40625 13.6018 2.51806 14.0963 2.74167C14.6004 2.95556 15.0174 3.27153 15.347 3.68958C15.9481 4.41875 16.2487 5.37153 16.2487 6.54792C16.2487 7.71458 15.9481 8.67708 15.347 9.43542C15.0174 9.86319 14.6053 10.184 14.1108 10.3979C13.626 10.6118 13.0879 10.7188 12.4965 10.7188ZM14.4162 8.70625C14.8041 8.19097 14.998 7.47153 14.998 6.54792C14.998 5.63403 14.8041 4.91945 14.4162 4.40417C14.2029 4.12222 13.9266 3.90833 13.5872 3.7625C13.2479 3.60695 12.8843 3.52917 12.4965 3.52917C12.1087 3.52917 11.7451 3.60695 11.4057 3.7625C11.0664 3.90833 10.7949 4.12222 10.5913 4.40417C10.1938 4.91945 9.995 5.63403 9.995 6.54792C9.995 7.47153 10.1938 8.19097 10.5913 8.70625C10.7949 8.9882 11.0664 9.20695 11.4057 9.3625C11.7451 9.51806 12.1087 9.59583 12.4965 9.59583C12.8843 9.59583 13.2479 9.51806 13.5872 9.3625C13.9266 9.20695 14.2029 8.9882 14.4162 8.70625Z" fill="#FF6CA9"/>
<path d="M6.83544 1.09375C7.10692 1.38542 7.31538 1.72083 7.46081 2.1C7.61594 2.47917 7.69835 2.87292 7.70805 3.28125C7.70805 3.6507 7.64018 4.02014 7.50444 4.38958C7.3687 4.74931 7.17964 5.075 6.93725 5.36667C6.63668 5.73611 6.25855 6.02778 5.80285 6.24167C5.35685 6.45556 4.89146 6.5625 4.40668 6.5625H1.17802V10.5H0V0H4.40668C4.76542 0 5.13385 0.0631946 5.51198 0.189584C6.03555 0.364584 6.4767 0.665973 6.83544 1.09375ZM6.00646 4.6375C6.32642 4.23889 6.4864 3.80625 6.4864 3.33958C6.4864 3.0382 6.43307 2.75625 6.32642 2.49375C6.22946 2.23125 6.07918 1.99792 5.87557 1.79375C5.69135 1.59931 5.46835 1.44375 5.20657 1.32708C4.94479 1.20069 4.67816 1.1375 4.40668 1.1375H1.17802V5.425H4.40668C4.69755 5.425 4.98842 5.35695 5.27929 5.22083C5.57016 5.075 5.81255 4.88056 6.00646 4.6375Z" fill="#FF6CA9"/>
<path d="M130.109 56V53.0344H126.954L125.519 56H124.842L126.331 52.9396C125.979 52.8042 125.686 52.6146 125.451 52.3708C125.261 52.1632 125.112 51.9285 125.004 51.6667C124.896 51.4049 124.842 51.1385 124.842 50.8677C124.842 50.5878 124.896 50.317 125.004 50.0552C125.112 49.7934 125.261 49.5632 125.451 49.3646C125.65 49.1569 125.875 48.9944 126.128 48.8771C126.39 48.7507 126.652 48.6875 126.913 48.6875H130.678L130.692 56H130.109ZM130.109 52.4656V49.2562H126.941C126.742 49.2562 126.552 49.3059 126.372 49.4052C126.191 49.4955 126.029 49.6174 125.884 49.7708C125.595 50.0778 125.451 50.4434 125.451 50.8677C125.451 51.292 125.595 51.6576 125.884 51.9646C126.029 52.1181 126.191 52.2399 126.372 52.3302C126.552 52.4205 126.742 52.4656 126.941 52.4656H130.109Z" fill="#3F4349"/>
<path d="M123.222 46.3855V47.2522H122.654V46.3855H123.222ZM123.222 48.6876V56.0001H122.654V48.6876H123.222Z" fill="#3F4349"/>
<path d="M121.236 49.2562H116.93V56H116.361V48.6875H121.236V49.2562Z" fill="#3F4349"/>
<path d="M114.096 49.6625C114.611 50.3306 114.868 51.2198 114.868 52.3302C114.868 53.4406 114.611 54.3344 114.096 55.0115C113.789 55.3997 113.415 55.6976 112.972 55.9052C112.539 56.1038 112.065 56.2031 111.55 56.2031C111.036 56.2031 110.562 56.0948 110.129 55.8781C109.704 55.6615 109.352 55.35 109.072 54.9438C109.018 54.8715 108.946 54.7542 108.856 54.5917V59.25H108.287V48.6875H108.815V50.1635C108.905 49.983 108.991 49.834 109.072 49.7167C109.361 49.3194 109.731 49.017 110.183 48.8094C110.643 48.5927 111.135 48.4844 111.659 48.4844C112.146 48.4844 112.602 48.5882 113.026 48.7958C113.451 49.0035 113.807 49.2924 114.096 49.6625ZM113.622 54.6458C114.047 54.1042 114.259 53.3323 114.259 52.3302C114.259 51.3281 114.047 50.5563 113.622 50.0146C113.388 49.7076 113.085 49.4729 112.715 49.3104C112.354 49.1389 111.966 49.0531 111.55 49.0531C111.126 49.0531 110.724 49.1344 110.345 49.2969C109.975 49.4594 109.677 49.6986 109.451 50.0146C109.027 50.5743 108.815 51.3462 108.815 52.3302C108.815 53.3233 109.027 54.0997 109.451 54.6594C109.686 54.9753 109.989 55.2191 110.359 55.3906C110.729 55.5531 111.126 55.6344 111.55 55.6344C111.966 55.6344 112.354 55.5486 112.715 55.3771C113.085 55.2056 113.388 54.9618 113.622 54.6458Z" fill="#3F4349"/>
<path d="M106.028 49.649C106.524 50.317 106.782 51.2153 106.8 52.3438V52.5063H100.733C100.769 53.4271 100.981 54.1493 101.37 54.6729C101.604 54.9799 101.907 55.2191 102.277 55.3906C102.647 55.5531 103.044 55.6344 103.469 55.6344C103.884 55.6344 104.277 55.5531 104.647 55.3906C105.017 55.2191 105.319 54.9799 105.554 54.6729C105.671 54.5194 105.771 54.3524 105.852 54.1719L106.394 54.4021C106.294 54.6368 106.172 54.8444 106.028 55.025C105.739 55.4042 105.369 55.6976 104.918 55.9052C104.466 56.1038 103.983 56.2031 103.469 56.2031C102.954 56.2031 102.471 56.1038 102.02 55.9052C101.577 55.6976 101.207 55.4042 100.909 55.025C100.404 54.375 100.142 53.4813 100.124 52.3438C100.142 51.2153 100.404 50.317 100.909 49.649C101.216 49.2608 101.586 48.9719 102.02 48.7823C102.462 48.5837 102.945 48.4844 103.469 48.4844C103.992 48.4844 104.471 48.5837 104.904 48.7823C105.346 48.9719 105.721 49.2608 106.028 49.649ZM101.37 50.0146C100.999 50.5111 100.792 51.1521 100.747 51.9375H106.177C106.132 51.134 105.924 50.4931 105.554 50.0146C105.328 49.7076 105.03 49.4729 104.66 49.3104C104.299 49.1389 103.915 49.0531 103.509 49.0531C103.076 49.0531 102.67 49.1344 102.29 49.2969C101.911 49.4594 101.604 49.6986 101.37 50.0146Z" fill="#3F4349"/>
<path d="M98.6342 48.6875V56H98.0655V52.3031H93.38V56H92.8113V48.6875H93.38V51.7344H98.0655V48.6875H98.6342Z" fill="#3F4349"/>
<path d="M90.5524 49.649C91.0489 50.317 91.3062 51.2153 91.3242 52.3438V52.5063H85.2576C85.2937 53.4271 85.5058 54.1493 85.894 54.6729C86.1287 54.9799 86.4312 55.2191 86.8013 55.3906C87.1715 55.5531 87.5687 55.6344 87.993 55.6344C88.4083 55.6344 88.801 55.5531 89.1711 55.3906C89.5413 55.2191 89.8437 54.9799 90.0784 54.6729C90.1958 54.5194 90.2951 54.3524 90.3763 54.1719L90.918 54.4021C90.8187 54.6368 90.6968 54.8444 90.5524 55.025C90.2635 55.4042 89.8933 55.6976 89.4419 55.9052C88.9906 56.1038 88.5076 56.2031 87.993 56.2031C87.4784 56.2031 86.9954 56.1038 86.544 55.9052C86.1017 55.6976 85.7315 55.4042 85.4336 55.025C84.9281 54.375 84.6662 53.4813 84.6482 52.3438C84.6662 51.2153 84.9281 50.317 85.4336 49.649C85.7406 49.2608 86.1107 48.9719 86.544 48.7823C86.9864 48.5837 87.4694 48.4844 87.993 48.4844C88.5166 48.4844 88.9951 48.5837 89.4284 48.7823C89.8708 48.9719 90.2454 49.2608 90.5524 49.649ZM85.894 50.0146C85.5239 50.5111 85.3162 51.1521 85.2711 51.9375H90.7013C90.6562 51.134 90.4485 50.4931 90.0784 50.0146C89.8527 49.7076 89.5548 49.4729 89.1847 49.3104C88.8235 49.1389 88.4399 49.0531 88.0336 49.0531C87.6003 49.0531 87.194 49.1344 86.8149 49.2969C86.4357 49.4594 86.1287 49.6986 85.894 50.0146Z" fill="#3F4349"/>
<path d="M80.2235 56.2031C79.6998 56.2031 79.2169 56.1038 78.7745 55.9052C78.3321 55.7066 77.962 55.4132 77.6641 55.025C77.1405 54.3479 76.8787 53.4497 76.8787 52.3302C76.8787 51.2198 77.1405 50.326 77.6641 49.649C77.9439 49.2788 78.3096 48.9944 78.761 48.7958C79.2123 48.5882 79.6998 48.4844 80.2235 48.4844C80.7471 48.4844 81.2301 48.5837 81.6724 48.7823C82.1238 48.9809 82.4939 49.2698 82.7828 49.649C83.3064 50.326 83.5682 51.2198 83.5682 52.3302C83.5682 53.4497 83.3064 54.3479 82.7828 55.025C82.4849 55.4222 82.1148 55.7201 81.6724 55.9188C81.2391 56.1083 80.7561 56.2031 80.2235 56.2031ZM82.3224 54.6729C82.7467 54.1222 82.9589 53.3413 82.9589 52.3302C82.9589 51.3281 82.7467 50.5517 82.3224 50.001C82.0877 49.6941 81.7853 49.4594 81.4151 49.2969C81.045 49.1344 80.6478 49.0531 80.2235 49.0531C79.7992 49.0531 79.4019 49.1344 79.0318 49.2969C78.6617 49.4594 78.3637 49.6941 78.138 50.001C77.7047 50.5698 77.488 51.3462 77.488 52.3302C77.488 53.3233 77.7047 54.1042 78.138 54.6729C78.3637 54.9799 78.6617 55.2191 79.0318 55.3906C79.4019 55.5531 79.7992 55.6344 80.2235 55.6344C80.6478 55.6344 81.045 55.5531 81.4151 55.3906C81.7853 55.2191 82.0877 54.9799 82.3224 54.6729Z" fill="#3F4349"/>
<path d="M75.0201 49.6625C75.5347 50.3306 75.7919 51.2198 75.7919 52.3302C75.7919 53.4406 75.5347 54.3344 75.0201 55.0115C74.7131 55.3997 74.3385 55.6976 73.8961 55.9052C73.4628 56.1038 72.9888 56.2031 72.4742 56.2031C71.9597 56.2031 71.4857 56.0948 71.0524 55.8781C70.6281 55.6615 70.276 55.35 69.9961 54.9438C69.9419 54.8715 69.8697 54.7542 69.7794 54.5917V59.25H69.2107V48.6875H69.7388V50.1635C69.8291 49.983 69.9149 49.834 69.9961 49.7167C70.285 49.3194 70.6551 49.017 71.1065 48.8094C71.5669 48.5927 72.059 48.4844 72.5826 48.4844C73.0701 48.4844 73.526 48.5882 73.9503 48.7958C74.3746 49.0035 74.7312 49.2924 75.0201 49.6625ZM74.5461 54.6458C74.9704 54.1042 75.1826 53.3323 75.1826 52.3302C75.1826 51.3281 74.9704 50.5563 74.5461 50.0146C74.3114 49.7076 74.009 49.4729 73.6388 49.3104C73.2777 49.1389 72.8895 49.0531 72.4742 49.0531C72.0499 49.0531 71.6482 49.1344 71.269 49.2969C70.8989 49.4594 70.601 49.6986 70.3753 50.0146C69.951 50.5743 69.7388 51.3462 69.7388 52.3302C69.7388 53.3233 69.951 54.0997 70.3753 54.6594C70.61 54.9753 70.9124 55.2191 71.2826 55.3906C71.6527 55.5531 72.0499 55.6344 72.4742 55.6344C72.8895 55.6344 73.2777 55.5486 73.6388 55.3771C74.009 55.2056 74.3114 54.9618 74.5461 54.6458Z" fill="#3F4349"/>
<path d="M67.92 49.2562H65.2252V56H64.6565V49.2562H61.9617V48.6875H67.92V49.2562Z" fill="#3F4349"/>
<path d="M59.2246 52.3438L61.6214 56L60.9444 55.9865L58.7371 52.6281H56.6652V56H56.0964V48.6875H56.6652V52.0594H58.7371L60.8225 48.6875H61.4996L59.2246 52.3438Z" fill="#3F4349"/>
<path d="M53.8375 49.649C54.334 50.317 54.5913 51.2153 54.6094 52.3438V52.5063H48.5427C48.5788 53.4271 48.791 54.1493 49.1792 54.6729C49.4139 54.9799 49.7163 55.2191 50.0865 55.3906C50.4566 55.5531 50.8538 55.6344 51.2781 55.6344C51.6934 55.6344 52.0861 55.5531 52.4563 55.3906C52.8264 55.2191 53.1288 54.9799 53.3636 54.6729C53.4809 54.5194 53.5802 54.3524 53.6615 54.1719L54.2031 54.4021C54.1038 54.6368 53.982 54.8444 53.8375 55.025C53.5486 55.4042 53.1785 55.6976 52.7271 55.9052C52.2757 56.1038 51.7927 56.2031 51.2781 56.2031C50.7636 56.2031 50.2806 56.1038 49.8292 55.9052C49.3868 55.6976 49.0167 55.4042 48.7188 55.025C48.2132 54.375 47.9514 53.4813 47.9333 52.3438C47.9514 51.2153 48.2132 50.317 48.7188 49.649C49.0257 49.2608 49.3958 48.9719 49.8292 48.7823C50.2715 48.5837 50.7545 48.4844 51.2781 48.4844C51.8018 48.4844 52.2802 48.5837 52.7136 48.7823C53.1559 48.9719 53.5306 49.2608 53.8375 49.649ZM49.1792 50.0146C48.809 50.5111 48.6014 51.1521 48.5563 51.9375H53.9865C53.9413 51.134 53.7337 50.4931 53.3636 50.0146C53.1379 49.7076 52.8399 49.4729 52.4698 49.3104C52.1087 49.1389 51.725 49.0531 51.3188 49.0531C50.8854 49.0531 50.4792 49.1344 50.1 49.2969C49.7208 49.4594 49.4139 49.6986 49.1792 50.0146Z" fill="#3F4349"/>
<path d="M46.4403 48.6875V56H45.8716V49.2562H42.7299L42.256 53.2375C42.1928 53.8424 42.1115 54.3299 42.0122 54.7C41.9219 55.0611 41.7504 55.3681 41.4976 55.6208C41.2449 55.8736 40.8792 56 40.4008 56V55.4312C40.7167 55.4312 40.956 55.35 41.1185 55.1875C41.29 55.016 41.4119 54.7813 41.4841 54.4833C41.5563 54.1764 41.6285 53.7385 41.7008 53.1698L42.2153 48.6875H46.4403Z" fill="#3F4349"/>
<path d="M38.819 49.649C39.3155 50.317 39.5728 51.2153 39.5908 52.3438V52.5063H33.5242C33.5603 53.4271 33.7724 54.1493 34.1606 54.6729C34.3953 54.9799 34.6978 55.2191 35.0679 55.3906C35.4381 55.5531 35.8353 55.6344 36.2596 55.6344C36.6749 55.6344 37.0676 55.5531 37.4377 55.3906C37.8078 55.2191 38.1103 54.9799 38.345 54.6729C38.4624 54.5194 38.5617 54.3524 38.6429 54.1719L39.1846 54.4021C39.0853 54.6368 38.9634 54.8444 38.819 55.025C38.5301 55.4042 38.1599 55.6976 37.7085 55.9052C37.2572 56.1038 36.7742 56.2031 36.2596 56.2031C35.745 56.2031 35.262 56.1038 34.8106 55.9052C34.3683 55.6976 33.9981 55.4042 33.7002 55.025C33.1947 54.375 32.9329 53.4813 32.9148 52.3438C32.9329 51.2153 33.1947 50.317 33.7002 49.649C34.0072 49.2608 34.3773 48.9719 34.8106 48.7823C35.253 48.5837 35.736 48.4844 36.2596 48.4844C36.7832 48.4844 37.2617 48.5837 37.695 48.7823C38.1374 48.9719 38.512 49.2608 38.819 49.649ZM34.1606 50.0146C33.7905 50.5111 33.5829 51.1521 33.5377 51.9375H38.9679C38.9228 51.134 38.7151 50.4931 38.345 50.0146C38.1193 49.7076 37.8214 49.4729 37.4513 49.3104C37.0901 49.1389 36.7065 49.0531 36.3002 49.0531C35.8669 49.0531 35.4606 49.1344 35.0815 49.2969C34.7023 49.4594 34.3953 49.6986 34.1606 50.0146Z" fill="#3F4349"/>
<path d="M28.308 46.25L25.708 56H25.0986L27.6986 46.25H28.308Z" fill="#3F4349"/>
<path d="M14.6462 50.1229C14.7636 49.5993 15.0841 49.1931 15.6077 48.9042C16.1133 48.6243 16.7226 48.4844 17.4358 48.4844C18.158 48.4844 18.7719 48.6243 19.2775 48.9042C19.6115 49.0938 19.8688 49.333 20.0494 49.6219C20.2299 49.9108 20.3202 50.2267 20.3202 50.5698C20.3202 51.3462 20.0178 51.8878 19.4129 52.1948C20.1351 52.5017 20.4962 53.0976 20.4962 53.9823C20.4962 54.3524 20.3969 54.6955 20.1983 55.0115C20.0087 55.3184 19.7424 55.5667 19.3994 55.7563C18.8848 56.0542 18.2303 56.2031 17.4358 56.2031C16.6504 56.2031 16.0004 56.0542 15.4858 55.7563C14.9532 55.4583 14.6056 54.9979 14.4431 54.375L15.0254 54.226C15.1247 54.6684 15.3775 55.0069 15.7837 55.2417C16.2171 55.5035 16.7678 55.6344 17.4358 55.6344C18.1129 55.6344 18.6681 55.5035 19.1014 55.2417C19.3542 55.1063 19.5528 54.9257 19.6973 54.7C19.8417 54.4653 19.9139 54.217 19.9139 53.9552C19.9139 53.2962 19.6702 52.8809 19.1827 52.7094C18.966 52.6191 18.7313 52.5649 18.4785 52.5469C18.2258 52.5198 17.9053 52.5063 17.5171 52.5063H16.84V51.9375H17.5171C17.8782 51.9375 18.1761 51.9285 18.4108 51.9104C18.6455 51.8833 18.8622 51.8292 19.0608 51.7479C19.5122 51.5493 19.7379 51.1656 19.7379 50.5969C19.7379 50.3531 19.6657 50.1274 19.5212 49.9198C19.3858 49.7122 19.2053 49.5451 18.9796 49.4188C18.5914 49.1931 18.0768 49.0712 17.4358 49.0531C16.8039 49.0712 16.2938 49.1931 15.9056 49.4188C15.5535 49.6083 15.3278 49.8927 15.2285 50.2719L14.6462 50.1229Z" fill="#3F4349"/>
<path d="M7.14162 50.0551C7.22287 49.9107 7.30863 49.7797 7.39891 49.6624C7.70585 49.2742 8.07599 48.9853 8.50933 48.7957C8.95169 48.5971 9.43467 48.4978 9.95828 48.4978C10.6534 48.4978 11.2583 48.6422 11.7729 48.9311C12.2875 49.22 12.6576 49.6579 12.8833 50.2447C13.0187 50.6329 13.0864 51.0256 13.0864 51.4228V55.9999H12.5583V54.402C12.3777 54.7089 12.152 54.9797 11.8812 55.2145C11.6104 55.4492 11.317 55.6388 11.001 55.7832C10.4142 56.0541 9.85898 56.1895 9.33537 56.1895C8.88398 56.1895 8.45065 56.0947 8.03537 55.9051C7.62912 55.7065 7.31766 55.4311 7.10099 55.0791C6.8753 54.6999 6.76245 54.2982 6.76245 53.8738C6.76245 53.0975 7.09648 52.5061 7.76453 52.0999C8.08051 51.9193 8.42356 51.7884 8.7937 51.7072C9.16384 51.6169 9.70099 51.5176 10.4052 51.4093L10.7166 51.3686L12.4635 51.1249C12.4003 50.4929 12.1791 50.01 11.8 49.6759C11.5743 49.4683 11.2989 49.3148 10.9739 49.2155C10.6579 49.1162 10.3194 49.0666 9.95828 49.0666C9.53398 49.0666 9.13676 49.1523 8.76662 49.3238C8.39648 49.4863 8.09856 49.7211 7.87287 50.028C7.78259 50.1544 7.7194 50.2492 7.68328 50.3124L7.14162 50.0551ZM10.4458 51.978C9.80481 52.0683 9.27217 52.1676 8.84787 52.2759C8.43259 52.3843 8.08051 52.5648 7.79162 52.8176C7.50273 53.0704 7.35828 53.4179 7.35828 53.8603C7.35828 54.2936 7.51627 54.6818 7.83224 55.0249C8.14822 55.3589 8.5319 55.562 8.98328 55.6343C9.12773 55.6523 9.24058 55.6613 9.32183 55.6613C9.85447 55.6613 10.3826 55.5169 10.9062 55.228C11.4298 54.9301 11.8225 54.5554 12.0843 54.1041C12.2829 53.7429 12.4048 53.4044 12.45 53.0884C12.4951 52.7725 12.5177 52.3075 12.5177 51.6936L10.4458 51.978Z" fill="#3F4349"/>
<path d="M7.04171 46.8188H1.65212V56H1.08337V46.25H7.04171V46.8188Z" fill="#3F4349"/>
<path d="M254.372 46.3853V47.2519H253.803V46.3853H254.372ZM254.372 48.6873V55.9998H253.803V48.6873H254.372Z" fill="#3F4349"/>
<path d="M252.173 55.4312V57.0833H251.604V56H245.213V48.6875H245.781V55.4312H250.467V48.6875H251.035V55.4312H252.173Z" fill="#3F4349"/>
<path d="M237.505 50.0551C237.586 49.9107 237.672 49.7797 237.762 49.6624C238.069 49.2742 238.439 48.9853 238.872 48.7957C239.315 48.5971 239.798 48.4978 240.321 48.4978C241.017 48.4978 241.621 48.6422 242.136 48.9311C242.651 49.22 243.021 49.6579 243.246 50.2447C243.382 50.6329 243.45 51.0256 243.45 51.4228V55.9999H242.921V54.402C242.741 54.7089 242.515 54.9797 242.244 55.2145C241.974 55.4492 241.68 55.6388 241.364 55.7832C240.777 56.0541 240.222 56.1895 239.699 56.1895C239.247 56.1895 238.814 56.0947 238.399 55.9051C237.992 55.7065 237.681 55.4311 237.464 55.0791C237.238 54.6999 237.126 54.2982 237.126 53.8738C237.126 53.0975 237.46 52.5061 238.128 52.0999C238.444 51.9193 238.787 51.7884 239.157 51.7072C239.527 51.6169 240.064 51.5176 240.768 51.4093L241.08 51.3686L242.827 51.1249C242.763 50.4929 242.542 50.01 242.163 49.6759C241.937 49.4683 241.662 49.3148 241.337 49.2155C241.021 49.1162 240.683 49.0666 240.321 49.0666C239.897 49.0666 239.5 49.1523 239.13 49.3238C238.76 49.4863 238.462 49.7211 238.236 50.028C238.146 50.1544 238.083 50.2492 238.046 50.3124L237.505 50.0551ZM240.809 51.978C240.168 52.0683 239.635 52.1676 239.211 52.2759C238.796 52.3843 238.444 52.5648 238.155 52.8176C237.866 53.0704 237.721 53.4179 237.721 53.8603C237.721 54.2936 237.879 54.6818 238.195 55.0249C238.511 55.3589 238.895 55.562 239.346 55.6343C239.491 55.6523 239.604 55.6613 239.685 55.6613C240.218 55.6613 240.746 55.5169 241.269 55.228C241.793 54.9301 242.186 54.5554 242.447 54.1041C242.646 53.7429 242.768 53.4044 242.813 53.0884C242.858 52.7725 242.881 52.3075 242.881 51.6936L240.809 51.978Z" fill="#3F4349"/>
<path d="M235.267 49.6625C235.782 50.3306 236.039 51.2198 236.039 52.3302C236.039 53.4406 235.782 54.3344 235.267 55.0115C234.96 55.3997 234.585 55.6976 234.143 55.9052C233.71 56.1038 233.236 56.2031 232.721 56.2031C232.207 56.2031 231.733 56.0948 231.299 55.8781C230.875 55.6615 230.523 55.35 230.243 54.9438C230.189 54.8715 230.117 54.7542 230.026 54.5917V59.25H229.458V48.6875H229.986V50.1635C230.076 49.983 230.162 49.834 230.243 49.7167C230.532 49.3194 230.902 49.017 231.353 48.8094C231.814 48.5927 232.306 48.4844 232.83 48.4844C233.317 48.4844 233.773 48.5882 234.197 48.7958C234.622 49.0035 234.978 49.2924 235.267 49.6625ZM234.793 54.6458C235.217 54.1042 235.43 53.3323 235.43 52.3302C235.43 51.3281 235.217 50.5563 234.793 50.0146C234.558 49.7076 234.256 49.4729 233.886 49.3104C233.525 49.1389 233.136 49.0531 232.721 49.0531C232.297 49.0531 231.895 49.1344 231.516 49.2969C231.146 49.4594 230.848 49.6986 230.622 50.0146C230.198 50.5743 229.986 51.3462 229.986 52.3302C229.986 53.3233 230.198 54.0997 230.622 54.6594C230.857 54.9753 231.159 55.2191 231.53 55.3906C231.9 55.5531 232.297 55.6344 232.721 55.6344C233.136 55.6344 233.525 55.5486 233.886 55.3771C234.256 55.2056 234.558 54.9618 234.793 54.6458Z" fill="#3F4349"/>
<path d="M227.562 56H226.993V49.2562H222.308V56H221.739V48.6875H227.562V56Z" fill="#3F4349"/>
<path d="M210.781 50.0551C210.862 49.9107 210.948 49.7797 211.038 49.6624C211.345 49.2742 211.716 48.9853 212.149 48.7957C212.591 48.5971 213.074 48.4978 213.598 48.4978C214.293 48.4978 214.898 48.6422 215.412 48.9311C215.927 49.22 216.297 49.6579 216.523 50.2447C216.658 50.6329 216.726 51.0256 216.726 51.4228V55.9999H216.198V54.402C216.017 54.7089 215.792 54.9797 215.521 55.2145C215.25 55.4492 214.956 55.6388 214.641 55.7832C214.054 56.0541 213.499 56.1895 212.975 56.1895C212.524 56.1895 212.09 56.0947 211.675 55.9051C211.269 55.7065 210.957 55.4311 210.741 55.0791C210.515 54.6999 210.402 54.2982 210.402 53.8738C210.402 53.0975 210.736 52.5061 211.404 52.0999C211.72 51.9193 212.063 51.7884 212.433 51.7072C212.803 51.6169 213.341 51.5176 214.045 51.4093L214.356 51.3686L216.103 51.1249C216.04 50.4929 215.819 50.01 215.439 49.6759C215.214 49.4683 214.938 49.3148 214.613 49.2155C214.297 49.1162 213.959 49.0666 213.598 49.0666C213.174 49.0666 212.776 49.1523 212.406 49.3238C212.036 49.4863 211.738 49.7211 211.512 50.028C211.422 50.1544 211.359 50.2492 211.323 50.3124L210.781 50.0551ZM214.085 51.978C213.444 52.0683 212.912 52.1676 212.487 52.2759C212.072 52.3843 211.72 52.5648 211.431 52.8176C211.142 53.0704 210.998 53.4179 210.998 53.8603C210.998 54.2936 211.156 54.6818 211.472 55.0249C211.788 55.3589 212.171 55.562 212.623 55.6343C212.767 55.6523 212.88 55.6613 212.961 55.6613C213.494 55.6613 214.022 55.5169 214.546 55.228C215.069 54.9301 215.462 54.5554 215.724 54.1041C215.922 53.7429 216.044 53.4044 216.089 53.0884C216.135 52.7725 216.157 52.3075 216.157 51.6936L214.085 51.978Z" fill="#3F4349"/>
<path d="M209.784 49.2562H207.089V56H206.521V49.2562H203.826V48.6875H209.784V49.2562Z" fill="#3F4349"/>
<path d="M196.727 50.0551C196.809 49.9107 196.894 49.7797 196.985 49.6624C197.292 49.2742 197.662 48.9853 198.095 48.7957C198.538 48.5971 199.02 48.4978 199.544 48.4978C200.239 48.4978 200.844 48.6422 201.359 48.9311C201.873 49.22 202.243 49.6579 202.469 50.2447C202.605 50.6329 202.672 51.0256 202.672 51.4228V55.9999H202.144V54.402C201.964 54.7089 201.738 54.9797 201.467 55.2145C201.196 55.4492 200.903 55.6388 200.587 55.7832C200 56.0541 199.445 56.1895 198.921 56.1895C198.47 56.1895 198.036 56.0947 197.621 55.9051C197.215 55.7065 196.903 55.4311 196.687 55.0791C196.461 54.6999 196.348 54.2982 196.348 53.8738C196.348 53.0975 196.682 52.5061 197.35 52.0999C197.666 51.9193 198.009 51.7884 198.38 51.7072C198.75 51.6169 199.287 51.5176 199.991 51.4093L200.302 51.3686L202.049 51.1249C201.986 50.4929 201.765 50.01 201.386 49.6759C201.16 49.4683 200.885 49.3148 200.56 49.2155C200.244 49.1162 199.905 49.0666 199.544 49.0666C199.12 49.0666 198.723 49.1523 198.352 49.3238C197.982 49.4863 197.684 49.7211 197.459 50.028C197.368 50.1544 197.305 50.2492 197.269 50.3124L196.727 50.0551ZM200.032 51.978C199.391 52.0683 198.858 52.1676 198.434 52.2759C198.018 52.3843 197.666 52.5648 197.377 52.8176C197.089 53.0704 196.944 53.4179 196.944 53.8603C196.944 54.2936 197.102 54.6818 197.418 55.0249C197.734 55.3589 198.118 55.562 198.569 55.6343C198.714 55.6523 198.826 55.6613 198.908 55.6613C199.44 55.6613 199.968 55.5169 200.492 55.228C201.016 54.9301 201.408 54.5554 201.67 54.1041C201.869 53.7429 201.991 53.4044 202.036 53.0884C202.081 52.7725 202.103 52.3075 202.103 51.6936L200.032 51.978Z" fill="#3F4349"/>
<path d="M194.855 48.6875V56H194.287V49.2562H191.145L190.671 53.2375C190.608 53.8424 190.526 54.3299 190.427 54.7C190.337 55.0611 190.165 55.3681 189.913 55.6208C189.66 55.8736 189.294 56 188.816 56V55.4312C189.132 55.4312 189.371 55.35 189.533 55.1875C189.705 55.016 189.827 54.7813 189.899 54.4833C189.971 54.1764 190.043 53.7385 190.116 53.1698L190.63 48.6875H194.855Z" fill="#3F4349"/>
<path d="M187.597 56H187.028V49.2562H182.343V56H181.774V48.6875H187.597V56Z" fill="#3F4349"/>
<path d="M175.916 56.203C175.202 56.203 174.557 56.0766 173.979 55.8238C173.41 55.562 172.941 55.1738 172.571 54.6593C171.885 53.7565 171.542 52.5468 171.542 51.0301C171.542 49.6308 171.885 48.4843 172.571 47.5905C172.941 47.094 173.41 46.7148 173.979 46.453C174.548 46.1912 175.162 46.0603 175.821 46.0603C176.534 46.0603 177.189 46.1867 177.784 46.4395C178.389 46.6922 178.886 47.0759 179.274 47.5905C179.951 48.4662 180.29 49.6759 180.29 51.2197C180.29 52.619 179.951 53.7655 179.274 54.6593C178.904 55.1648 178.43 55.5485 177.852 55.8103C177.274 56.0721 176.629 56.203 175.916 56.203ZM175.861 55.6343C176.466 55.6343 177.026 55.5259 177.541 55.3093C178.055 55.0836 178.47 54.7495 178.786 54.3072C179.382 53.5398 179.68 52.4475 179.68 51.0301C179.68 49.7391 179.382 48.7145 178.786 47.9561C178.479 47.5318 178.073 47.2068 177.568 46.9811C177.071 46.7464 176.539 46.6291 175.97 46.6291C175.374 46.6291 174.814 46.7419 174.291 46.9676C173.767 47.1933 173.347 47.5228 173.031 47.9561C172.444 48.7145 172.151 49.8023 172.151 51.2197C172.151 52.5377 172.444 53.5669 173.031 54.3072C173.338 54.7315 173.744 55.061 174.25 55.2957C174.765 55.5214 175.302 55.6343 175.861 55.6343Z" fill="#3F4349"/>
<path d="M333.765 50.0551C333.846 49.9107 333.932 49.7797 334.022 49.6624C334.329 49.2742 334.699 48.9853 335.132 48.7957C335.575 48.5971 336.058 48.4978 336.581 48.4978C337.276 48.4978 337.881 48.6422 338.396 48.9311C338.91 49.22 339.281 49.6579 339.506 50.2447C339.642 50.6329 339.709 51.0256 339.709 51.4228V55.9999H339.181V54.402C339.001 54.7089 338.775 54.9797 338.504 55.2145C338.233 55.4492 337.94 55.6388 337.624 55.7832C337.037 56.0541 336.482 56.1895 335.958 56.1895C335.507 56.1895 335.074 56.0947 334.658 55.9051C334.252 55.7065 333.941 55.4311 333.724 55.0791C333.498 54.6999 333.385 54.2982 333.385 53.8738C333.385 53.0975 333.719 52.5061 334.387 52.0999C334.703 51.9193 335.046 51.7884 335.417 51.7072C335.787 51.6169 336.324 51.5176 337.028 51.4093L337.34 51.3686L339.086 51.1249C339.023 50.4929 338.802 50.01 338.423 49.6759C338.197 49.4683 337.922 49.3148 337.597 49.2155C337.281 49.1162 336.942 49.0666 336.581 49.0666C336.157 49.0666 335.76 49.1523 335.39 49.3238C335.019 49.4863 334.721 49.7211 334.496 50.028C334.406 50.1544 334.342 50.2492 334.306 50.3124L333.765 50.0551ZM337.069 51.978C336.428 52.0683 335.895 52.1676 335.471 52.2759C335.056 52.3843 334.703 52.5648 334.415 52.8176C334.126 53.0704 333.981 53.4179 333.981 53.8603C333.981 54.2936 334.139 54.6818 334.455 55.0249C334.771 55.3589 335.155 55.562 335.606 55.6343C335.751 55.6523 335.864 55.6613 335.945 55.6613C336.477 55.6613 337.006 55.5169 337.529 55.228C338.053 54.9301 338.445 54.5554 338.707 54.1041C338.906 53.7429 339.028 53.4044 339.073 53.0884C339.118 52.7725 339.141 52.3075 339.141 51.6936L337.069 51.978Z" fill="#3F4349"/>
<path d="M331.35 55.4312H332.027V57.0833H331.458V56H325.215V57.0833H324.647V55.4312C324.963 55.4312 325.27 55.2913 325.568 55.0115C325.865 54.7316 326.073 54.0861 326.19 53.075L326.705 48.6875H331.35V55.4312ZM330.781 49.2562H327.206L326.759 53.1427C326.624 54.208 326.344 54.9708 325.92 55.4312H330.781V49.2562Z" fill="#3F4349"/>
<path d="M323.428 48.6875V56H322.859V52.3031H318.174V56H317.605V48.6875H318.174V51.7344H322.859V48.6875H323.428Z" fill="#3F4349"/>
<path d="M315.346 49.649C315.843 50.317 316.1 51.2153 316.118 52.3438V52.5063H310.051C310.088 53.4271 310.3 54.1493 310.688 54.6729C310.923 54.9799 311.225 55.2191 311.595 55.3906C311.965 55.5531 312.363 55.6344 312.787 55.6344C313.202 55.6344 313.595 55.5531 313.965 55.3906C314.335 55.2191 314.638 54.9799 314.872 54.6729C314.99 54.5194 315.089 54.3524 315.17 54.1719L315.712 54.4021C315.613 54.6368 315.491 54.8444 315.346 55.025C315.057 55.4042 314.687 55.6976 314.236 55.9052C313.784 56.1038 313.301 56.2031 312.787 56.2031C312.272 56.2031 311.789 56.1038 311.338 55.9052C310.895 55.6976 310.525 55.4042 310.227 55.025C309.722 54.375 309.46 53.4813 309.442 52.3438C309.46 51.2153 309.722 50.317 310.227 49.649C310.534 49.2608 310.905 48.9719 311.338 48.7823C311.78 48.5837 312.263 48.4844 312.787 48.4844C313.31 48.4844 313.789 48.5837 314.222 48.7823C314.665 48.9719 315.039 49.2608 315.346 49.649ZM310.688 50.0146C310.318 50.5111 310.11 51.1521 310.065 51.9375H315.495C315.45 51.134 315.242 50.4931 314.872 50.0146C314.647 49.7076 314.349 49.4729 313.978 49.3104C313.617 49.1389 313.234 49.0531 312.827 49.0531C312.394 49.0531 311.988 49.1344 311.609 49.2969C311.23 49.4594 310.923 49.6986 310.688 50.0146Z" fill="#3F4349"/>
<path d="M307.583 49.6625C308.098 50.3306 308.355 51.2198 308.355 52.3302C308.355 53.4406 308.098 54.3344 307.583 55.0115C307.276 55.3997 306.902 55.6976 306.459 55.9052C306.026 56.1038 305.552 56.2031 305.038 56.2031C304.523 56.2031 304.049 56.0948 303.616 55.8781C303.191 55.6615 302.839 55.35 302.559 54.9438C302.505 54.8715 302.433 54.7542 302.343 54.5917V59.25H301.774V48.6875H302.302V50.1635C302.392 49.983 302.478 49.834 302.559 49.7167C302.848 49.3194 303.218 49.017 303.67 48.8094C304.13 48.5927 304.622 48.4844 305.146 48.4844C305.633 48.4844 306.089 48.5882 306.514 48.7958C306.938 49.0035 307.295 49.2924 307.583 49.6625ZM307.109 54.6458C307.534 54.1042 307.746 53.3323 307.746 52.3302C307.746 51.3281 307.534 50.5563 307.109 50.0146C306.875 49.7076 306.572 49.4729 306.202 49.3104C305.841 49.1389 305.453 49.0531 305.038 49.0531C304.613 49.0531 304.212 49.1344 303.832 49.2969C303.462 49.4594 303.164 49.6986 302.939 50.0146C302.514 50.5743 302.302 51.3462 302.302 52.3302C302.302 53.3233 302.514 54.0997 302.939 54.6594C303.173 54.9753 303.476 55.2191 303.846 55.3906C304.216 55.5531 304.613 55.6344 305.038 55.6344C305.453 55.6344 305.841 55.5486 306.202 55.3771C306.572 55.2056 306.875 54.9618 307.109 54.6458Z" fill="#3F4349"/>
<path d="M295.916 56.203C295.202 56.203 294.557 56.0766 293.979 55.8238C293.41 55.562 292.941 55.1738 292.571 54.6593C291.885 53.7565 291.542 52.5468 291.542 51.0301C291.542 49.6308 291.885 48.4843 292.571 47.5905C292.941 47.094 293.41 46.7148 293.979 46.453C294.548 46.1912 295.162 46.0603 295.821 46.0603C296.534 46.0603 297.189 46.1867 297.784 46.4395C298.389 46.6922 298.886 47.0759 299.274 47.5905C299.951 48.4662 300.29 49.6759 300.29 51.2197C300.29 52.619 299.951 53.7655 299.274 54.6593C298.904 55.1648 298.43 55.5485 297.852 55.8103C297.274 56.0721 296.629 56.203 295.916 56.203ZM295.861 55.6343C296.466 55.6343 297.026 55.5259 297.541 55.3093C298.055 55.0836 298.47 54.7495 298.786 54.3072C299.382 53.5398 299.68 52.4475 299.68 51.0301C299.68 49.7391 299.382 48.7145 298.786 47.9561C298.479 47.5318 298.073 47.2068 297.568 46.9811C297.071 46.7464 296.539 46.6291 295.97 46.6291C295.374 46.6291 294.814 46.7419 294.291 46.9676C293.767 47.1933 293.347 47.5228 293.031 47.9561C292.444 48.7145 292.151 49.8023 292.151 51.2197C292.151 52.5377 292.444 53.5669 293.031 54.3072C293.338 54.7315 293.744 55.061 294.25 55.2957C294.765 55.5214 295.302 55.6343 295.861 55.6343Z" fill="#3F4349"/>
<path fill-rule="evenodd" clip-rule="evenodd" d="M360 31.1043H0V30H360V31.1043Z" fill="url(#paint0_linear_1_402)"/>
<path fill-rule="evenodd" clip-rule="evenodd" d="M155 35L155 67L154 67L154 35L155 35Z" fill="url(#paint1_linear_1_402)"/>
<path fill-rule="evenodd" clip-rule="evenodd" d="M275 35L275 67L274 67L274 35L275 35Z" fill="url(#paint2_linear_1_402)"/>
<path fill-rule="evenodd" clip-rule="evenodd" d="M360 71.1043H0V70H360V71.1043Z" fill="url(#paint3_linear_1_402)"/>
<path d="M0 91C0 88.7909 1.79086 87 4 87H47C49.2091 87 51 88.7909 51 91C51 93.2091 49.2091 95 47 95H4C1.79086 95 0 93.2091 0 91Z" fill="#D5DCE2"/>
<path d="M95 91C95 88.7909 96.7909 87 99 87H169C171.209 87 173 88.7909 173 91C173 93.2091 171.209 95 169 95H99C96.7909 95 95 93.2091 95 91Z" fill="#D5DCE2"/>
<path d="M221 91C221 88.7909 222.791 87 225 87H248C250.209 87 252 88.7909 252 91C252 93.2091 250.209 95 248 95H225C222.791 95 221 93.2091 221 91Z" fill="#D5DCE2"/>
<path d="M278 91C278 88.7909 279.791 87 282 87H325C327.209 87 329 88.7909 329 91C329 93.2091 327.209 95 325 95H282C279.791 95 278 93.2091 278 91Z" fill="#D5DCE2"/>
<path fill-rule="evenodd" clip-rule="evenodd" d="M360 112.104H0V111H360V112.104Z" fill="url(#paint4_linear_1_402)"/>
</g>
<defs>
<linearGradient id="paint0_linear_1_402" x1="0" y1="31.6564" x2="360" y2="31.6564" gradientUnits="userSpaceOnUse">
<stop stop-color="#D4DBE2" stop-opacity="0"/>
<stop offset="0.535" stop-color="#D4DBE2"/>
<stop offset="1" stop-color="#D4DBE2" stop-opacity="0"/>
</linearGradient>
<linearGradient id="paint1_linear_1_402" x1="155.5" y1="67" x2="155.5" y2="35" gradientUnits="userSpaceOnUse">
<stop stop-color="#D4DBE2" stop-opacity="0"/>
<stop offset="0.535" stop-color="#D4DBE2"/>
<stop offset="1" stop-color="#D4DBE2" stop-opacity="0"/>
</linearGradient>
<linearGradient id="paint2_linear_1_402" x1="275.5" y1="67" x2="275.5" y2="35" gradientUnits="userSpaceOnUse">
<stop stop-color="#D4DBE2" stop-opacity="0"/>
<stop offset="0.535" stop-color="#D4DBE2"/>
<stop offset="1" stop-color="#D4DBE2" stop-opacity="0"/>
</linearGradient>
<linearGradient id="paint3_linear_1_402" x1="0" y1="71.6564" x2="360" y2="71.6564" gradientUnits="userSpaceOnUse">
<stop stop-color="#D4DBE2" stop-opacity="0"/>
<stop offset="0.535" stop-color="#D4DBE2"/>
<stop offset="1" stop-color="#D4DBE2" stop-opacity="0"/>
</linearGradient>
<linearGradient id="paint4_linear_1_402" x1="0" y1="112.656" x2="360" y2="112.656" gradientUnits="userSpaceOnUse">
<stop stop-color="#D4DBE2" stop-opacity="0"/>
<stop offset="0.535" stop-color="#D4DBE2"/>
<stop offset="1" stop-color="#D4DBE2" stop-opacity="0"/>
</linearGradient>
<clipPath id="clip0_1_402">
<rect width="360" height="112" fill="white"/>
</clipPath>
</defs>
</svg>
