<svg width="80" height="80" viewBox="0 0 80 80" fill="none" xmlns="http://www.w3.org/2000/svg">
<g opacity="0.1" clip-path="url(#clip0_1_499)">
<path d="M26.6667 13.3333H13.3333C9.79711 13.3333 6.40573 14.7381 3.90524 17.2386C1.40476 19.7391 0 23.1305 0 26.6667L0 40C0 41.7681 0.702379 43.4638 1.95262 44.7141C3.20286 45.9643 4.89856 46.6667 6.66667 46.6667H23.3333C23.328 51.0853 21.5704 55.3215 18.4459 58.4459C15.3215 61.5704 11.0853 63.3281 6.66667 63.3333C5.34058 63.3333 4.06881 63.8601 3.13113 64.7978C2.19345 65.7355 1.66667 67.0073 1.66667 68.3333C1.66667 69.6594 2.19345 70.9312 3.13113 71.8689C4.06881 72.8066 5.34058 73.3333 6.66667 73.3333C13.7367 73.3254 20.5148 70.5133 25.5141 65.5141C30.5133 60.5148 33.3254 53.7367 33.3333 46.6667V20C33.3333 18.2319 32.631 16.5362 31.3807 15.286C30.1305 14.0357 28.4348 13.3333 26.6667 13.3333ZM73.3333 13.3333H60C56.4638 13.3333 53.0724 14.7381 50.5719 17.2386C48.0714 19.7391 46.6667 23.1305 46.6667 26.6667V40C46.6667 41.7681 47.369 43.4638 48.6193 44.7141C49.8695 45.9643 51.5652 46.6667 53.3333 46.6667H70C69.9947 51.0853 68.2371 55.3215 65.1126 58.4459C61.9881 61.5704 57.752 63.3281 53.3333 63.3333C52.0072 63.3333 50.7355 63.8601 49.7978 64.7978C48.8601 65.7355 48.3333 67.0073 48.3333 68.3333C48.3333 69.6594 48.8601 70.9312 49.7978 71.8689C50.7355 72.8066 52.0072 73.3333 53.3333 73.3333C60.4033 73.3254 67.1815 70.5133 72.1807 65.5141C77.18 60.5148 79.9921 53.7367 80 46.6667V20C80 18.2319 79.2976 16.5362 78.0474 15.286C76.7971 14.0357 75.1014 13.3333 73.3333 13.3333Z" fill="white"/>
</g>
<defs>
<clipPath id="clip0_1_499">
<rect width="80" height="80" fill="white"/>
</clipPath>
</defs>
</svg>
