<svg width="424" height="170" viewBox="0 0 424 170" fill="none" xmlns="http://www.w3.org/2000/svg">
<path d="M405.752 18.016C405.229 18.1561 404.811 18.4974 404.498 19.0399C404.232 19.5696 404.082 20.2466 404.049 21.0708C404.002 21.8475 404.035 22.7304 404.147 23.7193C404.294 24.6479 404.501 25.6114 404.768 26.6096C405.061 27.7029 405.426 28.7771 405.861 29.8322C406.344 30.8746 406.867 31.779 407.429 32.5455C407.991 33.312 408.61 33.9104 409.286 34.3407C409.996 34.7107 410.755 34.7875 411.563 34.571C411.754 34.52 411.991 34.4563 412.277 34.3799C412.597 34.2432 412.845 34.1256 413.023 34.0271C413.179 34.8004 413.329 35.55 413.472 36.2758C413.651 36.9412 413.788 37.6433 413.884 38.3818C413.576 38.566 413.096 38.771 412.444 38.9969C411.778 39.1752 411.303 39.3026 411.018 39.379C409.497 39.7866 408.106 39.8279 406.848 39.5029C405.576 39.1303 404.413 38.4993 403.36 37.6098C402.306 36.7202 401.405 35.6372 400.655 34.3605C399.953 33.0712 399.398 31.6659 398.991 30.1448C398.557 28.5286 398.338 26.8551 398.333 25.1242C398.375 23.3807 398.652 21.7525 399.164 20.2398C399.723 18.7143 400.543 17.3994 401.623 16.2949C402.737 15.1301 404.15 14.3185 405.861 13.86C406.717 13.6307 407.611 13.5441 408.543 13.6C409.51 13.5957 410.44 13.9322 411.335 14.6095C412.277 15.2741 413.185 16.3809 414.059 17.93C414.933 19.4791 415.739 21.6322 416.478 24.3892C416.618 24.9121 416.751 25.4113 416.879 25.8866C416.993 26.3144 417.097 26.7962 417.19 27.3318C417.269 27.8199 417.368 28.3793 417.486 29.01C417.604 29.6407 417.737 30.4203 417.884 31.349L418.658 30.5302C418.247 28.8062 417.879 27.1471 417.554 25.553C417.216 23.9113 416.886 22.3948 416.564 21.0035C416.277 19.552 416.034 18.2668 415.836 17.1481C415.686 16.0165 415.593 15.0989 415.557 14.3952C415.54 13.3808 415.712 12.596 416.073 12.0408C416.468 11.4254 416.999 11.0285 417.664 10.8502C418.663 10.5827 419.545 10.5499 420.313 10.7519C421.128 10.9411 421.862 11.3048 422.516 11.8429C423.169 12.381 423.712 13.0762 424.144 13.9284C424.624 14.7679 425.004 15.7106 425.284 16.7563C425.577 17.8497 425.77 19.0461 425.864 20.3457C425.992 21.5851 426.002 22.8562 425.892 24.1592C425.83 25.4495 425.607 26.7067 425.222 27.9308C424.884 29.1422 424.383 30.219 423.718 31.1613C423.951 32.2198 424.169 33.1294 424.373 33.8899C424.564 34.603 424.806 35.5061 425.099 36.5994C425.634 38.5959 426.18 40.5385 426.737 42.4272C427.281 44.2683 427.787 45.9669 428.255 47.5228C428.758 49.0185 429.179 50.3066 429.52 51.3872C429.895 52.4075 430.157 53.1014 430.307 53.4689L430.383 53.7541L424.18 55.4163C424.129 55.2262 423.968 54.5306 423.697 53.3294C423.413 52.0808 423.071 50.5168 422.669 48.6374C422.255 46.7105 421.783 44.5697 421.254 42.215C420.772 39.8476 420.254 37.439 419.7 34.9892L418.855 35.8271C419.375 39.1011 419.729 42.0377 419.916 44.637C420.103 47.2362 419.944 49.495 419.439 51.4135C418.982 53.3192 418.137 54.9211 416.906 56.2191C415.709 57.4569 413.993 58.3751 411.759 58.9737C410.761 59.2412 409.712 59.3185 408.612 59.2057C407.546 59.0327 406.538 58.6915 405.586 58.1823C404.622 57.6255 403.768 56.9117 403.025 56.0408C402.27 55.1224 401.72 54.0215 401.376 52.738L397.555 38.4774C397.899 39.7608 398.492 41.3087 399.334 43.1209C400.211 44.8729 401.218 46.5392 402.355 48.1197C403.526 49.6399 404.777 50.8842 406.106 51.8526C407.483 52.8084 408.861 53.1015 410.24 52.7321C412.046 52.2481 413.308 51.3495 414.026 50.0362C414.744 48.723 415.105 47.1233 415.109 45.2371C415.113 43.3509 414.887 41.2716 414.431 38.9993C413.975 36.7269 413.476 34.3896 412.935 31.9873C412.833 31.607 412.712 31.1555 412.572 30.6326C412.466 30.0494 412.324 29.4251 412.146 28.7596C411.84 27.6187 411.462 26.3955 411.01 25.09C410.593 23.7242 410.113 22.5028 409.57 21.4256C409.014 20.3009 408.42 19.4156 407.788 18.7697C407.144 18.0762 406.465 17.825 405.752 18.016ZM422.386 26.4744C422.797 25.3454 422.984 24.047 422.947 22.5793C422.91 21.1116 422.714 19.7123 422.357 18.3813C422.268 18.0486 422.142 17.6747 421.98 17.2596C421.818 16.8445 421.632 16.4358 421.422 16.0334C421.213 15.6311 420.992 15.2827 420.76 14.9881C420.528 14.6936 420.281 14.5306 420.018 14.4992L422.386 26.4744Z" fill="#FF6BAB"/>
<path d="M383.981 60.8381C384.197 60.8822 384.4 60.8788 384.59 60.8278C384.732 60.7896 384.74 60.5328 384.613 60.0575L381.167 53.1858C381.596 51.7461 382.089 50.544 382.646 49.5797C383.19 48.5678 383.789 47.6683 384.445 46.8814C384.547 47.2617 384.753 47.8431 385.065 48.6258C385.364 49.3609 385.718 50.2084 386.128 51.1684C386.539 52.1285 386.968 53.1598 387.416 54.2625C387.899 55.3048 388.369 56.2996 388.827 57.2469C389.062 57.7444 389.267 58.2244 389.442 58.687C389.617 59.1496 389.762 59.5948 389.877 60.0226C390.361 61.829 390.24 63.1859 389.515 64.0934C388.838 64.9882 387.739 65.6394 386.218 66.0469C384.887 66.4036 383.604 66.4669 382.371 66.237C381.185 65.9943 380.091 65.5233 379.088 64.8239C378.12 64.0643 377.287 63.1412 376.589 62.0547C375.877 60.9207 375.33 59.6406 374.948 58.2146C374.413 56.2181 374.276 54.0896 374.536 51.829C374.784 49.5209 375.552 47.2518 376.839 45.0218L374.465 40.1554C374.144 39.5281 373.86 38.942 373.612 38.3971C373.351 37.8046 373.048 37.1471 372.701 36.4248C372.427 37.1099 372.106 37.9091 371.739 38.8225C371.407 39.6756 371.028 40.5415 370.601 41.4201C370.174 42.2987 369.711 43.1362 369.211 43.9325C368.711 44.7288 368.227 45.3934 367.758 45.9266L365.752 38.4398C367.18 36.7326 367.983 34.7852 368.161 32.5976C368.386 30.3974 368.212 28.2277 367.639 26.0886C367.563 25.8034 367.486 25.5182 367.41 25.2329C367.334 24.9477 367.24 24.6927 367.129 24.4677L373.047 22.882L380.946 40.1001C381.687 39.443 382.417 38.8398 383.136 38.2906C383.855 37.7413 384.522 37.2824 385.137 36.914L377.967 21.5637L383.956 19.9588L390.645 34.3682C391.57 34.0183 392.525 33.6859 393.511 33.3709C394.496 33.0559 395.322 32.8092 395.987 32.6309L397.821 39.476C397.428 39.5304 397.018 39.6149 396.59 39.7295C396.162 39.8441 395.782 39.946 395.449 40.0352C395.021 40.1498 394.671 40.2691 394.399 40.3931C394.114 40.4695 393.852 40.5396 393.615 40.6032L403.358 60.9956L397.298 62.6195L388.164 43.363C386.64 44.3316 385.438 45.2651 384.558 46.1632C383.713 47.0011 382.879 48.1671 382.056 49.6612C381.326 50.9269 380.81 52.2368 380.511 53.5907C380.246 54.8844 380.26 56.0779 380.553 57.1713C380.655 57.5515 380.762 57.8542 380.873 58.0791C381.133 58.6716 381.537 59.2259 382.083 59.7419C382.676 60.2452 383.309 60.6106 383.981 60.8381Z" fill="#FF6BAB"/>
<path d="M354.318 68.7863C354.534 68.8304 354.737 68.827 354.927 68.7761C355.069 68.7379 355.077 68.4811 354.95 68.0057L351.503 61.134C351.933 59.6943 352.426 58.4923 352.983 57.5279C353.527 56.516 354.126 55.6166 354.782 54.8296C354.884 55.2099 355.09 55.7914 355.402 56.574C355.701 57.3091 356.055 58.1567 356.465 59.1167C356.875 60.0767 357.305 61.1081 357.753 62.2107C358.236 63.2531 358.706 64.2479 359.164 65.1952C359.399 65.6926 359.604 66.1726 359.779 66.6352C359.954 67.0978 360.099 67.5431 360.213 67.9709C360.697 69.7772 360.577 71.1342 359.852 72.0417C359.175 72.9364 358.076 73.5876 356.554 73.9952C355.223 74.3518 353.941 74.4152 352.708 74.1852C351.522 73.9426 350.428 73.4715 349.425 72.7721C348.457 72.0125 347.624 71.0894 346.925 70.0029C346.214 68.8689 345.667 67.5889 345.285 66.1628C344.75 64.1663 344.613 62.0378 344.873 59.7773C345.121 57.4692 345.889 55.2001 347.176 52.97L344.802 48.1037C344.481 47.4764 344.197 46.8903 343.949 46.3453C343.688 45.7528 343.385 45.0954 343.038 44.373C342.763 45.0581 342.443 45.8573 342.076 46.7707C341.744 47.6239 341.365 48.4898 340.938 49.3684C340.511 50.247 340.048 51.0844 339.548 51.8807C339.048 52.677 338.564 53.3417 338.095 53.8748L336.089 46.388C337.517 44.6808 338.319 42.7334 338.497 40.5459C338.723 38.3456 338.549 36.1759 337.976 34.0368C337.9 33.7516 337.823 33.4664 337.747 33.1812C337.67 32.896 337.577 32.6409 337.465 32.416L343.384 30.8302L351.283 48.0483C352.024 47.3913 352.754 46.7881 353.473 46.2388C354.192 45.6895 354.859 45.2307 355.473 44.8622L348.303 29.5119L354.293 27.907L360.982 42.3164C361.907 41.9666 362.862 41.6342 363.848 41.3191C364.833 41.0041 365.659 40.7575 366.324 40.5792L368.158 47.4243C367.765 47.4786 367.355 47.5631 366.927 47.6777C366.499 47.7924 366.119 47.8943 365.786 47.9834C365.358 48.0981 365.008 48.2174 364.736 48.3413C364.451 48.4177 364.189 48.4878 363.951 48.5515L373.695 68.9438L367.634 70.5678L358.501 51.3112C356.977 52.2799 355.775 53.2133 354.895 54.1115C354.05 54.9494 353.216 56.1154 352.393 57.6095C351.662 58.8752 351.147 60.185 350.848 61.539C350.583 62.8327 350.597 64.0262 350.89 65.1195C350.992 65.4998 351.099 65.8024 351.21 66.0273C351.47 66.6198 351.874 67.1741 352.42 67.6902C353.013 68.1935 353.646 68.5589 354.318 68.7863Z" fill="#FF6BAB"/>
<path d="M323.878 82.6745C322.214 83.1203 320.712 83.2172 319.37 82.9653C318.016 82.6657 316.795 82.1013 315.707 81.2721C314.666 80.4301 313.765 79.347 313.002 78.0228C312.24 76.6987 311.642 75.2285 311.209 73.6123C310.725 71.8059 310.601 70.107 310.837 68.5153C311.06 66.8761 311.578 65.3872 312.391 64.0484C313.252 62.697 314.396 61.5496 315.825 60.6064C317.241 59.6157 318.923 58.8592 320.872 58.337C323.154 57.7256 325.658 57.5641 328.384 57.8525C328.367 56.8381 328.239 55.5987 328 54.1345C327.76 52.6702 327.437 51.1775 327.029 49.6564C326.8 48.8007 326.506 47.988 326.146 47.2181C325.835 46.4354 325.46 45.7971 325.022 45.3031C324.571 44.7616 324.057 44.3644 323.48 44.1114C322.95 43.8458 322.353 43.8021 321.687 43.9805C319.5 44.5664 317.604 46.4247 315.997 49.5554C314.39 52.6862 312.798 57.0105 311.22 62.5282L308.602 52.7597C309.347 50.2164 310.134 48.0186 310.962 46.1664C311.791 44.3141 312.719 42.7406 313.748 41.446C314.764 40.1038 315.904 39.0342 317.168 38.237C318.431 37.4398 319.848 36.831 321.416 36.4107C323.08 35.9649 324.567 35.9996 325.877 36.5147C327.187 37.0299 328.346 37.84 329.356 38.9452C330.365 40.0503 331.211 41.4029 331.895 43.003C332.613 44.5427 333.189 46.1207 333.622 47.7369C334.182 49.8285 334.618 51.9281 334.928 54.0358C335.285 56.1308 335.411 57.9312 335.305 59.4371C336.171 59.8165 337.026 60.2498 337.87 60.737C338.748 61.1639 339.587 61.7287 340.387 62.4315L342.737 71.2018C341.477 70.1128 339.95 69.0701 338.154 68.0737C336.346 67.0297 334.457 66.1602 332.488 65.4652C330.553 64.7098 328.628 64.1812 326.713 63.8791C324.846 63.5644 323.223 63.5917 321.844 63.961C320.608 64.2922 319.613 64.7626 318.86 65.3721C318.093 65.9341 317.507 66.6005 317.103 67.3713C316.745 68.1294 316.526 68.9269 316.445 69.7639C316.411 70.5882 316.502 71.4044 316.718 72.2125C317.062 73.4959 317.723 74.4398 318.7 75.0441C319.725 75.6357 320.879 75.7595 322.162 75.4156C324.634 74.7533 326.332 73.4832 327.255 71.6055C328.178 69.7277 328.564 67.4591 328.412 64.7996C329.455 65.0805 330.517 65.4327 331.599 65.8561C332.68 66.2796 333.829 66.7617 335.043 67.3023C335.122 69.1155 334.876 70.8625 334.308 72.5433C333.787 74.2114 332.995 75.7228 331.931 77.0777C330.915 78.4198 329.699 79.5863 328.283 80.5771C326.915 81.5551 325.447 82.2542 323.878 82.6745Z" fill="#FF6BAB"/>
<path d="M291.474 77.83C291.64 78.448 291.848 79.1309 292.1 79.8787C292.351 80.6265 292.691 81.3251 293.12 81.9745C293.536 82.5763 294.045 83.0512 294.648 83.3992C295.285 83.6869 296.056 83.7097 296.959 83.4677C297.862 83.2257 298.816 82.7919 299.82 82.1662C300.872 81.5277 301.773 80.8023 302.523 79.9899C303.321 79.1647 303.927 78.289 304.341 77.3629C304.79 76.3765 304.887 75.4079 304.632 74.4572C304.301 73.2213 303.668 72.4739 302.732 72.2151C301.797 71.9563 300.497 72.0497 298.834 72.4955C296.599 73.0942 294.635 74.13 292.941 75.6029C291.234 77.0283 289.798 78.6103 288.634 80.3489C287.457 82.0399 286.482 83.7275 285.711 85.4117C284.987 87.0832 284.43 88.4296 284.042 89.4508L281.711 80.7518C282.138 79.8732 282.501 79.1389 282.802 78.5489C283.102 77.9589 283.333 77.4895 283.494 77.1406C283.691 76.7314 283.858 76.4063 283.997 76.1652C284.124 75.8766 284.28 75.6053 284.467 75.3515L284.2 74.3533C283.779 72.7846 283.409 71.0241 283.09 69.0717C282.758 67.0718 282.551 65.0638 282.47 63.0478C282.423 60.9715 282.538 58.9282 282.814 56.9181C283.078 54.8604 283.596 52.9895 284.367 51.3053C285.126 49.5735 286.151 48.076 287.443 46.8128C288.782 45.5368 290.474 44.625 292.518 44.0773C294.657 43.5042 296.599 43.6207 298.343 44.427C300.123 45.173 301.299 46.6155 301.872 48.7546C302.292 50.3233 302.378 51.8797 302.13 53.4238C301.881 54.9679 301.423 56.4916 300.756 57.995C300.076 59.4509 299.276 60.8372 298.355 62.1539C297.434 63.4705 296.505 64.662 295.568 65.7282C295.065 66.3216 294.414 67.0309 293.616 67.8561C292.819 68.6813 292.049 69.4224 291.308 70.0795C292.404 69.2254 293.579 68.4775 294.834 67.8356C296.076 67.1462 297.386 66.6168 298.764 66.2475C300.143 65.8781 301.495 65.6942 302.82 65.6958C304.192 65.6846 305.449 65.9082 306.591 66.3665C307.72 66.7772 308.716 67.4529 309.58 68.3933C310.43 69.2863 311.06 70.4933 311.467 72.0144C311.964 73.8683 311.781 75.7515 310.918 77.6641C310.054 79.5767 308.855 81.3755 307.32 83.0607C305.832 84.733 304.155 86.1758 302.289 87.389C300.471 88.5895 298.825 89.3871 297.352 89.782C295.973 90.1513 294.708 90.1846 293.557 89.8816C292.393 89.5311 291.358 88.9935 290.45 88.2686C289.904 87.7526 289.327 87.1177 288.717 86.3639C288.095 85.5626 287.675 84.7579 287.459 83.9498C287.421 83.8072 287.419 83.7058 287.454 83.6455C287.602 83.2491 287.839 82.8034 288.165 82.3085C288.479 81.766 288.816 81.2172 289.176 80.662C289.585 80.0941 289.982 79.5801 290.368 79.12C290.789 78.5996 291.158 78.1696 291.474 77.83ZM293.361 49.5066C291.983 49.876 290.946 50.6634 290.25 51.8688C289.541 53.0268 289.08 54.3476 288.866 55.8315C288.652 57.3153 288.576 58.8386 288.638 60.4014C288.748 61.9514 288.902 63.2858 289.1 64.4046C289.936 63.722 290.768 62.8366 291.598 61.7482C292.427 60.6599 293.142 59.5258 293.743 58.3458C294.331 57.1183 294.764 55.8815 295.041 54.6353C295.366 53.3764 295.382 52.2003 295.089 51.107C294.924 50.489 294.654 50.0519 294.28 49.7956C293.953 49.5265 293.647 49.4302 293.361 49.5066Z" fill="#FF6BAB"/>
<path d="M268.629 97.2491C267.701 97.396 266.843 97.5238 266.057 97.6325C265.319 97.7285 264.585 97.7468 263.856 97.6875C263.161 97.5679 262.448 97.3769 261.715 97.1147C260.97 96.8049 260.186 96.3525 259.365 95.7576L258.078 89.53C259.188 90.2514 260.105 90.8209 260.828 91.2385C261.539 91.6085 262.153 91.9026 262.67 92.1207C263.221 92.2786 263.754 92.3651 264.268 92.3803C264.769 92.348 265.334 92.2729 265.965 92.1548C269.267 91.1682 271.472 88.845 272.58 85.1855C273.689 81.5259 273.605 76.1734 272.328 69.1279C272.299 70.919 272.212 72.8782 272.069 75.0055C271.913 77.0852 271.576 79.0606 271.058 80.9315C270.541 82.8025 269.787 84.4566 268.796 85.8938C267.793 87.2834 266.436 88.2075 264.724 88.6661C264.344 88.768 264.011 88.8571 263.726 88.9336C263.489 88.9972 263.191 89.0261 262.832 89.0202C260.458 89.096 258.652 88.5355 257.414 87.3387C256.164 86.0943 255.271 84.4739 254.736 82.4774C254.316 80.9088 254.062 79.2955 253.974 77.6377C253.934 75.9671 253.948 74.3076 254.016 72.6591C254.131 70.9979 254.24 69.3128 254.343 67.6041C254.493 65.8826 254.548 64.1865 254.508 62.516C254.125 63.179 253.722 64.0512 253.298 65.1327C252.922 66.2014 252.545 67.5507 252.167 69.1806C251.788 70.8105 251.452 72.7858 251.156 75.1066C250.861 77.4274 250.674 80.1523 250.595 83.2812L247.252 70.8032C247.08 69.7795 247.17 68.4052 247.523 66.6802C247.863 64.9078 248.389 63.162 249.1 61.443C249.811 59.724 250.668 58.1697 251.672 56.78C252.675 55.3903 253.771 54.5362 254.959 54.2178C256.29 53.8612 257.33 53.9392 258.079 54.4518C258.875 54.9518 259.439 55.8197 259.77 57.0556C260.254 58.8619 260.476 60.7383 260.438 62.6848C260.434 64.571 260.352 66.4525 260.192 68.3293C260.058 70.3013 259.989 72.2303 259.985 74.1165C259.968 75.9552 260.208 77.8014 260.705 79.6553C261.151 81.319 261.944 81.9981 263.085 81.6924C265.129 81.1447 266.353 78.2949 266.755 73.1431C267.158 67.9913 267.126 60.7399 266.658 51.3888L273.36 49.5929L276.322 60.6449C277.596 65.3984 278.428 69.8371 278.82 73.9608C279.259 78.0718 279.195 81.7317 278.629 84.9405C278.109 88.1365 277.014 90.7991 275.343 92.9282C273.719 95.0445 271.481 96.4848 268.629 97.2491Z" fill="#FF6BAB"/>
<path d="M235.665 100.579C235.881 100.624 236.084 100.62 236.274 100.569C236.416 100.531 236.424 100.274 236.297 99.7988L232.851 92.9271C233.28 91.4874 233.773 90.2854 234.33 89.321C234.874 88.3091 235.473 87.4097 236.129 86.6227C236.231 87.003 236.437 87.5845 236.749 88.3671C237.048 89.1022 237.402 89.9497 237.812 90.9098C238.222 91.8698 238.652 92.9011 239.1 94.0038C239.583 95.0462 240.053 96.041 240.511 96.9883C240.746 97.4857 240.951 97.9657 241.126 98.4283C241.301 98.8909 241.446 99.3362 241.56 99.764C242.044 101.57 241.924 102.927 241.199 103.835C240.522 104.73 239.423 105.381 237.902 105.788C236.571 106.145 235.288 106.208 234.055 105.978C232.869 105.736 231.775 105.265 230.772 104.565C229.804 103.806 228.971 102.883 228.272 101.796C227.561 100.662 227.014 99.382 226.632 97.9559C226.097 95.9594 225.96 93.8309 226.22 91.5703C226.468 89.2623 227.236 86.9932 228.523 84.7631L226.149 79.8967C225.828 79.2695 225.544 78.6833 225.296 78.1384C225.035 77.5459 224.732 76.8885 224.385 76.1661C224.11 76.8512 223.79 77.6504 223.423 78.5638C223.091 79.417 222.712 80.2829 222.285 81.1615C221.858 82.0401 221.395 82.8775 220.895 83.6738C220.395 84.4701 219.911 85.1348 219.442 85.6679L217.436 78.1811C218.864 76.4739 219.666 74.5265 219.845 72.339C220.07 70.1387 219.896 67.969 219.323 65.8299C219.247 65.5447 219.17 65.2595 219.094 64.9743C219.018 64.6891 218.924 64.434 218.812 64.2091L224.731 62.6233L232.63 79.8414C233.371 79.1844 234.101 78.5812 234.82 78.0319C235.539 77.4826 236.206 77.0237 236.821 76.6553L229.651 61.305L235.64 59.7001L242.329 74.1095C243.254 73.7597 244.209 73.4273 245.195 73.1122C246.18 72.7972 247.006 72.5506 247.671 72.3722L249.505 79.2173C249.112 79.2717 248.702 79.3562 248.274 79.4708C247.846 79.5855 247.466 79.6874 247.133 79.7765C246.705 79.8912 246.355 80.0105 246.083 80.1344C245.798 80.2108 245.536 80.2809 245.298 80.3446L255.042 100.737L248.981 102.361L239.848 83.1043C238.324 84.073 237.122 85.0064 236.242 85.9046C235.397 86.7425 234.563 87.9085 233.74 89.4025C233.009 90.6683 232.494 91.9781 232.195 93.3321C231.93 94.6258 231.944 95.8193 232.237 96.9126C232.339 97.2929 232.446 97.5955 232.557 97.8204C232.817 98.4129 233.221 98.9672 233.767 99.4833C234.36 99.9866 234.993 100.352 235.665 100.579Z" fill="#FF6BAB"/>
<path d="M209.306 72.0292L219.546 110.248L213.272 111.929L203.031 73.7105L209.306 72.0292ZM202.4 58.5188C203.35 58.2641 204.271 58.3739 205.163 58.8484C206.089 59.2626 206.737 60.1589 207.106 61.5374C207.463 62.8684 207.35 63.9686 206.767 64.8378C206.233 65.6944 205.49 66.25 204.539 66.5048C203.494 66.785 202.525 66.6879 201.634 66.2135C200.742 65.739 200.118 64.8363 199.762 63.5053C199.392 62.1268 199.481 61.033 200.029 60.224C200.564 59.3674 201.354 58.7991 202.4 58.5188Z" fill="#FF6BAB"/>
<path d="M201.363 115.12L191.772 79.326L199.01 115.751L190.811 117.948L177.307 82.6671C178.315 85.8613 179.154 88.5152 179.822 90.6288C180.538 92.7297 181.136 94.5819 181.617 96.1853C182.145 97.7761 182.605 99.2068 182.996 100.478C183.387 101.748 183.787 103.144 184.195 104.665C184.615 106.234 184.959 107.899 185.228 109.662C185.531 111.364 185.677 112.955 185.666 114.435C185.655 115.916 185.462 117.19 185.086 118.259C184.757 119.315 184.142 119.964 183.238 120.206C182.43 120.423 181.6 120.365 180.747 120.033C179.928 119.641 179.149 119.111 178.41 118.443C177.718 117.762 177.108 117.008 176.581 116.182C176.041 115.307 175.676 114.514 175.485 113.801L170.938 96.8305C171.783 98.8457 172.707 100.865 173.708 102.89C174.709 104.914 175.659 106.749 176.558 108.393C177.457 110.037 178.273 111.372 179.007 112.398C179.727 113.377 180.254 113.822 180.587 113.733C180.967 113.631 181.033 112.925 180.784 111.617C180.522 110.26 180.105 108.512 179.532 106.373C179.086 104.709 178.524 102.898 177.847 100.94C177.157 98.9343 176.419 96.9413 175.633 94.9609C174.883 92.9203 174.097 90.94 173.277 89.0199C172.505 87.0871 171.759 85.3508 171.041 83.811C170.323 82.2713 169.668 80.9692 169.077 79.9047C168.486 78.8403 168.051 78.1672 167.772 77.8854L179.965 74.6183L191.175 104.476C190.04 99.4816 188.837 94.327 187.566 89.0123C186.33 83.6374 185.127 78.4828 183.958 73.5484L195.651 70.4151L207.21 113.553L201.363 115.12Z" fill="#FF6BAB"/>
<path d="M147.956 129.43L144.08 92.7158C145.02 91.8524 146.005 91.1554 147.035 90.6248C148.052 90.0466 149.04 89.5525 150 89.1424C149.994 89.5006 150.058 90.1203 150.193 91.0014C150.327 91.8825 150.469 92.8889 150.619 94.0204C150.817 95.1392 151.017 96.3594 151.218 97.6811C151.407 98.9552 151.576 100.158 151.727 101.29C151.924 102.408 152.084 103.385 152.206 104.218C152.327 105.052 152.402 105.617 152.431 105.915C152.447 106.166 152.481 106.386 152.532 106.576C152.583 106.766 152.634 106.956 152.685 107.147C153.092 108.668 153.795 109.677 154.795 110.173C155.841 110.657 156.983 110.733 158.219 110.402C159.169 110.147 160.048 109.53 160.855 108.549C161.697 107.508 162.381 106.255 162.905 104.79C163.43 103.325 163.76 101.708 163.898 99.9388C164.035 98.1698 163.862 96.3821 163.378 94.5757C163.047 93.3398 162.538 92.2024 161.852 91.1634C161.214 90.1117 160.4 89.2599 159.41 88.6081C158.467 87.9435 157.308 87.5154 155.932 87.3236C154.604 87.1192 153.084 87.2462 151.373 87.7047C150.612 87.9085 149.682 88.336 148.583 88.9872C147.471 89.5908 146.337 90.3023 145.181 91.1215C144.025 91.9408 142.875 92.7838 141.732 93.6506C140.636 94.5047 139.7 95.2904 138.924 96.0077L137.205 89.5904C139.415 87.5717 141.775 85.9204 144.284 84.6367C146.793 83.353 149.569 82.3036 152.611 81.4884C154.988 80.8515 157.127 80.6604 159.03 80.9149C160.919 81.1218 162.57 81.673 163.982 82.5685C165.393 83.4639 166.577 84.6496 167.533 86.1257C168.476 87.5543 169.19 89.1718 169.674 90.9781C170.4 93.6876 170.692 96.488 170.55 99.3793C170.394 102.223 169.89 104.905 169.038 107.427C168.172 109.9 166.99 112.051 165.493 113.879C164.031 115.646 162.349 116.785 160.447 117.294C159.402 117.574 158.275 117.647 157.067 117.512C155.894 117.317 154.657 116.884 153.356 116.214C153.507 117.345 153.593 118.239 153.616 118.895C153.674 119.491 153.73 119.986 153.785 120.379C153.839 120.772 153.863 121.147 153.857 121.506C153.886 121.803 153.934 122.173 154.001 122.613C154.068 123.054 154.156 123.667 154.265 124.453C154.361 125.192 154.527 126.192 154.763 127.453L147.956 129.43Z" fill="#FF6BAB"/>
<path d="M111.955 114.01C112.437 114.289 112.92 114.567 113.402 114.846C113.919 115.064 114.333 115.182 114.643 115.201C114.082 112.345 113.879 109.496 114.034 106.652C114.176 103.761 114.693 101.126 115.584 98.7471C116.462 96.3209 117.717 94.2526 119.347 92.542C120.965 90.7838 122.986 89.58 125.411 88.9304C127.74 88.3062 129.826 88.486 131.669 89.4697C133.559 90.4406 134.874 92.3046 135.613 95.0617C136.352 97.8187 136.596 100.632 136.346 103.501C136.083 106.323 135.363 108.961 134.187 111.416C133.01 113.871 131.417 116.005 129.406 117.817C127.395 119.63 125.011 120.905 122.254 121.644C121.209 121.924 119.934 122.113 118.432 122.21C116.964 122.247 115.493 122.08 114.019 121.711L111.955 114.01ZM122.654 121.996C123.518 123.7 124.568 125.049 125.802 126.043C127.084 127.024 128.343 127.349 129.579 127.018C131.718 126.445 133.501 125.305 134.929 123.598C136.404 121.878 137.583 119.906 138.464 117.683C139.346 115.46 139.982 113.175 140.372 110.829C140.798 108.422 141.066 106.287 141.178 104.423L143.872 114.476C144.207 116.679 144.101 118.847 143.551 120.982C143.002 123.116 142.152 125.076 141 126.862C139.896 128.635 138.549 130.168 136.959 131.46C135.357 132.705 133.7 133.556 131.988 134.015C130.705 134.359 129.291 134.406 127.747 134.158C126.251 133.896 124.773 133.324 123.313 132.442C121.889 131.499 120.578 130.22 119.381 128.604C118.184 126.989 117.267 124.993 116.63 122.616C117.778 122.716 118.775 122.729 119.621 122.655C120.502 122.521 121.513 122.301 122.654 121.996ZM125.695 96.2671C124.285 96.8996 123.161 97.8377 122.322 99.0814C121.519 100.265 120.951 101.665 120.62 103.282C120.289 104.899 120.176 106.662 120.28 108.57C120.383 110.478 120.619 112.402 120.985 114.342C123.099 113.674 124.808 112.732 126.113 111.516C127.405 110.253 128.367 108.9 128.999 107.457C129.679 106.001 130.054 104.55 130.126 103.104C130.232 101.598 130.119 100.228 129.788 98.9916C129.113 96.4722 127.748 95.564 125.695 96.2671Z" fill="#FF6BAB"/>
<path d="M99.8212 115.503C100.068 117.373 100.314 119.244 100.56 121.114C100.841 122.923 101.154 124.852 101.499 126.899C101.831 128.899 102.208 131.066 102.629 133.398C103.05 135.731 103.542 138.325 104.103 141.18L97.8996 142.843C97.3348 139.784 96.7649 136.421 96.1899 132.754C95.6022 129.04 95.0336 125.397 94.484 121.825C94.2411 120.157 94.0109 118.538 93.7935 116.966C93.5633 115.346 93.3157 113.757 93.0508 112.197C93.038 112.15 93.0253 112.102 93.0125 112.055C93.0473 111.994 93.052 111.917 93.0265 111.822C92.9722 111.429 92.8987 110.964 92.8061 110.429C92.7008 109.846 92.5717 109.269 92.4189 108.698C92.2661 108.128 92.0546 107.624 91.7847 107.187C91.502 106.702 91.1705 106.511 90.7902 106.613C90.3148 106.74 89.9808 107.11 89.7882 107.722C89.6431 108.321 89.6381 109.443 89.7732 111.089C89.8956 112.686 90.1725 114.955 90.604 117.897C91.0227 120.791 91.6121 124.607 92.3723 129.345C92.4521 129.833 92.532 130.321 92.6118 130.809C92.6789 131.25 92.7587 131.738 92.8513 132.273L94.6196 143.721L88.4163 145.384L80.9216 101.156L87.4102 99.4177L87.7313 101.471C87.9587 100.799 88.2528 100.185 88.6135 99.6302C88.9615 99.0275 89.5395 98.6178 90.3476 98.4013C91.536 98.0829 92.5127 98.3052 93.2776 99.0683C94.0297 99.7838 94.7093 100.799 95.3164 102.114C95.486 100.846 95.8887 99.5914 96.5244 98.3511C97.1601 97.1109 98.1672 96.3061 99.5457 95.9367C101.257 95.4781 102.793 95.9835 104.155 97.4528C105.564 98.9093 106.645 101.04 107.396 103.844C107.906 105.746 108.304 107.804 108.592 110.02C108.868 112.188 109.114 114.44 109.333 116.776C109.64 119.445 110.006 122.047 110.431 124.582C110.856 127.118 111.393 129.598 112.042 132.022C112.266 131.147 112.384 129.969 112.395 128.489C112.441 126.948 112.443 125.342 112.403 123.672C112.411 121.989 112.371 120.318 112.283 118.66C112.196 117.002 112.118 115.571 112.05 114.367L115.986 129.055C116.406 130.624 116.579 132.029 116.504 133.272C116.464 134.455 116.248 135.455 115.856 136.273C115.464 137.092 114.956 137.763 114.332 138.287C113.743 138.75 113.092 139.077 112.379 139.268C111.191 139.587 110.005 139.344 108.822 138.54C107.625 137.689 106.722 136.123 106.11 133.841C105.066 129.943 104.296 126.023 103.8 122.08C103.291 118.089 102.72 113.963 102.087 109.7C102.046 109.354 101.959 108.842 101.829 108.164C101.698 107.486 101.556 106.861 101.403 106.291C101.25 105.721 101.063 105.21 100.84 104.761C100.653 104.25 100.369 104.046 99.9883 104.148C99.2752 104.339 98.9099 104.972 98.8921 106.047C98.8744 107.121 98.9314 108.38 99.0631 109.822C99.0792 110.072 99.1145 110.394 99.1688 110.787C99.2707 111.167 99.306 111.489 99.2746 111.752L99.8212 115.503Z" fill="#FF6BAB"/>
<path d="M68.3369 119.508C68.8632 119.57 69.4434 119.644 70.0775 119.729C70.7116 119.814 71.2443 119.9 71.6755 119.989C72.4641 119.319 73.5251 118.525 74.8586 117.607C76.2269 116.629 78.0676 115.703 80.3807 114.829L81.7372 119.891C81.0241 120.082 80.2542 120.441 79.4275 120.969C78.6355 121.435 77.9212 121.907 77.2846 122.383C78.1921 123.108 78.9095 123.884 79.4367 124.711C79.9639 125.537 80.3485 126.402 80.5905 127.306C81.393 130.3 81.4709 133.158 80.8243 135.879C80.1777 138.599 79.079 141.059 77.5284 143.258C76.0125 145.396 74.2109 147.229 72.1237 148.756C70.0712 150.223 68.0468 151.224 66.0503 151.759C63.9112 152.332 62.0726 152.316 60.5344 151.709C59.031 151.042 57.8119 149.534 56.8771 147.186C56.4822 145.713 56.3836 144.109 56.5812 142.375C56.8137 140.58 57.2554 138.806 57.9063 137.052C58.592 135.238 59.4522 133.505 60.4868 131.852C61.5087 130.151 62.6592 128.646 63.9383 127.335C65.0876 126.11 66.2356 125.166 67.3824 124.502C68.2448 124.678 69.0661 124.891 69.8463 125.141C70.6264 125.39 71.3798 125.825 72.1065 126.446C71.4257 127.137 70.4777 128.258 69.2622 129.806C68.0943 131.342 66.9646 133.02 65.8731 134.841C64.7816 136.662 63.8994 138.503 63.2264 140.365C62.601 142.214 62.4602 143.78 62.8041 145.063C63.1607 146.394 64.0758 146.862 65.5494 146.468C66.5477 146.2 67.6707 145.543 68.9184 144.495C70.1534 143.4 71.2534 142.086 72.2185 140.554C73.2183 138.961 73.9533 137.236 74.4234 135.378C74.9283 133.459 74.926 131.549 74.4165 129.648C74.1745 128.745 73.7424 127.892 73.1201 127.091C72.5453 126.277 71.8123 125.633 70.9209 125.158C70.0296 124.684 68.9799 124.379 67.772 124.244C66.564 124.11 65.2233 124.24 63.7497 124.634C63.4169 124.724 63.1079 124.806 62.8227 124.883C62.5375 124.959 62.2587 125.059 61.9862 125.183L61.3445 125.355C61.0592 125.432 60.7295 125.342 60.3551 125.085C59.9807 124.829 59.611 124.495 59.246 124.083C58.8682 123.624 58.484 123.141 58.0935 122.635C57.7505 122.115 57.444 121.637 57.1741 121.2C58.1689 120.729 59.0669 120.183 59.8682 119.561C60.7043 118.878 61.4152 118.204 62.0008 117.537C62.5865 116.871 63.0058 116.249 63.2587 115.672C63.5464 115.034 63.6266 114.478 63.4992 114.002C63.168 112.766 62.123 112.384 60.3642 112.855C58.6054 113.327 57.0432 115.197 55.6777 118.467C54.3597 121.724 53.5154 126.179 53.145 131.832L50.2409 120.994C50.0965 119.504 50.25 117.986 50.7015 116.438C51.1529 114.891 51.7916 113.471 52.6174 112.18C53.478 110.828 54.4673 109.672 55.5852 108.71C56.7378 107.688 57.9321 107.011 59.1681 106.68C60.1663 106.413 61.2202 106.258 62.3296 106.215C63.4264 106.125 64.4853 106.274 65.5065 106.663C66.515 107.004 67.4336 107.675 68.2621 108.676C69.078 109.629 69.7279 111.009 70.2119 112.815C70.5049 113.908 70.4761 115.037 70.1256 116.201C69.8099 117.304 69.2137 118.407 68.3369 119.508Z" fill="#FF6BAB"/>
<path d="M34.3533 113.329C36.6826 112.705 38.8192 112.693 40.7631 113.293C42.7419 113.833 44.4834 114.818 45.9877 116.249C47.5396 117.667 48.8525 119.43 49.9265 121.537C51.0353 123.583 51.9017 125.771 52.5259 128.1C53.2519 130.81 53.6834 133.751 53.8203 136.924C53.992 140.037 53.7024 143.044 52.9514 145.946C52.2352 148.787 51.0003 151.308 49.2468 153.511C47.5407 155.7 45.1666 157.202 42.1243 158.017C39.7951 158.642 37.6648 158.677 35.7336 158.125C33.7897 157.525 32.0418 156.516 30.4899 155.097C28.9856 153.666 27.6791 151.928 26.5703 149.881C25.509 147.822 24.6727 145.651 24.0613 143.37C23.3353 140.66 22.88 137.725 22.6956 134.565C22.5586 131.392 22.8483 128.385 23.5645 125.543C24.2679 122.655 25.4727 120.116 27.1787 117.926C28.9195 115.677 31.3111 114.144 34.3533 113.329ZM44.9845 132.184C44.5514 130.568 43.9931 128.96 43.3097 127.36C42.6737 125.747 41.9096 124.322 41.0174 123.083C40.1251 121.845 39.0826 120.901 37.8899 120.253C36.732 119.544 35.4273 119.333 33.9757 119.62C32.6133 120.24 31.6479 121.391 31.0793 123.071C30.5455 124.692 30.2417 126.506 30.168 128.512C30.1292 130.459 30.252 132.438 30.5365 134.451C30.8559 136.403 31.1875 138.021 31.5314 139.305C31.9517 140.873 32.5036 142.458 33.1871 144.058C33.8706 145.658 34.6584 147.077 35.5507 148.315C36.4905 149.541 37.5394 150.508 38.6973 151.217C39.8425 151.878 41.117 152.072 42.521 151.797C43.8231 151.143 44.7411 150.005 45.2749 148.385C45.8435 146.704 46.1472 144.89 46.1861 142.944C46.2598 140.937 46.1671 138.975 45.908 137.057C45.6362 135.092 45.3284 133.468 44.9845 132.184Z" fill="#FF6BAB"/>
<path d="M-0.359907 169.171L-4.23643 132.457C-3.29596 131.594 -2.31092 130.897 -1.28129 130.366C-0.264395 129.788 0.724067 129.294 1.6841 128.884C1.67819 129.242 1.74233 129.862 1.87653 130.743C2.01072 131.624 2.153 132.63 2.30334 133.762C2.50122 134.88 2.70081 136.101 2.90211 137.422C3.09066 138.696 3.26012 139.899 3.41046 141.031C3.60835 142.15 3.76801 143.126 3.88947 143.959C4.01093 144.793 4.08611 145.359 4.11499 145.657C4.13114 145.907 4.16469 146.127 4.21564 146.317C4.26659 146.508 4.31754 146.698 4.36849 146.888C4.77607 148.409 5.47945 149.418 6.4786 149.914C7.5253 150.398 8.6666 150.474 9.90252 150.143C10.8532 149.888 11.7322 149.271 12.5394 148.29C13.3814 147.25 14.0646 145.997 14.5891 144.531C15.1135 143.066 15.4445 141.449 15.5818 139.68C15.7192 137.911 15.5459 136.123 15.0618 134.317C14.7307 133.081 14.2221 131.944 13.5361 130.905C12.8977 129.853 12.0836 129.001 11.0937 128.349C10.1514 127.685 8.99227 127.257 7.61625 127.065C6.28775 126.86 4.76787 126.987 3.05659 127.446C2.29603 127.65 1.36613 128.077 0.266905 128.728C-0.845059 129.332 -1.97908 130.043 -3.13517 130.863C-4.29125 131.682 -5.44097 132.525 -6.58432 133.392C-7.68013 134.246 -8.61594 135.032 -9.39174 135.749L-11.1112 129.332C-8.90097 127.313 -6.54127 125.662 -4.03213 124.378C-1.52299 123.094 1.25271 122.045 4.29498 121.23C6.67175 120.593 8.8113 120.402 10.7136 120.656C12.6032 120.863 14.2539 121.414 15.6656 122.31C17.0774 123.205 18.2612 124.391 19.2172 125.867C20.1604 127.296 20.874 128.913 21.358 130.719C22.084 133.429 22.3758 136.229 22.2335 139.12C22.0784 141.964 21.5744 144.647 20.7215 147.168C19.8559 149.642 18.6744 151.792 17.1772 153.62C15.7147 155.387 14.0328 156.526 12.1314 157.035C11.0856 157.316 9.95875 157.388 8.7508 157.253C7.57765 157.058 6.34081 156.625 5.04029 155.955C5.19064 157.086 5.2773 157.98 5.30028 158.636C5.35805 159.232 5.41412 159.727 5.46848 160.12C5.52284 160.513 5.54706 160.889 5.54115 161.247C5.57004 161.545 5.61803 161.914 5.68513 162.355C5.75223 162.795 5.84014 163.408 5.94886 164.194C6.04485 164.933 6.21089 165.933 6.44698 167.194L-0.359907 169.171Z" fill="#FF6BAB"/>
<path d="M194.212 44.6056C190.781 31.8024 198.379 18.6423 211.182 15.2117C223.985 11.7811 237.145 19.3791 240.576 32.1822C244.007 44.9854 236.409 58.1455 223.606 61.5761L200.423 67.7878L194.212 44.6056Z" fill="#FF6BAB"/>
<g clip-path="url(#clip0_121_572)">
<path d="M219.196 30.9519C218.474 31.1575 217.819 31.5499 217.297 32.0897C216.775 32.6294 216.405 33.2973 216.224 34.0259C215.702 33.4855 215.048 33.0922 214.326 32.8857C213.604 32.6792 212.841 32.6669 212.112 32.8499C210.97 33.2099 210.016 34.0073 209.46 35.0681C208.904 36.1289 208.79 37.3668 209.143 38.5113C209.928 41.4393 213.867 43.8114 217.032 45.287C217.739 45.6173 218.54 45.6877 219.294 45.4857C220.048 45.2837 220.706 44.8223 221.154 44.1827C223.157 41.3219 225.383 37.2982 224.598 34.3702C224.332 33.2023 223.614 32.1872 222.602 31.5467C221.59 30.9062 220.365 30.6924 219.196 30.9519Z" fill="white"/>
</g>
<defs>
<clipPath id="clip0_121_572">
<rect width="16" height="16" fill="white" transform="translate(207.596 32.7371) rotate(-15)"/>
</clipPath>
</defs>
</svg>
