<svg width="360" height="152" viewBox="0 0 360 152" fill="none" xmlns="http://www.w3.org/2000/svg">
<g clip-path="url(#clip0_126_773)">
<path d="M0 92C0 89.7909 1.79086 88 4 88H47C49.2091 88 51 89.7909 51 92C51 94.2091 49.2091 96 47 96H4C1.79086 96 0 94.2091 0 92Z" fill="#D5DCE2"/>
<path d="M0 132C0 129.791 1.79086 128 4 128H38C40.2091 128 42 129.791 42 132C42 134.209 40.2091 136 38 136H4C1.79086 136 0 134.209 0 132Z" fill="#D5DCE2"/>
<path d="M126 92C126 89.7909 127.791 88 130 88H153C155.209 88 157 89.7909 157 92C157 94.2091 155.209 96 153 96H130C127.791 96 126 94.2091 126 92Z" fill="#D5DCE2"/>
<path d="M126 132C126 129.791 127.791 128 130 128H157C159.209 128 161 129.791 161 132C161 134.209 159.209 136 157 136H130C127.791 136 126 134.209 126 132Z" fill="#D5DCE2"/>
<path d="M299 92C299 89.7909 300.791 88 303 88H346C348.209 88 350 89.7909 350 92C350 94.2091 348.209 96 346 96H303C300.791 96 299 94.2091 299 92Z" fill="#D5DCE2"/>
<path d="M299 132C299 129.791 300.791 128 303 128H337C339.209 128 341 129.791 341 132C341 134.209 339.209 136 337 136H303C300.791 136 299 134.209 299 132Z" fill="#D5DCE2"/>
<path d="M92.3026 57V54.0344H89.1474L87.712 57H87.0349L88.5245 53.9396C88.1724 53.8042 87.879 53.6146 87.6443 53.3708C87.4547 53.1632 87.3058 52.9285 87.1974 52.6667C87.0891 52.4049 87.0349 52.1385 87.0349 51.8677C87.0349 51.5878 87.0891 51.317 87.1974 51.0552C87.3058 50.7934 87.4547 50.5632 87.6443 50.3646C87.8429 50.1569 88.0686 49.9944 88.3214 49.8771C88.5832 49.7507 88.845 49.6875 89.1068 49.6875H92.8714L92.8849 57H92.3026ZM92.3026 53.4656V50.2562H89.1339C88.9353 50.2562 88.7457 50.3059 88.5651 50.4052C88.3846 50.4955 88.2221 50.6174 88.0776 50.7708C87.7887 51.0778 87.6443 51.4434 87.6443 51.8677C87.6443 52.292 87.7887 52.6576 88.0776 52.9646C88.2221 53.1181 88.3846 53.2399 88.5651 53.3302C88.7457 53.4205 88.9353 53.4656 89.1339 53.4656H92.3026Z" fill="#3F4349"/>
<path d="M85.5453 49.6875V57H84.9766V53.3031H80.2912V57H79.7224V49.6875H80.2912V52.7344H84.9766V49.6875H85.5453Z" fill="#3F4349"/>
<path d="M77.8266 49.6875V57H77.2578V53.3031H72.5724V57H72.0037V49.6875H72.5724V52.7344H77.2578V49.6875H77.8266Z" fill="#3F4349"/>
<path d="M64.2959 51.0553C64.3772 50.9109 64.4629 50.78 64.5532 50.6626C64.8601 50.2744 65.2303 49.9855 65.6636 49.796C66.106 49.5974 66.589 49.498 67.1126 49.498C67.8077 49.498 68.4126 49.6425 68.9272 49.9314C69.4417 50.2203 69.8119 50.6581 70.0376 51.2449C70.173 51.6331 70.2407 52.0258 70.2407 52.423V57.0001H69.7126V55.4022C69.532 55.7092 69.3063 55.98 69.0355 56.2147C68.7647 56.4494 68.4713 56.639 68.1553 56.7835C67.5685 57.0543 67.0133 57.1897 66.4897 57.1897C66.0383 57.1897 65.6049 57.0949 65.1897 56.9053C64.7834 56.7067 64.472 56.4314 64.2553 56.0793C64.0296 55.7001 63.9167 55.2984 63.9167 54.8741C63.9167 54.0977 64.2508 53.5064 64.9188 53.1001C65.2348 52.9196 65.5779 52.7887 65.948 52.7074C66.3181 52.6171 66.8553 52.5178 67.5595 52.4095L67.8709 52.3689L69.6178 52.1251C69.5546 51.4932 69.3334 51.0102 68.9543 50.6762C68.7286 50.4685 68.4532 50.3151 68.1282 50.2158C67.8122 50.1164 67.4737 50.0668 67.1126 50.0668C66.6883 50.0668 66.291 50.1526 65.9209 50.3241C65.5508 50.4866 65.2529 50.7213 65.0272 51.0283C64.9369 51.1546 64.8737 51.2494 64.8376 51.3126L64.2959 51.0553ZM67.6001 52.9783C66.9591 53.0685 66.4265 53.1678 66.0022 53.2762C65.5869 53.3845 65.2348 53.5651 64.9459 53.8178C64.657 54.0706 64.5126 54.4182 64.5126 54.8605C64.5126 55.2939 64.6706 55.6821 64.9865 56.0251C65.3025 56.3592 65.6862 56.5623 66.1376 56.6345C66.282 56.6526 66.3949 56.6616 66.4761 56.6616C67.0088 56.6616 67.5369 56.5171 68.0605 56.2283C68.5841 55.9303 68.9768 55.5557 69.2386 55.1043C69.4372 54.7432 69.5591 54.4046 69.6042 54.0887C69.6494 53.7727 69.672 53.3078 69.672 52.6939L67.6001 52.9783Z" fill="#3F4349"/>
<path d="M60.4772 49.6875C61.082 49.6875 61.5695 49.8997 61.9397 50.324C62.1112 50.4955 62.2421 50.6986 62.3324 50.9333C62.4226 51.1681 62.4678 51.4073 62.4678 51.651C62.4678 51.9038 62.4226 52.1476 62.3324 52.3823C62.2421 52.617 62.1112 52.8201 61.9397 52.9917C61.8584 53.0819 61.7636 53.1632 61.6553 53.2354C61.9081 53.3618 62.0841 53.4747 62.1834 53.574C62.382 53.7455 62.54 53.9622 62.6574 54.224C62.7747 54.4858 62.8334 54.7521 62.8334 55.0229C62.8334 55.3028 62.7747 55.5736 62.6574 55.8354C62.549 56.0882 62.3911 56.3049 62.1834 56.4854C61.8133 56.8285 61.3167 57 60.6938 57H57.0105V49.6875H60.4772ZM57.5792 53.0594H60.4772C60.8834 53.0594 61.2265 52.9059 61.5063 52.599C61.6237 52.4726 61.7095 52.3281 61.7636 52.1656C61.8268 51.9941 61.8584 51.8226 61.8584 51.651C61.8584 51.317 61.7411 51.0101 61.5063 50.7302C61.2355 50.4142 60.8924 50.2562 60.4772 50.2562H57.5792V53.0594ZM57.5792 56.4312H60.6938C60.9286 56.4312 61.1317 56.4042 61.3032 56.35C61.4747 56.2868 61.6372 56.1875 61.7907 56.0521C61.9352 55.9167 62.0435 55.7587 62.1157 55.5781C62.1879 55.3885 62.224 55.1899 62.224 54.9823C62.224 54.8017 62.1834 54.6257 62.1022 54.4542C62.0299 54.2826 61.9261 54.1337 61.7907 54.0073C61.6011 53.8358 61.4161 53.7319 61.2355 53.6958C61.0549 53.6507 60.8022 53.6281 60.4772 53.6281H57.5792V56.4312Z" fill="#3F4349"/>
<path d="M55.9246 49.701L52.4444 58.6656C52.2006 59.3066 51.9027 59.7535 51.5506 60.0063C51.4152 60.1056 51.2663 60.1687 51.1038 60.1958C50.9413 60.2319 50.7472 60.25 50.5215 60.25L50.2777 60.2365V59.6542L50.535 59.6812C50.7065 59.6903 50.851 59.6813 50.9683 59.6542C51.0857 59.6271 51.2031 59.5684 51.3204 59.4781C51.4739 59.3608 51.6048 59.1757 51.7131 58.9229C51.8305 58.6701 52.0607 58.0969 52.4038 57.2031L49.059 49.6875H49.6819L52.7017 56.4583L55.3152 49.701H55.9246Z" fill="#3F4349"/>
<path d="M47.8402 49.6875V57H47.2715V53.3031H42.5861V57H42.0173V49.6875H42.5861V52.7344H47.2715V49.6875H47.8402Z" fill="#3F4349"/>
<path d="M39.7584 50.649C40.2549 51.317 40.5122 52.2153 40.5303 53.3438V53.5063H34.4636C34.4997 54.4271 34.7119 55.1493 35.1001 55.6729C35.3348 55.9799 35.6372 56.2191 36.0074 56.3906C36.3775 56.5531 36.7747 56.6344 37.199 56.6344C37.6143 56.6344 38.007 56.5531 38.3772 56.3906C38.7473 56.2191 39.0497 55.9799 39.2845 55.6729C39.4018 55.5194 39.5011 55.3524 39.5824 55.1719L40.124 55.4021C40.0247 55.6368 39.9029 55.8444 39.7584 56.025C39.4695 56.4042 39.0994 56.6976 38.648 56.9052C38.1966 57.1038 37.7136 57.2031 37.199 57.2031C36.6845 57.2031 36.2015 57.1038 35.7501 56.9052C35.3077 56.6976 34.9376 56.4042 34.6397 56.025C34.1341 55.375 33.8723 54.4813 33.8542 53.3438C33.8723 52.2153 34.1341 51.317 34.6397 50.649C34.9466 50.2608 35.3167 49.9719 35.7501 49.7823C36.1924 49.5837 36.6754 49.4844 37.199 49.4844C37.7227 49.4844 38.2011 49.5837 38.6345 49.7823C39.0768 49.9719 39.4515 50.2608 39.7584 50.649ZM35.1001 51.0146C34.7299 51.5111 34.5223 52.1521 34.4772 52.9375H39.9074C39.8622 52.134 39.6546 51.4931 39.2845 51.0146C39.0588 50.7076 38.7608 50.4729 38.3907 50.3104C38.0296 50.1389 37.6459 50.0531 37.2397 50.0531C36.8063 50.0531 36.4001 50.1344 36.0209 50.2969C35.6417 50.4594 35.3348 50.6986 35.1001 51.0146Z" fill="#3F4349"/>
<path d="M32.3333 49.6875L32.3604 57H31.7917V51.0417L29.0834 55.9979H28.4604L25.7656 51.0417V57H25.1833V49.6875H25.7656L28.7719 55.226L31.7781 49.6875H32.3333Z" fill="#3F4349"/>
<path d="M22.1526 47.3311C22.1526 47.7554 21.9991 48.121 21.6921 48.4279C21.3942 48.7258 21.0331 48.8748 20.6088 48.8748C20.1845 48.8748 19.8189 48.7258 19.5119 48.4279C19.214 48.121 19.0651 47.7554 19.0651 47.3311H19.5932C19.5932 47.6109 19.6925 47.8502 19.8911 48.0488C20.0897 48.2474 20.3289 48.3467 20.6088 48.3467C20.8887 48.3467 21.1279 48.2474 21.3265 48.0488C21.5251 47.8502 21.6244 47.6109 21.6244 47.3311H22.1526ZM23.2901 56.9998H22.7213V50.6894L18.3609 56.9998H17.8328V49.6873H18.4015V55.9977L22.7619 49.6873H23.2901V56.9998Z" fill="#3F4349"/>
<path d="M10.125 51.0553C10.2063 50.9109 10.292 50.78 10.3823 50.6626C10.6893 50.2744 11.0594 49.9855 11.4927 49.796C11.9351 49.5974 12.4181 49.498 12.9417 49.498C13.6368 49.498 14.2417 49.6425 14.7563 49.9314C15.2708 50.2203 15.641 50.6581 15.8667 51.2449C16.0021 51.6331 16.0698 52.0258 16.0698 52.423V57.0001H15.5417V55.4022C15.3611 55.7092 15.1354 55.98 14.8646 56.2147C14.5938 56.4494 14.3004 56.639 13.9844 56.7835C13.3976 57.0543 12.8424 57.1897 12.3188 57.1897C11.8674 57.1897 11.434 57.0949 11.0188 56.9053C10.6125 56.7067 10.3011 56.4314 10.0844 56.0793C9.8587 55.7001 9.74585 55.2984 9.74585 54.8741C9.74585 54.0977 10.0799 53.5064 10.7479 53.1001C11.0639 52.9196 11.407 52.7887 11.7771 52.7074C12.1472 52.6171 12.6844 52.5178 13.3886 52.4095L13.7 52.3689L15.4469 52.1251C15.3837 51.4932 15.1625 51.0102 14.7833 50.6762C14.5577 50.4685 14.2823 50.3151 13.9573 50.2158C13.6413 50.1164 13.3028 50.0668 12.9417 50.0668C12.5174 50.0668 12.1202 50.1526 11.75 50.3241C11.3799 50.4866 11.082 50.7213 10.8563 51.0283C10.766 51.1546 10.7028 51.2494 10.6667 51.3126L10.125 51.0553ZM13.4292 52.9783C12.7882 53.0685 12.2556 53.1678 11.8313 53.2762C11.416 53.3845 11.0639 53.5651 10.775 53.8178C10.4861 54.0706 10.3417 54.4182 10.3417 54.8605C10.3417 55.2939 10.4997 55.6821 10.8156 56.0251C11.1316 56.3592 11.5153 56.5623 11.9667 56.6345C12.1111 56.6526 12.224 56.6616 12.3052 56.6616C12.8379 56.6616 13.366 56.5171 13.8896 56.2283C14.4132 55.9303 14.8059 55.5557 15.0677 55.1043C15.2663 54.7432 15.3882 54.4046 15.4333 54.0887C15.4785 53.7727 15.5011 53.3078 15.5011 52.6939L13.4292 52.9783Z" fill="#3F4349"/>
<path d="M8.12504 47.25V57H7.55629V53.1135H1.65212V57H1.08337V47.25H1.65212V52.5448H7.55629V47.25H8.12504Z" fill="#3F4349"/>
<path d="M275.482 57V54.0344H272.327L270.892 57H270.215L271.704 53.9396C271.352 53.8042 271.059 53.6146 270.824 53.3708C270.634 53.1632 270.485 52.9285 270.377 52.6667C270.269 52.4049 270.215 52.1385 270.215 51.8677C270.215 51.5878 270.269 51.317 270.377 51.0552C270.485 50.7934 270.634 50.5632 270.824 50.3646C271.023 50.1569 271.248 49.9944 271.501 49.8771C271.763 49.7507 272.025 49.6875 272.286 49.6875H276.051L276.065 57H275.482ZM275.482 53.4656V50.2562H272.314C272.115 50.2562 271.925 50.3059 271.745 50.4052C271.564 50.4955 271.402 50.6174 271.257 50.7708C270.968 51.0778 270.824 51.4434 270.824 51.8677C270.824 52.292 270.968 52.6576 271.257 52.9646C271.402 53.1181 271.564 53.2399 271.745 53.3302C271.925 53.4205 272.115 53.4656 272.314 53.4656H275.482Z" fill="#3F4349"/>
<path d="M268.725 49.6875V57H268.156V53.3031H263.471V57H262.902V49.6875H263.471V52.7344H268.156V49.6875H268.725Z" fill="#3F4349"/>
<path d="M261.006 49.6875V57H260.438V53.3031H255.752V57H255.183V49.6875H255.752V52.7344H260.438V49.6875H261.006Z" fill="#3F4349"/>
<path d="M247.476 51.0553C247.557 50.9109 247.643 50.78 247.733 50.6626C248.04 50.2744 248.41 49.9855 248.843 49.796C249.286 49.5974 249.769 49.498 250.292 49.498C250.987 49.498 251.592 49.6425 252.107 49.9314C252.621 50.2203 252.992 50.6581 253.217 51.2449C253.353 51.6331 253.42 52.0258 253.42 52.423V57.0001H252.892V55.4022C252.712 55.7092 252.486 55.98 252.215 56.2147C251.944 56.4494 251.651 56.639 251.335 56.7835C250.748 57.0543 250.193 57.1897 249.669 57.1897C249.218 57.1897 248.785 57.0949 248.369 56.9053C247.963 56.7067 247.652 56.4314 247.435 56.0793C247.209 55.7001 247.096 55.2984 247.096 54.8741C247.096 54.0977 247.43 53.5064 248.099 53.1001C248.414 52.9196 248.758 52.7887 249.128 52.7074C249.498 52.6171 250.035 52.5178 250.739 52.4095L251.051 52.3689L252.797 52.1251C252.734 51.4932 252.513 51.0102 252.134 50.6762C251.908 50.4685 251.633 50.3151 251.308 50.2158C250.992 50.1164 250.653 50.0668 250.292 50.0668C249.868 50.0668 249.471 50.1526 249.101 50.3241C248.73 50.4866 248.433 50.7213 248.207 51.0283C248.117 51.1546 248.053 51.2494 248.017 51.3126L247.476 51.0553ZM250.78 52.9783C250.139 53.0685 249.606 53.1678 249.182 53.2762C248.767 53.3845 248.414 53.5651 248.126 53.8178C247.837 54.0706 247.692 54.4182 247.692 54.8605C247.692 55.2939 247.85 55.6821 248.166 56.0251C248.482 56.3592 248.866 56.5623 249.317 56.6345C249.462 56.6526 249.575 56.6616 249.656 56.6616C250.188 56.6616 250.717 56.5171 251.24 56.2283C251.764 55.9303 252.157 55.5557 252.418 55.1043C252.617 54.7432 252.739 54.4046 252.784 54.0887C252.829 53.7727 252.852 53.3078 252.852 52.6939L250.78 52.9783Z" fill="#3F4349"/>
<path d="M243.657 49.6875C244.262 49.6875 244.749 49.8997 245.119 50.324C245.291 50.4955 245.422 50.6986 245.512 50.9333C245.602 51.1681 245.647 51.4073 245.647 51.651C245.647 51.9038 245.602 52.1476 245.512 52.3823C245.422 52.617 245.291 52.8201 245.119 52.9917C245.038 53.0819 244.943 53.1632 244.835 53.2354C245.088 53.3618 245.264 53.4747 245.363 53.574C245.562 53.7455 245.72 53.9622 245.837 54.224C245.954 54.4858 246.013 54.7521 246.013 55.0229C246.013 55.3028 245.954 55.5736 245.837 55.8354C245.729 56.0882 245.571 56.3049 245.363 56.4854C244.993 56.8285 244.496 57 243.874 57H240.19V49.6875H243.657ZM240.759 53.0594H243.657C244.063 53.0594 244.406 52.9059 244.686 52.599C244.803 52.4726 244.889 52.3281 244.943 52.1656C245.007 51.9941 245.038 51.8226 245.038 51.651C245.038 51.317 244.921 51.0101 244.686 50.7302C244.415 50.4142 244.072 50.2562 243.657 50.2562H240.759V53.0594ZM240.759 56.4312H243.874C244.108 56.4312 244.311 56.4042 244.483 56.35C244.654 56.2868 244.817 56.1875 244.97 56.0521C245.115 55.9167 245.223 55.7587 245.295 55.5781C245.368 55.3885 245.404 55.1899 245.404 54.9823C245.404 54.8017 245.363 54.6257 245.282 54.4542C245.21 54.2826 245.106 54.1337 244.97 54.0073C244.781 53.8358 244.596 53.7319 244.415 53.6958C244.235 53.6507 243.982 53.6281 243.657 53.6281H240.759V56.4312Z" fill="#3F4349"/>
<path d="M239.104 49.701L235.624 58.6656C235.38 59.3066 235.082 59.7535 234.73 60.0063C234.595 60.1056 234.446 60.1687 234.283 60.1958C234.121 60.2319 233.927 60.25 233.701 60.25L233.457 60.2365V59.6542L233.715 59.6812C233.886 59.6903 234.031 59.6813 234.148 59.6542C234.265 59.6271 234.383 59.5684 234.5 59.4781C234.654 59.3608 234.784 59.1757 234.893 58.9229C235.01 58.6701 235.24 58.0969 235.583 57.2031L232.239 49.6875H232.862L235.881 56.4583L238.495 49.701H239.104Z" fill="#3F4349"/>
<path d="M229.43 53.3438L231.827 57L231.15 56.9865L228.97 53.6281H227.819V57H227.25V53.6281H226.099L223.919 56.9865L223.242 57L225.639 53.3438L223.364 49.6875H224.041L226.099 53.0594H227.25V49.6875H227.819V53.0594H228.97L231.028 49.6875H231.705L229.43 53.3438Z" fill="#3F4349"/>
<path d="M216.347 51.0553C216.428 50.9109 216.514 50.78 216.604 50.6626C216.911 50.2744 217.281 49.9855 217.714 49.796C218.157 49.5974 218.64 49.498 219.163 49.498C219.859 49.498 220.463 49.6425 220.978 49.9314C221.493 50.2203 221.863 50.6581 222.088 51.2449C222.224 51.6331 222.291 52.0258 222.291 52.423V57.0001H221.763V55.4022C221.583 55.7092 221.357 55.98 221.086 56.2147C220.815 56.4494 220.522 56.639 220.206 56.7835C219.619 57.0543 219.064 57.1897 218.54 57.1897C218.089 57.1897 217.656 57.0949 217.24 56.9053C216.834 56.7067 216.523 56.4314 216.306 56.0793C216.08 55.7001 215.968 55.2984 215.968 54.8741C215.968 54.0977 216.302 53.5064 216.97 53.1001C217.286 52.9196 217.629 52.7887 217.999 52.7074C218.369 52.6171 218.906 52.5178 219.61 52.4095L219.922 52.3689L221.669 52.1251C221.605 51.4932 221.384 51.0102 221.005 50.6762C220.779 50.4685 220.504 50.3151 220.179 50.2158C219.863 50.1164 219.524 50.0668 219.163 50.0668C218.739 50.0668 218.342 50.1526 217.972 50.3241C217.602 50.4866 217.304 50.7213 217.078 51.0283C216.988 51.1546 216.924 51.2494 216.888 51.3126L216.347 51.0553ZM219.651 52.9783C219.01 53.0685 218.477 53.1678 218.053 53.2762C217.638 53.3845 217.286 53.5651 216.997 53.8178C216.708 54.0706 216.563 54.4182 216.563 54.8605C216.563 55.2939 216.721 55.6821 217.037 56.0251C217.353 56.3592 217.737 56.5623 218.188 56.6345C218.333 56.6526 218.446 56.6616 218.527 56.6616C219.06 56.6616 219.588 56.5171 220.111 56.2283C220.635 55.9303 221.028 55.5557 221.289 55.1043C221.488 54.7432 221.61 54.4046 221.655 54.0887C221.7 53.7727 221.723 53.3078 221.723 52.6939L219.651 52.9783Z" fill="#3F4349"/>
<path d="M214.447 49.6875L214.474 57H213.905V51.0417L211.197 55.9979H210.574L207.879 51.0417V57H207.297V49.6875H207.879L210.885 55.226L213.891 49.6875H214.447Z" fill="#3F4349"/>
<path d="M205.332 51.5292C205.269 51.3757 205.165 51.2042 205.021 51.0146C204.795 50.7076 204.502 50.4729 204.141 50.3104C203.779 50.1389 203.396 50.0531 202.99 50.0531C202.547 50.0531 202.136 50.1344 201.757 50.2969C201.387 50.4503 201.085 50.6896 200.85 51.0146C200.435 51.5563 200.218 52.3326 200.2 53.3438C200.218 54.3549 200.435 55.1313 200.85 55.6729C201.085 55.9889 201.383 56.2281 201.744 56.3906C202.114 56.5531 202.511 56.6344 202.935 56.6344C203.36 56.6344 203.752 56.5531 204.113 56.3906C204.484 56.2281 204.786 55.9889 205.021 55.6729C205.12 55.5465 205.219 55.3795 205.319 55.1719L205.874 55.4156C205.757 55.6503 205.63 55.8535 205.495 56.025C205.197 56.4132 204.827 56.7066 204.384 56.9052C203.942 57.1038 203.459 57.2031 202.935 57.2031C202.412 57.2031 201.929 57.1038 201.486 56.9052C201.044 56.7066 200.674 56.4132 200.376 56.025C199.87 55.375 199.609 54.4813 199.591 53.3438C199.609 52.2153 199.87 51.317 200.376 50.649C200.981 49.8726 201.834 49.4844 202.935 49.4844C203.459 49.4844 203.937 49.5837 204.371 49.7823C204.813 49.9719 205.188 50.2608 205.495 50.649C205.666 50.8837 205.793 51.1003 205.874 51.299L205.332 51.5292Z" fill="#3F4349"/>
<path d="M195.165 49.9719C195.643 49.9538 196.104 50.0351 196.546 50.2156C196.998 50.3872 197.372 50.649 197.67 51.001C198.212 51.624 198.492 52.4861 198.51 53.5875C198.492 54.6799 198.212 55.5375 197.67 56.1604C197.372 56.5125 196.993 56.7743 196.533 56.9458C196.081 57.1174 195.607 57.2031 195.111 57.2031C194.641 57.2031 194.185 57.1174 193.743 56.9458C193.31 56.7653 192.949 56.5035 192.66 56.1604C192.38 55.8354 192.172 55.4517 192.037 55.0094C191.901 54.558 191.834 54.084 191.834 53.5875C191.834 52.766 191.843 52.1611 191.861 51.7729C191.879 51.3757 191.915 51.0056 191.969 50.6625C192.05 50.0938 192.204 49.5927 192.43 49.1594C192.664 48.726 192.989 48.3514 193.405 48.0354C193.811 47.7285 194.267 47.5208 194.772 47.4125C195.287 47.3042 195.856 47.25 196.479 47.25C196.876 47.25 197.377 47.2906 197.982 47.3719V47.9135C197.413 47.8233 196.912 47.7781 196.479 47.7781C195.314 47.7781 194.402 48.0128 193.743 48.4823C193.382 48.7351 193.102 49.0917 192.904 49.5521C192.714 50.0035 192.579 50.5587 192.497 51.2177C192.84 50.7844 193.229 50.4639 193.662 50.2563C194.104 50.0486 194.605 49.9538 195.165 49.9719ZM195.219 50.5406C194.795 50.5406 194.398 50.6128 194.027 50.7573C193.657 50.8927 193.35 51.1049 193.107 51.3938C192.664 51.9083 192.443 52.626 192.443 53.5469C192.443 53.9983 192.497 54.4181 192.606 54.8063C192.714 55.1854 192.881 55.5059 193.107 55.7677C193.341 56.0566 193.639 56.2733 194 56.4177C194.371 56.5622 194.759 56.6344 195.165 56.6344C195.58 56.6344 195.968 56.5622 196.33 56.4177C196.691 56.2733 196.989 56.0611 197.223 55.7813C197.675 55.2576 197.9 54.5264 197.9 53.5875C197.9 52.6396 197.675 51.9083 197.223 51.3938C196.989 51.1139 196.695 50.9017 196.343 50.7573C196 50.6128 195.625 50.5406 195.219 50.5406Z" fill="#3F4349"/>
<path d="M187.409 57.2031C186.885 57.2031 186.402 57.1038 185.96 56.9052C185.518 56.7066 185.148 56.4132 184.85 56.025C184.326 55.3479 184.064 54.4497 184.064 53.3302C184.064 52.2198 184.326 51.326 184.85 50.649C185.129 50.2788 185.495 49.9944 185.946 49.7958C186.398 49.5882 186.885 49.4844 187.409 49.4844C187.933 49.4844 188.416 49.5837 188.858 49.7823C189.309 49.9809 189.679 50.2698 189.968 50.649C190.492 51.326 190.754 52.2198 190.754 53.3302C190.754 54.4497 190.492 55.3479 189.968 56.025C189.67 56.4222 189.3 56.7201 188.858 56.9188C188.425 57.1083 187.942 57.2031 187.409 57.2031ZM189.508 55.6729C189.932 55.1222 190.144 54.3413 190.144 53.3302C190.144 52.3281 189.932 51.5517 189.508 51.001C189.273 50.6941 188.971 50.4594 188.601 50.2969C188.231 50.1344 187.833 50.0531 187.409 50.0531C186.985 50.0531 186.587 50.1344 186.217 50.2969C185.847 50.4594 185.549 50.6941 185.324 51.001C184.89 51.5698 184.674 52.3462 184.674 53.3302C184.674 54.3233 184.89 55.1042 185.324 55.6729C185.549 55.9799 185.847 56.2191 186.217 56.3906C186.587 56.5531 186.985 56.6344 187.409 56.6344C187.833 56.6344 188.231 56.5531 188.601 56.3906C188.971 56.2191 189.273 55.9799 189.508 55.6729Z" fill="#3F4349"/>
<path d="M174.871 49.6875V52.6531H177.661C177.922 52.6531 178.18 52.7163 178.433 52.8427C178.694 52.9601 178.925 53.1181 179.123 53.3167C179.313 53.5243 179.462 53.759 179.57 54.0208C179.678 54.2826 179.733 54.549 179.733 54.8198C179.733 55.0997 179.678 55.3705 179.57 55.6323C179.462 55.8941 179.313 56.1243 179.123 56.3229C178.925 56.5306 178.694 56.6976 178.433 56.824C178.18 56.9413 177.922 57 177.661 57H174.302L174.289 49.6875H174.871ZM174.871 56.4312H177.634C177.832 56.4312 178.022 56.3861 178.202 56.2958C178.383 56.1965 178.545 56.0701 178.69 55.9167C178.979 55.6097 179.123 55.2441 179.123 54.8198C179.123 54.3955 178.979 54.0299 178.69 53.7229C178.545 53.5694 178.383 53.4476 178.202 53.3573C178.022 53.267 177.832 53.2219 177.634 53.2219H174.871V56.4312Z" fill="#3F4349"/>
<path d="M172.998 50.2562H170.303V57H169.735V50.2562H167.04V49.6875H172.998V50.2562Z" fill="#3F4349"/>
<path d="M165.685 51.5292C165.622 51.3757 165.518 51.2042 165.373 51.0146C165.148 50.7076 164.854 50.4729 164.493 50.3104C164.132 50.1389 163.748 50.0531 163.342 50.0531C162.9 50.0531 162.489 50.1344 162.11 50.2969C161.74 50.4503 161.437 50.6896 161.202 51.0146C160.787 51.5563 160.571 52.3326 160.552 53.3438C160.571 54.3549 160.787 55.1313 161.202 55.6729C161.437 55.9889 161.735 56.2281 162.096 56.3906C162.466 56.5531 162.864 56.6344 163.288 56.6344C163.712 56.6344 164.105 56.5531 164.466 56.3906C164.836 56.2281 165.139 55.9889 165.373 55.6729C165.473 55.5465 165.572 55.3795 165.671 55.1719L166.226 55.4156C166.109 55.6503 165.983 55.8535 165.847 56.025C165.549 56.4132 165.179 56.7066 164.737 56.9052C164.295 57.1038 163.812 57.2031 163.288 57.2031C162.764 57.2031 162.281 57.1038 161.839 56.9052C161.397 56.7066 161.026 56.4132 160.729 56.025C160.223 55.375 159.961 54.4813 159.943 53.3438C159.961 52.2153 160.223 51.317 160.729 50.649C161.333 49.8726 162.187 49.4844 163.288 49.4844C163.812 49.4844 164.29 49.5837 164.723 49.7823C165.166 49.9719 165.54 50.2608 165.847 50.649C166.019 50.8837 166.145 51.1003 166.226 51.299L165.685 51.5292Z" fill="#3F4349"/>
<path d="M158.324 47.3853V48.2519H157.755V47.3853H158.324ZM158.324 49.6873V56.9998H157.755V49.6873H158.324Z" fill="#3F4349"/>
<path d="M156.329 50.2562H153.634V57H153.066V50.2562H150.371V49.6875H156.329V50.2562Z" fill="#3F4349"/>
<path d="M148.715 50.6625C149.23 51.3306 149.487 52.2198 149.487 53.3302C149.487 54.4406 149.23 55.3344 148.715 56.0115C148.408 56.3997 148.034 56.6976 147.591 56.9052C147.158 57.1038 146.684 57.2031 146.17 57.2031C145.655 57.2031 145.181 57.0948 144.748 56.8781C144.323 56.6615 143.971 56.35 143.691 55.9438C143.637 55.8715 143.565 55.7542 143.475 55.5917V60.25H142.906V49.6875H143.434V51.1635C143.524 50.983 143.61 50.834 143.691 50.7167C143.98 50.3194 144.35 50.017 144.802 49.8094C145.262 49.5927 145.754 49.4844 146.278 49.4844C146.765 49.4844 147.221 49.5882 147.646 49.7958C148.07 50.0035 148.426 50.2924 148.715 50.6625ZM148.241 55.6458C148.666 55.1042 148.878 54.3323 148.878 53.3302C148.878 52.3281 148.666 51.5563 148.241 51.0146C148.007 50.7076 147.704 50.4729 147.334 50.3104C146.973 50.1389 146.585 50.0531 146.17 50.0531C145.745 50.0531 145.344 50.1344 144.964 50.2969C144.594 50.4594 144.296 50.6986 144.071 51.0146C143.646 51.5743 143.434 52.3462 143.434 53.3302C143.434 54.3233 143.646 55.0997 144.071 55.6594C144.305 55.9753 144.608 56.2191 144.978 56.3906C145.348 56.5531 145.745 56.6344 146.17 56.6344C146.585 56.6344 146.973 56.5486 147.334 56.3771C147.704 56.2056 148.007 55.9618 148.241 55.6458Z" fill="#3F4349"/>
<path d="M135.198 51.0553C135.28 50.9109 135.365 50.78 135.456 50.6626C135.762 50.2744 136.133 49.9855 136.566 49.796C137.008 49.5974 137.491 49.498 138.015 49.498C138.71 49.498 139.315 49.6425 139.83 49.9314C140.344 50.2203 140.714 50.6581 140.94 51.2449C141.075 51.6331 141.143 52.0258 141.143 52.423V57.0001H140.615V55.4022C140.434 55.7092 140.209 55.98 139.938 56.2147C139.667 56.4494 139.374 56.639 139.058 56.7835C138.471 57.0543 137.916 57.1897 137.392 57.1897C136.941 57.1897 136.507 57.0949 136.092 56.9053C135.686 56.7067 135.374 56.4314 135.158 56.0793C134.932 55.7001 134.819 55.2984 134.819 54.8741C134.819 54.0977 135.153 53.5064 135.821 53.1001C136.137 52.9196 136.48 52.7887 136.85 52.7074C137.22 52.6171 137.758 52.5178 138.462 52.4095L138.773 52.3689L140.52 52.1251C140.457 51.4932 140.236 51.0102 139.857 50.6762C139.631 50.4685 139.356 50.3151 139.031 50.2158C138.715 50.1164 138.376 50.0668 138.015 50.0668C137.591 50.0668 137.193 50.1526 136.823 50.3241C136.453 50.4866 136.155 50.7213 135.93 51.0283C135.839 51.1546 135.776 51.2494 135.74 51.3126L135.198 51.0553ZM138.502 52.9783C137.861 53.0685 137.329 53.1678 136.905 53.2762C136.489 53.3845 136.137 53.5651 135.848 53.8178C135.559 54.0706 135.415 54.4182 135.415 54.8605C135.415 55.2939 135.573 55.6821 135.889 56.0251C136.205 56.3592 136.589 56.5623 137.04 56.6345C137.184 56.6526 137.297 56.6616 137.378 56.6616C137.911 56.6616 138.439 56.5171 138.963 56.2283C139.486 55.9303 139.879 55.5557 140.141 55.1043C140.34 54.7432 140.461 54.4046 140.507 54.0887C140.552 53.7727 140.574 53.3078 140.574 52.6939L138.502 52.9783Z" fill="#3F4349"/>
<path d="M133.34 52.7479C133.692 53.1813 133.868 53.6868 133.868 54.2646C133.868 54.5896 133.809 54.9101 133.692 55.226C133.583 55.533 133.43 55.7993 133.231 56.025C132.852 56.4493 132.383 56.7337 131.823 56.8781C131.525 56.9594 131.137 57 130.658 57H130.225H127.083V47.25H130.076H130.591C131.042 47.25 131.349 47.2771 131.511 47.3313C132.017 47.4667 132.441 47.724 132.784 48.1031C132.983 48.3108 133.136 48.559 133.245 48.8479C133.353 49.1278 133.407 49.4212 133.407 49.7281C133.407 50.1976 133.236 50.649 132.893 51.0823C132.685 51.3712 132.428 51.6104 132.121 51.8C132.617 51.9896 133.024 52.3056 133.34 52.7479ZM127.652 47.8052V51.5833H130.78C131.087 51.5833 131.39 51.5111 131.688 51.3667C131.994 51.2132 132.238 51.0056 132.419 50.7438C132.663 50.3917 132.784 49.9944 132.784 49.5521C132.784 49.1278 132.617 48.7396 132.283 48.3875C132.058 48.1528 131.836 47.9993 131.62 47.9271C131.403 47.8458 131.123 47.8052 130.78 47.8052H127.652ZM132.73 55.7271C133.082 55.3299 133.258 54.8965 133.258 54.4271C133.258 53.9215 133.123 53.4792 132.852 53.1C132.672 52.8111 132.405 52.5809 132.053 52.4094C131.701 52.2288 131.363 52.1385 131.038 52.1385H127.652V56.4313H130.225H130.821C131.281 56.4313 131.651 56.3906 131.931 56.3094C132.211 56.2191 132.477 56.025 132.73 55.7271Z" fill="#3F4349"/>
<path d="M337.785 53.3438L340.182 57L339.505 56.9865L337.298 53.6281H335.226V57H334.657V49.6875H335.226V53.0594H337.298L339.383 49.6875H340.06L337.785 53.3438Z" fill="#3F4349"/>
<path d="M332.632 47.3853V48.2519H332.063V47.3853H332.632ZM332.632 49.6873V56.9998H332.063V49.6873H332.632Z" fill="#3F4349"/>
<path d="M329.123 50.3783C329.971 51.0734 330.409 52.0664 330.436 53.3574C330.409 54.6394 329.971 55.6369 329.123 56.3501C328.789 56.621 328.382 56.8331 327.904 56.9866C327.434 57.131 326.933 57.2168 326.401 57.2439V60.047H325.832V57.2439C325.308 57.2258 324.812 57.1446 324.342 57.0001C323.873 56.8467 323.462 56.63 323.11 56.3501C322.262 55.6369 321.824 54.6394 321.797 53.3574C321.824 52.0574 322.262 51.0644 323.11 50.3783C323.444 50.0984 323.85 49.8862 324.329 49.7418C324.807 49.5883 325.308 49.5026 325.832 49.4845V47.2637H326.401V49.4845C326.915 49.5026 327.412 49.5838 327.89 49.7283C328.369 49.8727 328.78 50.0894 329.123 50.3783ZM323.516 55.9168C323.787 56.1515 324.126 56.3321 324.532 56.4585C324.938 56.5849 325.372 56.6571 325.832 56.6751V50.0533C325.39 50.0713 324.961 50.1435 324.546 50.2699C324.139 50.3873 323.796 50.5633 323.516 50.798C322.803 51.3758 322.433 52.2289 322.406 53.3574C322.433 54.4859 322.803 55.339 323.516 55.9168ZM328.716 55.9168C329.43 55.339 329.8 54.4859 329.827 53.3574C329.8 52.2289 329.43 51.3758 328.716 50.798C328.446 50.5633 328.103 50.3873 327.687 50.2699C327.281 50.1435 326.852 50.0713 326.401 50.0533V56.6751C326.852 56.6571 327.281 56.5849 327.687 56.4585C328.094 56.3321 328.437 56.1515 328.716 55.9168Z" fill="#3F4349"/>
<path d="M314.495 51.0553C314.576 50.9109 314.662 50.78 314.752 50.6626C315.059 50.2744 315.43 49.9855 315.863 49.796C316.305 49.5974 316.788 49.498 317.312 49.498C318.007 49.498 318.612 49.6425 319.126 49.9314C319.641 50.2203 320.011 50.6581 320.237 51.2449C320.372 51.6331 320.44 52.0258 320.44 52.423V57.0001H319.912V55.4022C319.731 55.7092 319.506 55.98 319.235 56.2147C318.964 56.4494 318.67 56.639 318.355 56.7835C317.768 57.0543 317.212 57.1897 316.689 57.1897C316.237 57.1897 315.804 57.0949 315.389 56.9053C314.983 56.7067 314.671 56.4314 314.455 56.0793C314.229 55.7001 314.116 55.2984 314.116 54.8741C314.116 54.0977 314.45 53.5064 315.118 53.1001C315.434 52.9196 315.777 52.7887 316.147 52.7074C316.517 52.6171 317.055 52.5178 317.759 52.4095L318.07 52.3689L319.817 52.1251C319.754 51.4932 319.533 51.0102 319.153 50.6762C318.928 50.4685 318.652 50.3151 318.327 50.2158C318.011 50.1164 317.673 50.0668 317.312 50.0668C316.887 50.0668 316.49 50.1526 316.12 50.3241C315.75 50.4866 315.452 50.7213 315.226 51.0283C315.136 51.1546 315.073 51.2494 315.037 51.3126L314.495 51.0553ZM317.799 52.9783C317.158 53.0685 316.626 53.1678 316.201 53.2762C315.786 53.3845 315.434 53.5651 315.145 53.8178C314.856 54.0706 314.712 54.4182 314.712 54.8605C314.712 55.2939 314.87 55.6821 315.186 56.0251C315.502 56.3592 315.885 56.5623 316.337 56.6345C316.481 56.6526 316.594 56.6616 316.675 56.6616C317.208 56.6616 317.736 56.5171 318.26 56.2283C318.783 55.9303 319.176 55.5557 319.438 55.1043C319.636 54.7432 319.758 54.4046 319.803 54.0887C319.849 53.7727 319.871 53.3078 319.871 52.6939L317.799 52.9783Z" fill="#3F4349"/>
<path d="M312.257 50.6625C312.772 51.3306 313.029 52.2198 313.029 53.3302C313.029 54.4406 312.772 55.3344 312.257 56.0115C311.95 56.3997 311.576 56.6976 311.133 56.9052C310.7 57.1038 310.226 57.2031 309.712 57.2031C309.197 57.2031 308.723 57.0948 308.29 56.8781C307.865 56.6615 307.513 56.35 307.233 55.9438C307.179 55.8715 307.107 55.7542 307.017 55.5917V60.25H306.448V49.6875H306.976V51.1635C307.066 50.983 307.152 50.834 307.233 50.7167C307.522 50.3194 307.892 50.017 308.344 49.8094C308.804 49.5927 309.296 49.4844 309.82 49.4844C310.307 49.4844 310.763 49.5882 311.188 49.7958C311.612 50.0035 311.968 50.2924 312.257 50.6625ZM311.783 55.6458C312.208 55.1042 312.42 54.3323 312.42 53.3302C312.42 52.3281 312.208 51.5563 311.783 51.0146C311.549 50.7076 311.246 50.4729 310.876 50.3104C310.515 50.1389 310.127 50.0531 309.712 50.0531C309.287 50.0531 308.885 50.1344 308.506 50.2969C308.136 50.4594 307.838 50.6986 307.613 51.0146C307.188 51.5743 306.976 52.3462 306.976 53.3302C306.976 54.3233 307.188 55.0997 307.613 55.6594C307.847 55.9753 308.15 56.2191 308.52 56.3906C308.89 56.5531 309.287 56.6344 309.712 56.6344C310.127 56.6344 310.515 56.5486 310.876 56.3771C311.246 56.2056 311.549 55.9618 311.783 55.6458Z" fill="#3F4349"/>
<path d="M306.042 47.8188H300.652V57H300.083V47.25H306.042V47.8188Z" fill="#3F4349"/>
<path fill-rule="evenodd" clip-rule="evenodd" d="M360 32.1043H0V31H360V32.1043Z" fill="url(#paint0_linear_126_773)"/>
<path fill-rule="evenodd" clip-rule="evenodd" d="M110 36L110 68L109 68L109 36L110 36Z" fill="url(#paint1_linear_126_773)"/>
<path fill-rule="evenodd" clip-rule="evenodd" d="M294 36L294 68L293 68L293 36L294 36Z" fill="url(#paint2_linear_126_773)"/>
<path fill-rule="evenodd" clip-rule="evenodd" d="M360 72H0V71H360V72Z" fill="url(#paint3_linear_126_773)"/>
<path fill-rule="evenodd" clip-rule="evenodd" d="M360 112H0V111H360V112Z" fill="url(#paint4_linear_126_773)"/>
<path fill-rule="evenodd" clip-rule="evenodd" d="M360 152H0V151H360V152Z" fill="url(#paint5_linear_126_773)"/>
</g>
<g style="mix-blend-mode:multiply">
<path fill-rule="evenodd" clip-rule="evenodd" d="M288 142.2C326.77 142.2 358.2 110.77 358.2 72C358.2 33.2296 326.77 1.8 288 1.8C249.23 1.8 217.8 33.2296 217.8 72C217.8 110.77 249.23 142.2 288 142.2ZM288 144C327.764 144 360 111.764 360 72C360 32.2355 327.764 0 288 0C248.235 0 216 32.2355 216 72C216 111.764 248.235 144 288 144Z" fill="#FF6CA9"/>
<path d="M345.064 73.9517L341.949 73.7229L341.655 77.7284L340.581 77.6496L340.876 73.6441L337.76 73.4154L337.408 78.2062L336.348 78.1284L336.778 72.2772L346.202 72.9692L345.773 78.8204L344.713 78.7425L345.064 73.9517Z" fill="#FF6CA9"/>
<path d="M336.766 85.0268L337.741 80.7258L336.11 79.7239L336.357 78.6359L344.863 83.8603L344.544 85.2683L334.617 86.3162L334.863 85.2281L336.766 85.0268ZM337.83 84.9045L343.567 84.2933L338.651 81.2819L337.83 84.9045Z" fill="#FF6CA9"/>
<path d="M338.71 94.3686C339.071 94.3597 339.393 94.317 339.677 94.2404C339.961 94.1638 340.224 94.0321 340.467 93.8452C340.657 93.6945 340.833 93.5097 340.994 93.2909C341.155 93.0722 341.285 92.8365 341.385 92.584C341.567 92.1197 341.63 91.6839 341.573 91.2764C341.539 91.028 341.446 90.7987 341.294 90.5885C341.138 90.3864 340.95 90.2422 340.73 90.1559C340.421 90.0344 340.124 90.0355 339.841 90.1593C339.549 90.2798 339.191 90.6047 338.767 91.1339L337.684 92.5278C337.227 93.119 336.738 93.5382 336.218 93.7853C335.92 93.9221 335.604 93.9957 335.271 94.006C334.935 94.0244 334.616 93.9745 334.315 93.8562C333.94 93.7092 333.615 93.4733 333.338 93.1485C333.058 92.8319 332.869 92.4756 332.77 92.0798C332.595 91.4001 332.701 90.5675 333.088 89.5819C333.577 88.3357 334.349 87.567 335.403 87.2757C335.977 87.1062 336.609 87.0769 337.298 87.1877L337.174 88.2951C336.606 88.1851 336.12 88.1915 335.714 88.3144C335.318 88.4129 334.977 88.6125 334.69 88.9134C334.402 89.2142 334.177 89.5724 334.014 89.9878C333.896 90.2891 333.818 90.6065 333.782 90.9398C333.745 91.2732 333.757 91.5648 333.819 91.8146C333.876 92.0531 333.984 92.2555 334.145 92.4218C334.313 92.5913 334.507 92.7192 334.727 92.8055C335.086 92.9461 335.438 92.9341 335.785 92.7693C336.148 92.611 336.487 92.3211 336.803 91.8999L337.912 90.4741C338.156 90.1654 338.391 89.9006 338.619 89.6798C338.851 89.4703 339.103 89.2964 339.373 89.1581C339.652 89.0231 339.952 88.9529 340.274 88.9475C340.592 88.9503 340.894 89.0076 341.179 89.1195C341.578 89.2761 341.911 89.5429 342.176 89.9197C342.439 90.3047 342.588 90.7157 342.623 91.1525C342.679 91.729 342.574 92.3552 342.309 93.0313C342.031 93.7399 341.64 94.2917 341.138 94.6866C340.796 94.9569 340.408 95.1569 339.972 95.2865C339.535 95.4161 339.075 95.4751 338.591 95.4637L338.71 94.3686Z" fill="#FF6CA9"/>
<path d="M336.671 103.775L333.444 98.3129L330.006 96.3666L330.537 95.43L333.974 97.3764L340.325 97.3218L339.717 98.3954L334.772 98.446L337.279 102.701L336.671 103.775Z" fill="#FF6CA9"/>
<path d="M323.137 109.642C322.836 109.141 322.64 108.617 322.548 108.07C322.446 107.442 322.5 106.827 322.709 106.223C322.912 105.626 323.241 105.079 323.696 104.582C324.157 104.079 324.677 103.7 325.254 103.446C325.838 103.198 326.44 103.097 327.061 103.144C328.186 103.225 329.242 103.718 330.229 104.622C331.293 105.598 331.915 106.642 332.093 107.755C332.201 108.376 332.153 108.985 331.95 109.582C331.747 110.18 331.415 110.73 330.954 111.233C330.493 111.736 329.967 112.115 329.378 112.37C328.794 112.631 328.195 112.734 327.58 112.681C326.94 112.628 326.328 112.441 325.744 112.12L326.353 111.183C326.791 111.43 327.228 111.575 327.663 111.618C328.136 111.659 328.597 111.577 329.046 111.372C329.49 111.173 329.886 110.883 330.234 110.503C330.56 110.148 330.796 109.741 330.943 109.283C331.091 108.836 331.121 108.389 331.033 107.941C330.892 107.123 330.386 106.316 329.515 105.518C328.657 104.731 327.805 104.295 326.959 104.208C326.499 104.166 326.047 104.244 325.604 104.443C325.155 104.649 324.758 104.939 324.416 105.313C324.09 105.668 323.851 106.071 323.697 106.524C323.55 106.982 323.514 107.436 323.59 107.885C323.675 108.284 323.838 108.676 324.078 109.062L323.137 109.642Z" fill="#FF6CA9"/>
<path d="M317.081 110.607C317.633 110.19 318.219 109.907 318.84 109.756C319.459 109.617 320.069 109.633 320.67 109.804C321.749 110.085 322.723 110.802 323.594 111.954C324.406 113.029 324.8 114.124 324.777 115.239C324.767 115.849 324.611 116.427 324.31 116.973C324.015 117.525 323.605 117.999 323.082 118.395C322.523 118.817 321.93 119.106 321.303 119.262C320.673 119.431 320.051 119.435 319.436 119.274C318.87 119.121 318.353 118.864 317.885 118.506C317.416 118.147 316.972 117.704 316.552 117.177C315.721 116.049 315.314 114.937 315.329 113.84C315.336 113.21 315.494 112.613 315.803 112.05C316.111 111.5 316.537 111.019 317.081 110.607ZM317.741 111.392C317.329 111.704 317.003 112.07 316.763 112.493C316.516 112.921 316.398 113.367 316.408 113.831C316.404 114.667 316.774 115.577 317.518 116.562C318.198 117.462 318.934 118.014 319.724 118.218C320.155 118.353 320.605 118.369 321.076 118.266C321.539 118.168 321.966 117.971 322.357 117.676C322.769 117.364 323.096 116.991 323.338 116.556C323.578 116.134 323.696 115.688 323.692 115.219C323.709 114.428 323.36 113.545 322.646 112.571C321.934 111.629 321.177 111.049 320.377 110.831C319.939 110.702 319.485 110.689 319.014 110.792C318.549 110.902 318.125 111.102 317.741 111.392Z" fill="#FF6CA9"/>
<path d="M315.878 121.665L314.41 118.908L311.213 120.611L310.707 119.661L313.904 117.958L311.936 114.263L312.875 113.763L317.317 122.104L312.486 124.677L311.986 123.738L315.878 121.665Z" fill="#FF6CA9"/>
<path d="M308.973 124.981L307.887 122.053L304.49 123.313L304.116 122.303L307.512 121.044L306.056 117.118L307.053 116.748L310.34 125.608L305.208 127.512L304.838 126.515L308.973 124.981Z" fill="#FF6CA9"/>
<path d="M301.672 127.355L301.005 124.304L297.081 125.161L296.852 124.11L300.775 123.252L300.108 120.201L295.415 121.226L295.188 120.188L300.92 118.935L302.938 128.167L297.206 129.42L296.979 128.381L301.672 127.355Z" fill="#FF6CA9"/>
<path d="M293.17 128.824L292.977 125.707L288.969 125.954L288.902 124.88L292.911 124.632L292.718 121.515L287.924 121.811L287.858 120.75L293.714 120.388L294.297 129.82L288.441 130.182L288.375 129.121L293.17 128.824Z" fill="#FF6CA9"/>
<path d="M279.316 121.947C279.757 122.019 280.108 122.231 280.369 122.584C280.631 122.937 280.726 123.334 280.654 123.774C280.582 124.215 280.366 124.561 280.006 124.812C279.646 125.064 279.246 125.154 278.805 125.082C278.382 125.013 278.044 124.803 277.791 124.451C277.538 124.099 277.447 123.703 277.519 123.263C277.591 122.823 277.803 122.476 278.154 122.223C278.506 121.97 278.893 121.878 279.316 121.947Z" fill="#FF6CA9"/>
<path d="M267.545 125.469L268.73 122.578L265.014 121.055L265.422 120.059L269.138 121.582L270.322 118.692L265.877 116.87L266.281 115.887L271.709 118.111L268.126 126.855L262.697 124.631L263.1 123.647L267.545 125.469Z" fill="#FF6CA9"/>
<path d="M259.595 114.112L263.375 116.382L264.836 115.148L265.793 115.722L258.17 122.167L256.932 121.423L259.042 111.667L259.998 112.241L259.595 114.112ZM259.378 115.16L258.164 120.801L262.562 117.073L259.378 115.16Z" fill="#FF6CA9"/>
<path d="M250.122 113.046C250.018 113.392 249.958 113.711 249.943 114.005C249.927 114.298 249.97 114.589 250.072 114.878C250.156 115.106 250.277 115.331 250.434 115.552C250.592 115.774 250.775 115.971 250.984 116.143C251.369 116.461 251.763 116.657 252.168 116.73C252.415 116.775 252.662 116.758 252.909 116.679C253.15 116.594 253.345 116.46 253.496 116.278C253.707 116.022 253.799 115.74 253.77 115.432C253.746 115.117 253.549 114.676 253.178 114.108L252.191 112.645C251.772 112.026 251.526 111.431 251.453 110.86C251.416 110.534 251.444 110.211 251.538 109.891C251.626 109.566 251.772 109.279 251.979 109.029C252.235 108.719 252.561 108.483 252.956 108.321C253.344 108.154 253.741 108.085 254.148 108.115C254.848 108.161 255.607 108.521 256.423 109.195C257.454 110.048 257.944 111.021 257.892 112.114C257.875 112.712 257.706 113.322 257.385 113.942L256.372 113.479C256.653 112.974 256.799 112.51 256.808 112.086C256.838 111.679 256.755 111.292 256.559 110.926C256.362 110.559 256.092 110.233 255.748 109.949C255.499 109.743 255.221 109.57 254.916 109.431C254.611 109.293 254.33 109.214 254.073 109.194C253.829 109.174 253.603 109.214 253.395 109.315C253.181 109.422 252.999 109.567 252.849 109.749C252.603 110.045 252.505 110.384 252.553 110.765C252.591 111.159 252.76 111.572 253.062 112.003L254.071 113.501C254.289 113.829 254.467 114.135 254.606 114.42C254.733 114.707 254.819 115 254.866 115.3C254.908 115.607 254.881 115.914 254.786 116.221C254.684 116.523 254.536 116.792 254.34 117.028C254.067 117.358 253.71 117.591 253.269 117.726C252.822 117.855 252.385 117.869 251.959 117.766C251.394 117.64 250.831 117.345 250.271 116.882C249.685 116.397 249.282 115.854 249.064 115.253C248.913 114.845 248.844 114.413 248.857 113.959C248.87 113.504 248.957 113.048 249.119 112.591L250.122 113.046Z" fill="#FF6CA9"/>
<path d="M241.837 108.222L248.029 106.838L250.941 104.169L251.668 104.963L248.756 107.632L246.847 113.689L246.014 112.779L247.492 108.06L242.671 109.131L241.837 108.222Z" fill="#FF6CA9"/>
<path d="M240.461 93.5596C241.03 93.4284 241.589 93.4035 242.138 93.4849C242.766 93.5818 243.335 93.8229 243.845 94.208C244.35 94.5856 244.769 95.0675 245.101 95.6538C245.437 96.2477 245.637 96.8584 245.701 97.486C245.757 98.1179 245.666 98.722 245.43 99.2985C245.005 100.343 244.211 101.195 243.046 101.855C241.789 102.566 240.604 102.835 239.49 102.661C238.867 102.572 238.302 102.338 237.797 101.961C237.291 101.583 236.871 101.097 236.534 100.504C236.198 99.9096 236 99.2929 235.939 98.6535C235.871 98.0183 235.958 97.4163 236.199 96.8474C236.447 96.2548 236.813 95.7304 237.299 95.2743L238.002 96.1432C237.632 96.4836 237.359 96.8542 237.184 97.2551C236.999 97.6917 236.935 98.1555 236.991 98.6462C237.043 99.1294 237.197 99.5956 237.451 100.045C237.688 100.464 238.002 100.814 238.393 101.095C238.772 101.374 239.188 101.54 239.641 101.595C240.462 101.714 241.387 101.482 242.415 100.9C243.427 100.326 244.106 99.6508 244.45 98.8729C244.631 98.4482 244.696 97.9943 244.644 97.5111C244.587 97.0203 244.434 96.5541 244.184 96.1125C243.947 95.6937 243.637 95.3413 243.254 95.0555C242.863 94.7739 242.443 94.5997 241.992 94.5327C241.587 94.491 241.163 94.5246 240.722 94.6335L240.461 93.5596Z" fill="#FF6CA9"/>
<path d="M241.45 87.5672C241.676 88.2206 241.765 88.8657 241.716 89.5027C241.657 90.1343 241.453 90.7093 241.104 91.2278C240.503 92.1669 239.52 92.8722 238.155 93.3436C236.882 93.7837 235.718 93.8199 234.666 93.4523C234.088 93.2538 233.586 92.9272 233.161 92.4725C232.727 92.0206 232.403 91.4846 232.188 90.8643C231.96 90.2027 231.868 89.5493 231.914 88.904C231.948 88.2534 232.137 87.6605 232.48 87.1255C232.801 86.6349 233.205 86.2224 233.691 85.8878C234.177 85.5532 234.735 85.2676 235.367 85.0311C236.695 84.5904 237.879 84.5471 238.918 84.901C239.515 85.102 240.034 85.4367 240.473 85.9051C240.902 86.3681 241.227 86.9221 241.45 87.5672ZM240.5 87.9512C240.331 87.4632 240.083 87.0398 239.755 86.6808C239.425 86.3137 239.037 86.0633 238.593 85.9298C237.799 85.6673 236.819 85.7375 235.653 86.1403C234.586 86.5089 233.833 87.0374 233.395 87.7256C233.134 88.0938 232.979 88.5174 232.932 88.9967C232.882 89.4676 232.936 89.9347 233.097 90.3978C233.265 90.8858 233.519 91.3119 233.858 91.6763C234.185 92.0352 234.573 92.2855 235.02 92.4273C235.767 92.6876 236.714 92.6288 237.861 92.251C238.977 91.8653 239.763 91.3254 240.218 90.6315C240.476 90.2551 240.629 89.8273 240.677 89.348C240.716 88.8716 240.657 88.406 240.5 87.9512Z" fill="#FF6CA9"/>
<path d="M231.318 83.0157L234.395 82.4774L233.771 78.9091L234.831 78.7237L235.455 82.292L239.579 81.5706L239.763 82.6178L230.454 84.2461L229.511 78.8548L230.558 78.6716L231.318 83.0157Z" fill="#FF6CA9"/>
<path d="M230.306 75.3537L233.427 75.2332L233.287 71.6133L234.363 71.5718L234.503 75.1916L238.686 75.0301L238.727 76.0924L229.284 76.457L229.073 70.988L230.136 70.947L230.306 75.3537Z" fill="#FF6CA9"/>
<path d="M230.316 67.5223L233.423 67.8469L233.84 63.8524L234.91 63.9642L234.493 67.9587L237.6 68.2833L238.099 63.5056L239.156 63.616L238.547 69.4512L229.148 68.4692L229.758 62.6341L230.815 62.7446L230.316 67.5223Z" fill="#FF6CA9"/>
<path d="M231.536 59.1082L234.56 59.8909L235.567 56.0028L236.608 56.2724L235.602 60.1606L238.626 60.9432L239.83 56.2927L240.859 56.5591L239.389 62.2388L230.241 59.8711L231.711 54.1914L232.74 54.4577L231.536 59.1082Z" fill="#FF6CA9"/>
<path d="M242.339 48.1578C242.132 48.5533 241.82 48.8196 241.403 48.9567C240.985 49.0939 240.579 49.0591 240.183 48.8523C239.788 48.6454 239.528 48.3315 239.402 47.9104C239.277 47.4894 239.318 47.0811 239.524 46.6857C239.723 46.3058 240.029 46.0511 240.442 45.9217C240.856 45.7923 241.26 45.831 241.656 46.0378C242.051 46.2446 242.313 46.5547 242.443 46.968C242.572 47.3813 242.538 47.7779 242.339 48.1578Z" fill="#FF6CA9"/>
<path d="M242.584 35.9375L244.962 37.9628L247.566 34.9051L248.386 35.6029L245.782 38.6606L248.16 40.686L251.274 37.0287L252.084 37.718L248.28 42.1846L241.085 36.0576L244.889 31.591L245.699 32.2803L242.584 35.9375Z" fill="#FF6CA9"/>
<path d="M255.811 31.8929L252.485 34.7887L253.209 36.5598L252.368 37.2923L248.588 28.0536L249.677 27.1055L258.307 32.1214L257.466 32.8539L255.811 31.8929ZM254.88 31.3634L249.889 28.4692L252.079 33.8024L254.88 31.3634Z" fill="#FF6CA9"/>
<path d="M259.738 23.1836C259.441 22.9782 259.156 22.8228 258.881 22.7175C258.607 22.6121 258.317 22.5634 258.011 22.5714C257.768 22.5808 257.517 22.6264 257.258 22.7083C256.999 22.7901 256.755 22.9039 256.526 23.0495C256.105 23.3172 255.797 23.6323 255.603 23.9947C255.484 24.2154 255.424 24.4557 255.424 24.7154C255.43 24.9704 255.497 25.1976 255.624 25.3969C255.802 25.6774 256.043 25.8513 256.345 25.9184C256.651 25.9929 257.132 25.9413 257.786 25.7635L259.482 25.2754C260.2 25.0674 260.842 25.0168 261.408 25.1235C261.729 25.1886 262.028 25.3151 262.303 25.5031C262.585 25.6863 262.814 25.9145 262.987 26.1876C263.203 26.5272 263.328 26.9098 263.36 27.3352C263.399 27.756 263.342 28.1553 263.188 28.5331C262.929 29.1854 262.353 29.7957 261.46 30.3641C260.33 31.0827 259.254 31.2491 258.231 30.8632C257.667 30.6618 257.139 30.3131 256.647 29.8171L257.4 28.9958C257.794 29.4193 258.191 29.7008 258.591 29.8404C258.969 29.9941 259.362 30.0341 259.772 29.9603C260.181 29.8865 260.574 29.7298 260.951 29.4903C261.224 29.3165 261.473 29.1058 261.7 28.8582C261.926 28.6105 262.088 28.3676 262.185 28.1294C262.28 27.9032 262.311 27.6757 262.28 27.4469C262.243 27.2107 262.162 26.9929 262.035 26.7936C261.828 26.4687 261.536 26.2707 261.159 26.1996C260.773 26.1137 260.328 26.1479 259.824 26.3022L258.088 26.8003C257.709 26.9063 257.363 26.9815 257.049 27.0258C256.738 27.0579 256.432 27.0502 256.132 27.0025C255.827 26.9475 255.544 26.8273 255.28 26.6421C255.025 26.4522 254.815 26.228 254.65 25.9696C254.42 25.6079 254.309 25.1965 254.316 24.7355C254.331 24.2697 254.453 23.85 254.682 23.4762C254.976 22.9776 255.43 22.5333 256.043 22.1435C256.685 21.7348 257.326 21.5191 257.965 21.4963C258.399 21.4789 258.831 21.5464 259.26 21.6988C259.689 21.8511 260.096 22.0746 260.48 22.3693L259.738 23.1836Z" fill="#FF6CA9"/>
<path d="M267.148 16.6764L266.518 22.9892L268.138 26.5924L267.156 27.0338L265.536 23.4306L260.384 19.7173L261.51 19.2114L265.527 22.0966L266.023 17.1823L267.148 16.6764Z" fill="#FF6CA9"/>
<path d="M281.447 19.9649C281.393 20.5466 281.241 21.0852 280.992 21.5808C280.703 22.1467 280.296 22.6113 279.77 22.9744C279.253 23.3358 278.664 23.5821 278.003 23.7134C277.334 23.8464 276.691 23.8447 276.075 23.7084C275.458 23.5635 274.913 23.2882 274.439 22.8826C273.581 22.1522 273.021 21.1305 272.76 19.8174C272.479 18.4013 272.595 17.1916 273.11 16.1884C273.39 15.6242 273.789 15.1614 274.306 14.8C274.823 14.4386 275.416 14.1914 276.085 14.0584C276.755 13.9254 277.402 13.9305 278.029 14.0737C278.653 14.2084 279.198 14.4794 279.662 14.8866C280.147 15.3077 280.53 15.8204 280.811 16.4248L279.765 16.8199C279.558 16.3614 279.292 15.9861 278.966 15.694C278.61 15.3812 278.189 15.1748 277.706 15.0746C277.23 14.9728 276.74 14.9721 276.233 15.0727C275.761 15.1665 275.33 15.3547 274.94 15.6374C274.557 15.9097 274.269 16.2526 274.074 16.6659C273.704 17.4084 273.634 18.359 273.865 19.5176C274.091 20.6591 274.52 21.515 275.151 22.0856C275.497 22.3915 275.908 22.5953 276.383 22.6972C276.867 22.7973 277.358 22.798 277.855 22.6991C278.327 22.6053 278.759 22.4214 279.151 22.1473C279.541 21.8647 279.838 21.5201 280.043 21.1137C280.21 20.7415 280.311 20.329 280.346 19.876L281.447 19.9649Z" fill="#FF6CA9"/>
<path d="M286.708 22.772C286.016 22.7827 285.376 22.6657 284.786 22.421C284.204 22.1675 283.722 21.7943 283.338 21.3014C282.633 20.4372 282.269 19.2833 282.247 17.8397C282.226 16.4923 282.555 15.3759 283.232 14.4903C283.601 14.0033 284.068 13.6286 284.633 13.3661C285.197 13.0948 285.808 12.9541 286.464 12.944C287.164 12.9332 287.813 13.05 288.412 13.2946C289.02 13.5302 289.524 13.8944 289.925 14.387C290.291 14.8451 290.557 15.3573 290.724 15.9236C290.89 16.4898 290.987 17.1097 291.015 17.7831C291.019 19.1832 290.691 20.3215 290.031 21.198C289.653 21.7027 289.174 22.0907 288.592 22.3623C288.018 22.6249 287.39 22.7615 286.708 22.772ZM286.639 21.7492C287.156 21.7412 287.635 21.6376 288.078 21.4382C288.53 21.2387 288.889 20.9488 289.155 20.5684C289.652 19.8956 289.891 18.9424 289.872 17.7088C289.854 16.5802 289.587 15.7005 289.07 15.0696C288.801 14.7062 288.447 14.4273 288.007 14.2328C287.575 14.0382 287.114 13.9447 286.624 13.9523C286.108 13.9602 285.624 14.0683 285.172 14.2766C284.729 14.476 284.37 14.7659 284.096 15.1464C283.615 15.7752 283.376 16.6934 283.377 17.901C283.395 19.0821 283.663 19.9968 284.181 20.6452C284.458 21.0084 284.816 21.2873 285.257 21.4818C285.697 21.6675 286.158 21.7566 286.639 21.7492Z" fill="#FF6CA9"/>
<path d="M294.552 14.5715L294.097 17.6619L297.681 18.1902L297.524 19.2549L293.94 18.7266L293.329 22.8688L292.278 22.7137L293.656 13.3647L299.07 14.1629L298.915 15.2146L294.552 14.5715Z" fill="#FF6CA9"/>
<path d="M302.014 15.9706L301.151 18.9729L304.633 19.9733L304.336 21.0077L300.854 20.0073L299.698 24.0314L298.676 23.7378L301.286 14.6553L306.546 16.1667L306.252 17.1885L302.014 15.9706Z" fill="#FF6CA9"/>
<path d="M309.326 18.3768L308.045 21.2258L311.708 22.8727L311.266 23.8543L307.603 22.2074L306.322 25.0565L310.704 27.0263L310.268 27.9959L304.917 25.5901L308.792 16.9712L314.143 19.377L313.707 20.3466L309.326 18.3768Z" fill="#FF6CA9"/>
<path d="M317.141 22.2854L315.444 24.9086L318.817 27.0894L318.233 27.9931L314.86 25.8123L313.164 28.4355L317.198 31.0439L316.621 31.9366L311.694 28.7509L316.825 20.8154L321.752 24.0011L321.175 24.8939L317.141 22.2854Z" fill="#FF6CA9"/>
<path d="M323.951 35.7947C323.639 35.4757 323.482 35.0966 323.48 34.6572C323.479 34.2179 323.638 33.8422 323.957 33.5301C324.276 33.218 324.655 33.0675 325.094 33.0784C325.533 33.0894 325.909 33.2544 326.221 33.5733C326.521 33.8798 326.668 34.2496 326.664 34.6826C326.659 35.1157 326.497 35.4883 326.178 35.8004C325.859 36.1125 325.483 36.2662 325.05 36.2614C324.617 36.2567 324.25 36.1011 323.951 35.7947Z" fill="#FF6CA9"/>
<path d="M335.68 40.061L333.014 41.6892L335.107 45.1168L334.189 45.6777L332.096 42.2502L329.43 43.8784L331.934 47.978L331.026 48.5321L327.968 43.5253L336.033 38.5996L339.091 43.6065L338.184 44.1606L335.68 40.061Z" fill="#FF6CA9"/>
<path d="M335.327 53.7589L333.609 49.6973L331.701 49.8347L331.266 48.8072L341.223 48.0876L341.785 49.4173L334.334 56.0602L333.899 55.0327L335.327 53.7589ZM336.12 53.0389L340.423 49.1954L334.673 49.6179L336.12 53.0389Z" fill="#FF6CA9"/>
<path d="M342.363 60.1881C342.65 59.9703 342.887 59.7475 343.073 59.5196C343.259 59.2917 343.395 59.0311 343.483 58.7378C343.55 58.5041 343.585 58.2514 343.588 57.9798C343.591 57.7081 343.559 57.4408 343.492 57.178C343.369 56.6947 343.166 56.304 342.882 56.0061C342.709 55.8243 342.5 55.6926 342.253 55.611C342.009 55.5378 341.772 55.5304 341.543 55.5887C341.221 55.6708 340.981 55.8448 340.823 56.1108C340.656 56.3789 340.556 56.8516 340.52 57.5287L340.455 59.2926C340.429 60.0397 340.277 60.6654 339.999 61.1696C339.837 61.4547 339.623 61.6986 339.359 61.9014C339.097 62.1127 338.809 62.2583 338.495 62.3382C338.105 62.4376 337.703 62.4362 337.289 62.3341C336.876 62.2404 336.515 62.0616 336.204 61.7977C335.665 61.3481 335.265 60.6103 335.003 59.5843C334.673 58.287 334.851 57.2124 335.537 56.3605C335.904 55.8877 336.4 55.495 337.024 55.1823L337.57 56.154C337.045 56.3961 336.653 56.6855 336.396 57.0219C336.132 57.3329 335.971 57.6944 335.914 58.1064C335.856 58.5184 335.882 58.9406 335.992 59.373C336.072 59.6867 336.195 59.9897 336.359 60.2818C336.524 60.5739 336.705 60.8034 336.901 60.9702C337.086 61.1306 337.292 61.2316 337.519 61.273C337.755 61.3122 337.988 61.3027 338.216 61.2444C338.59 61.1493 338.869 60.9338 339.054 60.5976C339.256 60.2572 339.362 59.8238 339.373 59.2974L339.441 57.4922C339.458 57.0995 339.495 56.747 339.551 56.4348C339.618 56.1289 339.72 55.8409 339.859 55.5708C340.006 55.2984 340.209 55.0662 340.467 54.8741C340.727 54.6904 341.006 54.5608 341.303 54.4852C341.718 54.3793 342.144 54.4018 342.579 54.5527C343.017 54.712 343.378 54.9587 343.662 55.2927C344.044 55.7282 344.324 56.2978 344.504 57.0016C344.692 57.7393 344.697 58.4152 344.519 59.0293C344.4 59.4479 344.201 59.8371 343.923 60.197C343.644 60.5569 343.305 60.8736 342.905 61.147L342.363 60.1881Z" fill="#FF6CA9"/>
<path d="M346.208 69.0209L340.4 66.4686L336.472 66.8942L336.356 65.8243L340.284 65.3987L345.409 61.6484L345.542 62.875L341.555 65.8021L346.075 67.7943L346.208 69.0209Z" fill="#FF6CA9"/>
<path d="M315.37 79.283C314.851 79.3639 314.371 79.4342 313.932 79.494C313.519 79.5469 313.109 79.5569 312.701 79.5243C312.313 79.4584 311.914 79.3534 311.504 79.209C311.087 79.0386 310.649 78.7896 310.189 78.4622L309.47 75.0349C310.091 75.432 310.604 75.7454 311.008 75.9752C311.405 76.1789 311.749 76.3407 312.038 76.4607C312.346 76.5476 312.644 76.5952 312.931 76.6036C313.211 76.5858 313.528 76.5445 313.88 76.4795C315.727 75.9365 316.96 74.658 317.58 72.6441C318.199 70.6301 318.152 67.6845 317.439 63.8071C317.422 64.7928 317.374 65.871 317.294 67.0417C317.206 68.1863 317.018 69.2733 316.729 70.303C316.439 71.3326 316.017 72.2429 315.464 73.0338C314.903 73.7986 314.144 74.3072 313.187 74.5595C312.974 74.6156 312.788 74.6647 312.628 74.7067C312.496 74.7418 312.329 74.7577 312.129 74.7544C310.801 74.7961 309.791 74.4876 309.099 73.829C308.4 73.1442 307.901 72.2525 307.601 71.1537C307.366 70.2905 307.224 69.4026 307.175 68.4903C307.153 67.5709 307.161 66.6576 307.199 65.7504C307.263 64.8362 307.324 63.9089 307.381 62.9685C307.465 62.0211 307.496 61.0877 307.474 60.1684C307.26 60.5332 307.034 61.0132 306.797 61.6084C306.587 62.1966 306.376 62.9391 306.165 63.8361C305.953 64.7331 305.765 65.8202 305.6 67.0974C305.434 68.3746 305.33 69.8742 305.286 71.5961L303.416 64.7291C303.32 64.1657 303.37 63.4094 303.568 62.4601C303.758 61.4846 304.052 60.5239 304.45 59.5779C304.847 58.6319 305.327 57.7765 305.888 57.0117C306.449 56.2469 307.062 55.7769 307.726 55.6017C308.47 55.4054 309.052 55.4483 309.47 55.7304C309.916 56.0056 310.231 56.4832 310.416 57.1634C310.687 58.1574 310.811 59.1901 310.79 60.2613C310.787 61.2993 310.742 62.3347 310.652 63.3676C310.577 64.4528 310.539 65.5145 310.537 66.5525C310.527 67.5643 310.661 68.5804 310.939 69.6006C311.188 70.5162 311.632 70.8899 312.27 70.7217C313.413 70.4203 314.097 68.852 314.322 66.0168C314.548 63.1816 314.529 59.1909 314.268 54.0448L318.016 53.0564L319.672 59.1386C320.384 61.7547 320.85 64.1974 321.069 66.4668C321.314 68.7292 321.279 70.7434 320.962 72.5092C320.671 74.2681 320.059 75.7334 319.124 76.9051C318.216 78.0698 316.965 78.8624 315.37 79.283Z" fill="#FF6CA9"/>
<path d="M292.132 65.9812C292.375 66.8707 293.044 67.7596 294.141 68.648C295.257 69.5033 296.823 70.338 298.839 71.1521C302.993 72.8045 305.404 74.8603 306.074 77.3193C306.288 78.1041 306.319 78.7967 306.169 79.397C306.046 79.9903 305.805 80.5166 305.445 80.9758C305.086 81.435 304.622 81.8238 304.054 82.1419C303.504 82.4269 302.898 82.6571 302.233 82.8323C300.08 83.4001 297.954 83.386 295.854 82.7901C293.755 82.1942 291.779 81.2152 289.926 79.8531L288.003 72.7899C288.613 73.6667 289.441 74.5136 290.49 75.3305C291.558 76.1143 292.688 76.8117 293.88 77.4227C295.065 78.0074 296.211 78.4483 297.317 78.7453C298.45 79.0354 299.392 79.0953 300.144 78.9252C301.226 78.6116 301.664 78.0755 301.458 77.3169C301.365 76.9768 301.129 76.6325 300.749 76.2841C300.37 75.9356 299.903 75.582 299.349 75.2233C298.823 74.8576 298.239 74.4928 297.599 74.1289C296.958 73.765 296.325 73.4273 295.699 73.1158L294.85 72.6667C294.055 72.2594 293.28 71.8189 292.525 71.3453C291.769 70.8717 291.063 70.3709 290.406 69.8431C289.769 69.2821 289.208 68.687 288.724 68.0578C288.258 67.3954 287.926 66.698 287.727 65.9655C287.549 65.3115 287.501 64.6652 287.583 64.0266C287.692 63.3809 287.916 62.7893 288.254 62.2515C288.611 61.6806 289.064 61.1969 289.611 60.8002C290.178 60.3704 290.833 60.0573 291.577 59.8611C292.189 59.6998 292.829 59.6433 293.497 59.6913C294.192 59.7324 294.868 59.8624 295.526 60.0815C296.177 60.2743 296.792 60.5466 297.372 60.8984C297.979 61.2431 298.503 61.6515 298.945 62.1238L297.92 58.3567L301.428 57.4315L304.035 67.0061L301.138 69.7049L300.977 69.1163C300.64 68.5043 300.182 67.8681 299.603 67.2076C299.044 66.5139 298.406 65.8971 297.689 65.3571C296.999 64.8101 296.274 64.3984 295.515 64.1219C294.749 63.8192 293.994 63.766 293.249 63.9623C292.744 64.0955 292.405 64.3672 292.232 64.7774C292.059 65.1875 292.026 65.5888 292.132 65.9812Z" fill="#FF6CA9"/>
<path d="M279.915 88.7593C278.985 89.0046 278.145 89.0579 277.395 88.9192C276.638 88.7544 275.955 88.4438 275.346 87.9874C274.764 87.5241 274.26 86.928 273.834 86.1993C273.407 85.4706 273.073 84.6615 272.831 83.772C272.56 82.7779 272.491 81.8429 272.623 80.967C272.748 80.0649 273.037 79.2455 273.492 78.5088C273.973 77.765 274.613 77.1336 275.412 76.6145C276.204 76.0693 277.145 75.653 278.235 75.3656C279.51 75.0291 280.911 74.9402 282.435 75.0989C282.426 74.5407 282.354 73.8586 282.22 73.0528C282.086 72.247 281.905 71.4255 281.677 70.5884C281.549 70.1175 281.385 69.6702 281.184 69.2465C281.01 68.8158 280.8 68.4645 280.555 68.1927C280.303 67.8946 280.016 67.676 279.693 67.5369C279.397 67.3907 279.062 67.3666 278.69 67.4648C277.467 67.7872 276.407 68.8099 275.509 70.5328C274.61 72.2558 273.72 74.6356 272.837 77.6721L271.373 72.2962C271.79 70.8966 272.23 69.6871 272.693 68.6677C273.156 67.6484 273.675 66.7824 274.251 66.07C274.819 65.3314 275.456 64.7427 276.163 64.304C276.87 63.8652 277.662 63.5302 278.539 63.2989C279.469 63.0536 280.301 63.0727 281.033 63.3562C281.766 63.6397 282.414 64.0855 282.978 64.6937C283.543 65.3019 284.016 66.0463 284.398 66.9268C284.8 67.7742 285.122 68.6426 285.364 69.5321C285.677 70.6831 285.921 71.8386 286.094 72.9985C286.294 74.1515 286.364 75.1423 286.305 75.971C286.789 76.1798 287.267 76.4182 287.739 76.6864C288.231 76.9213 288.7 77.2321 289.147 77.6189L290.461 82.4455C289.757 81.8462 288.902 81.2723 287.898 80.724C286.887 80.1495 285.831 79.6709 284.73 79.2884C283.648 78.8728 282.572 78.5818 281.501 78.4156C280.456 78.2424 279.549 78.2574 278.778 78.4607C278.087 78.6429 277.531 78.9018 277.109 79.2372C276.681 79.5465 276.353 79.9133 276.127 80.3375C275.927 80.7546 275.804 81.1935 275.759 81.6542C275.74 82.1078 275.791 82.5569 275.912 83.0017C276.104 83.708 276.474 84.2274 277.02 84.56C277.593 84.8856 278.238 84.9537 278.956 84.7645C280.338 84.4 281.287 83.701 281.804 82.6676C282.32 81.6342 282.536 80.3857 282.451 78.9221C283.034 79.0767 283.628 79.2705 284.233 79.5036C284.838 79.7367 285.48 80.0019 286.159 80.2995C286.203 81.2973 286.066 82.2587 285.748 83.1837C285.456 84.1017 285.013 84.9335 284.418 85.6791C283.85 86.4178 283.17 87.0597 282.379 87.6049C281.614 88.1432 280.792 88.5279 279.915 88.7593Z" fill="#FF6CA9"/>
<path d="M263.047 80.8005C263.134 80.8057 263.363 80.7592 263.735 80.661C264.267 80.5208 264.8 80.2821 265.335 79.9447C265.87 79.6074 266.211 79.2372 266.357 78.834C265.987 78.6233 265.558 78.5122 265.07 78.5005C264.609 78.4819 264.179 78.5251 263.781 78.6303C263.329 78.7495 262.892 78.9768 262.471 79.3122C262.049 79.6477 261.676 80.0546 261.35 80.533C260.909 80.4812 260.406 80.3614 259.842 80.1736C259.305 79.9789 258.827 79.7404 258.408 79.4583C258.946 78.5034 259.613 77.7106 260.41 77.0799C261.233 76.4421 262.137 75.9936 263.12 75.7342C264.237 75.4398 265.348 75.4411 266.455 75.7381C267.561 76.0352 268.537 76.6891 269.382 77.6999C269.507 78.368 269.471 79.0222 269.275 79.6627C269.072 80.277 268.745 80.854 268.294 81.3936C267.869 81.9262 267.343 82.4013 266.716 82.819C266.082 83.2106 265.393 83.5045 264.648 83.7007C263.877 83.904 263.099 84.0253 262.312 84.0646C261.525 84.1039 260.775 84.0211 260.064 83.816C259.835 84.4374 259.744 84.994 259.793 85.4859C259.834 85.9517 259.919 86.42 260.047 86.8909C260.367 88.0681 261.079 88.9037 262.182 89.3979C263.278 89.8659 264.518 89.9176 265.9 89.5531C266.485 89.3989 267.035 89.1698 267.55 88.8656C268.066 88.5614 268.49 88.1832 268.822 87.731C269.175 87.2456 269.409 86.6932 269.525 86.0737C269.634 85.4281 269.578 84.6998 269.358 83.8888C269.322 83.758 269.283 83.6141 269.24 83.4572C269.19 83.2741 269.117 83.111 269.021 82.9681L272.475 82.3098L274.558 89.9616L271.328 90.8133L270.88 89.1652C270.461 90.0328 269.775 90.7602 268.824 91.3475C267.873 91.9348 266.813 92.3826 265.643 92.6911C264.606 92.9644 263.587 93.093 262.586 93.0767C261.577 93.0343 260.656 92.8426 259.822 92.5016C259.008 92.1275 258.295 91.6006 257.683 90.921C257.07 90.2413 256.622 89.3783 256.337 88.3319C256.016 87.1547 255.888 86.109 255.953 85.1947C256.037 84.2473 256.311 83.3198 256.776 82.412C255.751 81.7852 254.998 81.1144 254.519 80.3997C254.059 79.6518 253.679 78.7285 253.38 77.6298C253.117 76.6619 253.044 75.7138 253.161 74.7856C253.272 73.8312 253.544 72.9463 253.977 72.1311C254.41 71.3159 255.003 70.613 255.753 70.0225C256.524 69.3987 257.427 68.9502 258.464 68.6768C259.341 68.4455 260.11 68.3408 260.772 68.3627C261.433 68.3846 262.019 68.4964 262.529 68.6982C263.04 68.9 263.476 69.1917 263.836 69.5733C264.216 69.9218 264.58 70.3165 264.928 70.7574C264.956 70.4416 264.969 70.0735 264.969 69.6531C264.995 69.2256 265.015 68.8279 265.029 68.4597C265.035 68.0655 265.033 67.7436 265.022 67.4941C265.031 67.2115 265.031 67.0571 265.024 67.0309L268.174 66.2003L268.542 73.6736L263.945 74.2129C263.382 73.2959 262.698 72.7192 261.893 72.4829C261.115 72.2396 260.34 72.2196 259.569 72.4228C258.958 72.5841 258.428 72.8359 257.98 73.1784C257.559 73.5138 257.212 73.9137 256.939 74.3781C256.686 74.8093 256.518 75.2884 256.433 75.8154C256.368 76.3091 256.407 76.8176 256.549 77.3408C256.735 78.021 257.048 78.5972 257.49 79.0695C257.932 79.5417 258.449 79.9241 259.042 80.2165C259.627 80.4827 260.264 80.6791 260.954 80.8056C261.663 80.899 262.361 80.8973 263.047 80.8005Z" fill="#FF6CA9"/>
</g>
<defs>
<linearGradient id="paint0_linear_126_773" x1="0" y1="32.6564" x2="360" y2="32.6564" gradientUnits="userSpaceOnUse">
<stop stop-color="#D4DBE2" stop-opacity="0"/>
<stop offset="0.535" stop-color="#D4DBE2"/>
<stop offset="1" stop-color="#D4DBE2" stop-opacity="0"/>
</linearGradient>
<linearGradient id="paint1_linear_126_773" x1="110.5" y1="68" x2="110.5" y2="36" gradientUnits="userSpaceOnUse">
<stop stop-color="#D4DBE2" stop-opacity="0"/>
<stop offset="0.535" stop-color="#D4DBE2"/>
<stop offset="1" stop-color="#D4DBE2" stop-opacity="0"/>
</linearGradient>
<linearGradient id="paint2_linear_126_773" x1="294.5" y1="68" x2="294.5" y2="36" gradientUnits="userSpaceOnUse">
<stop stop-color="#D4DBE2" stop-opacity="0"/>
<stop offset="0.535" stop-color="#D4DBE2"/>
<stop offset="1" stop-color="#D4DBE2" stop-opacity="0"/>
</linearGradient>
<linearGradient id="paint3_linear_126_773" x1="0" y1="72.5" x2="360" y2="72.5" gradientUnits="userSpaceOnUse">
<stop stop-color="#D4DBE2" stop-opacity="0"/>
<stop offset="0.535" stop-color="#D4DBE2"/>
<stop offset="1" stop-color="#D4DBE2" stop-opacity="0"/>
</linearGradient>
<linearGradient id="paint4_linear_126_773" x1="0" y1="112.5" x2="360" y2="112.5" gradientUnits="userSpaceOnUse">
<stop stop-color="#D4DBE2" stop-opacity="0"/>
<stop offset="0.535" stop-color="#D4DBE2"/>
<stop offset="1" stop-color="#D4DBE2" stop-opacity="0"/>
</linearGradient>
<linearGradient id="paint5_linear_126_773" x1="0" y1="152.5" x2="360" y2="152.5" gradientUnits="userSpaceOnUse">
<stop stop-color="#D4DBE2" stop-opacity="0"/>
<stop offset="0.535" stop-color="#D4DBE2"/>
<stop offset="1" stop-color="#D4DBE2" stop-opacity="0"/>
</linearGradient>
<clipPath id="clip0_126_773">
<rect width="360" height="121" fill="white" transform="translate(0 31)"/>
</clipPath>
</defs>
</svg>
