<svg width="176" height="48" viewBox="0 0 176 48" fill="none" xmlns="http://www.w3.org/2000/svg">
<rect x="2" y="2" width="44" height="44" rx="22" fill="#FF6CA9"/>
<rect x="2" y="2" width="44" height="44" rx="22" stroke="white" stroke-width="4"/>
<path d="M19.6667 30C19.2246 30 18.8007 29.8244 18.4882 29.5118C18.1756 29.1993 18 28.7754 18 28.3333V17C18 16.7348 17.8946 16.4804 17.7071 16.2929C17.5196 16.1054 17.2652 16 17 16C16.7348 16 16.4804 16.1054 16.2929 16.2929C16.1054 16.4804 16 16.7348 16 17V28.3333C16 29.3058 16.3863 30.2384 17.0739 30.9261C17.7616 31.6137 18.6942 32 19.6667 32H31C31.2652 32 31.5196 31.8946 31.7071 31.7071C31.8946 31.5196 32 31.2652 32 31C32 30.7348 31.8946 30.4804 31.7071 30.2929C31.5196 30.1054 31.2652 30 31 30H19.6667Z" fill="white"/>
<path d="M29 28.0001C29.2652 28.0001 29.5196 27.8947 29.7071 27.7072C29.8946 27.5197 30 27.2653 30 27.0001V23.0001C30 22.7349 29.8946 22.4805 29.7071 22.293C29.5196 22.1054 29.2652 22.0001 29 22.0001C28.7348 22.0001 28.4804 22.1054 28.2929 22.293C28.1054 22.4805 28 22.7349 28 23.0001V27.0001C28 27.2653 28.1054 27.5197 28.2929 27.7072C28.4804 27.8947 28.7348 28.0001 29 28.0001ZM21 28.0001C21.2652 28.0001 21.5196 27.8947 21.7071 27.7072C21.8946 27.5197 22 27.2653 22 27.0001V23.0001C22 22.7349 21.8946 22.4805 21.7071 22.293C21.5196 22.1054 21.2652 22.0001 21 22.0001C20.7348 22.0001 20.4804 22.1054 20.2929 22.293C20.1054 22.4805 20 22.7349 20 23.0001V27.0001C20 27.2653 20.1054 27.5197 20.2929 27.7072C20.4804 27.8947 20.7348 28.0001 21 28.0001ZM25 28.0001C25.2652 28.0001 25.5196 27.8947 25.7071 27.7072C25.8946 27.5197 26 27.2653 26 27.0001V19.6667C26 19.4015 25.8946 19.1472 25.7071 18.9596C25.5196 18.7721 25.2652 18.6667 25 18.6667C24.7348 18.6667 24.4804 18.7721 24.2929 18.9596C24.1054 19.1472 24 19.4015 24 19.6667V27.0001C24 27.2653 24.1054 27.5197 24.2929 27.7072C24.4804 27.8947 24.7348 28.0001 25 28.0001Z" fill="white"/>
<rect x="34" y="2" width="44" height="44" rx="22" fill="#FF7E47"/>
<rect x="34" y="2" width="44" height="44" rx="22" stroke="white" stroke-width="4"/>
<g clip-path="url(#clip0_113_181)">
<path d="M63.1807 30.0707L62.6667 28.8634V19.1367L63.1753 17.9474C63.2816 17.7488 63.3351 17.5262 63.3305 17.301C63.326 17.0757 63.2636 16.8555 63.1493 16.6614C63.0337 16.4592 62.8663 16.2915 62.6645 16.1752C62.4627 16.059 62.2336 15.9986 62.0007 16H49.9993C49.52 16 49.0913 16.2474 48.8507 16.6614C48.7364 16.8555 48.674 17.0757 48.6695 17.301C48.6649 17.5262 48.7183 17.7488 48.8247 17.9474L49.3333 19.1367V28.864L48.8193 30.0714C48.7137 30.2703 48.6609 30.4929 48.6659 30.7181C48.6709 30.9432 48.7336 31.1633 48.848 31.3574C48.9639 31.5588 49.1312 31.726 49.3327 31.8418C49.5343 31.9576 49.7629 32.018 49.9953 32.0167H62.0047C62.4827 32.0167 62.9107 31.77 63.152 31.3574C63.3853 30.9567 63.3947 30.4787 63.1807 30.0707ZM61.9967 17.3247C61.9833 17.3467 61.4187 18.666 61.4187 18.666H50.582C50.582 18.666 50.012 17.3547 49.9993 17.3327L61.996 17.3247H61.9967ZM61.334 19.9994V27.9994H50.6667V20H61.3333L61.334 19.9994ZM50.0007 30.69C50.0133 30.668 50.5827 29.3334 50.5827 29.3334H61.4173C61.4173 29.3334 61.992 30.6607 62.0047 30.6827L50.0007 30.69ZM55.3333 25.3007V26C55.3333 26.1768 55.4036 26.3464 55.5286 26.4714C55.6536 26.5965 55.8232 26.6667 56 26.6667C56.1768 26.6667 56.3464 26.5965 56.4714 26.4714C56.5964 26.3464 56.6667 26.1768 56.6667 26V25.2974C57.714 25.178 59.6633 24.6114 59.9947 22.076C60.05 21.6527 59.6733 21.2774 59.2507 21.3407C56.9087 21.692 56.22 23.6447 56.0013 24.6614H55.9987C55.782 23.6427 55.0753 21.6927 52.7493 21.3407C52.328 21.2767 51.952 21.6507 52.0047 22.0734C52.3233 24.6134 54.2813 25.1807 55.3327 25.3007H55.3333Z" fill="white"/>
</g>
<rect x="66" y="2" width="44" height="44" rx="22" fill="#9747FF"/>
<rect x="66" y="2" width="44" height="44" rx="22" stroke="white" stroke-width="4"/>
<g clip-path="url(#clip1_113_181)">
<path d="M96 29.3333V30C96 30.1768 95.9298 30.3464 95.8047 30.4714C95.6797 30.5964 95.5101 30.6667 95.3333 30.6667C95.1565 30.6667 94.987 30.5964 94.8619 30.4714C94.7369 30.3464 94.6667 30.1768 94.6667 30V29.3333C94.6667 29.1565 94.5964 28.987 94.4714 28.8619C94.3464 28.7369 94.1768 28.6667 94 28.6667H88.6667V30C88.6667 30.1768 88.5964 30.3464 88.4714 30.4714C88.3464 30.5964 88.1768 30.6667 88 30.6667C87.8232 30.6667 87.6536 30.5964 87.5286 30.4714C87.4036 30.3464 87.3333 30.1768 87.3333 30V28.6667H82C81.6327 28.6667 81.3333 28.9653 81.3333 29.3333V30C81.3333 30.1768 81.2631 30.3464 81.1381 30.4714C81.013 30.5964 80.8435 30.6667 80.6667 30.6667C80.4899 30.6667 80.3203 30.5964 80.1953 30.4714C80.0702 30.3464 80 30.1768 80 30V29.3333C80 28.2307 80.8973 27.3333 82 27.3333H94C95.1027 27.3333 96 28.2307 96 29.3333ZM80 24V20C80 18.8973 80.8973 18 82 18H86C87.1027 18 88 18.8973 88 20V24C88 25.1027 87.1027 26 86 26H82C80.8973 26 80 25.1027 80 24ZM81.3333 24C81.3333 24.368 81.6327 24.6667 82 24.6667H86C86.3673 24.6667 86.6667 24.368 86.6667 24V20C86.6667 19.632 86.3673 19.3333 86 19.3333H82C81.6327 19.3333 81.3333 19.632 81.3333 20V24ZM96 21.3333V24C96 25.1027 95.1027 26 94 26H91.3333C90.2307 26 89.3333 25.1027 89.3333 24V21.3333C89.3333 20.2307 90.2307 19.3333 91.3333 19.3333H94C95.1027 19.3333 96 20.2307 96 21.3333ZM94.6667 21.3333C94.6667 21.1565 94.5964 20.987 94.4714 20.8619C94.3464 20.7369 94.1768 20.6667 94 20.6667H91.3333C91.1565 20.6667 90.987 20.7369 90.8619 20.8619C90.7369 20.987 90.6667 21.1565 90.6667 21.3333V24C90.6667 24.1768 90.7369 24.3464 90.8619 24.4714C90.987 24.5964 91.1565 24.6667 91.3333 24.6667H94C94.1768 24.6667 94.3464 24.5964 94.4714 24.4714C94.5964 24.3464 94.6667 24.1768 94.6667 24V21.3333Z" fill="white"/>
</g>
<rect x="98" y="2" width="44" height="44" rx="22" fill="#29ABE2"/>
<rect x="98" y="2" width="44" height="44" rx="22" stroke="white" stroke-width="4"/>
<g clip-path="url(#clip2_113_181)">
<path d="M124.667 19.3334H123.282C123.171 18.7039 122.881 18.1197 122.446 17.6506C122.012 17.1815 121.452 16.8474 120.833 16.6881C120.662 16.6441 120.48 16.6698 120.328 16.7597C120.176 16.8496 120.065 16.9963 120.021 17.1674C119.977 17.3386 120.003 17.5202 120.093 17.6724C120.183 17.8245 120.33 17.9347 120.501 17.9787C120.93 18.0897 121.31 18.3402 121.582 18.6909C121.853 19.0416 122 19.4726 122 19.9161V27.3334H114.667C113.931 27.3334 113.333 26.7354 113.333 26.0001V23.3334H115C115.177 23.3334 115.346 23.2632 115.471 23.1382C115.596 23.0131 115.667 22.8436 115.667 22.6667C115.667 22.4899 115.596 22.3204 115.471 22.1953C115.346 22.0703 115.177 22.0001 115 22.0001H113.333C112.598 22.0001 112 22.5981 112 23.3334V26.0001C112.001 26.5976 112.202 27.1775 112.571 27.6473C112.94 28.117 113.456 28.4495 114.037 28.5914C113.977 28.9271 113.992 29.2716 114.08 29.6008C114.168 29.9301 114.327 30.2361 114.546 30.4974C114.765 30.7587 115.039 30.9689 115.347 31.1133C115.656 31.2577 115.993 31.3329 116.333 31.3334C116.668 31.3329 116.998 31.2605 117.302 31.1213C117.606 30.9821 117.877 30.7792 118.096 30.5264C118.314 30.2736 118.477 29.9768 118.571 29.6559C118.665 29.3351 118.689 28.9978 118.642 28.6667H121.358C121.311 28.9978 121.335 29.3351 121.429 29.6559C121.523 29.9768 121.686 30.2736 121.904 30.5264C122.123 30.7792 122.394 30.9821 122.698 31.1213C123.002 31.2605 123.332 31.3329 123.667 31.3334C124.007 31.3329 124.344 31.2577 124.653 31.1133C124.961 30.9689 125.235 30.7587 125.454 30.4974C125.673 30.2361 125.832 29.9301 125.92 29.6008C126.008 29.2716 126.023 28.9271 125.963 28.5914C126.544 28.4495 127.06 28.117 127.429 27.6473C127.798 27.1775 127.999 26.5976 128 26.0001V22.6667C128 20.8287 126.505 19.3334 124.667 19.3334ZM126.667 22.6667V23.3334H123.333V20.6667H124.667C125.769 20.6667 126.667 21.5641 126.667 22.6667ZM117.333 29.0001C117.333 29.5514 116.885 30.0001 116.333 30.0001C115.782 30.0001 115.333 29.5514 115.333 29.0001C115.333 28.8741 115.358 28.7627 115.394 28.6667H117.273C117.309 28.7627 117.334 28.8741 117.334 29.0001H117.333ZM123.667 30.0001C123.115 30.0001 122.667 29.5514 122.667 29.0001C122.667 28.8741 122.691 28.7627 122.727 28.6667H124.607C124.643 28.7627 124.667 28.8741 124.667 29.0001C124.667 29.5514 124.218 30.0001 123.667 30.0001ZM125.333 27.3334H123.333V24.6667H126.667V26.0001C126.667 26.7354 126.069 27.3334 125.333 27.3334ZM112 17.3334C112 17.1566 112.07 16.987 112.195 16.862C112.32 16.737 112.49 16.6667 112.667 16.6667H118.103C118.279 16.6667 118.449 16.737 118.574 16.862C118.699 16.987 118.769 17.1566 118.769 17.3334C118.769 17.5102 118.699 17.6798 118.574 17.8048C118.449 17.9298 118.279 18.0001 118.103 18.0001H112.667C112.49 18.0001 112.32 17.9298 112.195 17.8048C112.07 17.6798 112 17.5102 112 17.3334ZM112 20.0001C112 19.8233 112.07 19.6537 112.195 19.5287C112.32 19.4037 112.49 19.3334 112.667 19.3334H116.769C116.946 19.3334 117.116 19.4037 117.241 19.5287C117.366 19.6537 117.436 19.8233 117.436 20.0001C117.436 20.1769 117.366 20.3465 117.241 20.4715C117.116 20.5965 116.946 20.6667 116.769 20.6667H112.667C112.49 20.6667 112.32 20.5965 112.195 20.4715C112.07 20.3465 112 20.1769 112 20.0001Z" fill="white"/>
</g>
<rect x="130" y="2" width="44" height="44" rx="22" fill="#F5B81C"/>
<rect x="130" y="2" width="44" height="44" rx="22" stroke="white" stroke-width="4"/>
<g clip-path="url(#clip3_113_181)">
<path d="M156 21.8887C153.794 21.8887 152 24.1814 152 27.0001C152 29.8187 153.794 32.1114 156 32.1114C158.206 32.1114 160 29.8187 160 27.0001C160 24.1814 158.206 21.8887 156 21.8887ZM153.333 27.0001C153.333 25.1181 154.311 23.5581 155.583 23.2727C155.817 23.7141 156.265 24.9261 155.4 26.7087C154.636 28.2821 154.675 29.5601 154.895 30.4341C153.975 29.8374 153.333 28.5241 153.333 26.9994L153.333 27.0001ZM156.417 30.7274C156.183 30.2861 155.735 29.0741 156.6 27.2914C157.364 25.7181 157.325 24.4394 157.105 23.5661C158.025 24.1627 158.667 25.4761 158.667 27.0007C158.667 28.8827 157.69 30.4427 156.418 30.7281L156.417 30.7274ZM152.338 16.9954C151.545 16.2021 150.406 15.8661 149.138 16.0467C147.939 16.2181 146.751 16.8387 145.795 17.7954C143.771 19.8194 143.412 22.7547 144.995 24.3381C145.648 24.9907 146.533 25.3347 147.535 25.3347C147.75 25.3347 147.971 25.3187 148.195 25.2867C149.395 25.1154 150.582 24.4947 151.538 23.5381C153.562 21.5141 153.921 18.5787 152.338 16.9954ZM146.739 18.7381C147.492 17.9847 148.411 17.4981 149.327 17.3667C149.486 17.3441 149.641 17.3321 149.792 17.3321C150.277 17.3321 150.711 17.4487 151.065 17.6734C150.921 18.1554 150.375 19.3681 148.448 20.0354C146.75 20.6241 145.858 21.5854 145.393 22.3754C145.143 21.2754 145.627 19.8481 146.738 18.7374L146.739 18.7381ZM150.595 22.5947C149.842 23.3481 148.923 23.8347 148.007 23.9661C147.333 24.0621 146.733 23.9501 146.27 23.6554C146.416 23.1714 146.964 21.9627 148.886 21.2967C150.584 20.7081 151.476 19.7467 151.941 18.9567C152.191 20.0567 151.707 21.4841 150.596 22.5947H150.595Z" fill="white"/>
</g>
<defs>
<clipPath id="clip0_113_181">
<rect width="16" height="16" fill="white" transform="translate(48 16)"/>
</clipPath>
<clipPath id="clip1_113_181">
<rect width="16" height="16" fill="white" transform="translate(80 16)"/>
</clipPath>
<clipPath id="clip2_113_181">
<rect width="16" height="16" fill="white" transform="translate(112 16)"/>
</clipPath>
<clipPath id="clip3_113_181">
<rect width="16" height="16" fill="white" transform="translate(144 16)"/>
</clipPath>
</defs>
</svg>
