<svg width="360" height="121" viewBox="0 0 360 121" fill="none" xmlns="http://www.w3.org/2000/svg">
<g clip-path="url(#clip0_1_859)">
<path d="M83.8161 26.2031C83.2925 26.2031 82.8095 26.1038 82.3671 25.9052C81.9248 25.7066 81.5546 25.4132 81.2567 25.025C80.7331 24.3479 80.4713 23.4497 80.4713 22.3302C80.4713 21.2198 80.7331 20.326 81.2567 19.649C81.5366 19.2788 81.9022 18.9944 82.3536 18.7958C82.805 18.5882 83.2925 18.4844 83.8161 18.4844C84.3397 18.4844 84.8227 18.5837 85.2651 18.7823C85.7165 18.9809 86.0866 19.2698 86.3755 19.649C86.8991 20.326 87.1609 21.2198 87.1609 22.3302C87.1609 23.4497 86.8991 24.3479 86.3755 25.025C86.0776 25.4222 85.7074 25.7201 85.2651 25.9188C84.8317 26.1083 84.3487 26.2031 83.8161 26.2031ZM85.9151 24.6729C86.3394 24.1222 86.5515 23.3413 86.5515 22.3302C86.5515 21.3281 86.3394 20.5517 85.9151 20.001C85.6803 19.6941 85.3779 19.4594 85.0078 19.2969C84.6376 19.1344 84.2404 19.0531 83.8161 19.0531C83.3918 19.0531 82.9946 19.1344 82.6244 19.2969C82.2543 19.4594 81.9564 19.6941 81.7307 20.001C81.2974 20.5698 81.0807 21.3462 81.0807 22.3302C81.0807 23.3233 81.2974 24.1042 81.7307 24.6729C81.9564 24.9799 82.2543 25.2191 82.6244 25.3906C82.9946 25.5531 83.3918 25.6344 83.8161 25.6344C84.2404 25.6344 84.6376 25.5531 85.0078 25.3906C85.3779 25.2191 85.6803 24.9799 85.9151 24.6729Z" fill="#3F4349"/>
<path d="M78.9817 18.6875V26H78.413V22.3031H73.7276V26H73.1588V18.6875H73.7276V21.7344H78.413V18.6875H78.9817Z" fill="#3F4349"/>
<path d="M70.894 19.6625C71.4086 20.3306 71.6658 21.2198 71.6658 22.3302C71.6658 23.4406 71.4086 24.3344 70.894 25.0115C70.587 25.3997 70.2124 25.6976 69.77 25.9052C69.3367 26.1038 68.8627 26.2031 68.3481 26.2031C67.8336 26.2031 67.3596 26.0948 66.9263 25.8781C66.502 25.6615 66.1499 25.35 65.87 24.9438C65.8158 24.8715 65.7436 24.7542 65.6534 24.5917V29.25H65.0846V18.6875H65.6127V20.1635C65.703 19.983 65.7888 19.834 65.87 19.7167C66.1589 19.3194 66.529 19.017 66.9804 18.8094C67.4408 18.5927 67.9329 18.4844 68.4565 18.4844C68.944 18.4844 69.3999 18.5882 69.8242 18.7958C70.2485 19.0035 70.6051 19.2924 70.894 19.6625ZM70.42 24.6458C70.8443 24.1042 71.0565 23.3323 71.0565 22.3302C71.0565 21.3281 70.8443 20.5563 70.42 20.0146C70.1853 19.7076 69.8829 19.4729 69.5127 19.3104C69.1516 19.1389 68.7634 19.0531 68.3481 19.0531C67.9238 19.0531 67.5221 19.1344 67.1429 19.2969C66.7728 19.4594 66.4749 19.6986 66.2492 20.0146C65.8249 20.5743 65.6127 21.3462 65.6127 22.3302C65.6127 23.3233 65.8249 24.0997 66.2492 24.6594C66.4839 24.9753 66.7863 25.2191 67.1565 25.3906C67.5266 25.5531 67.9238 25.6344 68.3481 25.6344C68.7634 25.6344 69.1516 25.5486 69.5127 25.3771C69.8829 25.2056 70.1853 24.9618 70.42 24.6458Z" fill="#3F4349"/>
<path d="M62.8257 19.649C63.3222 20.317 63.5795 21.2153 63.5975 22.3438V22.5063H57.5309C57.567 23.4271 57.7791 24.1493 58.1673 24.6729C58.4021 24.9799 58.7045 25.2191 59.0746 25.3906C59.4448 25.5531 59.842 25.6344 60.2663 25.6344C60.6816 25.6344 61.0743 25.5531 61.4444 25.3906C61.8146 25.2191 62.117 24.9799 62.3517 24.6729C62.4691 24.5194 62.5684 24.3524 62.6496 24.1719L63.1913 24.4021C63.092 24.6368 62.9701 24.8444 62.8257 25.025C62.5368 25.4042 62.1666 25.6976 61.7153 25.9052C61.2639 26.1038 60.7809 26.2031 60.2663 26.2031C59.7517 26.2031 59.2687 26.1038 58.8173 25.9052C58.375 25.6976 58.0048 25.4042 57.7069 25.025C57.2014 24.375 56.9396 23.4813 56.9215 22.3438C56.9396 21.2153 57.2014 20.317 57.7069 19.649C58.0139 19.2608 58.384 18.9719 58.8173 18.7823C59.2597 18.5837 59.7427 18.4844 60.2663 18.4844C60.7899 18.4844 61.2684 18.5837 61.7017 18.7823C62.1441 18.9719 62.5187 19.2608 62.8257 19.649ZM58.1673 20.0146C57.7972 20.5111 57.5896 21.1521 57.5444 21.9375H62.9746C62.9295 21.134 62.7219 20.4931 62.3517 20.0146C62.126 19.7076 61.8281 19.4729 61.458 19.3104C61.0969 19.1389 60.7132 19.0531 60.3069 19.0531C59.8736 19.0531 59.4673 19.1344 59.0882 19.2969C58.709 19.4594 58.4021 19.6986 58.1673 20.0146Z" fill="#3F4349"/>
<path d="M49.9899 20.1229C50.1072 19.5993 50.4277 19.1931 50.9513 18.9042C51.4569 18.6243 52.0663 18.4844 52.7794 18.4844C53.5017 18.4844 54.1156 18.6243 54.6211 18.9042C54.9551 19.0938 55.2124 19.333 55.393 19.6219C55.5735 19.9108 55.6638 20.2267 55.6638 20.5698C55.6638 21.3462 55.3614 21.8878 54.7565 22.1948C55.4788 22.5017 55.8399 23.0976 55.8399 23.9823C55.8399 24.3524 55.7406 24.6955 55.542 25.0115C55.3524 25.3184 55.086 25.5667 54.743 25.7563C54.2284 26.0542 53.5739 26.2031 52.7794 26.2031C51.994 26.2031 51.344 26.0542 50.8294 25.7563C50.2968 25.4583 49.9492 24.9979 49.7867 24.375L50.369 24.226C50.4683 24.6684 50.7211 25.0069 51.1274 25.2417C51.5607 25.5035 52.1114 25.6344 52.7794 25.6344C53.4565 25.6344 54.0117 25.5035 54.4451 25.2417C54.6979 25.1063 54.8965 24.9257 55.0409 24.7C55.1854 24.4653 55.2576 24.217 55.2576 23.9552C55.2576 23.2962 55.0138 22.8809 54.5263 22.7094C54.3097 22.6191 54.0749 22.5649 53.8222 22.5469C53.5694 22.5198 53.2489 22.5063 52.8607 22.5063H52.1836V21.9375H52.8607C53.2218 21.9375 53.5197 21.9285 53.7545 21.9104C53.9892 21.8833 54.2058 21.8292 54.4044 21.7479C54.8558 21.5493 55.0815 21.1656 55.0815 20.5969C55.0815 20.3531 55.0093 20.1274 54.8649 19.9198C54.7295 19.7122 54.5489 19.5451 54.3232 19.4188C53.935 19.1931 53.4204 19.0712 52.7794 19.0531C52.1475 19.0712 51.6374 19.1931 51.2492 19.4188C50.8972 19.6083 50.6715 19.8927 50.5722 20.2719L49.9899 20.1229Z" fill="#3F4349"/>
<path d="M44.6841 19.649C45.1806 20.317 45.4379 21.2153 45.4559 22.3438V22.5063H39.3893C39.4254 23.4271 39.6375 24.1493 40.0257 24.6729C40.2605 24.9799 40.5629 25.2191 40.933 25.3906C41.3032 25.5531 41.7004 25.6344 42.1247 25.6344C42.54 25.6344 42.9327 25.5531 43.3028 25.3906C43.673 25.2191 43.9754 24.9799 44.2101 24.6729C44.3275 24.5194 44.4268 24.3524 44.508 24.1719L45.0497 24.4021C44.9504 24.6368 44.8285 24.8444 44.6841 25.025C44.3952 25.4042 44.025 25.6976 43.5737 25.9052C43.1223 26.1038 42.6393 26.2031 42.1247 26.2031C41.6101 26.2031 41.1271 26.1038 40.6757 25.9052C40.2334 25.6976 39.8632 25.4042 39.5653 25.025C39.0598 24.375 38.798 23.4813 38.7799 22.3438C38.798 21.2153 39.0598 20.317 39.5653 19.649C39.8723 19.2608 40.2424 18.9719 40.6757 18.7823C41.1181 18.5837 41.6011 18.4844 42.1247 18.4844C42.6483 18.4844 43.1268 18.5837 43.5601 18.7823C44.0025 18.9719 44.3771 19.2608 44.6841 19.649ZM40.0257 20.0146C39.6556 20.5111 39.448 21.1521 39.4028 21.9375H44.833C44.7879 21.134 44.5803 20.4931 44.2101 20.0146C43.9844 19.7076 43.6865 19.4729 43.3164 19.3104C42.9553 19.1389 42.5716 19.0531 42.1653 19.0531C41.732 19.0531 41.3257 19.1344 40.9466 19.2969C40.5674 19.4594 40.2605 19.6986 40.0257 20.0146Z" fill="#3F4349"/>
<path d="M37.2903 18.6875V26H36.7216V22.3031H32.0362V26H31.4674V18.6875H32.0362V21.7344H36.7216V18.6875H37.2903Z" fill="#3F4349"/>
<path d="M29.2085 19.649C29.705 20.317 29.9623 21.2153 29.9804 22.3438V22.5063H23.9137C23.9498 23.4271 24.162 24.1493 24.5502 24.6729C24.7849 24.9799 25.0873 25.2191 25.4574 25.3906C25.8276 25.5531 26.2248 25.6344 26.6491 25.6344C27.0644 25.6344 27.4571 25.5531 27.8272 25.3906C28.1974 25.2191 28.4998 24.9799 28.7345 24.6729C28.8519 24.5194 28.9512 24.3524 29.0324 24.1719L29.5741 24.4021C29.4748 24.6368 29.3529 24.8444 29.2085 25.025C28.9196 25.4042 28.5495 25.6976 28.0981 25.9052C27.6467 26.1038 27.1637 26.2031 26.6491 26.2031C26.1345 26.2031 25.6515 26.1038 25.2002 25.9052C24.7578 25.6976 24.3877 25.4042 24.0897 25.025C23.5842 24.375 23.3224 23.4813 23.3043 22.3438C23.3224 21.2153 23.5842 20.317 24.0897 19.649C24.3967 19.2608 24.7668 18.9719 25.2002 18.7823C25.6425 18.5837 26.1255 18.4844 26.6491 18.4844C27.1727 18.4844 27.6512 18.5837 28.0845 18.7823C28.5269 18.9719 28.9015 19.2608 29.2085 19.649ZM24.5502 20.0146C24.18 20.5111 23.9724 21.1521 23.9272 21.9375H29.3574C29.3123 21.134 29.1047 20.4931 28.7345 20.0146C28.5088 19.7076 28.2109 19.4729 27.8408 19.3104C27.4797 19.1389 27.096 19.0531 26.6897 19.0531C26.2564 19.0531 25.8502 19.1344 25.471 19.2969C25.0918 19.4594 24.7849 19.6986 24.5502 20.0146Z" fill="#3F4349"/>
<path d="M21.8113 18.6875V26H21.2426V19.2562H18.1009L17.6269 23.2375C17.5637 23.8424 17.4825 24.3299 17.3832 24.7C17.2929 25.0611 17.1214 25.3681 16.8686 25.6208C16.6158 25.8736 16.2502 26 15.7717 26V25.4312C16.0877 25.4312 16.3269 25.35 16.4894 25.1875C16.661 25.016 16.7828 24.7813 16.8551 24.4833C16.9273 24.1764 16.9995 23.7385 17.0717 23.1698L17.5863 18.6875H21.8113Z" fill="#3F4349"/>
<path d="M14.1899 19.649C14.6865 20.317 14.9438 21.2153 14.9618 22.3438V22.5063H8.89514C8.93125 23.4271 9.14341 24.1493 9.5316 24.6729C9.76632 24.9799 10.0688 25.2191 10.4389 25.3906C10.809 25.5531 11.2063 25.6344 11.6306 25.6344C12.0458 25.6344 12.4385 25.5531 12.8087 25.3906C13.1788 25.2191 13.4813 24.9799 13.716 24.6729C13.8333 24.5194 13.9326 24.3524 14.0139 24.1719L14.5556 24.4021C14.4563 24.6368 14.3344 24.8444 14.1899 25.025C13.901 25.4042 13.5309 25.6976 13.0795 25.9052C12.6281 26.1038 12.1451 26.2031 11.6306 26.2031C11.116 26.2031 10.633 26.1038 10.1816 25.9052C9.73924 25.6976 9.3691 25.4042 9.07118 25.025C8.56563 24.375 8.30382 23.4813 8.28577 22.3438C8.30382 21.2153 8.56563 20.317 9.07118 19.649C9.37813 19.2608 9.74827 18.9719 10.1816 18.7823C10.624 18.5837 11.1069 18.4844 11.6306 18.4844C12.1542 18.4844 12.6326 18.5837 13.066 18.7823C13.5083 18.9719 13.883 19.2608 14.1899 19.649ZM9.5316 20.0146C9.16146 20.5111 8.95382 21.1521 8.90868 21.9375H14.3389C14.2938 21.134 14.0861 20.4931 13.716 20.0146C13.4903 19.7076 13.1924 19.4729 12.8222 19.3104C12.4611 19.1389 12.0774 19.0531 11.6712 19.0531C11.2378 19.0531 10.8316 19.1344 10.4524 19.2969C10.0733 19.4594 9.76632 19.6986 9.5316 20.0146Z" fill="#3F4349"/>
<path d="M0.758293 18.2135C0.821487 17.5455 1.15551 17.0038 1.76038 16.5885C2.3201 16.2274 3.01975 16.0469 3.85933 16.0469C4.69892 16.0469 5.39857 16.2274 5.95829 16.5885C6.6444 17.067 6.98746 17.726 6.98746 18.5656C6.98746 18.9719 6.89718 19.3465 6.71663 19.6896C6.5451 20.0326 6.29232 20.3125 5.95829 20.5292C5.80482 20.6285 5.63781 20.7142 5.45725 20.7865C5.72808 20.8948 5.96281 21.0212 6.16142 21.1656C6.50447 21.4184 6.76177 21.7344 6.93329 22.1135C7.11385 22.4837 7.20413 22.899 7.20413 23.3594C7.20413 23.8108 7.11385 24.226 6.93329 24.6052C6.76177 24.9753 6.50447 25.2868 6.16142 25.5396C5.54753 25.9819 4.78017 26.2031 3.85933 26.2031C2.9385 26.2031 2.17114 25.9819 1.55725 25.5396C1.26836 25.3319 1.03364 25.0747 0.853084 24.7677C0.681557 24.4517 0.577737 24.1132 0.541626 23.7521L1.12392 23.6438C1.16003 23.9417 1.24128 24.217 1.36767 24.4698C1.50308 24.7135 1.68364 24.9167 1.90933 25.0792C2.40586 25.4493 3.05586 25.6344 3.85933 25.6344C4.64475 25.6344 5.29475 25.4493 5.80933 25.0792C6.07114 24.8896 6.26975 24.6458 6.40517 24.3479C6.54058 24.041 6.60378 23.7115 6.59475 23.3594C6.60378 23.0073 6.54058 22.6778 6.40517 22.3708C6.26975 22.0639 6.07114 21.8201 5.80933 21.6396C5.32183 21.2785 4.67183 21.0889 3.85933 21.0708H3.07392V20.5021H3.85933C4.57253 20.5021 5.15933 20.3486 5.61975 20.0417C5.8635 19.8792 6.05309 19.667 6.1885 19.4052C6.32392 19.1434 6.38711 18.8635 6.37808 18.5656C6.38711 18.2587 6.32392 17.9743 6.1885 17.7125C6.06211 17.4507 5.87253 17.2385 5.61975 17.076C5.15933 16.7691 4.57253 16.6156 3.85933 16.6156C3.14614 16.6156 2.55482 16.7691 2.08538 17.076C1.86871 17.2115 1.69718 17.3875 1.57079 17.6042C1.45343 17.8208 1.38121 18.0556 1.35413 18.3083L0.758293 18.2135Z" fill="#3F4349"/>
<path d="M214.016 26V23.0344H210.861L209.426 26H208.749L210.238 22.9396C209.886 22.8042 209.593 22.6146 209.358 22.3708C209.168 22.1632 209.019 21.9285 208.911 21.6667C208.803 21.4049 208.749 21.1385 208.749 20.8677C208.749 20.5878 208.803 20.317 208.911 20.0552C209.019 19.7934 209.168 19.5632 209.358 19.3646C209.557 19.1569 209.782 18.9944 210.035 18.8771C210.297 18.7507 210.559 18.6875 210.821 18.6875H214.585L214.599 26H214.016ZM214.016 22.4656V19.2562H210.848C210.649 19.2562 210.459 19.3059 210.279 19.4052C210.098 19.4955 209.936 19.6174 209.791 19.7708C209.502 20.0778 209.358 20.4434 209.358 20.8677C209.358 21.292 209.502 21.6576 209.791 21.9646C209.936 22.1181 210.098 22.2399 210.279 22.3302C210.459 22.4205 210.649 22.4656 210.848 22.4656H214.016Z" fill="#3F4349"/>
<path d="M207.259 18.6875V26H206.69V22.3031H202.005V26H201.436V18.6875H202.005V21.7344H206.69V18.6875H207.259Z" fill="#3F4349"/>
<path d="M199.54 18.6875V26H198.972V22.3031H194.286V26H193.717V18.6875H194.286V21.7344H198.972V18.6875H199.54Z" fill="#3F4349"/>
<path d="M186.01 20.0553C186.091 19.9109 186.177 19.78 186.267 19.6626C186.574 19.2744 186.944 18.9855 187.377 18.796C187.82 18.5974 188.303 18.498 188.826 18.498C189.521 18.498 190.126 18.6425 190.641 18.9314C191.155 19.2203 191.526 19.6581 191.751 20.2449C191.887 20.6331 191.954 21.0258 191.954 21.423V26.0001H191.426V24.4022C191.246 24.7092 191.02 24.98 190.749 25.2147C190.478 25.4494 190.185 25.639 189.869 25.7835C189.282 26.0543 188.727 26.1897 188.203 26.1897C187.752 26.1897 187.319 26.0949 186.903 25.9053C186.497 25.7067 186.186 25.4314 185.969 25.0793C185.743 24.7001 185.63 24.2984 185.63 23.8741C185.63 23.0977 185.965 22.5064 186.633 22.1001C186.949 21.9196 187.292 21.7887 187.662 21.7074C188.032 21.6171 188.569 21.5178 189.273 21.4095L189.585 21.3689L191.332 21.1251C191.268 20.4932 191.047 20.0102 190.668 19.6762C190.442 19.4685 190.167 19.3151 189.842 19.2158C189.526 19.1164 189.187 19.0668 188.826 19.0668C188.402 19.0668 188.005 19.1526 187.635 19.3241C187.265 19.4866 186.967 19.7213 186.741 20.0283C186.651 20.1546 186.587 20.2494 186.551 20.3126L186.01 20.0553ZM189.314 21.9783C188.673 22.0685 188.14 22.1678 187.716 22.2762C187.301 22.3845 186.949 22.5651 186.66 22.8178C186.371 23.0706 186.226 23.4182 186.226 23.8605C186.226 24.2939 186.384 24.6821 186.7 25.0251C187.016 25.3592 187.4 25.5623 187.851 25.6345C187.996 25.6526 188.109 25.6616 188.19 25.6616C188.723 25.6616 189.251 25.5171 189.774 25.2283C190.298 24.9303 190.691 24.5557 190.952 24.1043C191.151 23.7432 191.273 23.4046 191.318 23.0887C191.363 22.7727 191.386 22.3078 191.386 21.6939L189.314 21.9783Z" fill="#3F4349"/>
<path d="M182.191 18.6875C182.796 18.6875 183.283 18.8997 183.653 19.324C183.825 19.4955 183.956 19.6986 184.046 19.9333C184.136 20.1681 184.182 20.4073 184.182 20.651C184.182 20.9038 184.136 21.1476 184.046 21.3823C183.956 21.617 183.825 21.8201 183.653 21.9917C183.572 22.0819 183.477 22.1632 183.369 22.2354C183.622 22.3618 183.798 22.4747 183.897 22.574C184.096 22.7455 184.254 22.9622 184.371 23.224C184.488 23.4858 184.547 23.7521 184.547 24.0229C184.547 24.3028 184.488 24.5736 184.371 24.8354C184.263 25.0882 184.105 25.3049 183.897 25.4854C183.527 25.8285 183.03 26 182.408 26H178.724V18.6875H182.191ZM179.293 22.0594H182.191C182.597 22.0594 182.94 21.9059 183.22 21.599C183.337 21.4726 183.423 21.3281 183.477 21.1656C183.541 20.9941 183.572 20.8226 183.572 20.651C183.572 20.317 183.455 20.0101 183.22 19.7302C182.949 19.4142 182.606 19.2562 182.191 19.2562H179.293V22.0594ZM179.293 25.4312H182.408C182.642 25.4312 182.845 25.4042 183.017 25.35C183.188 25.2868 183.351 25.1875 183.504 25.0521C183.649 24.9167 183.757 24.7587 183.829 24.5781C183.902 24.3885 183.938 24.1899 183.938 23.9823C183.938 23.8017 183.897 23.6257 183.816 23.4542C183.744 23.2826 183.64 23.1337 183.504 23.0073C183.315 22.8358 183.13 22.7319 182.949 22.6958C182.769 22.6507 182.516 22.6281 182.191 22.6281H179.293V25.4312Z" fill="#3F4349"/>
<path d="M177.638 18.701L174.158 27.6656C173.914 28.3066 173.616 28.7535 173.264 29.0063C173.129 29.1056 172.98 29.1687 172.817 29.1958C172.655 29.2319 172.461 29.25 172.235 29.25L171.991 29.2365V28.6542L172.249 28.6812C172.42 28.6903 172.565 28.6813 172.682 28.6542C172.799 28.6271 172.917 28.5684 173.034 28.4781C173.188 28.3608 173.319 28.1757 173.427 27.9229C173.544 27.6701 173.774 27.0969 174.117 26.2031L170.773 18.6875H171.396L174.415 25.4583L177.029 18.701H177.638Z" fill="#3F4349"/>
<path d="M167.965 22.3438L170.361 26L169.684 25.9865L167.504 22.6281H166.353V26H165.784V22.6281H164.633L162.453 25.9865L161.776 26L164.173 22.3438L161.898 18.6875H162.575L164.633 22.0594H165.784V18.6875H166.353V22.0594H167.504L169.562 18.6875H170.24L167.965 22.3438Z" fill="#3F4349"/>
<path d="M154.881 20.0553C154.962 19.9109 155.048 19.78 155.138 19.6626C155.445 19.2744 155.815 18.9855 156.248 18.796C156.691 18.5974 157.174 18.498 157.697 18.498C158.393 18.498 158.997 18.6425 159.512 18.9314C160.027 19.2203 160.397 19.6581 160.622 20.2449C160.758 20.6331 160.826 21.0258 160.826 21.423V26.0001H160.297V24.4022C160.117 24.7092 159.891 24.98 159.62 25.2147C159.35 25.4494 159.056 25.639 158.74 25.7835C158.153 26.0543 157.598 26.1897 157.075 26.1897C156.623 26.1897 156.19 26.0949 155.775 25.9053C155.368 25.7067 155.057 25.4314 154.84 25.0793C154.614 24.7001 154.502 24.2984 154.502 23.8741C154.502 23.0977 154.836 22.5064 155.504 22.1001C155.82 21.9196 156.163 21.7887 156.533 21.7074C156.903 21.6171 157.44 21.5178 158.144 21.4095L158.456 21.3689L160.203 21.1251C160.139 20.4932 159.918 20.0102 159.539 19.6762C159.313 19.4685 159.038 19.3151 158.713 19.2158C158.397 19.1164 158.059 19.0668 157.697 19.0668C157.273 19.0668 156.876 19.1526 156.506 19.3241C156.136 19.4866 155.838 19.7213 155.612 20.0283C155.522 20.1546 155.459 20.2494 155.422 20.3126L154.881 20.0553ZM158.185 21.9783C157.544 22.0685 157.011 22.1678 156.587 22.2762C156.172 22.3845 155.82 22.5651 155.531 22.8178C155.242 23.0706 155.097 23.4182 155.097 23.8605C155.097 24.2939 155.255 24.6821 155.571 25.0251C155.887 25.3592 156.271 25.5623 156.722 25.6345C156.867 25.6526 156.98 25.6616 157.061 25.6616C157.594 25.6616 158.122 25.5171 158.645 25.2283C159.169 24.9303 159.562 24.5557 159.823 24.1043C160.022 23.7432 160.144 23.4046 160.189 23.0887C160.234 22.7727 160.257 22.3078 160.257 21.6939L158.185 21.9783Z" fill="#3F4349"/>
<path d="M152.981 18.6875L153.008 26H152.439V20.0417L149.731 24.9979H149.108L146.413 20.0417V26H145.831V18.6875H146.413L149.419 24.226L152.425 18.6875H152.981Z" fill="#3F4349"/>
<path d="M143.866 20.5292C143.803 20.3757 143.699 20.2042 143.555 20.0146C143.329 19.7076 143.036 19.4729 142.675 19.3104C142.314 19.1389 141.93 19.0531 141.524 19.0531C141.081 19.0531 140.67 19.1344 140.291 19.2969C139.921 19.4503 139.619 19.6896 139.384 20.0146C138.969 20.5563 138.752 21.3326 138.734 22.3438C138.752 23.3549 138.969 24.1313 139.384 24.6729C139.619 24.9889 139.917 25.2281 140.278 25.3906C140.648 25.5531 141.045 25.6344 141.469 25.6344C141.894 25.6344 142.286 25.5531 142.648 25.3906C143.018 25.2281 143.32 24.9889 143.555 24.6729C143.654 24.5465 143.753 24.3795 143.853 24.1719L144.408 24.4156C144.291 24.6503 144.164 24.8535 144.029 25.025C143.731 25.4132 143.361 25.7066 142.918 25.9052C142.476 26.1038 141.993 26.2031 141.469 26.2031C140.946 26.2031 140.463 26.1038 140.02 25.9052C139.578 25.7066 139.208 25.4132 138.91 25.025C138.404 24.375 138.143 23.4813 138.125 22.3438C138.143 21.2153 138.404 20.317 138.91 19.649C139.515 18.8726 140.368 18.4844 141.469 18.4844C141.993 18.4844 142.472 18.5837 142.905 18.7823C143.347 18.9719 143.722 19.2608 144.029 19.649C144.2 19.8837 144.327 20.1003 144.408 20.299L143.866 20.5292Z" fill="#3F4349"/>
<path d="M133.699 18.9719C134.178 18.9538 134.638 19.0351 135.08 19.2156C135.532 19.3872 135.906 19.649 136.204 20.001C136.746 20.624 137.026 21.4861 137.044 22.5875C137.026 23.6799 136.746 24.5375 136.204 25.1604C135.906 25.5125 135.527 25.7743 135.067 25.9458C134.615 26.1174 134.141 26.2031 133.645 26.2031C133.175 26.2031 132.72 26.1174 132.277 25.9458C131.844 25.7653 131.483 25.5035 131.194 25.1604C130.914 24.8354 130.706 24.4517 130.571 24.0094C130.436 23.558 130.368 23.084 130.368 22.5875C130.368 21.766 130.377 21.1611 130.395 20.7729C130.413 20.3757 130.449 20.0056 130.503 19.6625C130.584 19.0938 130.738 18.5927 130.964 18.1594C131.198 17.726 131.523 17.3514 131.939 17.0354C132.345 16.7285 132.801 16.5208 133.306 16.4125C133.821 16.3042 134.39 16.25 135.013 16.25C135.41 16.25 135.911 16.2906 136.516 16.3719V16.9135C135.947 16.8233 135.446 16.7781 135.013 16.7781C133.848 16.7781 132.936 17.0128 132.277 17.4823C131.916 17.7351 131.636 18.0917 131.438 18.5521C131.248 19.0035 131.113 19.5587 131.031 20.2177C131.374 19.7844 131.763 19.4639 132.196 19.2563C132.638 19.0486 133.139 18.9538 133.699 18.9719ZM133.753 19.5406C133.329 19.5406 132.932 19.6128 132.562 19.7573C132.191 19.8927 131.884 20.1049 131.641 20.3938C131.198 20.9083 130.977 21.626 130.977 22.5469C130.977 22.9983 131.031 23.4181 131.14 23.8063C131.248 24.1854 131.415 24.5059 131.641 24.7677C131.875 25.0566 132.173 25.2733 132.534 25.4177C132.905 25.5622 133.293 25.6344 133.699 25.6344C134.114 25.6344 134.503 25.5622 134.864 25.4177C135.225 25.2733 135.523 25.0611 135.757 24.7813C136.209 24.2576 136.434 23.5264 136.434 22.5875C136.434 21.6396 136.209 20.9083 135.757 20.3938C135.523 20.1139 135.229 19.9017 134.877 19.7573C134.534 19.6128 134.159 19.5406 133.753 19.5406Z" fill="#3F4349"/>
<path d="M124.916 26.2033C124.202 26.2033 123.557 26.0769 122.979 25.8241C122.41 25.5623 121.941 25.1741 121.571 24.6595C120.885 23.7567 120.542 22.547 120.542 21.0303C120.542 19.631 120.885 18.4845 121.571 17.5908C121.941 17.0942 122.41 16.7151 122.979 16.4533C123.548 16.1914 124.162 16.0605 124.821 16.0605C125.534 16.0605 126.189 16.1869 126.784 16.4397C127.389 16.6925 127.886 17.0762 128.274 17.5908C128.951 18.4664 129.29 19.6762 129.29 21.2199C129.29 22.6192 128.951 23.7658 128.274 24.6595C127.904 25.1651 127.43 25.5487 126.852 25.8105C126.274 26.0724 125.629 26.2033 124.916 26.2033ZM124.861 25.6345C125.466 25.6345 126.026 25.5262 126.541 25.3095C127.055 25.0838 127.47 24.7498 127.786 24.3074C128.382 23.5401 128.68 22.4477 128.68 21.0303C128.68 19.7394 128.382 18.7147 127.786 17.9564C127.479 17.5321 127.073 17.2071 126.568 16.9814C126.071 16.7467 125.539 16.6293 124.97 16.6293C124.374 16.6293 123.814 16.7421 123.291 16.9678C122.767 17.1935 122.347 17.523 122.031 17.9564C121.444 18.7147 121.151 19.8026 121.151 21.2199C121.151 22.538 121.444 23.5671 122.031 24.3074C122.338 24.7317 122.744 25.0612 123.25 25.296C123.765 25.5217 124.302 25.6345 124.861 25.6345Z" fill="#3F4349"/>
<path d="M316.41 26V23.0344H313.255L311.819 26H311.142L312.632 22.9396C312.28 22.8042 311.986 22.6146 311.752 22.3708C311.562 22.1632 311.413 21.9285 311.305 21.6667C311.196 21.4049 311.142 21.1385 311.142 20.8677C311.142 20.5878 311.196 20.317 311.305 20.0552C311.413 19.7934 311.562 19.5632 311.752 19.3646C311.95 19.1569 312.176 18.9944 312.429 18.8771C312.69 18.7507 312.952 18.6875 313.214 18.6875H316.979L316.992 26H316.41ZM316.41 22.4656V19.2562H313.241C313.043 19.2562 312.853 19.3059 312.672 19.4052C312.492 19.4955 312.329 19.6174 312.185 19.7708C311.896 20.0778 311.752 20.4434 311.752 20.8677C311.752 21.292 311.896 21.6576 312.185 21.9646C312.329 22.1181 312.492 22.2399 312.672 22.3302C312.853 22.4205 313.043 22.4656 313.241 22.4656H316.41Z" fill="#3F4349"/>
<path d="M309.653 18.6875V26H309.084V22.3031H304.398V26H303.83V18.6875H304.398V21.7344H309.084V18.6875H309.653Z" fill="#3F4349"/>
<path d="M301.934 18.6875V26H301.365V22.3031H296.68V26H296.111V18.6875H296.68V21.7344H301.365V18.6875H301.934Z" fill="#3F4349"/>
<path d="M288.403 20.0553C288.484 19.9109 288.57 19.78 288.661 19.6626C288.967 19.2744 289.338 18.9855 289.771 18.796C290.213 18.5974 290.696 18.498 291.22 18.498C291.915 18.498 292.52 18.6425 293.034 18.9314C293.549 19.2203 293.919 19.6581 294.145 20.2449C294.28 20.6331 294.348 21.0258 294.348 21.423V26.0001H293.82V24.4022C293.639 24.7092 293.414 24.98 293.143 25.2147C292.872 25.4494 292.579 25.639 292.263 25.7835C291.676 26.0543 291.121 26.1897 290.597 26.1897C290.146 26.1897 289.712 26.0949 289.297 25.9053C288.891 25.7067 288.579 25.4314 288.363 25.0793C288.137 24.7001 288.024 24.2984 288.024 23.8741C288.024 23.0977 288.358 22.5064 289.026 22.1001C289.342 21.9196 289.685 21.7887 290.055 21.7074C290.425 21.6171 290.963 21.5178 291.667 21.4095L291.978 21.3689L293.725 21.1251C293.662 20.4932 293.441 20.0102 293.062 19.6762C292.836 19.4685 292.561 19.3151 292.236 19.2158C291.92 19.1164 291.581 19.0668 291.22 19.0668C290.796 19.0668 290.398 19.1526 290.028 19.3241C289.658 19.4866 289.36 19.7213 289.134 20.0283C289.044 20.1546 288.981 20.2494 288.945 20.3126L288.403 20.0553ZM291.707 21.9783C291.066 22.0685 290.534 22.1678 290.109 22.2762C289.694 22.3845 289.342 22.5651 289.053 22.8178C288.764 23.0706 288.62 23.4182 288.62 23.8605C288.62 24.2939 288.778 24.6821 289.094 25.0251C289.41 25.3592 289.793 25.5623 290.245 25.6345C290.389 25.6526 290.502 25.6616 290.583 25.6616C291.116 25.6616 291.644 25.5171 292.168 25.2283C292.691 24.9303 293.084 24.5557 293.346 24.1043C293.545 23.7432 293.666 23.4046 293.712 23.0887C293.757 22.7727 293.779 22.3078 293.779 21.6939L291.707 21.9783Z" fill="#3F4349"/>
<path d="M284.584 18.6875C285.189 18.6875 285.677 18.8997 286.047 19.324C286.218 19.4955 286.349 19.6986 286.44 19.9333C286.53 20.1681 286.575 20.4073 286.575 20.651C286.575 20.9038 286.53 21.1476 286.44 21.3823C286.349 21.617 286.218 21.8201 286.047 21.9917C285.966 22.0819 285.871 22.1632 285.763 22.2354C286.015 22.3618 286.191 22.4747 286.291 22.574C286.489 22.7455 286.647 22.9622 286.765 23.224C286.882 23.4858 286.941 23.7521 286.941 24.0229C286.941 24.3028 286.882 24.5736 286.765 24.8354C286.656 25.0882 286.498 25.3049 286.291 25.4854C285.921 25.8285 285.424 26 284.801 26H281.118V18.6875H284.584ZM281.687 22.0594H284.584C284.991 22.0594 285.334 21.9059 285.614 21.599C285.731 21.4726 285.817 21.3281 285.871 21.1656C285.934 20.9941 285.966 20.8226 285.966 20.651C285.966 20.317 285.848 20.0101 285.614 19.7302C285.343 19.4142 285 19.2562 284.584 19.2562H281.687V22.0594ZM281.687 25.4312H284.801C285.036 25.4312 285.239 25.4042 285.411 25.35C285.582 25.2868 285.745 25.1875 285.898 25.0521C286.042 24.9167 286.151 24.7587 286.223 24.5781C286.295 24.3885 286.331 24.1899 286.331 23.9823C286.331 23.8017 286.291 23.6257 286.209 23.4542C286.137 23.2826 286.033 23.1337 285.898 23.0073C285.708 22.8358 285.523 22.7319 285.343 22.6958C285.162 22.6507 284.909 22.6281 284.584 22.6281H281.687V25.4312Z" fill="#3F4349"/>
<path d="M280.032 18.701L276.552 27.6656C276.308 28.3066 276.01 28.7535 275.658 29.0063C275.523 29.1056 275.374 29.1687 275.211 29.1958C275.049 29.2319 274.855 29.25 274.629 29.25L274.385 29.2365V28.6542L274.642 28.6812C274.814 28.6903 274.958 28.6813 275.076 28.6542C275.193 28.6271 275.31 28.5684 275.428 28.4781C275.581 28.3608 275.712 28.1757 275.821 27.9229C275.938 27.6701 276.168 27.0969 276.511 26.2031L273.166 18.6875H273.789L276.809 25.4583L279.423 18.701H280.032Z" fill="#3F4349"/>
<path d="M272.146 20.5292C272.082 20.3757 271.979 20.2042 271.834 20.0146C271.608 19.7076 271.315 19.4729 270.954 19.3104C270.593 19.1389 270.209 19.0531 269.803 19.0531C269.361 19.0531 268.95 19.1344 268.571 19.2969C268.2 19.4503 267.898 19.6896 267.663 20.0146C267.248 20.5563 267.031 21.3326 267.013 22.3438C267.031 23.3549 267.248 24.1313 267.663 24.6729C267.898 24.9889 268.196 25.2281 268.557 25.3906C268.927 25.5531 269.324 25.6344 269.749 25.6344C270.173 25.6344 270.566 25.5531 270.927 25.3906C271.297 25.2281 271.599 24.9889 271.834 24.6729C271.933 24.5465 272.033 24.3795 272.132 24.1719L272.687 24.4156C272.57 24.6503 272.444 24.8535 272.308 25.025C272.01 25.4132 271.64 25.7066 271.198 25.9052C270.755 26.1038 270.272 26.2031 269.749 26.2031C269.225 26.2031 268.742 26.1038 268.3 25.9052C267.857 25.7066 267.487 25.4132 267.189 25.025C266.684 24.375 266.422 23.4813 266.404 22.3438C266.422 21.2153 266.684 20.317 267.189 19.649C267.794 18.8726 268.647 18.4844 269.749 18.4844C270.272 18.4844 270.751 18.5837 271.184 18.7823C271.627 18.9719 272.001 19.2608 272.308 19.649C272.48 19.8837 272.606 20.1003 272.687 20.299L272.146 20.5292Z" fill="#3F4349"/>
<path d="M259.102 20.0553C259.184 19.9109 259.269 19.78 259.36 19.6626C259.667 19.2744 260.037 18.9855 260.47 18.796C260.913 18.5974 261.395 18.498 261.919 18.498C262.614 18.498 263.219 18.6425 263.734 18.9314C264.248 19.2203 264.618 19.6581 264.844 20.2449C264.98 20.6331 265.047 21.0258 265.047 21.423V26.0001H264.519V24.4022C264.339 24.7092 264.113 24.98 263.842 25.2147C263.571 25.4494 263.278 25.639 262.962 25.7835C262.375 26.0543 261.82 26.1897 261.296 26.1897C260.845 26.1897 260.411 26.0949 259.996 25.9053C259.59 25.7067 259.278 25.4314 259.062 25.0793C258.836 24.7001 258.723 24.2984 258.723 23.8741C258.723 23.0977 259.057 22.5064 259.725 22.1001C260.041 21.9196 260.384 21.7887 260.755 21.7074C261.125 21.6171 261.662 21.5178 262.366 21.4095L262.677 21.3689L264.424 21.1251C264.361 20.4932 264.14 20.0102 263.761 19.6762C263.535 19.4685 263.26 19.3151 262.935 19.2158C262.619 19.1164 262.28 19.0668 261.919 19.0668C261.495 19.0668 261.098 19.1526 260.727 19.3241C260.357 19.4866 260.059 19.7213 259.834 20.0283C259.743 20.1546 259.68 20.2494 259.644 20.3126L259.102 20.0553ZM262.407 21.9783C261.766 22.0685 261.233 22.1678 260.809 22.2762C260.393 22.3845 260.041 22.5651 259.752 22.8178C259.464 23.0706 259.319 23.4182 259.319 23.8605C259.319 24.2939 259.477 24.6821 259.793 25.0251C260.109 25.3592 260.493 25.5623 260.944 25.6345C261.089 25.6526 261.201 25.6616 261.283 25.6616C261.815 25.6616 262.343 25.5171 262.867 25.2283C263.391 24.9303 263.783 24.5557 264.045 24.1043C264.244 23.7432 264.366 23.4046 264.411 23.0887C264.456 22.7727 264.478 22.3078 264.478 21.6939L262.407 21.9783Z" fill="#3F4349"/>
<path d="M256.328 17.8479C256.77 18.2 257.105 18.6424 257.33 19.175C257.556 19.6986 257.66 20.2448 257.642 20.8135C257.66 21.3823 257.556 21.933 257.33 22.4656C257.105 22.9892 256.77 23.4271 256.328 23.7792C255.543 24.384 254.559 24.7135 253.376 24.7677V26H252.807V24.7677C251.598 24.7045 250.614 24.375 249.855 23.7792C249.413 23.4271 249.079 22.9892 248.853 22.4656C248.627 21.933 248.524 21.3823 248.542 20.8135C248.524 20.2448 248.627 19.6986 248.853 19.175C249.079 18.6424 249.413 18.2 249.855 17.8479C250.261 17.541 250.704 17.3108 251.182 17.1573C251.67 17.0038 252.211 16.9045 252.807 16.8594V16.25H253.376V16.8594C253.972 16.9045 254.509 17.0038 254.988 17.1573C255.475 17.3017 255.922 17.5319 256.328 17.8479ZM250.194 23.2917C250.555 23.5806 250.952 23.7972 251.385 23.9417C251.819 24.0771 252.293 24.1583 252.807 24.1854V17.4281C251.697 17.5094 250.826 17.8118 250.194 18.3354C249.499 18.8951 249.151 19.7212 249.151 20.8135C249.151 21.8969 249.499 22.7229 250.194 23.2917ZM255.99 23.2917C256.685 22.7229 257.032 21.8969 257.032 20.8135C257.032 19.7212 256.685 18.8951 255.99 18.3354C255.349 17.8028 254.477 17.5003 253.376 17.4281V24.1854C253.891 24.1583 254.36 24.0771 254.784 23.9417C255.218 23.7972 255.619 23.5806 255.99 23.2917Z" fill="#3F4349"/>
<path fill-rule="evenodd" clip-rule="evenodd" d="M360 1H0V0H360V1Z" fill="url(#paint0_linear_1_859)"/>
<path fill-rule="evenodd" clip-rule="evenodd" d="M104 5L104 37L103 37L103 5L104 5Z" fill="url(#paint1_linear_1_859)"/>
<path fill-rule="evenodd" clip-rule="evenodd" d="M232 5L232 37L231 37L231 5L232 5Z" fill="url(#paint2_linear_1_859)"/>
<path fill-rule="evenodd" clip-rule="evenodd" d="M360 41H0V40H360V41Z" fill="url(#paint3_linear_1_859)"/>
<path d="M0 61C0 58.7909 1.79086 57 4 57H84C86.2091 57 88 58.7909 88 61C88 63.2091 86.2091 65 84 65H4C1.79086 65 0 63.2091 0 61Z" fill="#D5DCE2"/>
<path d="M0 101C0 98.7909 1.79086 97 4 97H64C66.2091 97 68 98.7909 68 101C68 103.209 66.2091 105 64 105H4C1.79086 105 0 103.209 0 101Z" fill="#D5DCE2"/>
<path d="M120 61C120 58.7909 121.791 57 124 57H164C166.209 57 168 58.7909 168 61C168 63.2091 166.209 65 164 65H124C121.791 65 120 63.2091 120 61Z" fill="#D5DCE2"/>
<path d="M120 101C120 98.7909 121.791 97 124 97H149C151.209 97 153 98.7909 153 101C153 103.209 151.209 105 149 105H124C121.791 105 120 103.209 120 101Z" fill="#D5DCE2"/>
<path d="M250 61C250 58.7909 251.791 57 254 57H277C279.209 57 281 58.7909 281 61C281 63.2091 279.209 65 277 65H254C251.791 65 250 63.2091 250 61Z" fill="#D5DCE2"/>
<path d="M250 101C250 98.7909 251.791 97 254 97H291C293.209 97 295 98.7909 295 101V101C295 103.209 293.209 105 291 105H254C251.791 105 250 103.209 250 101V101Z" fill="#D5DCE2"/>
<path fill-rule="evenodd" clip-rule="evenodd" d="M360 121H0V120H360V121Z" fill="url(#paint4_linear_1_859)"/>
<path fill-rule="evenodd" clip-rule="evenodd" d="M360 81H0V80H360V81Z" fill="url(#paint5_linear_1_859)"/>
</g>
<defs>
<linearGradient id="paint0_linear_1_859" x1="0" y1="1.5" x2="360" y2="1.5" gradientUnits="userSpaceOnUse">
<stop stop-color="#D4DBE2" stop-opacity="0"/>
<stop offset="0.535" stop-color="#D4DBE2"/>
<stop offset="1" stop-color="#D4DBE2" stop-opacity="0"/>
</linearGradient>
<linearGradient id="paint1_linear_1_859" x1="104.5" y1="37" x2="104.5" y2="5" gradientUnits="userSpaceOnUse">
<stop stop-color="#D4DBE2" stop-opacity="0"/>
<stop offset="0.535" stop-color="#D4DBE2"/>
<stop offset="1" stop-color="#D4DBE2" stop-opacity="0"/>
</linearGradient>
<linearGradient id="paint2_linear_1_859" x1="232.5" y1="37" x2="232.5" y2="5" gradientUnits="userSpaceOnUse">
<stop stop-color="#D4DBE2" stop-opacity="0"/>
<stop offset="0.535" stop-color="#D4DBE2"/>
<stop offset="1" stop-color="#D4DBE2" stop-opacity="0"/>
</linearGradient>
<linearGradient id="paint3_linear_1_859" x1="0" y1="41.5" x2="360" y2="41.5" gradientUnits="userSpaceOnUse">
<stop stop-color="#D4DBE2" stop-opacity="0"/>
<stop offset="0.535" stop-color="#D4DBE2"/>
<stop offset="1" stop-color="#D4DBE2" stop-opacity="0"/>
</linearGradient>
<linearGradient id="paint4_linear_1_859" x1="0" y1="121.5" x2="360" y2="121.5" gradientUnits="userSpaceOnUse">
<stop stop-color="#D4DBE2" stop-opacity="0"/>
<stop offset="0.535" stop-color="#D4DBE2"/>
<stop offset="1" stop-color="#D4DBE2" stop-opacity="0"/>
</linearGradient>
<linearGradient id="paint5_linear_1_859" x1="0" y1="81.5" x2="360" y2="81.5" gradientUnits="userSpaceOnUse">
<stop stop-color="#D4DBE2" stop-opacity="0"/>
<stop offset="0.535" stop-color="#D4DBE2"/>
<stop offset="1" stop-color="#D4DBE2" stop-opacity="0"/>
</linearGradient>
<clipPath id="clip0_1_859">
<rect width="360" height="121" fill="white"/>
</clipPath>
</defs>
</svg>
