<svg width="360" height="133" viewBox="0 0 360 133" fill="none" xmlns="http://www.w3.org/2000/svg">
<path d="M60.8944 26V23.0344H57.7392L56.3038 26H55.6267L57.1163 22.9396C56.7642 22.8042 56.4708 22.6146 56.2361 22.3708C56.0465 22.1632 55.8975 21.9285 55.7892 21.6667C55.6809 21.4049 55.6267 21.1385 55.6267 20.8677C55.6267 20.5878 55.6809 20.317 55.7892 20.0552C55.8975 19.7934 56.0465 19.5632 56.2361 19.3646C56.4347 19.1569 56.6604 18.9944 56.9132 18.8771C57.175 18.7507 57.4368 18.6875 57.6986 18.6875H61.4632L61.4767 26H60.8944ZM60.8944 22.4656V19.2562H57.7257C57.5271 19.2562 57.3375 19.3059 57.1569 19.4052C56.9764 19.4955 56.8139 19.6174 56.6694 19.7708C56.3805 20.0778 56.2361 20.4434 56.2361 20.8677C56.2361 21.292 56.3805 21.6576 56.6694 21.9646C56.8139 22.1181 56.9764 22.2399 57.1569 22.3302C57.3375 22.4205 57.5271 22.4656 57.7257 22.4656H60.8944Z" fill="#3F4349"/>
<path d="M54.0076 16.3854V17.252H53.4388V16.3854H54.0076ZM54.0076 18.6875V26H53.4388V18.6875H54.0076Z" fill="#3F4349"/>
<path d="M51.0386 19.6625C51.5532 20.3306 51.8105 21.2198 51.8105 22.3302C51.8105 23.4406 51.5532 24.3344 51.0386 25.0115C50.7317 25.3997 50.357 25.6976 49.9147 25.9052C49.4813 26.1038 49.0074 26.2031 48.4928 26.2031C47.9782 26.2031 47.5042 26.0948 47.0709 25.8781C46.6466 25.6615 46.2945 25.35 46.0147 24.9438C45.9605 24.8715 45.8883 24.7542 45.798 24.5917V29.25H45.2292V18.6875H45.7574V20.1635C45.8476 19.983 45.9334 19.834 46.0147 19.7167C46.3036 19.3194 46.6737 19.017 47.1251 18.8094C47.5855 18.5927 48.0775 18.4844 48.6011 18.4844C49.0886 18.4844 49.5445 18.5882 49.9688 18.7958C50.3931 19.0035 50.7497 19.2924 51.0386 19.6625ZM50.5647 24.6458C50.989 24.1042 51.2011 23.3323 51.2011 22.3302C51.2011 21.3281 50.989 20.5563 50.5647 20.0146C50.3299 19.7076 50.0275 19.4729 49.6574 19.3104C49.2963 19.1389 48.9081 19.0531 48.4928 19.0531C48.0685 19.0531 47.6667 19.1344 47.2876 19.2969C46.9174 19.4594 46.6195 19.6986 46.3938 20.0146C45.9695 20.5743 45.7574 21.3462 45.7574 22.3302C45.7574 23.3233 45.9695 24.0997 46.3938 24.6594C46.6286 24.9753 46.931 25.2191 47.3011 25.3906C47.6713 25.5531 48.0685 25.6344 48.4928 25.6344C48.9081 25.6344 49.2963 25.5486 49.6574 25.3771C50.0275 25.2056 50.3299 24.9618 50.5647 24.6458Z" fill="#3F4349"/>
<path d="M40.3983 26.2031C39.8746 26.2031 39.3917 26.1038 38.9493 25.9052C38.5069 25.7066 38.1368 25.4132 37.8389 25.025C37.3153 24.3479 37.0535 23.4497 37.0535 22.3302C37.0535 21.2198 37.3153 20.326 37.8389 19.649C38.1187 19.2788 38.4844 18.9944 38.9358 18.7958C39.3871 18.5882 39.8746 18.4844 40.3983 18.4844C40.9219 18.4844 41.4049 18.5837 41.8472 18.7823C42.2986 18.9809 42.6687 19.2698 42.9576 19.649C43.4812 20.326 43.743 21.2198 43.743 22.3302C43.743 23.4497 43.4812 24.3479 42.9576 25.025C42.6597 25.4222 42.2896 25.7201 41.8472 25.9188C41.4139 26.1083 40.9309 26.2031 40.3983 26.2031ZM42.4972 24.6729C42.9215 24.1222 43.1337 23.3413 43.1337 22.3302C43.1337 21.3281 42.9215 20.5517 42.4972 20.001C42.2625 19.6941 41.9601 19.4594 41.5899 19.2969C41.2198 19.1344 40.8226 19.0531 40.3983 19.0531C39.974 19.0531 39.5767 19.1344 39.2066 19.2969C38.8365 19.4594 38.5385 19.6941 38.3128 20.001C37.8795 20.5698 37.6628 21.3462 37.6628 22.3302C37.6628 23.3233 37.8795 24.1042 38.3128 24.6729C38.5385 24.9799 38.8365 25.2191 39.2066 25.3906C39.5767 25.5531 39.974 25.6344 40.3983 25.6344C40.8226 25.6344 41.2198 25.5531 41.5899 25.3906C41.9601 25.2191 42.2625 24.9799 42.4972 24.6729Z" fill="#3F4349"/>
<path d="M36.3806 19.2562H32.0744V26H31.5056V18.6875H36.3806V19.2562Z" fill="#3F4349"/>
<path d="M29.2467 19.649C29.7432 20.317 30.0005 21.2153 30.0186 22.3438V22.5063H23.9519C23.988 23.4271 24.2002 24.1493 24.5884 24.6729C24.8231 24.9799 25.1255 25.2191 25.4957 25.3906C25.8658 25.5531 26.263 25.6344 26.6873 25.6344C27.1026 25.6344 27.4953 25.5531 27.8654 25.3906C28.2356 25.2191 28.538 24.9799 28.7727 24.6729C28.8901 24.5194 28.9894 24.3524 29.0707 24.1719L29.6123 24.4021C29.513 24.6368 29.3911 24.8444 29.2467 25.025C28.9578 25.4042 28.5877 25.6976 28.1363 25.9052C27.6849 26.1038 27.2019 26.2031 26.6873 26.2031C26.1727 26.2031 25.6898 26.1038 25.2384 25.9052C24.796 25.6976 24.4259 25.4042 24.1279 25.025C23.6224 24.375 23.3606 23.4813 23.3425 22.3438C23.3606 21.2153 23.6224 20.317 24.1279 19.649C24.4349 19.2608 24.805 18.9719 25.2384 18.7823C25.6807 18.5837 26.1637 18.4844 26.6873 18.4844C27.2109 18.4844 27.6894 18.5837 28.1227 18.7823C28.5651 18.9719 28.9398 19.2608 29.2467 19.649ZM24.5884 20.0146C24.2182 20.5111 24.0106 21.1521 23.9654 21.9375H29.3957C29.3505 21.134 29.1429 20.4931 28.7727 20.0146C28.547 19.7076 28.2491 19.4729 27.879 19.3104C27.5179 19.1389 27.1342 19.0531 26.7279 19.0531C26.2946 19.0531 25.8884 19.1344 25.5092 19.2969C25.13 19.4594 24.8231 19.6986 24.5884 20.0146Z" fill="#3F4349"/>
<path d="M22.4581 19.2562H19.7633V26H19.1945V19.2562H16.4998V18.6875H22.4581V19.2562Z" fill="#3F4349"/>
<path d="M9.40138 20.0552C9.48263 19.9108 9.5684 19.7799 9.65868 19.6625C9.96562 19.2743 10.3358 18.9854 10.7691 18.7958C11.2115 18.5972 11.6944 18.4979 12.2181 18.4979C12.9132 18.4979 13.518 18.6424 14.0326 18.9313C14.5472 19.2201 14.9174 19.658 15.1431 20.2448C15.2785 20.633 15.3462 21.0257 15.3462 21.4229V26H14.8181V24.4021C14.6375 24.709 14.4118 24.9799 14.141 25.2146C13.8701 25.4493 13.5767 25.6389 13.2608 25.7833C12.674 26.0542 12.1187 26.1896 11.5951 26.1896C11.1437 26.1896 10.7104 26.0948 10.2951 25.9052C9.88888 25.7066 9.57742 25.4313 9.36076 25.0792C9.13506 24.7 9.02222 24.2983 9.02222 23.874C9.02222 23.0976 9.35624 22.5063 10.0243 22.1C10.3403 21.9195 10.6833 21.7886 11.0535 21.7073C11.4236 21.617 11.9608 21.5177 12.6649 21.4094L12.9764 21.3688L14.7233 21.125C14.6601 20.4931 14.4389 20.0101 14.0597 19.6761C13.834 19.4684 13.5587 19.3149 13.2337 19.2156C12.9177 19.1163 12.5792 19.0667 12.2181 19.0667C11.7937 19.0667 11.3965 19.1524 11.0264 19.324C10.6562 19.4865 10.3583 19.7212 10.1326 20.0281C10.0424 20.1545 9.97916 20.2493 9.94305 20.3125L9.40138 20.0552ZM12.7056 21.9781C12.0646 22.0684 11.5319 22.1677 11.1076 22.2761C10.6924 22.3844 10.3403 22.5649 10.0514 22.8177C9.76249 23.0705 9.61805 23.4181 9.61805 23.8604C9.61805 24.2938 9.77604 24.682 10.092 25.025C10.408 25.359 10.7917 25.5622 11.243 25.6344C11.3875 25.6524 11.5003 25.6615 11.5816 25.6615C12.1142 25.6615 12.6424 25.517 13.166 25.2281C13.6896 24.9302 14.0823 24.5556 14.3441 24.1042C14.5427 23.7431 14.6646 23.4045 14.7097 23.0886C14.7549 22.7726 14.7774 22.3076 14.7774 21.6938L12.7056 21.9781Z" fill="#3F4349"/>
<path d="M1.65212 21.2063V26H1.08337V16.25H1.65212V20.6375H4.68546L7.54275 16.25H8.21983L5.1865 20.9219L8.47712 26H7.80004L4.68546 21.2063H1.65212Z" fill="#3F4349"/>
<path d="M0 61C0 58.7909 1.79086 57 4 57H47C49.2091 57 51 58.7909 51 61C51 63.2091 49.2091 65 47 65H4C1.79086 65 0 63.2091 0 61Z" fill="#D5DCE2"/>
<path d="M0 101C0 98.7909 1.79086 97 4 97H38C40.2091 97 42 98.7909 42 101C42 103.209 40.2091 105 38 105H4C1.79086 105 0 103.209 0 101Z" fill="#D5DCE2"/>
<path d="M95 61C95 58.7909 96.7909 57 99 57H169C171.209 57 173 58.7909 173 61C173 63.2091 171.209 65 169 65H99C96.7909 65 95 63.2091 95 61Z" fill="#D5DCE2"/>
<path d="M95 101C95 98.7909 96.7909 97 99 97H180C182.209 97 184 98.7909 184 101C184 103.209 182.209 105 180 105H99C96.7909 105 95 103.209 95 101Z" fill="#D5DCE2"/>
<path d="M221 61C221 58.7909 222.791 57 225 57H248C250.209 57 252 58.7909 252 61C252 63.2091 250.209 65 248 65H225C222.791 65 221 63.2091 221 61Z" fill="#D5DCE2"/>
<path d="M221 101C221 98.7909 222.791 97 225 97H252C254.209 97 256 98.7909 256 101C256 103.209 254.209 105 252 105H225C222.791 105 221 103.209 221 101Z" fill="#D5DCE2"/>
<path d="M278 61C278 58.7909 279.791 57 282 57H325C327.209 57 329 58.7909 329 61C329 63.2091 327.209 65 325 65H282C279.791 65 278 63.2091 278 61Z" fill="#D5DCE2"/>
<path d="M278 101C278 98.7909 279.791 97 282 97H316C318.209 97 320 98.7909 320 101C320 103.209 318.209 105 316 105H282C279.791 105 278 103.209 278 101Z" fill="#D5DCE2"/>
<path d="M187.303 26V23.0344H184.147L182.712 26H182.035L183.524 22.9396C183.172 22.8042 182.879 22.6146 182.644 22.3708C182.455 22.1632 182.306 21.9285 182.197 21.6667C182.089 21.4049 182.035 21.1385 182.035 20.8677C182.035 20.5878 182.089 20.317 182.197 20.0552C182.306 19.7934 182.455 19.5632 182.644 19.3646C182.843 19.1569 183.069 18.9944 183.321 18.8771C183.583 18.7507 183.845 18.6875 184.107 18.6875H187.871L187.885 26H187.303ZM187.303 22.4656V19.2562H184.134C183.935 19.2562 183.746 19.3059 183.565 19.4052C183.385 19.4955 183.222 19.6174 183.078 19.7708C182.789 20.0778 182.644 20.4434 182.644 20.8677C182.644 21.292 182.789 21.6576 183.078 21.9646C183.222 22.1181 183.385 22.2399 183.565 22.3302C183.746 22.4205 183.935 22.4656 184.134 22.4656H187.303Z" fill="#3F4349"/>
<path d="M180.545 18.6875V26H179.977V22.3031H175.291V26H174.722V18.6875H175.291V21.7344H179.977V18.6875H180.545Z" fill="#3F4349"/>
<path d="M172.827 18.6875V26H172.258V22.3031H167.572V26H167.004V18.6875H167.572V21.7344H172.258V18.6875H172.827Z" fill="#3F4349"/>
<path d="M159.296 20.0552C159.377 19.9108 159.463 19.7799 159.553 19.6625C159.86 19.2743 160.23 18.9854 160.664 18.7958C161.106 18.5972 161.589 18.4979 162.113 18.4979C162.808 18.4979 163.413 18.6424 163.927 18.9313C164.442 19.2201 164.812 19.658 165.038 20.2448C165.173 20.633 165.241 21.0257 165.241 21.4229V26H164.713V24.4021C164.532 24.709 164.306 24.9799 164.035 25.2146C163.765 25.4493 163.471 25.6389 163.155 25.7833C162.568 26.0542 162.013 26.1896 161.49 26.1896C161.038 26.1896 160.605 26.0948 160.19 25.9052C159.783 25.7066 159.472 25.4313 159.255 25.0792C159.03 24.7 158.917 24.2983 158.917 23.874C158.917 23.0976 159.251 22.5063 159.919 22.1C160.235 21.9195 160.578 21.7886 160.948 21.7073C161.318 21.617 161.855 21.5177 162.559 21.4094L162.871 21.3688L164.618 21.125C164.555 20.4931 164.333 20.0101 163.954 19.6761C163.729 19.4684 163.453 19.3149 163.128 19.2156C162.812 19.1163 162.474 19.0667 162.113 19.0667C161.688 19.0667 161.291 19.1524 160.921 19.324C160.551 19.4865 160.253 19.7212 160.027 20.0281C159.937 20.1545 159.874 20.2493 159.838 20.3125L159.296 20.0552ZM162.6 21.9781C161.959 22.0684 161.426 22.1677 161.002 22.2761C160.587 22.3844 160.235 22.5649 159.946 22.8177C159.657 23.0705 159.513 23.4181 159.513 23.8604C159.513 24.2938 159.671 24.682 159.987 25.025C160.303 25.359 160.686 25.5622 161.138 25.6344C161.282 25.6524 161.395 25.6615 161.476 25.6615C162.009 25.6615 162.537 25.517 163.06 25.2281C163.584 24.9302 163.977 24.5556 164.239 24.1042C164.437 23.7431 164.559 23.4045 164.604 23.0886C164.649 22.7726 164.672 22.3076 164.672 21.6938L162.6 21.9781Z" fill="#3F4349"/>
<path d="M155.477 18.6875C156.082 18.6875 156.57 18.8997 156.94 19.324C157.111 19.4955 157.242 19.6986 157.332 19.9333C157.423 20.1681 157.468 20.4073 157.468 20.651C157.468 20.9038 157.423 21.1476 157.332 21.3823C157.242 21.617 157.111 21.8201 156.94 21.9917C156.858 22.0819 156.764 22.1632 156.655 22.2354C156.908 22.3618 157.084 22.4747 157.183 22.574C157.382 22.7455 157.54 22.9622 157.657 23.224C157.775 23.4858 157.833 23.7521 157.833 24.0229C157.833 24.3028 157.775 24.5736 157.657 24.8354C157.549 25.0882 157.391 25.3049 157.183 25.4854C156.813 25.8285 156.317 26 155.694 26H152.01V18.6875H155.477ZM152.579 22.0594H155.477C155.883 22.0594 156.226 21.9059 156.506 21.599C156.624 21.4726 156.709 21.3281 156.764 21.1656C156.827 20.9941 156.858 20.8226 156.858 20.651C156.858 20.317 156.741 20.0101 156.506 19.7302C156.235 19.4142 155.892 19.2562 155.477 19.2562H152.579V22.0594ZM152.579 25.4312H155.694C155.929 25.4312 156.132 25.4042 156.303 25.35C156.475 25.2868 156.637 25.1875 156.791 25.0521C156.935 24.9167 157.043 24.7587 157.116 24.5781C157.188 24.3885 157.224 24.1899 157.224 23.9823C157.224 23.8017 157.183 23.6257 157.102 23.4542C157.03 23.2826 156.926 23.1337 156.791 23.0073C156.601 22.8358 156.416 22.7319 156.235 22.6958C156.055 22.6507 155.802 22.6281 155.477 22.6281H152.579V25.4312Z" fill="#3F4349"/>
<path d="M150.925 18.701L147.444 27.6656C147.201 28.3066 146.903 28.7535 146.551 29.0063C146.415 29.1056 146.266 29.1687 146.104 29.1958C145.941 29.2319 145.747 29.25 145.521 29.25L145.278 29.2365V28.6542L145.535 28.6812C145.707 28.6903 145.851 28.6813 145.968 28.6542C146.086 28.6271 146.203 28.5684 146.32 28.4781C146.474 28.3608 146.605 28.1757 146.713 27.9229C146.83 27.6701 147.061 27.0969 147.404 26.2031L144.059 18.6875H144.682L147.702 25.4583L150.315 18.701H150.925Z" fill="#3F4349"/>
<path d="M142.84 18.6875V26H142.271V22.3031H137.586V26H137.017V18.6875H137.586V21.7344H142.271V18.6875H142.84Z" fill="#3F4349"/>
<path d="M134.758 19.649C135.255 20.317 135.512 21.2153 135.53 22.3438V22.5063H129.464C129.5 23.4271 129.712 24.1493 130.1 24.6729C130.335 24.9799 130.637 25.2191 131.007 25.3906C131.378 25.5531 131.775 25.6344 132.199 25.6344C132.614 25.6344 133.007 25.5531 133.377 25.3906C133.747 25.2191 134.05 24.9799 134.284 24.6729C134.402 24.5194 134.501 24.3524 134.582 24.1719L135.124 24.4021C135.025 24.6368 134.903 24.8444 134.758 25.025C134.47 25.4042 134.099 25.6976 133.648 25.9052C133.197 26.1038 132.714 26.2031 132.199 26.2031C131.684 26.2031 131.201 26.1038 130.75 25.9052C130.308 25.6976 129.938 25.4042 129.64 25.025C129.134 24.375 128.872 23.4813 128.854 22.3438C128.872 21.2153 129.134 20.317 129.64 19.649C129.947 19.2608 130.317 18.9719 130.75 18.7823C131.192 18.5837 131.675 18.4844 132.199 18.4844C132.723 18.4844 133.201 18.5837 133.634 18.7823C134.077 18.9719 134.451 19.2608 134.758 19.649ZM130.1 20.0146C129.73 20.5111 129.522 21.1521 129.477 21.9375H134.907C134.862 21.134 134.655 20.4931 134.284 20.0146C134.059 19.7076 133.761 19.4729 133.391 19.3104C133.03 19.1389 132.646 19.0531 132.24 19.0531C131.806 19.0531 131.4 19.1344 131.021 19.2969C130.642 19.4594 130.335 19.6986 130.1 20.0146Z" fill="#3F4349"/>
<path d="M127.333 18.6875L127.36 26H126.792V20.0417L124.083 24.9979H123.46L120.766 20.0417V26H120.183V18.6875H120.766L123.772 24.226L126.778 18.6875H127.333Z" fill="#3F4349"/>
<path d="M117.153 16.3313C117.153 16.7556 116.999 17.1212 116.692 17.4282C116.394 17.7261 116.033 17.875 115.609 17.875C115.185 17.875 114.819 17.7261 114.512 17.4282C114.214 17.1212 114.065 16.7556 114.065 16.3313H114.593C114.593 16.6112 114.692 16.8504 114.891 17.049C115.09 17.2476 115.329 17.3469 115.609 17.3469C115.889 17.3469 116.128 17.2476 116.327 17.049C116.525 16.8504 116.624 16.6112 116.624 16.3313H117.153ZM118.29 26H117.721V19.6896L113.361 26H112.833V18.6875H113.402V24.998L117.762 18.6875H118.29V26Z" fill="#3F4349"/>
<path d="M105.125 20.0552C105.206 19.9108 105.292 19.7799 105.382 19.6625C105.689 19.2743 106.059 18.9854 106.493 18.7958C106.935 18.5972 107.418 18.4979 107.942 18.4979C108.637 18.4979 109.242 18.6424 109.756 18.9313C110.271 19.2201 110.641 19.658 110.867 20.2448C111.002 20.633 111.07 21.0257 111.07 21.4229V26H110.542V24.4021C110.361 24.709 110.135 24.9799 109.865 25.2146C109.594 25.4493 109.3 25.6389 108.984 25.7833C108.398 26.0542 107.842 26.1896 107.319 26.1896C106.867 26.1896 106.434 26.0948 106.019 25.9052C105.613 25.7066 105.301 25.4313 105.084 25.0792C104.859 24.7 104.746 24.2983 104.746 23.874C104.746 23.0976 105.08 22.5063 105.748 22.1C106.064 21.9195 106.407 21.7886 106.777 21.7073C107.147 21.617 107.684 21.5177 108.389 21.4094L108.7 21.3688L110.447 21.125C110.384 20.4931 110.163 20.0101 109.783 19.6761C109.558 19.4684 109.282 19.3149 108.957 19.2156C108.641 19.1163 108.303 19.0667 107.942 19.0667C107.517 19.0667 107.12 19.1524 106.75 19.324C106.38 19.4865 106.082 19.7212 105.856 20.0281C105.766 20.1545 105.703 20.2493 105.667 20.3125L105.125 20.0552ZM108.429 21.9781C107.788 22.0684 107.256 22.1677 106.831 22.2761C106.416 22.3844 106.064 22.5649 105.775 22.8177C105.486 23.0705 105.342 23.4181 105.342 23.8604C105.342 24.2938 105.5 24.682 105.816 25.025C106.132 25.359 106.515 25.5622 106.967 25.6344C107.111 25.6524 107.224 25.6615 107.305 25.6615C107.838 25.6615 108.366 25.517 108.89 25.2281C109.413 24.9302 109.806 24.5556 110.068 24.1042C110.266 23.7431 110.388 23.4045 110.433 23.0886C110.478 22.7726 110.501 22.3076 110.501 21.6938L108.429 21.9781Z" fill="#3F4349"/>
<path d="M103.125 16.25V26H102.556V22.1135H96.6521V26H96.0834V16.25H96.6521V21.5448H102.556V16.25H103.125Z" fill="#3F4349"/>
<path d="M243.602 25.4312H244.279V27.0833H243.71V26H237.468V27.0833H236.899V25.4312C237.215 25.4312 237.522 25.2913 237.82 25.0115C238.118 24.7316 238.325 24.0861 238.443 23.075L238.957 18.6875H243.602V25.4312ZM243.033 19.2562H239.458L239.011 23.1427C238.876 24.208 238.596 24.9708 238.172 25.4312H243.033V19.2562Z" fill="#3F4349"/>
<path d="M235.683 26H235.114V19.6896L230.753 26H230.225V18.6875H230.794V24.9979L235.155 18.6875H235.683V26Z" fill="#3F4349"/>
<path d="M228.34 21.7479C228.692 22.1813 228.868 22.6868 228.868 23.2646C228.868 23.5896 228.809 23.9101 228.692 24.226C228.583 24.533 228.43 24.7993 228.231 25.025C227.852 25.4493 227.383 25.7337 226.823 25.8781C226.525 25.9594 226.137 26 225.658 26H225.225H222.083V16.25H225.076H225.591C226.042 16.25 226.349 16.2771 226.511 16.3313C227.017 16.4667 227.441 16.724 227.784 17.1031C227.983 17.3108 228.136 17.559 228.245 17.8479C228.353 18.1278 228.407 18.4212 228.407 18.7281C228.407 19.1976 228.236 19.649 227.893 20.0823C227.685 20.3712 227.428 20.6104 227.121 20.8C227.617 20.9896 228.024 21.3056 228.34 21.7479ZM222.652 16.8052V20.5833H225.78C226.087 20.5833 226.39 20.5111 226.688 20.3667C226.994 20.2132 227.238 20.0056 227.419 19.7438C227.663 19.3917 227.784 18.9944 227.784 18.5521C227.784 18.1278 227.617 17.7396 227.283 17.3875C227.058 17.1528 226.836 16.9993 226.62 16.9271C226.403 16.8458 226.123 16.8052 225.78 16.8052H222.652ZM227.73 24.7271C228.082 24.3299 228.258 23.8965 228.258 23.4271C228.258 22.9215 228.123 22.4792 227.852 22.1C227.672 21.8111 227.405 21.5809 227.053 21.4094C226.701 21.2288 226.363 21.1385 226.038 21.1385H222.652V25.4313H225.225H225.821C226.281 25.4313 226.651 25.3906 226.931 25.3094C227.211 25.2191 227.477 25.025 227.73 24.7271Z" fill="#3F4349"/>
<path d="M326.579 20.0552C326.66 19.9108 326.746 19.7799 326.836 19.6625C327.143 19.2743 327.513 18.9854 327.947 18.7958C328.389 18.5972 328.872 18.4979 329.396 18.4979C330.091 18.4979 330.696 18.6424 331.21 18.9313C331.725 19.2201 332.095 19.658 332.321 20.2448C332.456 20.633 332.524 21.0257 332.524 21.4229V26H331.996V24.4021C331.815 24.709 331.589 24.9799 331.319 25.2146C331.048 25.4493 330.754 25.6389 330.438 25.7833C329.852 26.0542 329.296 26.1896 328.773 26.1896C328.321 26.1896 327.888 26.0948 327.473 25.9052C327.066 25.7066 326.755 25.4313 326.538 25.0792C326.313 24.7 326.2 24.2983 326.2 23.874C326.2 23.0976 326.534 22.5063 327.202 22.1C327.518 21.9195 327.861 21.7886 328.231 21.7073C328.601 21.617 329.138 21.5177 329.843 21.4094L330.154 21.3688L331.901 21.125C331.838 20.4931 331.616 20.0101 331.237 19.6761C331.012 19.4684 330.736 19.3149 330.411 19.2156C330.095 19.1163 329.757 19.0667 329.396 19.0667C328.971 19.0667 328.574 19.1524 328.204 19.324C327.834 19.4865 327.536 19.7212 327.31 20.0281C327.22 20.1545 327.157 20.2493 327.121 20.3125L326.579 20.0552ZM329.883 21.9781C329.242 22.0684 328.71 22.1677 328.285 22.2761C327.87 22.3844 327.518 22.5649 327.229 22.8177C326.94 23.0705 326.796 23.4181 326.796 23.8604C326.796 24.2938 326.954 24.682 327.27 25.025C327.586 25.359 327.969 25.5622 328.421 25.6344C328.565 25.6524 328.678 25.6615 328.759 25.6615C329.292 25.6615 329.82 25.517 330.344 25.2281C330.867 24.9302 331.26 24.5556 331.522 24.1042C331.72 23.7431 331.842 23.4045 331.887 23.0886C331.932 22.7726 331.955 22.3076 331.955 21.6938L329.883 21.9781Z" fill="#3F4349"/>
<path d="M323.26 22.3438L325.656 26L324.979 25.9865L322.772 22.6281H320.7V26H320.131V18.6875H320.7V22.0594H322.772L324.858 18.6875H325.535L323.26 22.3438Z" fill="#3F4349"/>
<path d="M315.3 18.9719C315.778 18.9538 316.239 19.0351 316.681 19.2156C317.132 19.3872 317.507 19.649 317.805 20.001C318.347 20.624 318.626 21.4861 318.644 22.5875C318.626 23.6799 318.347 24.5375 317.805 25.1604C317.507 25.5125 317.128 25.7743 316.667 25.9458C316.216 26.1174 315.742 26.2031 315.245 26.2031C314.776 26.2031 314.32 26.1174 313.878 25.9458C313.444 25.7653 313.083 25.5035 312.794 25.1604C312.515 24.8354 312.307 24.4517 312.172 24.0094C312.036 23.558 311.968 23.084 311.968 22.5875C311.968 21.766 311.977 21.1611 311.995 20.7729C312.014 20.3757 312.05 20.0056 312.104 19.6625C312.185 19.0938 312.339 18.5927 312.564 18.1594C312.799 17.726 313.124 17.3514 313.539 17.0354C313.945 16.7285 314.401 16.5208 314.907 16.4125C315.422 16.3042 315.99 16.25 316.613 16.25C317.01 16.25 317.511 16.2906 318.116 16.3719V16.9135C317.548 16.8233 317.047 16.7781 316.613 16.7781C315.449 16.7781 314.537 17.0128 313.878 17.4823C313.517 17.7351 313.237 18.0917 313.038 18.5521C312.849 19.0035 312.713 19.5587 312.632 20.2177C312.975 19.7844 313.363 19.4639 313.797 19.2563C314.239 19.0486 314.74 18.9538 315.3 18.9719ZM315.354 19.5406C314.929 19.5406 314.532 19.6128 314.162 19.7573C313.792 19.8927 313.485 20.1049 313.241 20.3938C312.799 20.9083 312.578 21.626 312.578 22.5469C312.578 22.9983 312.632 23.4181 312.74 23.8063C312.849 24.1854 313.016 24.5059 313.241 24.7677C313.476 25.0566 313.774 25.2733 314.135 25.4177C314.505 25.5622 314.893 25.6344 315.3 25.6344C315.715 25.6344 316.103 25.5622 316.464 25.4177C316.825 25.2733 317.123 25.0611 317.358 24.7813C317.809 24.2576 318.035 23.5264 318.035 22.5875C318.035 21.6396 317.809 20.9083 317.358 20.3938C317.123 20.1139 316.83 19.9017 316.478 19.7573C316.135 19.6128 315.76 19.5406 315.354 19.5406Z" fill="#3F4349"/>
<path d="M307.544 26.2031C307.02 26.2031 306.537 26.1038 306.095 25.9052C305.652 25.7066 305.282 25.4132 304.984 25.025C304.461 24.3479 304.199 23.4497 304.199 22.3302C304.199 21.2198 304.461 20.326 304.984 19.649C305.264 19.2788 305.63 18.9944 306.081 18.7958C306.533 18.5882 307.02 18.4844 307.544 18.4844C308.067 18.4844 308.55 18.5837 308.993 18.7823C309.444 18.9809 309.814 19.2698 310.103 19.649C310.627 20.326 310.888 21.2198 310.888 22.3302C310.888 23.4497 310.627 24.3479 310.103 25.025C309.805 25.4222 309.435 25.7201 308.993 25.9188C308.559 26.1083 308.076 26.2031 307.544 26.2031ZM309.643 24.6729C310.067 24.1222 310.279 23.3413 310.279 22.3302C310.279 21.3281 310.067 20.5517 309.643 20.001C309.408 19.6941 309.105 19.4594 308.735 19.2969C308.365 19.1344 307.968 19.0531 307.544 19.0531C307.119 19.0531 306.722 19.1344 306.352 19.2969C305.982 19.4594 305.684 19.6941 305.458 20.001C305.025 20.5698 304.808 21.3462 304.808 22.3302C304.808 23.3233 305.025 24.1042 305.458 24.6729C305.684 24.9799 305.982 25.2191 306.352 25.3906C306.722 25.5531 307.119 25.6344 307.544 25.6344C307.968 25.6344 308.365 25.5531 308.735 25.3906C309.105 25.2191 309.408 24.9799 309.643 24.6729Z" fill="#3F4349"/>
<path d="M302.34 19.6625C302.855 20.3306 303.112 21.2198 303.112 22.3302C303.112 23.4406 302.855 24.3344 302.34 25.0115C302.033 25.3997 301.659 25.6976 301.216 25.9052C300.783 26.1038 300.309 26.2031 299.794 26.2031C299.28 26.2031 298.806 26.0948 298.373 25.8781C297.948 25.6615 297.596 25.35 297.316 24.9438C297.262 24.8715 297.19 24.7542 297.1 24.5917V29.25H296.531V18.6875H297.059V20.1635C297.149 19.983 297.235 19.834 297.316 19.7167C297.605 19.3194 297.975 19.017 298.427 18.8094C298.887 18.5927 299.379 18.4844 299.903 18.4844C300.39 18.4844 300.846 18.5882 301.27 18.7958C301.695 19.0035 302.051 19.2924 302.34 19.6625ZM301.866 24.6458C302.291 24.1042 302.503 23.3323 302.503 22.3302C302.503 21.3281 302.291 20.5563 301.866 20.0146C301.632 19.7076 301.329 19.4729 300.959 19.3104C300.598 19.1389 300.21 19.0531 299.794 19.0531C299.37 19.0531 298.968 19.1344 298.589 19.2969C298.219 19.4594 297.921 19.6986 297.695 20.0146C297.271 20.5743 297.059 21.3462 297.059 22.3302C297.059 23.3233 297.271 24.0997 297.695 24.6594C297.93 24.9753 298.233 25.2191 298.603 25.3906C298.973 25.5531 299.37 25.6344 299.794 25.6344C300.21 25.6344 300.598 25.5486 300.959 25.3771C301.329 25.2056 301.632 24.9618 301.866 24.6458Z" fill="#3F4349"/>
<path d="M291.699 18.9719C292.178 18.9538 292.638 19.0351 293.08 19.2156C293.532 19.3872 293.906 19.649 294.204 20.001C294.746 20.624 295.026 21.4861 295.044 22.5875C295.026 23.6799 294.746 24.5375 294.204 25.1604C293.906 25.5125 293.527 25.7743 293.067 25.9458C292.615 26.1174 292.141 26.2031 291.645 26.2031C291.175 26.2031 290.72 26.1174 290.277 25.9458C289.844 25.7653 289.483 25.5035 289.194 25.1604C288.914 24.8354 288.706 24.4517 288.571 24.0094C288.436 23.558 288.368 23.084 288.368 22.5875C288.368 21.766 288.377 21.1611 288.395 20.7729C288.413 20.3757 288.449 20.0056 288.503 19.6625C288.584 19.0938 288.738 18.5927 288.964 18.1594C289.198 17.726 289.523 17.3514 289.939 17.0354C290.345 16.7285 290.801 16.5208 291.306 16.4125C291.821 16.3042 292.39 16.25 293.013 16.25C293.41 16.25 293.911 16.2906 294.516 16.3719V16.9135C293.947 16.8233 293.446 16.7781 293.013 16.7781C291.848 16.7781 290.936 17.0128 290.277 17.4823C289.916 17.7351 289.636 18.0917 289.438 18.5521C289.248 19.0035 289.113 19.5587 289.031 20.2177C289.374 19.7844 289.763 19.4639 290.196 19.2563C290.638 19.0486 291.139 18.9538 291.699 18.9719ZM291.753 19.5406C291.329 19.5406 290.932 19.6128 290.562 19.7573C290.191 19.8927 289.884 20.1049 289.641 20.3938C289.198 20.9083 288.977 21.626 288.977 22.5469C288.977 22.9983 289.031 23.4181 289.14 23.8063C289.248 24.1854 289.415 24.5059 289.641 24.7677C289.875 25.0566 290.173 25.2733 290.534 25.4177C290.905 25.5622 291.293 25.6344 291.699 25.6344C292.114 25.6344 292.503 25.5622 292.864 25.4177C293.225 25.2733 293.523 25.0611 293.757 24.7813C294.209 24.2576 294.434 23.5264 294.434 22.5875C294.434 21.6396 294.209 20.9083 293.757 20.3938C293.523 20.1139 293.229 19.9017 292.877 19.7573C292.534 19.6128 292.159 19.5406 291.753 19.5406Z" fill="#3F4349"/>
<path d="M282.916 26.2031C282.202 26.2031 281.557 26.0767 280.979 25.824C280.41 25.5622 279.941 25.174 279.571 24.6594C278.885 23.7566 278.542 22.5469 278.542 21.0302C278.542 19.6309 278.885 18.4844 279.571 17.5906C279.941 17.0941 280.41 16.7149 280.979 16.4531C281.548 16.1913 282.162 16.0604 282.821 16.0604C283.534 16.0604 284.189 16.1868 284.784 16.4396C285.389 16.6924 285.886 17.0761 286.274 17.5906C286.951 18.4663 287.29 19.6761 287.29 21.2198C287.29 22.6191 286.951 23.7656 286.274 24.6594C285.904 25.1649 285.43 25.5486 284.852 25.8104C284.274 26.0722 283.629 26.2031 282.916 26.2031ZM282.861 25.6344C283.466 25.6344 284.026 25.5261 284.541 25.3094C285.055 25.0837 285.47 24.7497 285.786 24.3073C286.382 23.5399 286.68 22.4476 286.68 21.0302C286.68 19.7392 286.382 18.7146 285.786 17.9563C285.479 17.532 285.073 17.207 284.568 16.9813C284.071 16.7465 283.539 16.6292 282.97 16.6292C282.374 16.6292 281.814 16.742 281.291 16.9677C280.767 17.1934 280.347 17.5229 280.031 17.9563C279.444 18.7146 279.151 19.8024 279.151 21.2198C279.151 22.5379 279.444 23.567 280.031 24.3073C280.338 24.7316 280.744 25.0611 281.25 25.2958C281.765 25.5215 282.302 25.6344 282.861 25.6344Z" fill="#3F4349"/>
<path fill-rule="evenodd" clip-rule="evenodd" d="M360 1.10429H0V0H360V1.10429Z" fill="url(#paint0_linear_1_716)"/>
<path fill-rule="evenodd" clip-rule="evenodd" d="M79 5L79 37L78 37L78 5L79 5Z" fill="url(#paint1_linear_1_716)"/>
<path fill-rule="evenodd" clip-rule="evenodd" d="M205 5L205 37L204 37L204 5L205 5Z" fill="url(#paint2_linear_1_716)"/>
<path fill-rule="evenodd" clip-rule="evenodd" d="M262 5L262 37L261 37L261 5L262 5Z" fill="url(#paint3_linear_1_716)"/>
<path fill-rule="evenodd" clip-rule="evenodd" d="M360 41.1043H0V40H360V41.1043Z" fill="url(#paint4_linear_1_716)"/>
<path fill-rule="evenodd" clip-rule="evenodd" d="M360 81.1043H0V80H360V81.1043Z" fill="url(#paint5_linear_1_716)"/>
<path fill-rule="evenodd" clip-rule="evenodd" d="M360 121.104H0V120H360V121.104Z" fill="url(#paint6_linear_1_716)"/>
<defs>
<linearGradient id="paint0_linear_1_716" x1="0" y1="1.65644" x2="360" y2="1.65644" gradientUnits="userSpaceOnUse">
<stop stop-color="#D4DBE2" stop-opacity="0"/>
<stop offset="0.535" stop-color="#D4DBE2"/>
<stop offset="1" stop-color="#D4DBE2" stop-opacity="0"/>
</linearGradient>
<linearGradient id="paint1_linear_1_716" x1="79.5" y1="37" x2="79.5" y2="5" gradientUnits="userSpaceOnUse">
<stop stop-color="#D4DBE2" stop-opacity="0"/>
<stop offset="0.535" stop-color="#D4DBE2"/>
<stop offset="1" stop-color="#D4DBE2" stop-opacity="0"/>
</linearGradient>
<linearGradient id="paint2_linear_1_716" x1="205.5" y1="37" x2="205.5" y2="5" gradientUnits="userSpaceOnUse">
<stop stop-color="#D4DBE2" stop-opacity="0"/>
<stop offset="0.535" stop-color="#D4DBE2"/>
<stop offset="1" stop-color="#D4DBE2" stop-opacity="0"/>
</linearGradient>
<linearGradient id="paint3_linear_1_716" x1="262.5" y1="37" x2="262.5" y2="5" gradientUnits="userSpaceOnUse">
<stop stop-color="#D4DBE2" stop-opacity="0"/>
<stop offset="0.535" stop-color="#D4DBE2"/>
<stop offset="1" stop-color="#D4DBE2" stop-opacity="0"/>
</linearGradient>
<linearGradient id="paint4_linear_1_716" x1="0" y1="41.6564" x2="360" y2="41.6564" gradientUnits="userSpaceOnUse">
<stop stop-color="#D4DBE2" stop-opacity="0"/>
<stop offset="0.535" stop-color="#D4DBE2"/>
<stop offset="1" stop-color="#D4DBE2" stop-opacity="0"/>
</linearGradient>
<linearGradient id="paint5_linear_1_716" x1="0" y1="81.6564" x2="360" y2="81.6564" gradientUnits="userSpaceOnUse">
<stop stop-color="#D4DBE2" stop-opacity="0"/>
<stop offset="0.535" stop-color="#D4DBE2"/>
<stop offset="1" stop-color="#D4DBE2" stop-opacity="0"/>
</linearGradient>
<linearGradient id="paint6_linear_1_716" x1="0" y1="121.656" x2="360" y2="121.656" gradientUnits="userSpaceOnUse">
<stop stop-color="#D4DBE2" stop-opacity="0"/>
<stop offset="0.535" stop-color="#D4DBE2"/>
<stop offset="1" stop-color="#D4DBE2" stop-opacity="0"/>
</linearGradient>
</defs>
</svg>
