<svg width="312" height="288" viewBox="0 0 312 288" fill="none" xmlns="http://www.w3.org/2000/svg">
<g clip-path="url(#clip0_115_397)">
<path d="M287.047 167.176C284.448 167.588 282.049 167.945 279.849 168.25C277.782 168.518 275.728 168.569 273.687 168.403C271.744 168.069 269.747 167.534 267.697 166.8C265.611 165.933 263.418 164.667 261.118 163.002L257.517 145.572C260.625 147.592 263.191 149.186 265.215 150.354C267.204 151.39 268.921 152.213 270.368 152.823C271.913 153.265 273.403 153.507 274.841 153.55C276.243 153.46 277.826 153.249 279.591 152.919C288.833 150.157 295.004 143.656 298.106 133.413C301.208 123.171 300.973 108.191 297.4 88.4723C297.318 93.4852 297.076 98.9685 296.675 104.922C296.238 110.743 295.295 116.271 293.847 121.508C292.398 126.744 290.287 131.373 287.515 135.396C284.707 139.285 280.909 141.871 276.119 143.155C275.055 143.44 274.124 143.689 273.325 143.903C272.66 144.082 271.826 144.162 270.824 144.146C264.179 144.358 259.124 142.789 255.66 139.44C252.16 135.957 249.662 131.422 248.165 125.834C246.988 121.444 246.277 116.929 246.032 112.289C245.92 107.614 245.959 102.969 246.149 98.3551C246.471 93.7057 246.776 88.9898 247.063 84.2074C247.483 79.3893 247.637 74.6425 247.525 69.967C246.454 71.8226 245.326 74.2638 244.141 77.2906C243.088 80.2818 242.033 84.0581 240.973 88.6197C239.914 93.1813 238.972 98.7097 238.145 105.205C237.319 111.701 236.796 119.327 236.576 128.084L227.218 93.161C226.736 90.2958 226.988 86.4494 227.976 81.6218C228.929 76.6611 230.4 71.7752 232.39 66.9641C234.381 62.1531 236.78 57.8028 239.588 53.9135C242.396 50.0241 245.463 47.6338 248.789 46.7426C252.514 45.7445 255.424 45.9628 257.52 47.3976C259.748 48.7967 261.326 51.2258 262.253 54.6848C263.607 59.7403 264.23 64.9919 264.121 70.4395C264.11 75.7185 263.881 80.9844 263.435 86.2372C263.06 91.7562 262.867 97.1551 262.855 102.434C262.808 107.58 263.48 112.747 264.87 117.936C266.118 122.592 268.338 124.493 271.531 123.637C277.252 122.104 280.676 114.128 281.803 99.7098C282.93 85.2912 282.84 64.9962 281.531 38.8249L300.289 33.7986L308.577 64.7303C312.142 78.0343 314.473 90.457 315.569 101.998C316.798 113.504 316.62 123.747 315.033 132.728C313.58 141.673 310.515 149.124 305.838 155.083C301.293 161.006 295.03 165.037 287.047 167.176Z" fill="white" fill-opacity="0.1"/>
<path d="M170.742 99.5242C171.954 104.048 175.304 108.568 180.793 113.087C186.379 117.436 194.218 121.681 204.31 125.821C225.099 134.225 237.169 144.679 240.52 157.185C241.589 161.176 241.749 164.698 240.998 167.751C240.381 170.769 239.173 173.445 237.375 175.781C235.576 178.116 233.254 180.093 230.408 181.711C227.66 183.16 224.622 184.331 221.296 185.222C210.52 188.109 199.878 188.038 189.369 185.007C178.861 181.977 168.972 176.998 159.701 170.071L150.076 134.15C153.124 138.609 157.273 142.916 162.521 147.071C167.867 151.057 173.523 154.604 179.489 157.711C185.419 160.685 191.153 162.927 196.691 164.437C202.362 165.912 207.078 166.217 210.839 165.352C216.258 163.757 218.45 161.031 217.417 157.173C216.953 155.443 215.771 153.693 213.87 151.92C211.969 150.148 209.634 148.35 206.864 146.526C204.226 144.666 201.305 142.81 198.1 140.96C194.895 139.11 191.726 137.392 188.592 135.808L184.344 133.524C180.367 131.452 176.487 129.212 172.704 126.804C168.922 124.395 165.388 121.849 162.102 119.164C158.913 116.311 156.106 113.285 153.68 110.085C151.352 106.716 149.688 103.169 148.69 99.4441C147.799 96.1181 147.56 92.8313 147.973 89.5836C148.519 86.3002 149.638 83.2912 151.329 80.5566C153.118 77.6532 155.382 75.1929 158.121 73.1757C160.957 70.9897 164.238 69.3977 167.963 68.3996C171.023 67.5797 174.226 67.2919 177.571 67.5363C181.049 67.7451 184.435 68.4064 187.727 69.5204C190.985 70.5013 194.065 71.8861 196.968 73.6748C200.005 75.4279 202.629 77.5053 204.841 79.907L199.708 60.7492L217.269 56.0437L230.316 104.736L215.813 118.461L215.011 115.468C213.322 112.356 211.029 109.12 208.132 105.761C205.333 102.233 202.14 99.0962 198.552 96.3502C195.098 93.5684 191.471 91.4745 187.672 90.0684C183.838 88.5292 180.058 88.2587 176.333 89.2569C173.805 89.9342 172.107 91.3158 171.24 93.4018C170.373 95.4878 170.207 97.5286 170.742 99.5242Z" fill="white" fill-opacity="0.1"/>
<path d="M109.593 215.367C104.936 216.614 100.731 216.885 96.9774 216.18C93.188 215.342 89.7703 213.762 86.7244 211.441C83.8115 209.085 81.2882 206.054 79.1544 202.348C77.0207 198.642 75.3478 194.527 74.1358 190.004C72.7811 184.948 72.4339 180.193 73.094 175.738C73.7184 171.151 75.1684 166.984 77.4441 163.237C79.8528 159.454 83.0562 156.243 87.0544 153.603C91.017 150.831 95.7255 148.713 101.18 147.252C107.566 145.541 114.575 145.089 122.206 145.896C122.158 143.057 121.799 139.588 121.128 135.49C120.458 131.392 119.553 127.214 118.412 122.957C117.77 120.562 116.947 118.287 115.942 116.133C115.07 113.942 114.021 112.156 112.795 110.773C111.533 109.258 110.094 108.146 108.479 107.438C106.996 106.695 105.324 106.572 103.461 107.071C97.3412 108.711 92.033 113.912 87.5364 122.674C83.0399 131.437 78.5828 143.539 74.1652 158.982L66.8395 131.642C68.9248 124.524 71.1266 118.373 73.4449 113.189C75.7632 108.005 78.362 103.601 81.2411 99.9781C84.0845 96.2218 87.2749 93.2281 90.8123 90.9969C94.3496 88.7658 98.3134 87.062 102.704 85.8856C107.36 84.638 111.521 84.735 115.187 86.1768C118.853 87.6186 122.099 89.8859 124.924 92.9789C127.749 96.0719 130.118 99.8575 132.031 104.336C134.041 108.645 135.652 113.062 136.864 117.585C138.432 123.439 139.651 129.315 140.518 135.214C141.519 141.077 141.871 146.116 141.574 150.331C143.998 151.393 146.39 152.605 148.752 153.969C151.211 155.164 153.559 156.744 155.798 158.711L162.375 183.257C158.849 180.209 154.573 177.291 149.548 174.502C144.488 171.581 139.201 169.147 133.689 167.202C128.275 165.088 122.888 163.608 117.528 162.763C112.301 161.882 107.759 161.958 103.901 162.992C100.442 163.919 97.6573 165.235 95.5477 166.941C93.4026 168.514 91.7634 170.379 90.6304 172.537C89.6304 174.658 89.0164 176.89 88.7886 179.233C88.6937 181.54 88.9493 183.824 89.5553 186.086C90.5178 189.678 92.3664 192.32 95.101 194.011C97.9687 195.667 101.199 196.013 104.791 195.051C111.709 193.197 116.46 189.642 119.044 184.387C121.629 179.132 122.708 172.782 122.282 165.339C125.202 166.125 128.175 167.111 131.202 168.296C134.229 169.481 137.442 170.83 140.842 172.344C141.061 177.418 140.375 182.308 138.784 187.012C137.325 191.68 135.108 195.91 132.131 199.702C129.288 203.459 125.885 206.723 121.922 209.496C118.093 212.233 113.983 214.19 109.593 215.367Z" fill="white" fill-opacity="0.1"/>
<path d="M25.1677 174.895C25.6025 174.921 26.7511 174.685 28.6137 174.186C31.2745 173.473 33.9436 172.258 36.6209 170.543C39.2982 168.827 41.0039 166.944 41.7378 164.894C39.8823 163.823 37.7345 163.258 35.2946 163.198C32.9877 163.104 30.8365 163.323 28.8409 163.858C26.5792 164.464 24.3936 165.62 22.2841 167.326C20.1745 169.032 18.305 171.102 16.6754 173.535C14.4659 173.271 11.95 172.662 9.12747 171.707C6.43802 170.717 4.04552 169.504 1.94997 168.069C4.6413 163.213 7.98128 159.181 11.9699 155.973C16.0916 152.73 20.6137 150.449 25.5361 149.13C31.1238 147.633 36.6866 147.639 42.2247 149.15C47.7627 150.66 52.6464 153.986 56.8757 159.127C57.5008 162.524 57.3229 165.851 56.342 169.109C55.3254 172.233 53.6876 175.167 51.4285 177.911C49.3024 180.62 46.6703 183.036 43.5321 185.16C40.3582 187.152 36.9087 188.646 33.1836 189.644C29.3255 190.678 25.4269 191.295 21.4879 191.495C17.5489 191.695 13.7999 191.273 10.2409 190.231C9.09132 193.391 8.63779 196.221 8.88034 198.723C9.08723 201.092 9.51151 203.473 10.1532 205.868C11.7573 211.855 15.3201 216.105 20.8416 218.618C26.3275 220.998 32.5294 221.261 39.4475 219.407C42.3744 218.623 45.1278 217.458 47.7077 215.911C50.2877 214.364 52.4103 212.441 54.0755 210.141C55.8381 207.672 57.0103 204.863 57.5921 201.712C58.1382 198.429 57.8588 194.725 56.7537 190.601C56.5754 189.936 56.3794 189.204 56.1655 188.406C55.9159 187.475 55.5512 186.645 55.0712 185.918L72.3546 182.571L82.7816 221.485L66.6173 225.816L64.3715 217.435C62.2741 221.847 58.845 225.546 54.0842 228.533C49.3234 231.519 44.0161 233.797 38.1624 235.366C32.9738 236.756 27.8731 237.41 22.8603 237.327C17.8118 237.111 13.2015 236.136 9.02951 234.402C4.95491 232.5 1.38509 229.82 -1.67994 226.364C-4.74497 222.907 -6.99045 218.518 -8.41636 213.197C-10.0205 207.21 -10.6612 201.892 -10.3385 197.242C-9.91845 192.424 -8.54447 187.707 -6.21662 183.091C-11.3485 179.903 -15.1144 176.492 -17.5143 172.857C-19.8167 169.053 -21.7165 164.358 -23.2137 158.77C-24.5327 153.848 -24.8978 149.026 -24.309 144.305C-23.7559 139.452 -22.395 134.952 -20.2262 130.806C-18.0575 126.66 -15.0941 123.086 -11.3359 120.082C-7.48027 116.91 -2.9582 114.629 2.23035 113.239C6.62066 112.062 10.4705 111.53 13.78 111.641C17.0894 111.753 20.0224 112.321 22.5788 113.348C25.1352 114.374 27.3151 115.857 29.1185 117.798C31.0192 119.57 32.8404 121.578 34.5821 123.82C34.7221 122.214 34.7908 120.342 34.7883 118.204C34.9187 116.03 35.0183 114.007 35.0871 112.135C35.1202 110.13 35.1093 108.493 35.0546 107.224C35.0972 105.787 35.1007 105.002 35.0651 104.869L50.8303 100.644L52.6724 138.65L29.6657 141.393C26.8477 136.73 23.4239 133.797 19.3945 132.595C15.4982 131.358 11.6209 131.256 7.76277 132.29C4.70285 133.11 2.05161 134.39 -0.190959 136.132C-2.30049 137.838 -4.037 139.872 -5.40049 142.233C-6.66658 144.426 -7.51096 146.863 -7.93361 149.543C-8.25888 152.054 -8.06503 154.64 -7.35207 157.301C-6.42522 160.76 -4.85578 163.69 -2.64374 166.092C-0.431698 168.493 2.15687 170.438 5.12195 171.925C8.05139 173.279 11.2421 174.277 14.6942 174.921C18.2436 175.396 21.7348 175.387 25.1677 174.895Z" fill="white" fill-opacity="0.1"/>
</g>
<defs>
<clipPath id="clip0_115_397">
<rect width="312" height="288" rx="16" fill="white"/>
</clipPath>
</defs>
</svg>
