<svg width="312" height="288" viewBox="0 0 312 288" fill="none" xmlns="http://www.w3.org/2000/svg">
<g clip-path="url(#clip0_115_455)">
<path d="M271.182 17.4433L298.637 10.0869L325.776 178.786L291.526 187.963L255.148 70.6851L282.556 190.367L248.305 199.544L187.459 39.8767L214.642 32.5931L259.303 179.699C254.907 161.843 251.026 144.82 247.659 128.63C244.473 112.391 242.184 98.0491 240.791 85.6031C239.35 72.976 239.042 62.7645 239.866 54.9687C240.872 47.1242 243.368 42.6679 247.355 41.5996C251.342 40.5314 255.732 43.1425 260.525 49.4331C265.318 55.7237 270.248 64.697 275.313 76.353C280.33 87.8278 285.428 101.417 290.607 117.122C295.968 132.778 301.208 149.437 306.329 167.099L271.182 17.4433Z" fill="white" fill-opacity="0.05"/>
<path d="M136.877 52.2653C145.757 49.886 153.902 49.84 161.313 52.1273C168.857 54.1848 175.496 57.9413 181.231 63.3969C187.147 68.8039 192.152 75.5233 196.246 83.5549C200.473 91.3568 203.777 99.6976 206.156 108.577C208.924 118.907 210.569 130.12 211.091 142.216C211.745 154.083 210.641 165.547 207.778 176.608C205.048 187.44 200.34 197.053 193.655 205.448C187.151 213.794 178.1 219.521 166.502 222.629C157.623 225.008 149.502 225.145 142.139 223.039C134.729 220.752 128.065 216.905 122.149 211.498C116.414 206.042 111.433 199.413 107.206 191.611C103.16 183.761 99.9721 175.486 97.6414 166.788C94.8736 156.459 93.1381 145.27 92.4348 133.222C91.9128 121.125 93.0169 109.661 95.7473 98.8299C98.429 87.8172 103.022 78.1376 109.526 69.7911C116.162 61.2149 125.279 55.3729 136.877 52.2653ZM177.406 124.147C175.755 117.986 173.627 111.855 171.021 105.755C168.597 99.6068 165.684 94.172 162.282 89.4508C158.881 84.7296 154.907 81.133 150.36 78.661C145.945 75.9593 140.971 75.1555 135.438 76.2498C130.244 78.6126 126.563 82.9978 124.396 89.4055C122.361 95.5834 121.203 102.497 120.922 110.148C120.774 117.568 121.242 125.115 122.327 132.787C123.544 140.23 124.808 146.398 126.119 151.291C127.722 157.271 129.826 163.311 132.431 169.411C135.037 175.511 138.041 180.921 141.442 185.643C145.025 190.315 149.023 194.002 153.438 196.704C157.803 199.225 162.662 199.962 168.015 198.916C172.979 196.421 176.478 192.084 178.513 185.906C180.681 179.499 181.839 172.585 181.987 165.164C182.268 157.514 181.915 150.034 180.927 142.724C179.891 135.232 178.717 129.04 177.406 124.147Z" fill="white" fill-opacity="0.05"/>
<path d="M85.054 226.389L51.5377 76.2968L72.1965 70.7613L116.189 234.945L70.7942 247.108L38.0847 165.265L50.7519 252.77L5.35684 264.933L-38.7088 100.478L-16.6908 94.5786L28.514 241.539L7.07278 123.464L45.4003 113.194L85.054 226.389Z" fill="white" fill-opacity="0.05"/>
</g>
<defs>
<clipPath id="clip0_115_455">
<rect width="312" height="288" rx="16" fill="white"/>
</clipPath>
</defs>
</svg>
